<svg width="24" height="24" viewBox="0 0 24 24" fill="none" xmlns="http://www.w3.org/2000/svg">
<path fill-rule="evenodd" clip-rule="evenodd" d="M17 13.6379L16.9996 6.93705C16.7232 6.11101 15.2759 3.99902 12 3.99902C8.72401 3.99902 7.27621 6.11108 6.99963 6.93699L7.00004 13.6375L5.32073 15.999H18.68L17 13.6379ZM4.99962 6.68649C5.31212 5.124 7.50003 1.99902 12 1.99902C16.5 1.99902 18.6871 5.124 18.9996 6.68649L19 12.9989L20.8159 15.5511C20.9363 15.7204 21.001 15.9231 21.001 16.1309V16.999C21.001 17.5513 20.5533 17.999 20.001 17.999H4C3.44772 17.999 3 17.5513 3 16.999V16.1307C3 15.923 3.06468 15.7205 3.18505 15.5512L5 12.9989L4.99962 6.68649Z" fill="white"/>
<path d="M14.8293 19.999H9.17071C9.58254 21.1642 10.6938 21.999 12 21.999C13.3062 21.999 14.4175 21.1642 14.8293 19.999Z" fill="white"/>
</svg>
