<svg width="24" height="24" viewBox="0 0 24 24" fill="none" xmlns="http://www.w3.org/2000/svg">
<path d="M19.5514 19.8578C19.5514 20.581 18.9766 21.1673 18.2675 21.1673C17.5584 21.1673 16.9835 20.581 16.9835 19.8578C16.9835 19.1346 17.5584 18.5483 18.2675 18.5483C18.9766 18.5483 19.5514 19.1346 19.5514 19.8578Z" fill="white"/>
<path d="M13.1317 21.1673C13.8408 21.1673 14.4156 20.581 14.4156 19.8578C14.4156 19.1346 13.8408 18.5483 13.1317 18.5483C12.4226 18.5483 11.8477 19.1346 11.8477 19.8578C11.8477 20.581 12.4226 21.1673 13.1317 21.1673Z" fill="white"/>
<path d="M7.3494 4.58398H5V2.83398H7.63798C8.15505 2.83398 8.48174 3.18479 8.61956 3.35837C8.78478 3.56647 8.90988 3.81306 9.00167 4.0256C9.17947 4.43731 9.30798 4.90104 9.36587 5.20013L9.5552 5.89648H16.1161V7.64648H9.99071L11.7385 15.084L19.8198 15.084L20.2524 12.0208H22L21.5325 15.3315C21.4107 16.1936 20.6808 16.834 19.8198 16.834H11.7385C10.9372 16.834 10.2407 16.2773 10.0554 15.4887L8.05793 6.98875L7.67854 5.59338L7.67174 5.55581C7.63963 5.37846 7.54391 5.02157 7.41634 4.72618C7.39215 4.67016 7.3696 4.62296 7.3494 4.58398Z" fill="white"/>
<path d="M22 5.9V3.80078H20.25V5.9H18.25V7.65H20.25V9.80078H22V7.65H24V5.9H22Z" fill="white"/>
<path d="M3.14634 14C2.66861 14 2.28134 14.3873 2.28134 14.865C2.28134 15.3427 2.66861 15.73 3.14634 15.73H7.41634C7.89407 15.73 8.28134 15.3427 8.28134 14.865C8.28134 14.3873 7.89407 14 7.41634 14H3.14634Z" fill="white"/>
<path d="M0.865 10C0.387274 10 0 10.3873 0 10.865C0 11.3427 0.387274 11.73 0.865 11.73H4.135C4.61273 11.73 5 11.3427 5 10.865C5 10.3873 4.61273 10 4.135 10H0.865Z" fill="white"/>
</svg>
