<svg width="24" height="24" viewBox="0 0 24 24" fill="none" xmlns="http://www.w3.org/2000/svg">
<path fill-rule="evenodd" clip-rule="evenodd" d="M8.26533 4.71429C8.28484 4.75246 8.30662 4.7987 8.32999 4.85358C8.45321 5.14294 8.54566 5.49255 8.57668 5.66628L8.58325 5.70308L8.94969 7.06998L10.879 15.3965C11.058 16.169 11.7307 16.7143 12.5047 16.7143H20.3103C21.1418 16.7143 21.8469 16.087 21.9645 15.2424L22.979 7.95672C23.1228 6.92398 22.3417 6 21.3248 6H10.3959L10.213 5.31786C10.1571 5.02487 10.033 4.5706 9.86123 4.1673C9.77257 3.9591 9.65174 3.71754 9.49215 3.51369C9.35904 3.34365 9.0435 3 8.54407 3H5.99609V4.71429H8.26533ZM10.8165 7.71429H21.3248L20.3103 15L12.5047 15L10.8165 7.71429Z" fill="white"/>
<path fill-rule="evenodd" clip-rule="evenodd" d="M20.1994 19.7143C20.1994 20.4244 19.6383 21 18.9462 21C18.254 21 17.6929 20.4244 17.6929 19.7143C17.6929 19.0042 18.254 18.4286 18.9462 18.4286C19.6383 18.4286 20.1994 19.0042 20.1994 19.7143Z" fill="white"/>
<path fill-rule="evenodd" clip-rule="evenodd" d="M13.9332 21C14.6254 21 15.1865 20.4244 15.1865 19.7143C15.1865 19.0042 14.6254 18.4286 13.9332 18.4286C13.2411 18.4286 12.68 19.0042 12.68 19.7143C12.68 20.4244 13.2411 21 13.9332 21Z" fill="white"/>
<path fill-rule="evenodd" clip-rule="evenodd" d="M4.14243 15H8.41244C8.89016 15 9.27744 15.3873 9.27744 15.865C9.27744 16.3427 8.89016 16.73 8.41244 16.73H4.14243C3.66471 16.73 3.27743 16.3427 3.27743 15.865C3.27743 15.3873 3.66471 15 4.14243 15Z" fill="white"/>
<path fill-rule="evenodd" clip-rule="evenodd" d="M1.86109 11C1.38337 11 0.996094 11.3873 0.996094 11.865C0.996094 12.3427 1.38337 12.73 1.86109 12.73H5.13109C5.60882 12.73 5.99609 12.3427 5.99609 11.865C5.99609 11.3873 5.60882 11 5.13109 11H1.86109Z" fill="white"/>
</svg>
