<svg width="24" height="24" viewBox="0 0 24 24" fill="none" xmlns="http://www.w3.org/2000/svg">
<path fill-rule="evenodd" clip-rule="evenodd" d="M4.03621 3.90476H1.5V2H4.34773C4.90592 2 5.25858 2.38183 5.40736 2.57076C5.58572 2.79727 5.72076 3.06566 5.81985 3.297C6.0118 3.74511 6.15052 4.24986 6.21301 4.5754L6.41739 5.33333H18.6321C19.7686 5.33333 20.6416 6.35998 20.4809 7.50747L19.347 15.6027C19.2156 16.5411 18.4276 17.2381 17.4982 17.2381H8.7743C7.90926 17.2381 7.15743 16.6322 6.95737 15.7738L4.80107 6.5222L4.39152 5.00343L4.38418 4.96253C4.34952 4.7695 4.24619 4.38104 4.10847 4.05953C4.08235 3.99856 4.05801 3.94718 4.03621 3.90476ZM6.88753 7.2381L8.7743 15.3333L17.4982 15.3333L18.6321 7.2381H6.88753Z" fill="white"/>
<path d="M17.3743 20.5714C17.3743 21.3604 16.7472 22 15.9736 22C15.2 22 14.5729 21.3604 14.5729 20.5714C14.5729 19.7825 15.2 19.1429 15.9736 19.1429C16.7472 19.1429 17.3743 19.7825 17.3743 20.5714Z" fill="white"/>
<path d="M10.3709 22C11.1445 22 11.7716 21.3604 11.7716 20.5714C11.7716 19.7825 11.1445 19.1429 10.3709 19.1429C9.59736 19.1429 8.97025 19.7825 8.97025 20.5714C8.97025 21.3604 9.59736 22 10.3709 22Z" fill="white"/>
</svg>
