<svg width="104" height="24" viewBox="0 0 104 24" fill="none" xmlns="http://www.w3.org/2000/svg">
<g clip-path="url(#clip0_5575_143318)">
<path fill-rule="evenodd" clip-rule="evenodd" d="M2 12.0005C2 6.48049 6.48 2.00049 12 2.00049C17.52 2.00049 22 6.48049 22 12.0005C22 17.5205 17.52 22.0005 12 22.0005C6.48 22.0005 2 17.5205 2 12.0005ZM7.39844 8.60101L10.7974 12L7.39844 15.3989L8.60052 16.601L11.9995 13.202L15.3984 16.601L16.6005 15.3989L13.2016 12L16.6005 8.60101L15.3984 7.39893L11.9995 10.7979L8.60052 7.39893L7.39844 8.60101Z" fill="white"/>
<path fill-rule="evenodd" clip-rule="evenodd" d="M44 12.0005C44 7.58449 47.584 4.00049 52 4.00049C56.416 4.00049 60 7.58449 60 12.0005C60 16.4165 56.416 20.0005 52 20.0005C47.584 20.0005 44 16.4165 44 12.0005ZM48.3188 9.28091L51.0379 12.0001L48.3188 14.7192L49.2804 15.6809L51.9996 12.9617L54.7188 15.6809L55.6804 14.7192L52.9613 12.0001L55.6804 9.28091L54.7188 8.31924L51.9996 11.0384L49.2804 8.31924L48.3188 9.28091Z" fill="white"/>
<path d="M91.9991 1.99951C86.4769 1.99951 81.9991 6.47729 81.9991 11.9995C81.9991 17.5217 86.4658 21.9995 91.9991 21.9995C97.5214 21.9995 101.999 17.5217 101.999 11.9995C101.999 6.47729 97.5214 1.99951 91.9991 1.99951ZM91.9991 19.9995C87.6991 19.9995 83.9991 16.2995 83.9991 11.9995C83.9991 7.69951 87.6991 3.99951 91.9991 3.99951C96.2991 3.99951 99.9991 7.69951 99.9991 11.9995C99.9991 16.2995 96.2991 19.9995 91.9991 19.9995Z" fill="white"/>
<path d="M87.3976 8.60101L90.7965 12L87.3976 15.3989L88.5997 16.601L91.9986 13.202L95.3976 16.601L96.5997 15.3989L93.2007 12L96.5997 8.60101L95.3976 7.39893L91.9986 10.7979L88.5997 7.39893L87.3976 8.60101Z" fill="white"/>
</g>
<defs>
<clipPath id="clip0_5575_143318">
<rect width="104" height="24" rx="5" fill="white"/>
</clipPath>
</defs>
</svg>
