<svg width="24" height="24" viewBox="0 0 24 24" fill="none" xmlns="http://www.w3.org/2000/svg">
<path d="M15.9987 9V19H7.99866V9H15.9987ZM14.2098 3.10557C14.0709 3.03615 13.9178 3 13.7626 3H10.2347C10.0795 3 9.92637 3.03615 9.78751 3.10557L8.2098 3.89443C8.07095 3.96385 7.91783 4 7.76259 4H5.99866C5.44637 4 4.99866 4.44772 4.99866 5C4.99866 5.55228 5.44637 6 5.99866 6H17.9987C18.5509 6 18.9987 5.55228 18.9987 5C18.9987 4.44772 18.5509 4 17.9987 4H16.2347C16.0795 4 15.9264 3.96385 15.7875 3.89443L14.2098 3.10557ZM17.9987 7H5.99866V18.8899C5.99866 20.051 6.96294 21.001 8.14151 21.001H15.8558C17.0344 21.001 17.9987 20.051 17.9987 18.8899V7Z" fill="white"/>
</svg>
