<svg width="24" height="24" viewBox="0 0 24 24" fill="none" xmlns="http://www.w3.org/2000/svg">
<path fill-rule="evenodd" clip-rule="evenodd" d="M15.8 3.2862C16.2562 3.09725 16.7451 3 17.2388 3C17.7326 3 18.2215 3.09725 18.6777 3.2862C19.1338 3.47515 19.5483 3.7521 19.8974 4.10123C20.2466 4.45036 20.5235 4.86484 20.7125 5.32101C20.9014 5.77718 20.9987 6.26609 20.9987 6.75984C20.9987 7.25358 20.9014 7.7425 20.7125 8.19866C20.5235 8.65483 20.2466 9.06931 19.8974 9.41844L18.917 10.3988C18.9165 10.3994 18.9159 10.4 18.9154 10.4005C18.9148 10.4011 18.9142 10.4017 18.9137 10.4022L8.6035 20.7124C8.41932 20.8965 8.16953 21 7.90906 21H3.98074C3.43835 21 2.99866 20.5603 2.99866 20.0179V16.0896C2.99866 15.8291 3.10213 15.5793 3.2863 15.3952L14.5802 4.10123C14.9294 3.7521 15.3438 3.47515 15.8 3.2862ZM14.2926 7.16663L4.96282 16.4964V19.0358H7.50227L16.832 9.70609L14.2926 7.16663ZM18.2209 8.31721L15.6815 5.77775L15.9691 5.49011C16.1358 5.32336 16.3338 5.1911 16.5517 5.10086C16.7695 5.01061 17.003 4.96417 17.2388 4.96417C17.4746 4.96417 17.7081 5.01061 17.926 5.10086C18.1439 5.1911 18.3418 5.32336 18.5086 5.49011C18.6753 5.65685 18.8076 5.85481 18.8978 6.07266C18.9881 6.29052 19.0345 6.52402 19.0345 6.75984C19.0345 6.99565 18.9881 7.22915 18.8978 7.44701C18.8076 7.66487 18.6753 7.86282 18.5086 8.02957L18.2209 8.31721Z" fill="white"/>
</svg>
