<svg width="24" height="24" viewBox="0 0 24 24" fill="none" xmlns="http://www.w3.org/2000/svg">
<path fill-rule="evenodd" clip-rule="evenodd" d="M3.5 3.86441C3.5 3.38701 3.88739 3 4.36527 3H19.6347C20.1126 3 20.5 3.38701 20.5 3.86441V5.94329C20.4998 6.67904 20.2083 7.38547 19.6885 7.9067C19.6885 7.90673 19.6886 7.90667 19.6885 7.9067L15.7283 11.8785V18.2213C15.7283 18.593 15.4904 18.9231 15.1376 19.0411L9.41156 20.9553C9.14763 21.0435 8.85733 20.9996 8.63146 20.8371C8.40558 20.6747 8.27171 20.4136 8.27171 20.1356V12.3332L4.22015 7.86348C3.75655 7.35195 3.50007 6.68607 3.5 5.99602V3.86441ZM5.23054 4.72881V5.99584C5.23054 5.99581 5.23054 5.99587 5.23054 5.99584C5.23059 6.25788 5.328 6.51003 5.50291 6.70305C5.50289 6.70303 5.50292 6.70307 5.50291 6.70305L9.77836 11.4198C9.92245 11.5787 10.0022 11.7855 10.0022 12V18.9348L13.9978 17.5991V11.5214C13.9978 11.2928 14.0885 11.0734 14.25 10.9114L18.4625 6.68664C18.6585 6.4901 18.7694 6.22273 18.7695 5.94329C18.7695 5.94323 18.7695 5.94335 18.7695 5.94329V4.72881H5.23054Z" fill="white"/>
</svg>
