<svg width="24" height="24" viewBox="0 0 24 24" fill="none" xmlns="http://www.w3.org/2000/svg">
<path fill-rule="evenodd" clip-rule="evenodd" d="M10.9987 10.9971V3.99707H6C4.61929 3.99707 3.99866 4.61929 3.99866 6V10.9971H10.9987ZM10.9987 12.9941L3.99866 12.9971V18.0029C3.99866 19.3836 4.61929 19.9971 6 19.9971H10.9987V12.9941ZM12.9987 19.9941V12.9941H19.9987V17.9971C19.9987 19.3778 19.3807 19.9971 18 19.9971L12.9987 19.9941ZM6 22C3.79086 22 2 20.2091 2 18V6C2 3.79086 3.79086 2 6 2H18C20.2091 2 22 3.79086 22 6V18C22 20.2091 20.2091 22 18 22H6ZM19.9987 10.9971H12.9987V3.99707H18C19.3807 3.99707 19.9987 4.61929 19.9987 6V10.9971Z" fill="white"/>
</svg>
