<svg width="24" height="24" viewBox="0 0 24 24" fill="none" xmlns="http://www.w3.org/2000/svg">
<path fill-rule="evenodd" clip-rule="evenodd" d="M13.9987 19.9971L14.0833 3.99707H9.99866L9.91398 19.9971H13.9987ZM6 22C3.79086 22 2 20.2091 2 18V6C2 3.79086 3.79086 2 6 2H18C20.2091 2 22 3.79086 22 6V18C22 20.2091 20.2091 22 18 22H6ZM16.0833 3.99707H18C19.3807 3.99707 19.9987 4.61636 19.9987 5.99707V17.9971C19.9987 19.3778 19.296 19.9971 17.9153 19.9971H15.9987L16.0833 3.99707ZM7.91667 19.9971H6C4.61929 19.9971 3.99866 19.3778 3.99866 17.9971V5.99707C3.99866 4.61636 4.61929 3.99707 6 3.99707H7.91667L7.91667 19.9971Z" fill="white"/>
</svg>
