<svg width="22" height="22" viewBox="0 0 22 22" fill="none" xmlns="http://www.w3.org/2000/svg">
<path fill-rule="evenodd" clip-rule="evenodd" d="M1.79688 16.1969C1.79688 18.1851 3.40865 19.7969 5.39687 19.7969H16.1969C18.1851 19.7969 19.7969 18.1851 19.7969 16.1969V5.39688C19.7969 3.40865 18.1851 1.79688 16.1969 1.79688H5.39688C5.27261 1.79688 5.14982 1.80317 5.0288 1.81546C3.21347 1.99982 1.79688 3.53291 1.79688 5.39687V16.1969ZM12.6143 14.4719L12.5957 17.9942H8.91946L8.9381 14.4719L12.6143 14.4719ZM14.4143 14.4719L14.3957 17.9942H16.1207C17.269 17.9942 17.8962 17.5183 17.9847 16.4654C17.9911 16.3797 17.9942 16.2902 17.9942 16.1969V14.4719H14.4143ZM8.99565 3.59808H12.6719L12.653 7.16982L8.97685 7.15036L8.99565 3.59808ZM3.8455 4.26584C4.12022 3.81042 4.62641 3.59808 5.39424 3.59808H7.12188L7.12188 7.14054L3.59567 7.12188V5.39424C3.59567 4.92112 3.67664 4.54735 3.8455 4.26584ZM3.59567 12.5981V8.92188L7.12188 8.94054L7.12188 12.6168L3.59567 12.5981ZM3.59567 14.4719V16.1942C3.59567 17.4369 4.15424 17.9942 5.39688 17.9942H7.12188L7.12188 14.4719H3.59567ZM8.94787 12.6264L12.624 12.6459L12.6434 8.96977L8.96732 8.95031L8.94787 12.6264ZM14.4434 8.97929L14.4239 12.6554L17.9942 12.6743V8.99808L14.4434 8.97929ZM14.4529 7.17934L17.9942 7.19808V5.47308C17.9942 4.23044 17.4369 3.59808 16.1942 3.59808H14.4719L14.4529 7.17934Z" fill="white"/>
</svg>
