<svg width="24" height="24" viewBox="0 0 24 24" fill="none" xmlns="http://www.w3.org/2000/svg">
<path d="M22 7.99893C21.9998 7.82046 21.9519 7.64529 21.8611 7.4916C21.7704 7.33792 21.6402 7.21131 21.484 7.12493L12.462 2.12493C12.3138 2.04299 12.1473 2 11.978 2C11.8087 2 11.6422 2.04299 11.494 2.12493L2.516 7.08493C2.36004 7.1713 2.23 7.29778 2.13935 7.4513C2.0487 7.60481 2.00073 7.77977 2.00043 7.95805C2.00012 8.13633 2.04748 8.31145 2.13761 8.46528C2.22773 8.6191 2.35734 8.74603 2.513 8.83293L11.535 13.8729C11.6837 13.9559 11.8511 13.9996 12.0214 13.9998C12.1917 13.9999 12.3592 13.9566 12.508 13.8739L21.486 8.87393C21.642 8.78721 21.7719 8.66034 21.8622 8.50648C21.9526 8.35262 22.0002 8.17737 22 7.99893ZM12.023 11.8539L5.06 7.96493L11.977 4.14293L18.941 8.00193L12.023 11.8539Z" fill="white"/>
<path d="M20.515 11.1259L12 15.8559L3.485 11.1259L2.514 12.8739L11.514 17.8739C11.6625 17.9564 11.8296 17.9997 11.9995 17.9997C12.1694 17.9997 12.3365 17.9564 12.485 17.8739L21.485 12.8739L20.515 11.1259Z" fill="white"/>
<path d="M20.515 15.1259L12 19.8559L3.485 15.1259L2.514 16.8739L11.514 21.8739C11.6625 21.9564 11.8296 21.9997 11.9995 21.9997C12.1694 21.9997 12.3365 21.9564 12.485 21.8739L21.485 16.8739L20.515 15.1259Z" fill="white"/>
</svg>
