<svg width="24" height="24" viewBox="0 0 24 24" fill="none" xmlns="http://www.w3.org/2000/svg">
<path d="M8.62555 13.9582L13.9574 8.62631C14.0504 8.53332 14.1608 8.45955 14.2823 8.40923C14.4038 8.3589 14.534 8.33299 14.6655 8.33299C14.7971 8.33299 14.9273 8.3589 15.0488 8.40923C15.1703 8.45955 15.2807 8.53332 15.3737 8.62631C15.4667 8.71931 15.5404 8.82971 15.5908 8.95121C15.6411 9.07271 15.667 9.20294 15.667 9.33445C15.667 9.46596 15.6411 9.59619 15.5908 9.71769C15.5404 9.8392 15.4667 9.94959 15.3737 10.0426L10.0418 15.3744C9.85402 15.5623 9.59929 15.6678 9.33369 15.6678C9.06809 15.6678 8.81336 15.5623 8.62555 15.3744C8.43774 15.1866 8.33223 14.9319 8.33223 14.6663C8.33223 14.4007 8.43774 14.146 8.62555 13.9582ZM19.5392 4.4608C18.6009 3.52457 17.3295 2.99878 16.0039 2.99878C14.6784 2.99878 13.407 3.52457 12.4687 4.4608L9.95935 6.96761C9.77154 7.15542 9.66603 7.41014 9.66603 7.67574C9.66603 7.94135 9.77154 8.19607 9.95935 8.38388C10.1472 8.57169 10.4019 8.6772 10.6675 8.6772C10.9331 8.6772 11.1878 8.57169 11.3756 8.38388L13.8808 5.87957C14.1593 5.60098 14.49 5.37997 14.854 5.22917C15.2179 5.07837 15.608 5.00074 16.002 5.0007C16.3959 5.00066 16.786 5.07822 17.15 5.22894C17.514 5.37967 17.8447 5.60061 18.1233 5.87916C18.4019 6.1577 18.6229 6.48839 18.7737 6.85235C18.9245 7.21631 19.0022 7.6064 19.0022 8.00036C19.0023 8.39432 18.9247 8.78443 18.774 9.14841C18.6232 9.5124 18.4023 9.84313 18.1238 10.1217L15.6153 12.6252C15.4275 12.813 15.322 13.0677 15.322 13.3333C15.322 13.5989 15.4275 13.8537 15.6153 14.0415C15.8031 14.2293 16.0578 14.3348 16.3234 14.3348C16.589 14.3348 16.8437 14.2293 17.0316 14.0415L19.5375 11.5372C20.4742 10.5983 21.0001 9.32599 20.9996 7.99972C20.9992 6.67345 20.4724 5.40156 19.535 4.4633L19.5392 4.4608ZM12.6261 15.6144L10.121 18.1204C9.84237 18.3989 9.51164 18.6198 9.14765 18.7706C8.78367 18.9213 8.39356 18.9988 7.9996 18.9988C7.60564 18.9988 7.21554 18.9211 6.85159 18.7703C6.48763 18.6195 6.15694 18.3985 5.8784 18.1199C5.31585 17.5573 4.99986 16.7942 4.99994 15.9986C5.00002 15.2029 5.31616 14.4399 5.87881 13.8774L8.38312 11.3722C8.47611 11.2792 8.54988 11.1688 8.60021 11.0473C8.65054 10.9258 8.67644 10.7956 8.67644 10.6641C8.67644 10.5326 8.65054 10.4023 8.60021 10.2808C8.54988 10.1593 8.47611 10.0489 8.38312 9.95595C8.29013 9.86295 8.17973 9.78919 8.05822 9.73886C7.93672 9.68853 7.8065 9.66263 7.67498 9.66263C7.54347 9.66263 7.41324 9.68853 7.29174 9.73886C7.17024 9.78919 7.05984 9.86295 6.96685 9.95595L4.4642 12.4636C3.52659 13.4013 2.99989 14.6731 2.99997 15.9992C3.00005 17.3252 3.5269 18.5969 4.46462 19.5345C5.40234 20.4722 6.67413 20.9989 8.00019 20.9988C9.32625 20.9987 10.598 20.4718 11.5356 19.5341L14.0399 17.029C14.2277 16.8412 14.3332 16.5865 14.3332 16.3209C14.3332 16.0552 14.2277 15.8005 14.0399 15.6127C13.8521 15.4249 13.5974 15.3194 13.3317 15.3194C13.0661 15.3194 12.8114 15.4249 12.6236 15.6127L12.6261 15.6144Z" fill="white"/>
</svg>
