<svg width="24" height="24" viewBox="0 0 24 24" fill="none" xmlns="http://www.w3.org/2000/svg">
<path d="M17.2686 3C17.7459 3.00005 18.2036 3.18982 18.5411 3.52734C18.8786 3.86486 19.0684 4.32249 19.0684 4.7998V19.2002C19.0684 19.6775 18.8786 20.1351 18.5411 20.4727C18.2036 20.8102 17.7459 20.9999 17.2686 21H9.16803C8.69078 20.9999 8.23304 20.8101 7.89557 20.4727C7.55811 20.1351 7.36828 19.6775 7.36823 19.2002V17.4004H9.16803V19.2002H17.2686V4.7998H9.16803V6.59961H7.36823V4.7998C7.36828 4.32253 7.55811 3.86485 7.89557 3.52734C8.23304 3.18987 8.69078 3.0001 9.16803 3H17.2686Z" fill="white"/>
<path d="M14.5704 12L10.0704 16.5L8.80084 15.2305L11.1231 12.9004H2.41998V11.0996H11.1231L8.80084 8.76953L10.0704 7.5L14.5704 12Z" fill="white"/>
</svg>
