<svg width="24" height="24" viewBox="0 0 24 24" fill="none" xmlns="http://www.w3.org/2000/svg">
<path d="M10 19.0005C10 18.4701 10.2107 17.9613 10.5858 17.5863C10.9609 17.2112 11.4696 17.0005 12 17.0005C12.5304 17.0005 13.0391 17.2112 13.4142 17.5863C13.7893 17.9613 14 18.4701 14 19.0005C14 19.5309 13.7893 20.0396 13.4142 20.4147C13.0391 20.7898 12.5304 21.0005 12 21.0005C11.4696 21.0005 10.9609 20.7898 10.5858 20.4147C10.2107 20.0396 10 19.5309 10 19.0005ZM10 12.0005C10 11.4701 10.2107 10.9613 10.5858 10.5863C10.9609 10.2112 11.4696 10.0005 12 10.0005C12.5304 10.0005 13.0391 10.2112 13.4142 10.5863C13.7893 10.9613 14 11.4701 14 12.0005C14 12.5309 13.7893 13.0396 13.4142 13.4147C13.0391 13.7898 12.5304 14.0005 12 14.0005C11.4696 14.0005 10.9609 13.7898 10.5858 13.4147C10.2107 13.0396 10 12.5309 10 12.0005ZM10 5.00049C10 4.47006 10.2107 3.96135 10.5858 3.58628C10.9609 3.2112 11.4696 3.00049 12 3.00049C12.5304 3.00049 13.0391 3.2112 13.4142 3.58628C13.7893 3.96135 14 4.47006 14 5.00049C14 5.53092 13.7893 6.03963 13.4142 6.4147C13.0391 6.78977 12.5304 7.00049 12 7.00049C11.4696 7.00049 10.9609 6.78977 10.5858 6.4147C10.2107 6.03963 10 5.53092 10 5.00049Z" fill="white"/>
</svg>
