<svg width="24" height="24" viewBox="0 0 24 24" fill="none" xmlns="http://www.w3.org/2000/svg">
<path d="M17.494 16.1715L21.5 20.1765L20.1765 21.5L16.1715 17.494C14.6813 18.6887 12.8278 19.3384 10.9178 19.3357C6.27119 19.3357 2.5 15.5645 2.5 10.9178C2.5 6.27119 6.27119 2.5 10.9178 2.5C15.5645 2.5 19.3357 6.27119 19.3357 10.9178C19.3384 12.8278 18.6887 14.6813 17.494 16.1715ZM15.6178 15.4775C16.8046 14.2566 17.4674 12.6205 17.465 10.9178C17.465 7.30097 14.5347 4.37063 10.9178 4.37063C7.30097 4.37063 4.37063 7.30097 4.37063 10.9178C4.37063 14.5347 7.30097 17.465 10.9178 17.465C12.6205 17.4674 14.2566 16.8046 15.4775 15.6178L15.6178 15.4775Z" fill="white"/>
</svg>
