<svg width="24" height="24" viewBox="0 0 24 24" fill="none" xmlns="http://www.w3.org/2000/svg">
<path d="M8.86703 13.2672C9.05779 12.8856 9.16545 12.455 9.16545 11.9998C9.16545 11.5446 9.05779 11.114 8.86703 10.7324M8.86703 13.2672C8.58154 13.8379 8.11171 14.2956 7.53365 14.566C6.95558 14.8364 6.30315 14.9038 5.68204 14.7571C5.06093 14.6104 4.50754 14.2584 4.1115 13.7579C3.71547 13.2575 3.5 12.638 3.5 11.9998C3.5 11.3616 3.71547 10.7421 4.1115 10.2417C4.50754 9.74121 5.06093 9.38914 5.68204 9.24247C6.30315 9.0958 6.95558 9.16314 7.53365 9.43356C8.11171 9.70398 8.58154 10.1617 8.86703 10.7324M8.86703 13.2672L15.1302 16.3987M8.86703 10.7324L15.1302 7.60085M15.1302 16.3987C14.7941 17.071 14.7387 17.8492 14.9764 18.5622C15.2141 19.2753 15.7253 19.8647 16.3975 20.2008C17.0698 20.5369 17.848 20.5922 18.5611 20.3546C19.2741 20.1169 19.8635 19.6057 20.1996 18.9335C20.5358 18.2612 20.5911 17.483 20.3534 16.7699C20.1157 16.0569 19.6045 15.4675 18.9323 15.1314C18.5994 14.9649 18.237 14.8657 17.8658 14.8393C17.4946 14.8129 17.1218 14.8599 16.7687 14.9776C16.0557 15.2153 15.4663 15.7265 15.1302 16.3987ZM15.1302 7.60085C15.2966 7.93365 15.527 8.23042 15.8081 8.4742C16.0892 8.71797 16.4156 8.904 16.7686 9.02164C17.1216 9.13928 17.4943 9.18624 17.8655 9.15983C18.2367 9.13343 18.599 9.03417 18.9318 8.86774C19.2646 8.70131 19.5614 8.47096 19.8051 8.18983C20.0489 7.90871 20.2349 7.58233 20.3526 7.22932C20.4702 6.8763 20.5172 6.50358 20.4908 6.13242C20.4644 5.76125 20.3651 5.39893 20.1987 5.06613C19.8626 4.394 19.2732 3.88293 18.5603 3.64534C17.8473 3.40775 17.0692 3.46311 16.3971 3.79924C15.7249 4.13536 15.2139 4.72472 14.9763 5.43766C14.7387 6.1506 14.7941 6.92873 15.1302 7.60085Z" stroke="white" stroke-width="1.7" stroke-linecap="round" stroke-linejoin="round"/>
</svg>
