<svg width="104" height="24" viewBox="0 0 104 24" fill="none" xmlns="http://www.w3.org/2000/svg">
<g clip-path="url(#clip0_2739_179262)">
<path fill-rule="evenodd" clip-rule="evenodd" d="M2 11.9995C2 6.47729 6.47778 1.99951 12 1.99951C17.5222 1.99951 22 6.47729 22 11.9995C22 17.5217 17.5222 21.9995 12 21.9995C6.46667 21.9995 2 17.5217 2 11.9995ZM16.4995 10.3109L10.9726 15.4209L7.5 12.2102L8.86949 10.944L10.9726 12.8433L15.13 8.99951L16.4995 10.3109Z" fill="white"/>
<path d="M52 1.99951C46.4778 1.99951 42 6.47729 42 11.9995C42 17.5217 46.4667 21.9995 52 21.9995C57.5222 21.9995 62 17.5217 62 11.9995C62 6.47729 57.5222 1.99951 52 1.99951ZM52 19.9995C47.7 19.9995 44 16.2995 44 11.9995C44 7.69951 47.7 3.99951 52 3.99951C56.3 3.99951 60 7.69951 60 11.9995C60 16.2995 56.3 19.9995 52 19.9995Z" fill="white"/>
<path d="M50.9726 15.4209L56.4995 10.3109L55.13 8.99951L50.9726 12.8433L48.8695 10.944L47.5 12.2102L50.9726 15.4209Z" fill="white"/>
<path fill-rule="evenodd" clip-rule="evenodd" d="M91.9987 20.0066C90.4151 20.0066 88.8671 19.537 87.5504 18.6572C86.2338 17.7775 85.2075 16.527 84.6015 15.064C83.9955 13.601 83.837 11.9911 84.1459 10.438C84.4549 8.88487 85.2174 7.45823 86.3371 6.33849C87.4569 5.21875 88.8835 4.4562 90.4367 4.14726C91.9898 3.83832 93.5996 3.99688 95.0626 4.60288C96.5257 5.20888 97.7761 6.2351 98.6559 7.55178C99.5357 8.86846 100.005 10.4164 100.005 12H101.999C101.999 11.3249 101.93 10.655 101.797 10C101.539 8.736 101.037 7.52748 100.313 6.4443C99.2145 4.79981 97.6528 3.51809 95.8255 2.76121C93.9982 2.00433 91.9876 1.8063 90.0478 2.19215C88.1079 2.578 86.3261 3.53041 84.9276 4.92894C83.5291 6.32746 82.5767 8.10929 82.1908 10.0491C81.805 11.9889 82.003 13.9996 82.7599 15.8268C83.5167 17.6541 84.7985 19.2159 86.443 20.3147C87.5261 21.0385 88.7347 21.5399 89.9987 21.798C90.6537 21.9317 91.3236 22 91.9987 22V20.0066Z" fill="white"/>
<path d="M91.2428 15.1104L96.7697 10.0004L95.4002 8.68899L91.2428 12.5328L89.1396 10.6335L87.7702 11.8997L91.2428 15.1104Z" fill="white"/>
</g>
<defs>
<clipPath id="clip0_2739_179262">
<rect width="104.001" height="24.0014" rx="5" fill="white"/>
</clipPath>
</defs>
</svg>
