<svg width="120" height="24" viewBox="0 0 120 24" fill="none" xmlns="http://www.w3.org/2000/svg">
<g clip-path="url(#clip0_13527_95709)">
<path d="M6.88714 10.1049L10.1054 7.47181V16.5273L6.88714 13.8942H3.47411V10.1049H6.88714ZM2.52679 15.7889H6.21082L11.2264 19.8925C11.311 19.9617 11.417 19.9995 11.5263 19.9995C11.7879 19.9995 12 19.7875 12 19.5259V4.47319C12 4.36385 11.9622 4.25787 11.893 4.17324C11.7273 3.97078 11.4289 3.94094 11.2264 4.10659L6.21082 8.21026H2.52679C2.0036 8.21026 1.57947 8.63438 1.57947 9.15758V14.8415C1.57947 15.3647 2.0036 15.7889 2.52679 15.7889ZM22.4205 11.9995C22.4205 15.1181 21.0506 17.9167 18.8796 19.8264L17.5366 18.4833C19.3662 16.9196 20.5259 14.5949 20.5259 11.9995C20.5259 9.40397 19.3662 7.07936 17.5366 5.5156L18.8796 4.17251C21.0506 6.0822 22.4205 8.88085 22.4205 11.9995ZM17.6839 11.9995C17.6839 10.1885 16.837 8.57536 15.5177 7.53449L14.1639 8.88832C15.1463 9.57296 15.7893 10.7111 15.7893 11.9995C15.7893 13.2878 15.1463 14.4259 14.1639 15.1106L15.5177 16.4644C16.837 15.4236 17.6839 13.8104 17.6839 11.9995Z" fill="white"/>
<path d="M60.9737 7.47181L57.7555 10.1049H54.3425V13.8942H57.7555L60.9737 16.5273V7.47181ZM57.0792 15.7889H53.3951C52.8719 15.7889 52.4478 15.3647 52.4478 14.8415V9.15758C52.4478 8.63438 52.8719 8.21026 53.3951 8.21026H57.0792L62.0948 4.10659C62.2972 3.94094 62.5956 3.97078 62.7613 4.17324C62.8306 4.25787 62.8684 4.36385 62.8684 4.47319V19.5259C62.8684 19.7875 62.6562 19.9995 62.3947 19.9995C62.2854 19.9995 62.1794 19.9617 62.0948 19.8925L57.0792 15.7889ZM66.5279 16.3487L65.1809 15.0016C66.079 14.3087 66.6576 13.2217 66.6576 11.9996C66.6576 10.6445 65.9465 9.45569 64.877 8.78584L66.2398 7.42302C67.6425 8.45807 68.5523 10.1225 68.5523 11.9996C68.5523 13.7446 67.7658 15.3061 66.5279 16.3487Z" fill="white"/>
<path d="M106.13 7.47181L102.912 10.1049H99.4991V13.8942H102.912L106.13 16.5273V7.47181ZM102.236 15.7889H98.5518C98.0286 15.7889 97.6045 15.3647 97.6045 14.8415V9.15758C97.6045 8.63438 98.0286 8.21026 98.5518 8.21026H102.236L107.251 4.10659C107.454 3.94094 107.752 3.97078 107.918 4.17324C107.987 4.25787 108.025 4.36385 108.025 4.47319V19.5259C108.025 19.7875 107.813 19.9995 107.551 19.9995C107.442 19.9995 107.336 19.9617 107.251 19.8925L102.236 15.7889ZM115.996 11.9996L119.345 15.3488L118.006 16.6885L114.656 13.3393L111.307 16.6885L109.967 15.3488L113.317 11.9996L109.967 8.65026L111.307 7.31054L114.656 10.6599L118.006 7.31054L119.345 8.65026L115.996 11.9996Z" fill="white"/>
</g>
<defs>
<clipPath id="clip0_13527_95709">
<rect width="120" height="24" fill="white"/>
</clipPath>
</defs>
</svg>
