<svg width="24" height="24" viewBox="0 0 24 24" fill="none" xmlns="http://www.w3.org/2000/svg">
<path d="M12 22.9976C18.0751 22.9976 23 18.0727 23 11.9976C23 5.92243 18.0751 0.997559 12 0.997559C5.92487 0.997559 1 5.92243 1 11.9976C1 18.0727 5.92487 22.9976 12 22.9976Z" fill="#F0F0F0"/>
<path d="M19.6976 4.14046C17.7136 2.19656 14.9969 0.997559 12 0.997559C11.0435 0.997559 8.2451 2.19656 6.26119 4.14046H19.6976Z" fill="#6DA544"/>
<path d="M12.0003 10.4262H22.8881C22.7294 9.31649 22.4052 8.26031 21.9411 7.28329H11.5221L12.0003 10.4262Z" fill="#6DA544"/>
<path d="M2.05954 16.7119H21.9411C22.4052 15.7349 22.7294 14.6786 22.8881 13.569H1.11256C1.27132 14.6787 1.59535 15.7349 2.05954 16.7119Z" fill="#6DA544"/>
<path d="M4.30298 19.8547C6.28698 21.7986 9.00306 22.9976 12 22.9976C14.9969 22.9976 17.7137 21.7986 19.6977 19.8547H4.30298Z" fill="#6DA544"/>
<path d="M12 0.997559C6.45849 0.997559 1.87484 5.09553 1.11223 10.4261L12.0003 10.4262L12 0.997559Z" fill="#D80027"/>
<path d="M6.50024 9.4311L6.022 8.47462V6.56156L7.21765 5.60503L8.4133 6.56156V7.99633L8.89154 7.51809V8.47462L7.93501 9.4311H6.50024Z" fill="#F0F0F0"/>
<path d="M3.92793 6.49775L4.05456 6.88747H4.46431L4.1328 7.1284L4.25947 7.51808L3.92793 7.2772L3.59638 7.51808L3.72305 7.1284L3.39155 6.88747H3.8013L3.92793 6.49775Z" fill="#F0F0F0"/>
<path d="M4.88447 5.54123L5.01109 5.93096H5.42089L5.08934 6.17188L5.21597 6.56157L4.88447 6.32073L4.55296 6.56157L4.67963 6.17188L4.34809 5.93096H4.75779L4.88447 5.54123Z" fill="#F0F0F0"/>
<path d="M5.84098 4.58469L5.96761 4.97442H6.37732L6.04586 5.21535L6.17244 5.60503L5.84098 5.36419L5.50944 5.60503L5.63606 5.21535L5.3046 4.97442H5.71431L5.84098 4.58469Z" fill="#F0F0F0"/>
<path d="M10.5073 6.49775L10.3807 6.88747H9.97101L10.3025 7.1284L10.1758 7.51808L10.5073 7.2772L10.8389 7.51808L10.7123 7.1284L11.0437 6.88747H10.634L10.5073 6.49775Z" fill="#F0F0F0"/>
<path d="M9.55081 5.54123L9.42418 5.93096H9.01448L9.34594 6.17188L9.21931 6.56157L9.55081 6.32073L9.88236 6.56157L9.75569 6.17188L10.0872 5.93096H9.67748L9.55081 5.54123Z" fill="#F0F0F0"/>
<path d="M8.59434 4.58469L8.46767 4.97442H8.05796L8.38942 5.21535L8.26279 5.60503L8.59434 5.36419L8.92584 5.60503L8.79921 5.21535L9.13068 4.97442H8.72097L8.59434 4.58469Z" fill="#F0F0F0"/>
<path d="M7.21766 4.10646L7.09099 4.49618H6.68128L7.01274 4.73707L6.88611 5.12675L7.21766 4.88591L7.54916 5.12675L7.42254 4.73707L7.754 4.49618H7.34429L7.21766 4.10646Z" fill="#F0F0F0"/>
</svg>
