<svg width="24" height="24" viewBox="0 0 24 24" fill="none" xmlns="http://www.w3.org/2000/svg">
<path d="M16.7826 2.08905C15.3364 1.38978 13.714 0.997559 12 0.997559C10.286 0.997559 8.66356 1.38978 7.21741 2.08905L6.26088 11.9976L7.21741 21.9061C8.66356 22.6053 10.286 22.9976 12 22.9976C13.714 22.9976 15.3364 22.6053 16.7826 21.9061L17.7391 11.9976L16.7826 2.08905Z" fill="#D80027"/>
<path d="M7.21741 2.08905C3.53799 3.86826 1 7.63654 1 11.9976C1 16.3586 3.53799 20.1269 7.21741 21.9061V2.08905Z" fill="black"/>
<path d="M16.7826 2.08905V21.9061C20.462 20.1269 23 16.3586 23 11.9976C23 7.63654 20.462 3.86826 16.7826 2.08905Z" fill="#496E2D"/>
<path d="M12 8.17149C9.88688 8.17149 8.17393 9.88449 8.17393 11.9976C8.17393 14.1106 9.88692 15.8236 12 15.8236C14.1131 15.8236 15.8261 14.1106 15.8261 11.9976C15.8261 9.88449 14.1131 8.17149 12 8.17149ZM12 14.3889C10.6793 14.3889 9.6087 13.3182 9.6087 11.9976C9.6087 10.6769 10.6794 9.60626 12 9.60626C13.3206 9.60626 14.3913 10.6769 14.3913 11.9976C14.3913 13.3182 13.3207 14.3889 12 14.3889Z" fill="#FFDA44"/>
<path d="M12 10.5627C11.4717 10.5627 11.0434 10.991 11.0434 11.5193V12.954H12.9565V11.5193C12.9565 10.991 12.5283 10.5627 12 10.5627Z" fill="#FFDA44"/>
</svg>
