<svg width="24" height="24" viewBox="0 0 24 24" fill="none" xmlns="http://www.w3.org/2000/svg">
<path d="M12 22.9976C18.0751 22.9976 23 18.0727 23 11.9976C23 5.92243 18.0751 0.997559 12 0.997559C5.92487 0.997559 1 5.92243 1 11.9976C1 18.0727 5.92487 22.9976 12 22.9976Z" fill="#D80027"/>
<path d="M18.2174 9.16201H14.2331C14.479 8.90445 14.6304 8.55576 14.6304 8.17149C14.6304 7.3791 13.988 6.73672 13.1956 6.73672C12.6964 6.73672 12.257 6.99178 12 7.37854C11.743 6.99178 11.3035 6.73672 10.8043 6.73672C10.012 6.73672 9.36957 7.3791 9.36957 8.17149C9.36957 8.55576 9.52095 8.90449 9.7669 9.16201H5.78262C5.78262 10.2186 6.70289 11.075 7.75936 11.075H7.69559C7.69559 12.1316 8.55209 12.9881 9.60869 12.9881C9.60869 13.3303 9.69888 13.6511 9.85632 13.9289L8.26948 15.5157L9.48696 16.7331L11.214 15.0062C11.2816 15.031 11.3516 15.0509 11.4239 15.0644L10.3803 17.4206L12 19.1715L13.6197 17.4205L12.5761 15.0643C12.6484 15.0508 12.7184 15.0309 12.786 15.0061L14.513 16.7331L15.7305 15.5156L14.1436 13.9287C14.3011 13.651 14.3913 13.3302 14.3913 12.988C15.4478 12.988 16.3043 12.1315 16.3043 11.0749H16.2406C17.2971 11.075 18.2174 10.2186 18.2174 9.16201Z" fill="black"/>
</svg>
