<svg width="24" height="24" viewBox="0 0 24 24" fill="none" xmlns="http://www.w3.org/2000/svg">
<path d="M12 0.997559C18.0751 0.997559 23 5.92246 23 11.9976C23 18.0727 18.0751 22.9976 12 22.9976C12 22.5193 10.5652 11.9976 10.5652 11.9976L12 0.997559Z" fill="#F0F0F0"/>
<path d="M12 22.9976C5.92492 22.9976 1 18.0727 1 11.9976C1 5.92246 5.92492 0.997559 12 0.997559" fill="#496E2D"/>
<path d="M14.3631 9.88752L13.4606 11.1313L11.9989 10.6572L12.9029 11.8999L12.0005 13.1436L13.4616 12.6679L14.3656 13.9105L14.3646 12.3739L15.8258 11.8982L14.3642 11.4242L14.3631 9.88752Z" fill="#D80027"/>
<path d="M12.9122 15.1062C11.1954 15.1062 9.80353 13.7143 9.80353 11.9975C9.80353 10.2806 11.1954 8.88876 12.9122 8.88876C13.4475 8.88876 13.9513 9.02411 14.391 9.26242C13.7011 8.58776 12.7577 8.17135 11.7166 8.17135C9.60347 8.17135 7.89052 9.88435 7.89052 11.9974C7.89052 14.1105 9.60351 15.8235 11.7166 15.8235C12.7577 15.8235 13.7011 15.4071 14.391 14.7324C13.9513 14.9708 13.4475 15.1062 12.9122 15.1062Z" fill="#D80027"/>
</svg>
