<svg width="24" height="24" viewBox="0 0 24 24" fill="none" xmlns="http://www.w3.org/2000/svg">
<path d="M12 22.9976C18.0751 22.9976 23 18.0727 23 11.9976C23 5.92243 18.0751 0.997559 12 0.997559C5.92487 0.997559 1 5.92243 1 11.9976C1 18.0727 5.92487 22.9976 12 22.9976Z" fill="#F0F0F0"/>
<path d="M17.3365 2.37737C15.756 1.49875 13.9366 0.997559 12 0.997559C5.92534 0.997559 1.00077 5.92169 1 11.9963L8.65218 8.17149L17.3365 2.37737Z" fill="#0052B4"/>
<path d="M1 11.9988C1.00077 18.0734 5.92534 22.9976 12 22.9976C13.9366 22.9976 15.756 22.4965 17.3365 21.6177L8.65218 15.8236L1 11.9988Z" fill="#0052B4"/>
<path d="M18.2532 2.94758C17.9578 2.74309 17.652 2.55273 17.3365 2.37737L1 11.9963V11.9976C1 11.9976 1 11.9985 1 11.9988L17.3365 21.6177C17.652 21.4423 17.9578 21.252 18.2533 21.0475L2.88298 11.9976L18.2532 2.94758Z" fill="#D80027"/>
<path d="M20.1304 11.5873H18.8201C19.1608 11.1783 19.1398 10.5697 18.756 10.186C19.1625 9.77943 19.1625 9.12024 18.756 8.71363L18.7315 8.73821C19.138 8.33168 19.1625 7.64792 18.756 7.24139L12.8668 13.1305C13.2734 13.5371 13.921 13.5323 14.3276 13.1257L14.4409 13.0221L17.2609 12.7658V13.9786H18.2174V12.6788L19.6522 12.5484L20.1304 11.5873Z" fill="#A2001D"/>
<path d="M12.9569 14.3889L12 13.9106L12.9569 13.4323H19.1742V14.3889H12.9569Z" fill="#FFDA44"/>
</svg>
