<svg width="24" height="24" viewBox="0 0 24 24" fill="none" xmlns="http://www.w3.org/2000/svg">
<path d="M7.21739 21.9061C8.66355 22.6053 10.2859 22.9976 12 22.9976C13.7141 22.9976 15.3364 22.6053 16.7826 21.9061L17.7391 11.9976L16.7826 2.08905C15.3364 1.38978 13.7141 0.997559 12 0.997559C10.2859 0.997559 8.66355 1.38978 7.21739 2.08905L6.26086 11.9976L7.21739 21.9061Z" fill="#FFDA44"/>
<path d="M16.7826 21.9061C20.462 20.1269 23 16.3586 23 11.9976C23 7.63654 20.462 3.86821 16.7826 2.08905V21.9061Z" fill="#D80027"/>
<path d="M7.21739 21.9061V2.08905C3.53793 3.86821 1 7.63649 1 11.9976C1 16.3586 3.53793 20.1269 7.21739 21.9061Z" fill="#0052B4"/>
<path d="M12.0004 15.8235C12.0004 14.0682 12.0004 11.9975 12.0004 11.9975H14.87V13.4322C14.87 13.6815 14.3917 14.5949 13.2112 15.3453C12.7641 15.6296 12.3013 15.721 12.0004 15.8235Z" fill="#D80027"/>
<path d="M9.13078 9.12788H12.0004L12.0004 11.9975L9.13078 11.9975V9.12788Z" fill="#D80027"/>
<path d="M13.4348 8.17148C13.4348 7.64318 13.0065 7.21496 12.4783 7.21496C12.3038 7.21496 12.1408 7.26239 12 7.34395C11.8592 7.26239 11.6962 7.21496 11.5218 7.21496C10.9935 7.21496 10.5652 7.64318 10.5652 8.17148H8.17394V12.954C8.17394 14.7345 9.58787 15.7641 10.6967 16.2979C10.6137 16.4396 10.5652 16.6041 10.5652 16.7802C10.5652 17.3085 10.9935 17.7367 11.5218 17.7367C11.6962 17.7367 11.8592 17.6893 12 17.6077C12.1408 17.6893 12.3038 17.7367 12.4783 17.7367C13.0065 17.7367 13.4348 17.3085 13.4348 16.7802C13.4348 16.6041 13.3863 16.4396 13.3033 16.2979C14.4121 15.7641 15.8261 14.7345 15.8261 12.954V8.17148H13.4348ZM14.3913 12.954C14.3913 13.2033 14.3913 13.9617 13.2109 14.7122C12.7637 14.9965 12.301 15.1808 12 15.2833C11.6991 15.1808 11.2363 14.9965 10.7891 14.7122C9.60871 13.9617 9.60871 13.2033 9.60871 12.954V9.60625H14.3913V12.954Z" fill="#FF9811"/>
</svg>
