<svg width="24" height="24" viewBox="0 0 24 24" fill="none" xmlns="http://www.w3.org/2000/svg">
<path d="M1 11.9976C1 5.92246 5.92491 0.997559 12 0.997559C18.0751 0.997559 23 5.92246 23 11.9976C22.5218 11.9976 12 13.4323 12 13.4323L1 11.9976Z" fill="#D80027"/>
<path d="M23 11.9976C23 18.0727 18.0751 22.9976 12 22.9976C5.92491 22.9976 1 18.0727 1 11.9976" fill="black"/>
<path d="M10.4914 9.74658L11.4239 10.4233L11.0685 11.5194L12.0004 10.8415L12.933 11.5183L12.5762 10.4226L13.508 9.74478L12.3558 9.74547L11.999 8.64981L11.6436 9.74585L10.4914 9.74658Z" fill="#FFDA44"/>
<path d="M14.7497 7.23449C13.8829 6.73404 12.9351 6.49784 11.9997 6.49947V7.93394C12.6911 7.93269 13.3915 8.10714 14.0323 8.47711C15.9735 9.5979 16.641 12.0891 15.5202 14.0303C14.3994 15.9715 11.9083 16.6391 9.96702 15.5183C9.40147 15.1917 8.94493 14.7484 8.60839 14.2368L7.4106 15.0276C7.86594 15.7197 8.48451 16.319 9.24966 16.7608C11.8761 18.2771 15.2464 17.374 16.7627 14.7476C18.2791 12.1212 17.3761 8.75086 14.7497 7.23449Z" fill="#FFDA44"/>
<path d="M8.82814 11.0411C8.44787 11.7363 8.70319 12.6082 9.39834 12.9884L14.0583 15.5348C13.7414 16.114 13.9097 16.8191 14.4889 17.136L15.7477 17.8246C16.327 18.1415 17.0536 17.9287 17.3705 17.3494L18.0591 16.0907L8.82814 11.0411Z" fill="#FFDA44"/>
</svg>
