<svg width="24" height="24" viewBox="0 0 24 24" fill="none" xmlns="http://www.w3.org/2000/svg">
<path d="M23 11.9976C23 18.0727 18.0751 22.9976 12 22.9976C5.92491 22.9976 1 18.0727 1 11.9976C1 12.0002 12 0.998762 12 0.997559C18.0751 0.997559 23 5.92246 23 11.9976Z" fill="#0052B4"/>
<path d="M11.9706 11.9976H12C12 11.9877 12 11.978 12 11.9681C11.9902 11.978 11.9804 11.9878 11.9706 11.9976Z" fill="#F0F0F0"/>
<path d="M12 6.73668C12 4.80115 12 3.53293 12 0.997559C11.9993 0.997559 11.9988 0.997559 11.9982 0.997559C5.92383 0.99859 1 5.92302 1 11.9976H6.73912V8.76584L9.97084 11.9976L11.9706 11.9976C11.9804 11.9878 11.9902 11.978 12 11.9681C12 11.227 12 10.5658 12 9.96849L8.76823 6.73668H12Z" fill="#F0F0F0"/>
<path d="M6.56486 2.43213C4.84443 3.41177 3.41413 4.84203 2.43453 6.56246V11.9974H5.30411V5.3018L11.9998 5.30171C11.9998 4.39666 11.9998 3.53445 11.9998 2.43213H6.56486Z" fill="#D80027"/>
<path d="M11.9998 10.6447L8.09153 6.73652H6.73887L12 11.9976C12 11.9976 11.9998 11.0646 11.9998 10.6447Z" fill="#D80027"/>
<path d="M19.6028 13.6078C19.9191 13.1726 20.1304 12.6411 20.1304 11.9976V7.21496C19.7307 7.51523 19.234 7.6932 18.6956 7.6932C17.9133 7.6932 17.2188 7.31753 16.7826 6.73676C16.3463 7.31753 15.6518 7.6932 14.8695 7.6932C14.3311 7.6932 13.8344 7.51518 13.4348 7.21505V11.9976C13.4348 12.6411 13.646 13.1726 13.9623 13.6078H19.6028Z" fill="#F3F3F3"/>
<path d="M18.6083 11.1102C18.7606 10.7387 18.879 10.1957 18.879 9.92546C18.879 9.49126 18.3129 9.13931 18.3129 9.13931C18.3129 9.13931 17.7469 9.49126 17.7469 9.92546C17.7469 10.1957 17.8653 10.7387 18.0175 11.1102L17.6907 11.848C17.8828 11.9261 18.0928 11.9695 18.313 11.9695C18.5332 11.9695 18.7431 11.9261 18.9352 11.848L18.6083 11.1102Z" fill="#FF9811"/>
<path d="M16.3958 8.72118C15.9981 8.77506 15.4686 8.94415 15.2346 9.07924C14.8585 9.29636 14.8367 9.96251 14.8367 9.96251C14.8367 9.96251 15.4246 10.2767 15.8006 10.0597C16.0347 9.92452 16.4456 9.55052 16.6911 9.2329L17.4936 9.14696C17.4652 8.94165 17.3977 8.73811 17.2877 8.54746C17.1775 8.35681 17.0351 8.19662 16.8714 8.0693L16.3958 8.72118Z" fill="#FF9811"/>
<path d="M15.4332 11.8319C15.6787 12.1493 16.0898 12.5233 16.3239 12.6584C16.6999 12.8755 17.2877 12.5614 17.2877 12.5614C17.2877 12.5614 17.2658 11.8951 16.8899 11.678C16.6558 11.5429 16.1263 11.374 15.7285 11.3202L15.253 10.6682C15.0893 10.7955 14.9469 10.9558 14.8367 11.1462C14.7267 11.337 14.6593 11.5404 14.6308 11.7459L15.4332 11.8319Z" fill="#FF9811"/>
<path d="M13.844 13.4325C14.7373 14.8657 16.7826 15.3454 16.7826 15.3454C16.7826 15.3454 18.8279 14.8657 19.7212 13.4325H13.844Z" fill="#338AF3"/>
</svg>
