<svg width="24" height="24" viewBox="0 0 24 24" fill="none" xmlns="http://www.w3.org/2000/svg">
<path d="M1 11.9975C1 12.751 1.07597 13.4867 1.2203 14.1975L12 14.8671L22.7797 14.1975C22.9241 13.4867 23 12.751 23 11.9975C23 11.2441 22.924 10.5084 22.7797 9.79755L12 9.12796L1.2203 9.79755C1.07597 10.5084 1 11.2441 1 11.9975Z" fill="#0052B4"/>
<path d="M22.7797 14.1975H1.2203C2.23948 19.2184 6.67836 22.9976 12 22.9976C17.3216 22.9976 21.7605 19.2184 22.7797 14.1975Z" fill="#F0F0F0"/>
<path d="M1.2203 9.79755H22.7797C21.7605 4.77665 17.3217 0.997559 12 0.997559C6.67828 0.997559 2.23948 4.77665 1.2203 9.79755Z" fill="black"/>
<path d="M16.7826 9.79755H7.21742L9.17164 8.87828L8.13098 6.98572L10.253 7.39156L10.522 5.2479L12 6.82459L13.4781 5.2479L13.747 7.39156L15.869 6.98572L14.8285 8.87837L16.7826 9.79755Z" fill="#FFDA44"/>
<path d="M1 11.9975C1 18.0726 5.9249 22.9976 12 22.9976L3.19983 5.39718C1.81864 7.23576 1 9.52096 1 11.9975Z" fill="#A2001D"/>
<path d="M12 22.9976C18.0751 22.9976 23 18.0726 23 11.9975C23 9.52096 22.1814 7.23556 20.8002 5.39697L12 22.9976Z" fill="#A2001D"/>
</svg>
