<svg width="24" height="24" viewBox="0 0 24 24" fill="none" xmlns="http://www.w3.org/2000/svg">
<path d="M12 22.9976C18.0751 22.9976 23 18.0727 23 11.9976C23 5.92243 18.0751 0.997559 12 0.997559C5.92487 0.997559 1 5.92243 1 11.9976C1 18.0727 5.92487 22.9976 12 22.9976Z" fill="#F0F0F0"/>
<path d="M12 0.997559C7.63893 0.997559 3.87059 3.53551 2.09134 7.21496H21.9083C20.1291 3.53551 16.361 0.997559 12 0.997559Z" fill="#338AF3"/>
<path d="M12 22.9976C16.361 22.9976 20.1292 20.4596 21.9085 16.7802H2.09146C3.87071 20.4596 7.63893 22.9976 12 22.9976Z" fill="#338AF3"/>
<path d="M15.2876 11.9976L13.9442 12.6295L14.6596 13.9305L13.2008 13.6515L13.0159 15.1251L11.9999 14.0413L10.9837 15.1251L10.7989 13.6515L9.34013 13.9305L10.0555 12.6295L8.7121 11.9976L10.0555 11.3656L9.34013 10.0646L10.7989 10.3436L10.9838 8.86999L11.9999 9.95383L13.016 8.86999L13.2008 10.3436L14.6596 10.0646L13.9442 11.3657L15.2876 11.9976Z" fill="#FFDA44"/>
</svg>
