<svg width="24" height="24" viewBox="0 0 24 24" fill="none" xmlns="http://www.w3.org/2000/svg">
<path d="M22.9998 11.9976C22.9998 10.652 22.7578 9.36311 22.3156 8.1715L11.9998 7.69321L1.68395 8.17146C1.2418 9.36311 0.999756 10.652 0.999756 11.9976C0.999756 13.3431 1.2418 14.632 1.68395 15.8236L11.9998 16.3019L22.3156 15.8237C22.7578 14.632 22.9998 13.3431 22.9998 11.9976Z" fill="#0052B4"/>
<path d="M11.9997 22.9976C16.7294 22.9976 20.7613 20.0125 22.3156 15.8237L1.68395 15.8236C3.23817 20.0124 7.27014 22.9976 11.9997 22.9976Z" fill="#FF9811"/>
<path d="M1.68395 8.17146L22.3156 8.1715C20.7613 3.98269 16.7294 0.997559 11.9997 0.997559C7.27014 0.997559 3.23817 3.98265 1.68395 8.17146Z" fill="#D80027"/>
</svg>
