<svg width="24" height="24" viewBox="0 0 24 24" fill="none" xmlns="http://www.w3.org/2000/svg">
<path d="M11.9996 22.9976C18.0748 22.9976 22.9996 18.0727 22.9996 11.9976C22.9996 5.92243 18.0748 0.997559 11.9996 0.997559C5.9245 0.997559 0.999634 5.92243 0.999634 11.9976C0.999634 18.0727 5.9245 22.9976 11.9996 22.9976Z" fill="#FFDA44"/>
<path d="M11.9996 22.9976C15.3336 22.9976 18.3211 21.5141 20.3383 19.1715H3.66123C5.67848 21.5141 8.66565 22.9976 11.9996 22.9976Z" fill="#338AF3"/>
<path d="M22.9996 11.9976C22.9996 5.92243 18.0748 0.997559 11.9996 0.997559C5.9245 0.997559 0.999634 5.92243 0.999634 11.9976C0.999634 12.9904 1.13198 13.9522 1.37858 14.8671H22.6207C22.8673 13.9522 22.9996 12.9904 22.9996 11.9976Z" fill="#338AF3"/>
<path d="M1.87412 16.3019C2.08617 16.8002 2.33406 17.2794 2.61426 17.7367H21.3852C21.6654 17.2793 21.9133 16.8001 22.1255 16.3019H1.87412Z" fill="#338AF3"/>
<path d="M6.04059 7.93541L3.89146 6.98692L6.04059 6.03843L6.98904 3.88935L7.93749 6.03843L10.0866 6.98692L7.93749 7.93541L6.98904 10.0845L6.04059 7.93541Z" fill="#F0F0F0"/>
<path d="M6.98906 5.07388L7.57476 6.40114L8.90207 6.98694L7.57476 7.57269L6.98906 8.89995L6.40326 7.57269L5.076 6.98694L6.40326 6.40114L6.98906 5.07388Z" fill="#D80027"/>
</svg>
