<svg width="24" height="24" viewBox="0 0 24 24" fill="none" xmlns="http://www.w3.org/2000/svg">
<path d="M22.3163 15.8236C22.7585 14.632 23.0005 13.3431 23.0005 11.9976C23.0005 10.652 22.7585 9.36318 22.3163 8.17148L12.0005 7.21496L1.68468 8.17148C1.24253 9.36318 1.00049 10.652 1.00049 11.9976C1.00049 13.3431 1.24253 14.632 1.68468 15.8236L12.0005 16.7801L22.3163 15.8236Z" fill="#F0F0F0"/>
<path d="M12.0007 22.9976C16.7303 22.9976 20.7621 20.0124 22.3163 15.8236H1.68468C3.23895 20.0124 7.27103 22.9976 12.0007 22.9976Z" fill="#D80027"/>
<path d="M12.0005 0.997559C7.27083 0.997559 3.23895 3.98268 1.68468 8.17148H22.3163C20.7621 3.98268 16.7301 0.997559 12.0005 0.997559Z" fill="#D80027"/>
</svg>
