<svg width="24" height="24" viewBox="0 0 24 24" fill="none" xmlns="http://www.w3.org/2000/svg">
<path d="M22.9996 11.9976C22.9996 18.0727 18.0747 22.9976 11.9996 22.9976C5.92448 22.9976 0.999573 18.0727 0.999573 11.9976C0.999573 12.0001 11.9996 0.998805 11.9996 0.997559C18.0747 0.997559 22.9996 5.92246 22.9996 11.9976Z" fill="#0052B4"/>
<path d="M11.9702 11.9976H11.9997C11.9997 11.9876 11.9997 11.978 11.9997 11.9681C11.9899 11.978 11.9801 11.9878 11.9702 11.9976Z" fill="#F0F0F0"/>
<path d="M11.9996 6.73672C11.9996 4.80119 11.9996 3.53284 11.9996 0.997559C11.999 0.997559 11.9984 0.997602 11.9978 0.997602C5.92351 0.99859 0.999573 5.92302 0.999573 11.9976L6.73875 11.9976V8.76579L9.97052 11.9976L11.9702 11.9976C11.9801 11.9878 11.9899 11.978 11.9997 11.9681C11.9997 11.227 11.9997 10.5658 11.9997 9.96853L8.76787 6.73672H11.9996Z" fill="#F0F0F0"/>
<path d="M6.56465 2.43233C4.84423 3.41198 3.41397 4.84224 2.43433 6.56266V11.9976H5.30391V5.30196L11.9996 5.30192C11.9996 4.39686 11.9996 3.53465 11.9996 2.43233H6.56465Z" fill="#D80027"/>
<path d="M11.9994 10.6447L8.09124 6.73657H6.73854L11.9997 11.9976C11.9997 11.9976 11.9994 11.0647 11.9994 10.6447Z" fill="#D80027"/>
<path d="M7.63372 13.9107L8.23743 15.173L9.6007 14.8579L8.9902 16.117L10.0865 16.9864L8.72152 17.2941L8.72534 18.6933L7.63372 17.8179L6.54214 18.6933L6.54597 17.2941L5.18094 16.9864L6.27728 16.117L5.6667 14.8579L7.03005 15.173L7.63372 13.9107Z" fill="#F0F0F0"/>
<path d="M17.4688 16.302L17.7706 16.9332L18.4523 16.7756L18.147 17.4051L18.6952 17.8399L18.0127 17.9937L18.0146 18.6933L17.4688 18.2556L16.923 18.6933L16.9249 17.9937L16.2424 17.8399L16.7906 17.4051L16.4853 16.7756L17.1669 16.9332L17.4688 16.302Z" fill="#F0F0F0"/>
<path d="M14.6608 9.60635L14.9626 10.2376L15.6442 10.08L15.339 10.7095L15.8871 11.1442L15.2046 11.298L15.2065 11.9976L14.6608 11.5599L14.115 11.9976L14.1168 11.298L13.4343 11.1442L13.9825 10.7095L13.6772 10.08L14.3589 10.2376L14.6608 9.60635Z" fill="#F0F0F0"/>
<path d="M17.4688 5.78024L17.7706 6.41145L18.4523 6.25389L18.147 6.88342L18.6952 7.31809L18.0127 7.47197L18.0146 8.17158L17.4688 7.73386L16.923 8.17158L16.9249 7.47197L16.2424 7.31809L16.7905 6.88342L16.4853 6.25389L17.1669 6.41145L17.4688 5.78024Z" fill="#F0F0F0"/>
<path d="M19.9216 8.64983L20.2234 9.28104L20.9051 9.12343L20.5998 9.75297L21.148 10.1877L20.4655 10.3416L20.4674 11.0411L19.9216 10.6034L19.3758 11.0411L19.3777 10.3416L18.6952 10.1877L19.2433 9.75297L18.9381 9.12343L19.6197 9.28104L19.9216 8.64983Z" fill="#F0F0F0"/>
<path d="M18.1677 11.9976L18.4051 12.7284H19.1735L18.5519 13.18L18.7894 13.9107L18.1677 13.4591L17.5461 13.9107L17.7835 13.18L17.162 12.7284H17.9303L18.1677 11.9976Z" fill="#F0F0F0"/>
</svg>
