<svg width="24" height="24" viewBox="0 0 24 24" fill="none" xmlns="http://www.w3.org/2000/svg">
<path d="M23.0002 11.9976C23.0002 10.652 22.7582 9.36311 22.3161 8.1715L12.0002 7.69321L1.68444 8.17146C1.24229 9.36311 1.00024 10.652 1.00024 11.9976C1.00024 13.3431 1.24229 14.632 1.68444 15.8236L12.0002 16.3019L22.3161 15.8237C22.7582 14.632 23.0002 13.3431 23.0002 11.9976Z" fill="#D80027"/>
<path d="M12.0002 22.9976C16.7299 22.9976 20.7618 20.0125 22.3161 15.8237L1.68444 15.8236C3.23866 20.0124 7.27062 22.9976 12.0002 22.9976Z" fill="#6DA544"/>
<path d="M1.68444 8.17146L22.3161 8.1715C20.7618 3.98269 16.7299 0.997559 12.0002 0.997559C7.27062 0.997559 3.23866 3.98265 1.68444 8.17146Z" fill="#338AF3"/>
<path d="M12.2394 15.1063C10.5225 15.1063 9.13067 13.7144 9.13067 11.9976C9.13067 10.2807 10.5225 8.88886 12.2394 8.88886C12.7747 8.88886 13.2784 9.02421 13.7181 9.26252C13.0282 8.58786 12.0848 8.17145 11.0437 8.17145C8.93061 8.17145 7.21766 9.88445 7.21766 11.9975C7.21766 14.1106 8.93065 15.8236 11.0437 15.8236C12.0849 15.8236 13.0283 15.4072 13.7181 14.7325C13.2784 14.9709 12.7747 15.1063 12.2394 15.1063Z" fill="#F0F0F0"/>
<path d="M14.6305 9.84528L15.0423 11.0033L16.1523 10.4756L15.6246 11.5856L16.7827 11.9975L15.6246 12.4093L16.1523 13.5193L15.0423 12.9916L14.6305 14.1496L14.2188 12.9916L13.1087 13.5193L13.6364 12.4093L12.4783 11.9975L13.6364 11.5856L13.1087 10.4756L14.2188 11.0033L14.6305 9.84528Z" fill="#F0F0F0"/>
</svg>
