<svg width="24" height="24" viewBox="0 0 24 24" fill="none" xmlns="http://www.w3.org/2000/svg">
<path d="M12.0004 22.9976C18.0755 22.9976 23.0004 18.0727 23.0004 11.9976C23.0004 5.92243 18.0755 0.997559 12.0004 0.997559C5.92523 0.997559 1.00037 5.92243 1.00037 11.9976C1.00037 18.0727 5.92523 22.9976 12.0004 22.9976Z" fill="#F0F0F0"/>
<path d="M1.00037 11.9976C1.00037 16.167 3.32025 19.7944 6.73949 21.6601V2.33504C3.32025 4.20066 1.00037 7.82809 1.00037 11.9976Z" fill="#D80027"/>
<path d="M1.00037 11.9976C1.00037 17.0799 4.44736 21.3564 9.13078 22.6186V1.37649C4.44736 2.63874 1.00037 6.91526 1.00037 11.9976Z" fill="#0052B4"/>
<path d="M4.94602 4.82362V6.6171C4.94602 7.50857 5.66867 8.23122 6.56014 8.23122C7.45162 8.23122 8.17426 7.50857 8.17426 6.6171V4.82362H4.94602Z" fill="#D80027"/>
<path d="M6.56013 7.27474C6.19752 7.27474 5.90254 6.97976 5.90254 6.61715V5.7802H7.21777V6.61715C7.21777 6.97976 6.92275 7.27474 6.56013 7.27474Z" fill="#F0F0F0"/>
<path d="M12.9568 12.4758H10.0872C10.0872 11.9476 9.65895 11.5193 9.13069 11.5193C8.60243 11.5193 8.17416 11.9476 8.17416 12.4758H5.30458C5.30458 13.0041 5.76473 13.4324 6.29295 13.4324H6.26111C6.26111 13.9607 6.68929 14.3889 7.21764 14.3889C7.21764 14.9172 7.64582 15.3454 8.17416 15.3454H10.0872C10.6155 15.3454 11.0437 14.9172 11.0437 14.3889C11.572 14.3889 12.0003 13.9607 12.0003 13.4324H11.9684C12.4966 13.4324 12.9568 13.0041 12.9568 12.4758Z" fill="#FFDA44"/>
<path d="M13.3499 10.9452L13.0988 11.3472L13.4034 11.7102L12.9434 11.5957L12.6923 11.9976L12.6592 11.5247L12.1992 11.41L12.6388 11.2325L12.6057 10.7596L12.9104 11.1228L13.3499 10.9452Z" fill="#FFDA44"/>
<path d="M11.8845 9.71562L11.7861 10.1793L12.1965 10.4163L11.7251 10.466L11.6266 10.9296L11.4337 10.4965L10.9623 10.546L11.3146 10.2288L11.1219 9.79588L11.5323 10.0329L11.8845 9.71562Z" fill="#FFDA44"/>
<path d="M10.0872 9.06146L10.1531 9.53089L10.6199 9.61318L10.1939 9.82097L10.2599 10.2904L9.93063 9.94941L9.50455 10.1572L9.72709 9.73864L9.39782 9.39773L9.86467 9.47997L10.0872 9.06146Z" fill="#FFDA44"/>
<path d="M8.17432 9.06146L8.3969 9.47997L8.86367 9.39769L8.5344 9.73873L8.75693 10.1572L8.33094 9.94941L8.00163 10.2903L8.06763 9.82097L7.64159 9.61322L8.10836 9.53089L8.17432 9.06146Z" fill="#FFDA44"/>
<path d="M6.37688 9.71562L6.72914 10.0329L7.13957 9.79588L6.9469 10.229L7.29903 10.5461L6.82771 10.4965L6.63482 10.9296L6.53642 10.4659L6.06497 10.4164L6.4754 10.1793L6.37688 9.71562Z" fill="#FFDA44"/>
<path d="M4.91156 10.9452L5.35117 11.1228L5.65569 10.7597L5.62278 11.2326L6.06222 11.4102L5.60224 11.5248L5.56907 11.9976L5.31809 11.5957L4.85815 11.7103L5.16284 11.3472L4.91156 10.9452Z" fill="#FFDA44"/>
</svg>
