<svg width="24" height="24" viewBox="0 0 24 24" fill="none" xmlns="http://www.w3.org/2000/svg">
<path d="M12 22.9976C18.0751 22.9976 23 18.0727 23 11.9976C23 5.92243 18.0751 0.997559 12 0.997559C5.92487 0.997559 1 5.92243 1 11.9976C1 18.0727 5.92487 22.9976 12 22.9976Z" fill="#FFDA44"/>
<path d="M7.69587 8.17149H22.316C20.7618 3.98268 16.7296 0.997559 12 0.997559C8.96237 0.997559 6.21289 2.229 4.2224 4.21974L7.69587 8.17149Z" fill="#338AF3"/>
<path d="M7.69606 15.8236H22.3162C20.762 20.0124 16.7296 22.9976 12 22.9976C8.96237 22.9976 6.21307 21.7661 4.22259 19.7754L7.69606 15.8236Z" fill="#338AF3"/>
<path d="M4.2224 4.21974C-0.0733551 8.5155 -0.0731674 15.4796 4.22259 19.7754C5.99776 18.0002 7.70443 16.2933 12.0002 11.9976L4.2224 4.21974Z" fill="black"/>
</svg>
