<svg width="24" height="24" viewBox="0 0 24 24" fill="none" xmlns="http://www.w3.org/2000/svg">
<path d="M12 22.9976C18.0751 22.9976 23 18.0727 23 11.9976C23 5.92243 18.0751 0.997559 12 0.997559C5.92487 0.997559 1 5.92243 1 11.9976C1 18.0727 5.92487 22.9976 12 22.9976Z" fill="#F0F0F0"/>
<path d="M12 0.997559C9.79244 0.997559 7.73728 1.64832 6.01458 2.76779L8.8436 4.66395L5.30448 6.49726L8.8436 8.33056L5.30448 10.1639L8.8436 11.997L5.30448 13.8302L8.8436 15.6635L5.30448 17.497L8.8436 19.3303L6.01424 21.227C7.73702 22.3467 9.79231 22.9976 12 22.9976C18.0751 22.9976 23 18.0727 23 11.9976C23 5.92243 18.0751 0.997559 12 0.997559Z" fill="#D80027"/>
</svg>
