<svg width="24" height="24" viewBox="0 0 24 24" fill="none" xmlns="http://www.w3.org/2000/svg">
<path d="M12.0001 0.997559C18.0752 0.997559 23.0001 5.92247 23.0001 11.9976C23.0001 18.0727 18.0752 22.9976 12.0001 22.9976C5.92503 22.9976 1.00012 18.0727 1.00012 11.9976" fill="#FFDA44"/>
<path d="M11.761 5.88666H21.1473C20.5292 4.96339 19.775 4.13925 18.9135 3.44221H11.761V5.88666Z" fill="#D80027"/>
<path d="M11.761 10.7756H22.9322C22.8385 9.92795 22.6485 9.10953 22.3734 8.33115H11.761V10.7756Z" fill="#D80027"/>
<path d="M1.62691 15.6645H22.3733C22.6484 14.8861 22.8384 14.0676 22.9322 13.22H1.06806C1.16173 14.0676 1.35174 14.8861 1.62691 15.6645Z" fill="#D80027"/>
<path d="M5.08676 20.5533H18.9134C19.7749 19.8563 20.5292 19.0321 21.1472 18.1089H2.85303C3.47109 19.0321 4.22528 19.8563 5.08676 20.5533Z" fill="#D80027"/>
<path d="M12.0001 0.997559C5.92499 0.997559 1.00008 5.92238 1.00012 11.9976C3.51061 11.9975 5.92499 11.9976 12.0001 11.9976L12.0001 0.997559Z" fill="#4A1F63"/>
<path d="M10.0871 6.73669V7.69322H9.60882V6.73669H8.65229V7.69322H8.17405V5.78016H6.261V7.69322H5.78271V6.73669H4.82623V7.69322H4.34794V6.73669H3.39137V9.60623H11.0436V6.73669H10.0871Z" fill="#F0F0F0"/>
</svg>
