<svg width="24" height="24" viewBox="0 0 24 24" fill="none" xmlns="http://www.w3.org/2000/svg">
<path d="M16.7826 2.08905C15.3364 1.38978 13.714 0.997559 12 0.997559C10.286 0.997559 8.66355 1.38978 7.21739 2.08905L6.26086 11.9976L7.21739 21.9061C8.66355 22.6053 10.286 22.9976 12 22.9976C13.714 22.9976 15.3364 22.6053 16.7826 21.9061L17.7391 11.9976L16.7826 2.08905Z" fill="#FFDA44"/>
<path d="M7.21739 2.08905C3.53798 3.86821 1 7.63649 1 11.9976C1 16.3586 3.53798 20.1269 7.21739 21.9061V2.08905Z" fill="#0052B4"/>
<path d="M16.7826 2.08905V21.9061C20.462 20.1269 23 16.3588 23 11.9978C23 7.63675 20.462 3.86821 16.7826 2.08905Z" fill="#0052B4"/>
<path d="M15.3478 7.6932L14.7061 7.3724C14.6675 7.44979 13.8296 9.15449 13.6928 11.7584H12.7174V7.6932L12 6.73668L11.2826 7.6932V11.7584H10.3073C10.1704 9.15449 9.33256 7.44979 9.29385 7.3724L8.01054 8.01405C8.01939 8.03167 8.89136 9.80649 8.89136 12.4758V13.1932H11.2827V17.2585H12.7174V13.1932H15.1087V12.4758C15.1087 11.0957 15.3475 9.95774 15.5479 9.2461C15.7663 8.47008 15.9881 8.01689 15.9903 8.01238L15.3478 7.6932Z" fill="black"/>
</svg>
