<svg width="24" height="24" viewBox="0 0 24 24" fill="none" xmlns="http://www.w3.org/2000/svg">
<path d="M12 22.9976C18.0751 22.9976 23 18.0727 23 11.9976C23 5.92243 18.0751 0.997559 12 0.997559C5.92487 0.997559 1 5.92243 1 11.9976C1 18.0727 5.92487 22.9976 12 22.9976Z" fill="#F0F0F0"/>
<path d="M1.09321 13.4323C1.34913 15.3966 2.12352 17.1976 3.27409 18.6945L9.13047 13.4323H1.09321Z" fill="#D80027"/>
<path d="M10.5653 22.9045V14.8672L5.30314 20.7236C6.80004 21.8742 8.60104 22.6486 10.5653 22.9045Z" fill="#D80027"/>
<path d="M10.5653 1.09069C8.60104 1.34661 6.80004 2.12099 5.30314 3.27156L10.5653 9.12803V1.09069Z" fill="#D80027"/>
<path d="M1.09321 10.5628H9.13047L3.27405 5.30068C2.12347 6.79754 1.34909 8.59857 1.09321 10.5628Z" fill="#D80027"/>
<path d="M13.4348 1.09069V9.12799L18.697 3.27156C17.2001 2.12108 15.3991 1.34656 13.4348 1.09069Z" fill="#D80027"/>
<path d="M22.907 10.5628C22.651 8.59857 21.8766 6.79754 20.7261 5.30064L14.8696 10.5628H22.907Z" fill="#D80027"/>
<path d="M14.8696 13.4323L20.7261 18.6945C21.8766 17.1976 22.6511 15.3966 22.907 13.4323H14.8696Z" fill="#D80027"/>
<path d="M13.4348 22.9045C15.399 22.6485 17.2001 21.8742 18.697 20.7235L13.4348 14.8672V22.9045Z" fill="#D80027"/>
<path d="M20.7269 18.6953L14.0292 11.9976L20.7269 5.29976C20.438 4.92438 20.1221 4.56327 19.7782 4.21935C19.4344 3.87551 19.0732 3.55948 18.6978 3.27069L12.0001 9.96844L5.30226 3.27069C4.92689 3.55952 4.56573 3.87547 4.22181 4.21935C3.87798 4.56327 3.56194 4.92438 3.27315 5.2998L9.9709 11.9975L3.27319 18.6953C3.56203 19.0707 3.87802 19.4318 4.22185 19.7758C4.56573 20.1196 4.92689 20.4356 5.3023 20.7244L12 14.0267L18.6978 20.7244C19.0731 20.4356 19.4343 20.1196 19.7782 19.7758C20.1221 19.4318 20.438 19.0707 20.7269 18.6953Z" fill="#496E2D"/>
<path d="M13.4348 22.9045L13.4348 13.4325L22.907 13.4323C22.9682 12.9627 23 12.4838 23 11.9976C23 11.5113 22.9681 11.0325 22.907 10.5628L13.4349 10.5628L13.4348 1.09069C12.9652 1.02954 12.4864 0.997559 12 0.997559C11.5137 0.997602 11.0349 1.02954 10.5653 1.09069L10.5653 10.5627L1.09321 10.5628C1.03202 11.0325 1 11.5113 1 11.9976C1.00004 12.4839 1.03202 12.9627 1.09321 13.4323L10.5652 13.4323L10.5653 22.9045C11.035 22.9656 11.5136 22.9976 12 22.9976C12.4864 22.9976 12.9652 22.9656 13.4348 22.9045Z" fill="#F0F0F0"/>
</svg>
