<svg width="24" height="24" viewBox="0 0 24 24" fill="none" xmlns="http://www.w3.org/2000/svg">
<path d="M12 22.9976C18.0751 22.9976 23 18.0727 23 11.9976C23 5.92243 18.0751 0.997559 12 0.997559C5.92487 0.997559 1 5.92243 1 11.9976C1 18.0727 5.92487 22.9976 12 22.9976Z" fill="#FCFCFC"/>
<path d="M5.54349 11.2004L4.34784 9.03121L5.54349 6.89605L6.73914 9.03121L5.54349 11.2004Z" fill="#A2001D"/>
<path d="M3.15218 11.2004L1.95653 9.03121L3.15218 6.89605L4.34784 9.03121L3.15218 11.2004Z" fill="#A2001D"/>
<path d="M5.54349 17.099L4.34784 14.9298L5.54349 12.7946L6.73914 14.9298L5.54349 17.099Z" fill="#A2001D"/>
<path d="M3.15218 17.099L1.95653 14.9298L3.15218 12.7946L4.34784 14.9298L3.15218 17.099Z" fill="#A2001D"/>
<path d="M6.73913 3.13272L6.40062 2.52824C5.79347 2.88797 5.224 3.30447 4.69931 3.77042L5.54348 5.30187L6.73913 3.13272Z" fill="#A2001D"/>
<path d="M5.54348 18.6932L4.69038 20.2167C5.21459 20.6832 5.78367 21.1004 6.39056 21.4608L6.73917 20.8284L5.54348 18.6932Z" fill="#A2001D"/>
<path d="M7.69566 14.8671V22.123C9.01776 22.6857 10.4724 22.9976 12 22.9976C16.7296 22.9976 20.7616 20.0124 22.3158 15.8236L7.69566 14.8671Z" fill="#6DA544"/>
<path d="M22.3158 15.8236C22.758 14.632 23 13.3431 23 11.9976C23 5.92243 18.0751 0.997559 12 0.997559C10.4725 0.997559 9.01776 1.30921 7.69566 1.87189V15.8237L22.3158 15.8236Z" fill="#A2001D"/>
</svg>
