<svg width="24" height="24" viewBox="0 0 24 24" fill="none" xmlns="http://www.w3.org/2000/svg">
<path d="M15.8261 1.68175C14.6344 1.2396 13.3455 0.997559 12 0.997559C10.6545 0.997559 9.3656 1.2396 8.17395 1.68175L7.21742 11.9976L8.17395 22.3134C9.3656 22.7556 10.6545 22.9976 12 22.9976C13.3455 22.9976 14.6344 22.7556 15.8261 22.3134L16.7826 11.9976L15.8261 1.68175Z" fill="#FFDA44"/>
<path d="M23 11.9976C23 7.26798 20.0149 3.23593 15.8261 1.68175V22.3134C20.0149 20.7591 23 16.7272 23 11.9976Z" fill="#D80027"/>
<path d="M1 11.9976C1 16.7272 3.98514 20.7591 8.17395 22.3134V1.68175C3.98514 3.23593 1 7.26798 1 11.9976Z" fill="black"/>
</svg>
