<svg width="24" height="24" viewBox="0 0 24 24" fill="none" xmlns="http://www.w3.org/2000/svg">
<path d="M23 11.9976C23 8.22229 21.0978 4.89165 18.1998 2.91062L12 2.43233L5.80017 2.91057C2.90223 4.89165 1 8.22233 1 11.9976C1 15.7729 2.90223 19.1035 5.80017 21.0845L12 21.5628L18.1998 21.0846C21.0978 19.1035 23 15.7729 23 11.9976Z" fill="#0052B4"/>
<path d="M18.1998 2.91062C16.4345 1.7038 14.2999 0.997559 12 0.997559C9.70018 0.997559 7.56554 1.70375 5.80017 2.91057L18.1998 2.91062Z" fill="#A2001D"/>
<path d="M5.80017 21.0845C7.5655 22.2913 9.70038 22.9976 12.0002 22.9976C14.3001 22.9976 16.4345 22.2914 18.1998 21.0846L5.80017 21.0845Z" fill="#A2001D"/>
<path d="M12 17.2584C14.9055 17.2584 17.2609 14.9031 17.2609 11.9976C17.2609 9.09205 14.9055 6.73668 12 6.73668C9.09452 6.73668 6.73914 9.09205 6.73914 11.9976C6.73914 14.9031 9.09452 17.2584 12 17.2584Z" fill="#F0F0F0"/>
<path d="M12 16.3019C14.3772 16.3019 16.3044 14.3748 16.3044 11.9976C16.3044 9.62034 14.3772 7.69321 12 7.69321C9.62278 7.69321 7.69566 9.62034 7.69566 11.9976C7.69566 14.3748 9.62278 16.3019 12 16.3019Z" fill="#6DA544"/>
<path d="M12 14.8671C13.5848 14.8671 14.8696 13.5824 14.8696 11.9975C14.8696 10.4127 13.5848 9.12797 12 9.12797C10.4152 9.12797 9.13041 10.4127 9.13041 11.9975C9.13041 13.5824 10.4152 14.8671 12 14.8671Z" fill="#F0F0F0"/>
<path d="M12 11.2802L10.4457 11.9976V13.1932L12 14.1497L13.5544 13.1932V11.9976L12 11.2802Z" fill="#0052B4"/>
<path d="M10.4457 10.5628H13.5544V11.9976H10.4457V10.5628Z" fill="#FFDA44"/>
</svg>
