<svg width="24" height="24" viewBox="0 0 24 24" fill="none" xmlns="http://www.w3.org/2000/svg">
<path d="M23 11.9976C23 18.0727 18.0751 22.9976 12 22.9976C5.92491 22.9976 1 18.0727 1 11.9976C1 12.0002 12 0.998762 12 0.997559C18.0751 0.997559 23 5.92246 23 11.9976Z" fill="#D80027"/>
<path d="M11.9999 6.25834V9.96839L8.17381 6.25834H11.9999Z" fill="#0052B4"/>
<path d="M6.73898 11.9975H9.9707L6.73898 7.69311L6.26073 11.0409L6.73898 11.9975Z" fill="#0052B4"/>
<path d="M11.9706 11.9976H12C12 11.9877 12 11.978 12 11.9681C11.9902 11.978 11.9804 11.9878 11.9706 11.9976Z" fill="#F0F0F0"/>
<path d="M12 6.73668C12 4.80115 12 3.53293 12 0.997559C11.9993 0.997559 11.9988 0.997559 11.9982 0.997559C5.92383 0.99859 1 5.92302 1 11.9976L6.73898 11.9975L6.73912 8.76584L9.9707 11.9975L11.9706 11.9976C11.9804 11.9878 11.9902 11.978 12 11.9681C12 11.227 11.9999 10.5657 11.9999 9.96839L8.76823 6.73668H12Z" fill="#F0F0F0"/>
<path d="M6.56486 2.43213C4.84443 3.41177 3.41413 4.84203 2.43453 6.56246V12.4756H5.30411V5.3018L12.478 5.30171C12.478 4.39666 12.478 3.53445 12.478 2.43213H6.56486Z" fill="#D80027"/>
<path d="M12.437 11.0819L8.09153 6.73647H6.73887L12.4369 12.4346C12.437 12.4346 12.437 11.5019 12.437 11.0819Z" fill="#D80027"/>
<path d="M13.4348 6.73668V11.9975C13.4348 14.5602 20.1304 14.5602 20.1304 11.9975V6.73668H13.4348Z" fill="#F3F3F3"/>
<path d="M13.4348 11.9975C13.4348 14.5602 16.7826 15.3454 16.7826 15.3454C16.7826 15.3454 20.1304 14.5602 20.1304 11.9975H13.4348Z" fill="#6DA544"/>
<path d="M16.7826 9.8932L15.2282 10.5628V11.9976L16.7826 12.9541L18.3369 11.9976V10.5628L16.7826 9.8932Z" fill="#A2001D"/>
<path d="M15.2282 9.12797H18.3369V10.5628H15.2282V9.12797Z" fill="#338AF3"/>
</svg>
