<svg width="24" height="24" viewBox="0 0 24 24" fill="none" xmlns="http://www.w3.org/2000/svg">
<path d="M19.7781 19.7757C15.4824 24.0715 8.51755 24.0715 4.22175 19.7757C-0.0739996 15.48 -0.0739996 8.51517 4.22175 4.21938C4.2233 4.21938 14.107 1.29893 18.4028 5.59468C22.6986 9.89043 19.7811 19.7727 19.7781 19.7757Z" fill="#FFDA44"/>
<path d="M19.7781 19.7757C24.0739 15.48 24.0739 8.51518 19.7781 4.21939C15.4824 -0.0764034 8.51755 -0.0763632 4.22175 4.21938L19.7781 19.7757Z" fill="#D80027"/>
<path d="M14.8753 14.8739C14.4234 15.0514 13.8984 15.0326 13.4429 14.777C12.6381 14.3253 12.3508 13.3029 12.8026 12.4979L12.6654 12.421C14.0435 12.0888 15.063 10.8379 15.0451 9.36188C15.034 8.4442 14.624 7.6232 13.9826 7.06142L12.9783 8.09035C13.358 8.39294 13.6041 8.85708 13.6104 9.37928C13.6216 10.3022 12.8799 11.0622 11.957 11.0734L11.9589 11.2305C10.9821 10.2033 9.38916 9.94578 8.11982 10.6993C7.33066 11.1678 6.82474 11.9333 6.65884 12.7697L8.05206 13.1251C8.12429 12.6449 8.40311 12.1997 8.85218 11.9331C9.64585 11.4619 10.6749 11.7244 11.146 12.518L11.2813 12.4378C10.88 13.7972 11.4535 15.3056 12.7408 16.0281C13.5411 16.4773 14.457 16.5327 15.2643 16.2582L14.8753 14.8739Z" fill="#FF9811"/>
<path d="M16.0728 8.44755L15.2953 11.2221L12.9626 10.7913L11.461 7.69607L7.40444 9.13556L7.08453 8.23408L6.02321 8.10333L6.8229 10.357L9.61453 9.64302L10.4079 11.8786L8.47805 14.7266L11.753 17.5199L11.1322 18.2476L11.5497 19.2323L13.1016 17.4128L11.0875 15.3521L12.6269 13.5473L16.0583 13.7946L16.8399 9.56173L17.7805 9.73545L18.4246 8.88166L16.0728 8.44755Z" fill="#FFEACF"/>
</svg>
