<svg width="24" height="24" viewBox="0 0 24 24" fill="none" xmlns="http://www.w3.org/2000/svg">
<path d="M23 11.9976C23 10.652 22.758 9.36311 22.3158 8.1715L12 7.69321L1.68419 8.17146C1.242 9.36311 1 10.652 1 11.9976C1 13.3431 1.242 14.632 1.68419 15.8236L12 16.3019L22.3158 15.8237C22.758 14.632 23 13.3431 23 11.9976Z" fill="#FFDA44"/>
<path d="M12 22.9976C16.7296 22.9976 20.7616 20.0125 22.3158 15.8237L1.68419 15.8236C3.23841 20.0124 7.27038 22.9976 12 22.9976Z" fill="#6DA544"/>
<path d="M1.68419 8.17146L22.3158 8.1715C20.7615 3.98269 16.7296 0.997559 12 0.997559C7.27038 0.997559 3.23841 3.98265 1.68419 8.17146Z" fill="#D80027"/>
</svg>
