<svg width="24" height="24" viewBox="0 0 24 24" fill="none" xmlns="http://www.w3.org/2000/svg">
<path d="M12.0004 22.9976C18.0756 22.9976 23.0004 18.0727 23.0004 11.9976C23.0004 5.92243 18.0756 0.997559 12.0004 0.997559C5.92529 0.997559 1.00043 5.92243 1.00043 11.9976C1.00043 18.0727 5.92529 22.9976 12.0004 22.9976Z" fill="#F0F0F0"/>
<path d="M4.22222 4.21936C1.86474 6.57684 0.801388 9.73822 1.0314 12.8211L12.8239 1.02858C9.74104 0.798529 6.5797 1.86188 4.22222 4.21936Z" fill="#FFDA44"/>
<path d="M4.92821 20.4225C9.25005 24.0586 15.7108 23.8435 19.7786 19.7757C23.8465 15.7079 24.0615 9.24712 20.4254 4.92533L4.92821 20.4225Z" fill="#0052B4"/>
<path d="M11.9612 11.5545L12.9091 11.041L11.9612 10.5276C11.7399 9.08978 10.6039 7.95373 9.1661 7.73244L8.65258 6.78446L8.1391 7.73239C6.70137 7.95368 5.56536 9.08973 5.34398 10.5275L4.39601 11.041L5.34394 11.5545C5.56527 12.9923 6.70128 14.1283 8.13906 14.3496L8.65258 15.2976L9.16605 14.3497C10.6039 14.1283 11.7399 12.9923 11.9612 11.5545ZM8.65262 12.9541C7.59606 12.9541 6.73957 12.0976 6.73957 11.041C6.73957 9.98443 7.59602 9.12798 8.65262 9.12798C9.70922 9.12798 10.5657 9.98443 10.5657 11.041C10.5657 12.0976 9.70918 12.9541 8.65262 12.9541Z" fill="black"/>
<path d="M8.6526 9.60626L9.06678 10.3236H9.89517L9.48095 11.041L9.89517 11.7584H9.06678L8.6526 12.4758L8.23842 11.7584H7.41007L7.82425 11.041L7.41007 10.3236H8.23842L8.6526 9.60626Z" fill="#D80027"/>
</svg>
