<svg width="24" height="24" viewBox="0 0 24 24" fill="none" xmlns="http://www.w3.org/2000/svg">
<path d="M12.0004 22.9976C18.0755 22.9976 23.0004 18.0727 23.0004 11.9976C23.0004 5.92243 18.0755 0.997559 12.0004 0.997559C5.92523 0.997559 1.00037 5.92243 1.00037 11.9976C1.00037 18.0727 5.92523 22.9976 12.0004 22.9976Z" fill="#F0F0F0"/>
<path d="M12.0004 0.997559C8.10009 0.997559 4.67419 3.02753 2.721 6.08845L17.638 21.4442C20.8496 19.5234 23.0004 16.0118 23.0004 11.9976C23.0004 5.92243 18.0755 0.997559 12.0004 0.997559Z" fill="#FFDA44"/>
<path d="M23.0004 11.9976C23.0004 9.14349 21.9132 6.54349 20.1307 4.5885V19.4066C21.9132 17.4515 23.0004 14.8516 23.0004 11.9976Z" fill="#0052B4"/>
<path d="M14.7412 21.703L15.8934 21.7023L16.2488 20.6062L16.6056 21.7018L17.1835 21.7015C17.5378 21.5118 17.8806 21.3033 18.2104 21.0772L2.92048 5.78728C2.66851 6.15492 2.43871 6.53881 2.23207 6.9367L2.36794 7.35401L3.52015 7.35328L2.58841 8.03111L2.94514 9.12677L2.01255 8.4501L1.45632 8.85469C1.15979 9.85054 1.00037 10.9054 1.00037 11.9976C1.00037 18.0727 5.92523 22.9976 12.0004 22.9976C13.2848 22.9976 14.5175 22.777 15.6633 22.3722L14.7412 21.703ZM3.45372 11.5193L3.80907 10.4232L2.87656 9.74647L4.02877 9.74574L4.38416 8.64965L4.74089 9.74531L5.8931 9.74458L4.96132 10.4224L5.31805 11.5181L4.38545 10.8414L3.45372 11.5193ZM5.82667 13.9106L6.18202 12.8145L5.24951 12.1378L6.40172 12.137L6.75711 11.0409L7.11384 12.1366L8.26605 12.1359L7.33431 12.8137L7.69104 13.9094L6.75845 13.2327L5.82667 13.9106ZM8.19957 16.3019L8.55493 15.2058L7.62242 14.5291L8.77463 14.5283L9.13002 13.4322L9.48675 14.5279L10.639 14.5272L9.70722 15.205L10.0639 16.3007L9.13135 15.6239L8.19957 16.3019ZM11.5043 18.0153L10.5725 18.6932L10.9278 17.5971L9.99532 16.9204L11.1475 16.9196L11.503 15.8235L11.8597 16.9192L13.0119 16.9185L12.0802 17.5963L12.4369 18.692L11.5043 18.0153ZM12.9454 21.0845L13.3008 19.9884L12.3683 19.3117L13.5205 19.3109L13.8759 18.2148L14.2326 19.3105L15.3848 19.3098L14.4531 19.9876L14.8098 21.0833L13.8772 20.4065L12.9454 21.0845Z" fill="#0052B4"/>
</svg>
