<svg width="24" height="24" viewBox="0 0 24 24" fill="none" xmlns="http://www.w3.org/2000/svg">
<path d="M1.51977 8.64967C1.18281 9.70537 1.00032 10.83 1.00037 11.9975C1.00032 13.1649 1.18281 14.2896 1.51982 15.3453L12.0004 15.8237L22.4809 15.3453C22.8178 14.2896 23.0004 13.1649 23.0004 11.9975C23.0004 10.8301 22.8179 9.70537 22.4809 8.64967L12.0003 8.17143L1.51977 8.64967Z" fill="#F0F0F0"/>
<path d="M23.0004 11.9975C23.0004 11.345 22.9432 10.7058 22.8342 10.0844H1.16653C1.05747 10.7058 1.00037 11.3449 1.00037 11.9975C1.00037 12.6501 1.05752 13.2892 1.16653 13.9106H22.8342C22.9432 13.2892 23.0004 12.6501 23.0004 11.9975Z" fill="black"/>
<path d="M12.0005 22.9976C16.9082 22.9976 21.0645 19.7834 22.4809 15.3453H1.51982C2.93628 19.7833 7.09278 22.9975 12.0005 22.9976Z" fill="#338AF3"/>
<path d="M12.0004 0.997559C7.0927 0.997559 2.93633 4.21176 1.51977 8.64967H22.4809C21.0645 4.21172 16.908 0.997473 12.0004 0.997559Z" fill="#338AF3"/>
</svg>
