<svg width="24" height="24" viewBox="0 0 24 24" fill="none" xmlns="http://www.w3.org/2000/svg">
<path d="M12.0003 22.9976C18.0754 22.9976 23.0003 18.0727 23.0003 11.9976C23.0003 5.92243 18.0754 0.997559 12.0003 0.997559C5.92517 0.997559 1.00031 5.92243 1.00031 11.9976C1.00031 18.0727 5.92517 22.9976 12.0003 22.9976Z" fill="#6DA544"/>
<path d="M12.0003 5.30191L21.0873 11.9976L12.0003 18.6932L2.91338 11.9976L12.0003 5.30191Z" fill="#FFDA44"/>
<path d="M12.0003 15.8236C14.1134 15.8236 15.8264 14.1106 15.8264 11.9976C15.8264 9.88448 14.1134 8.17149 12.0003 8.17149C9.88723 8.17149 8.17424 9.88448 8.17424 11.9976C8.17424 14.1106 9.88723 15.8236 12.0003 15.8236Z" fill="#F0F0F0"/>
<path d="M10.0873 11.7584C9.422 11.7584 8.77992 11.8596 8.17552 12.0473C8.20229 14.1373 9.90395 15.8236 12.0003 15.8236C13.2966 15.8236 14.4415 15.1783 15.1336 14.1922C13.9495 12.7099 12.1276 11.7584 10.0873 11.7584Z" fill="#0052B4"/>
<path d="M15.7556 12.7305C15.8016 12.4932 15.8264 12.2484 15.8264 11.9976C15.8264 9.88448 14.1134 8.17149 12.0003 8.17149C10.4236 8.17149 9.07024 9.12538 8.48449 10.4874C9.00226 10.3801 9.53834 10.3236 10.0874 10.3236C12.3096 10.3236 14.32 11.2473 15.7556 12.7305Z" fill="#0052B4"/>
</svg>
