<svg width="24" height="24" viewBox="0 0 24 24" fill="none" xmlns="http://www.w3.org/2000/svg">
<path d="M12 22.9976C18.0751 22.9976 23 18.0727 23 11.9976C23 5.92243 18.0751 0.997559 12 0.997559C5.92487 0.997559 1 5.92243 1 11.9976C1 18.0727 5.92487 22.9976 12 22.9976Z" fill="#F0F0F0"/>
<path d="M21.1669 13.314C20.2502 13.314 20.2502 12.4758 19.3335 12.4758C18.4169 12.4758 18.4169 13.314 17.5003 13.314C16.5836 13.314 16.5836 12.4758 15.667 12.4758C14.7503 12.4758 14.7503 13.314 13.8336 13.314C12.917 13.314 12.9169 12.4758 12.0002 12.4758C11.0835 12.4758 11.0835 13.314 10.1669 13.314C9.25039 13.314 9.25039 12.4758 8.33373 12.4758C7.417 12.4758 7.417 13.314 6.50026 13.314C5.58352 13.314 5.58352 12.4758 4.66678 12.4758C3.75026 12.4758 3.75026 13.314 2.83361 13.314C1.92189 13.314 1.91661 12.4851 1.01465 12.4762C1.04005 12.9794 1.10012 13.4734 1.19095 13.9565C1.92159 14.0638 1.98557 14.7806 2.83369 14.7806C3.75034 14.7806 3.75034 13.9425 4.66687 13.9425C5.58361 13.9425 5.58361 14.7806 6.50034 14.7806C7.41708 14.7806 7.41708 13.9425 8.33382 13.9425C9.25047 13.9425 9.25047 14.7806 10.167 14.7806C11.0836 14.7806 11.0836 13.9425 12.0003 13.9425C12.917 13.9425 12.917 14.7806 13.8337 14.7806C14.7505 14.7806 14.7505 13.9425 15.6671 13.9425C16.5837 13.9425 16.5837 14.7806 17.5003 14.7806C18.417 14.7806 18.417 13.9425 19.3336 13.9425C20.2503 13.9425 20.2503 14.7806 21.167 14.7806C22.0151 14.7806 22.0791 14.0638 22.8098 13.9565C22.9007 13.4733 22.9606 12.9794 22.9862 12.4762C22.084 12.4851 22.0786 13.314 21.1669 13.314Z" fill="#0052B4"/>
<path d="M19.3335 15.3454C18.4169 15.3454 18.4169 16.1835 17.5002 16.1835C16.5836 16.1835 16.5836 15.3454 15.667 15.3454C14.7503 15.3454 14.7503 16.1835 13.8336 16.1835C12.9169 16.1835 12.9169 15.3454 12.0002 15.3454C11.0835 15.3454 11.0835 16.1835 10.1669 16.1835C9.25037 16.1835 9.25037 15.3454 8.33372 15.3454C7.41698 15.3454 7.41698 16.1835 6.50025 16.1835C5.58351 16.1835 5.58351 15.3454 4.66677 15.3454C3.75025 15.3454 3.75025 16.1835 2.83359 16.1835C2.15834 16.1835 1.98006 15.729 1.56657 15.4896C1.817 16.2381 2.14592 16.9504 2.54317 17.6175C2.62919 17.6382 2.72484 17.6502 2.83355 17.6502C3.7502 17.6502 3.7502 16.8121 4.66673 16.8121C5.58346 16.8121 5.58346 17.6502 6.5002 17.6502C7.41694 17.6502 7.41694 16.8121 8.33368 16.8121C9.25033 16.8121 9.25033 17.6502 10.1669 17.6502C11.0835 17.6502 11.0835 16.8121 12.0001 16.8121C12.9169 16.8121 12.9169 17.6502 13.8336 17.6502C14.7503 17.6502 14.7503 16.8121 15.6669 16.8121C16.5836 16.8121 16.5836 17.6502 17.5002 17.6502C18.4168 17.6502 18.4169 16.8121 19.3335 16.8121C20.2502 16.8121 20.2502 17.6502 21.1668 17.6502C21.2756 17.6502 21.3713 17.6382 21.4574 17.6174C21.8547 16.9504 22.1836 16.2381 22.434 15.4896C22.0205 15.7291 21.8422 16.1836 21.1668 16.1836C20.2502 16.1835 20.2502 15.3454 19.3335 15.3454Z" fill="#0052B4"/>
<path d="M22.7444 9.63174C22.0744 9.77083 21.989 10.4444 21.1669 10.4444C20.2502 10.4444 20.2502 9.60626 19.3335 9.60626C18.4169 9.60626 18.4169 10.4444 17.5003 10.4444C16.5837 10.4444 16.5836 9.60626 15.667 9.60626C14.7503 9.60626 14.7503 10.4444 13.8337 10.4444C12.917 10.4444 12.9169 9.60626 12.0002 9.60626C11.5049 9.60626 11.2771 9.85092 11.0279 10.0759V11.5426C11.2771 11.3176 11.5048 11.073 12.0002 11.073C12.9169 11.073 12.9169 11.9111 13.8337 11.9111C14.7504 11.9111 14.7504 11.073 15.667 11.073C16.5837 11.073 16.5837 11.9111 17.5003 11.9111C18.4169 11.9111 18.4169 11.073 19.3335 11.073C20.2503 11.073 20.2503 11.9111 21.1669 11.9111C22.015 11.9111 22.079 11.1943 22.8097 11.0869C22.8565 11.0869 22.9089 11.0864 22.9625 11.0858C22.9218 10.5911 22.8484 10.1057 22.7444 9.63174Z" fill="#0052B4"/>
<path d="M21.9409 7.28277C21.7509 7.44231 21.5314 7.57483 21.1669 7.57483C20.2503 7.57483 20.2503 6.73668 19.3336 6.73668C18.4169 6.73668 18.4169 7.57483 17.5003 7.57483C16.5837 7.57483 16.5837 6.73668 15.667 6.73668C14.7504 6.73668 14.7504 7.57483 13.8337 7.57483C12.917 7.57483 12.917 6.73668 12.0002 6.73668C11.5049 6.73668 11.2772 6.98134 11.0279 7.20633V8.67298C11.2772 8.44804 11.5049 8.20341 12.0002 8.20341C12.917 8.20341 12.917 9.04148 13.8337 9.04148C14.7503 9.04148 14.7503 8.20341 15.667 8.20341C16.5837 8.20341 16.5837 9.04148 17.5003 9.04148C18.4169 9.04148 18.4169 8.20341 19.3335 8.20341C20.2503 8.20341 20.2503 9.04148 21.1669 9.04148C21.8173 9.04148 22.0067 8.62017 22.3892 8.37516C22.2588 8.00146 22.1092 7.63687 21.9409 7.28277Z" fill="#0052B4"/>
<path d="M19.4118 3.86937C19.3864 3.868 19.3605 3.86714 19.3335 3.86714C18.4169 3.86714 18.4169 4.70529 17.5003 4.70529C16.5836 4.70529 16.5836 3.86714 15.667 3.86714C14.7504 3.86714 14.7504 4.70529 13.8336 4.70529C12.9169 4.70529 12.9169 3.86714 12.0001 3.86714C11.5048 3.86714 11.2771 4.1118 11.0278 4.33679V5.80344C11.2771 5.5785 11.5048 5.33388 12.0001 5.33388C12.9169 5.33388 12.9169 6.17194 13.8336 6.17194C14.7504 6.17194 14.7504 5.33388 15.667 5.33388C16.5836 5.33388 16.5836 6.17194 17.5002 6.17194C18.4168 6.17194 18.4169 5.33388 19.3335 5.33388C20.2502 5.33388 20.2502 6.17194 21.1668 6.17194C21.2233 6.17194 21.276 6.16859 21.3259 6.16262C20.7935 5.31338 20.1488 4.54179 19.4118 3.86937Z" fill="#0052B4"/>
<path d="M14.8119 1.36081C14.5603 1.58717 14.3329 1.83579 13.8336 1.83579C12.9169 1.83579 12.9167 0.997645 12 0.997559C11.526 0.997602 11.2971 1.22185 11.0598 1.43837V2.90507C11.2971 2.68855 11.526 2.46434 12.0002 2.46434C12.9169 2.46434 12.9169 3.3024 13.8337 3.3024C14.7504 3.3024 14.7504 2.46434 15.667 2.46434C16.5837 2.46434 16.5837 3.3024 17.5003 3.3024C17.8849 3.3024 18.108 3.15476 18.3053 2.98349C17.2596 2.25065 16.0806 1.69524 14.8119 1.36081Z" fill="#0052B4"/>
<path d="M13.8336 21.9227C12.9169 21.9227 12.9169 21.0845 12.0001 21.0845C11.0835 21.0845 11.0835 21.9227 10.1669 21.9227C9.25033 21.9227 9.25033 21.0845 8.33368 21.0845C7.63153 21.0845 7.46683 21.5758 7.01651 21.806C8.25831 22.4383 9.63619 22.8413 11.0945 22.9602C11.3201 22.7541 11.5492 22.5512 12.0001 22.5512C12.4512 22.5512 12.6803 22.7541 12.9059 22.9602C14.3643 22.8414 15.7422 22.4383 16.9841 21.8061C16.5337 21.5759 16.369 21.0845 15.6669 21.0845C14.7503 21.0845 14.7503 21.9227 13.8336 21.9227Z" fill="#0052B4"/>
<path d="M17.5003 19.0531C16.5836 19.0531 16.5836 18.215 15.667 18.215C14.7504 18.215 14.7503 19.0531 13.8337 19.0531C12.9169 19.0531 12.9169 18.215 12.0002 18.215C11.0835 18.215 11.0835 19.0531 10.1669 19.0531C9.25039 19.0531 9.25039 18.215 8.33374 18.215C7.417 18.215 7.417 19.0531 6.50027 19.0531C5.58353 19.0531 5.58353 18.215 4.66679 18.215C4.00761 18.215 3.8225 18.6485 3.42955 18.8919C3.67584 19.1978 3.93769 19.4906 4.2148 19.7682C4.33894 19.7151 4.4846 19.6817 4.66675 19.6817C5.58348 19.6817 5.58348 20.5197 6.50022 20.5197C7.41696 20.5197 7.41696 19.6817 8.3337 19.6817C9.25035 19.6817 9.25035 20.5197 10.1669 20.5197C11.0835 20.5197 11.0835 19.6817 12.0001 19.6817C12.9169 19.6817 12.9169 20.5197 13.8336 20.5197C14.7504 20.5197 14.7504 19.6817 15.667 19.6817C16.5836 19.6817 16.5836 20.5197 17.5002 20.5197C18.4168 20.5197 18.4169 19.6817 19.3335 19.6817C19.5158 19.6817 19.6615 19.7151 19.7857 19.7682C20.0629 19.4906 20.3247 19.1978 20.571 18.892C20.178 18.6486 19.9929 18.215 19.3335 18.215C18.4169 18.215 18.4169 19.0531 17.5003 19.0531Z" fill="#0052B4"/>
<path d="M11.9706 11.9976H12C12 11.9877 12 11.978 12 11.9681C11.9902 11.978 11.9804 11.9878 11.9706 11.9976Z" fill="#F0F0F0"/>
<path d="M12.0002 6.73668L12.0002 9.96838L8.17416 6.25833L12.0002 6.73668Z" fill="#0052B4"/>
<path d="M6.73937 11.9975H9.97105L6.73933 7.6931L6.26109 11.0409L6.73937 11.9975Z" fill="#0052B4"/>
<path d="M12.0002 6.73668C12.0002 4.80115 12 3.53293 12 0.997559C11.9993 0.997559 11.9988 0.997559 11.9982 0.997559C5.9239 0.99859 1 5.92302 1 11.9976L6.73937 11.9975L6.73916 8.76584L9.97105 11.9975L11.9706 11.9976C11.9804 11.9878 11.9902 11.978 12 11.9681C12 11.227 12.0002 10.5657 12.0002 9.96838L8.76823 6.73668L12.0002 6.73668Z" fill="#F0F0F0"/>
<path d="M6.56526 2.43233C4.84483 3.41198 3.41458 4.84224 2.43493 6.56266V11.9976H5.30451V5.302L12.0002 5.30192C12.0002 4.39686 12.0002 3.53465 12.0002 2.43233H6.56526Z" fill="#D80027"/>
<path d="M12.0001 10.6449L8.09189 6.73675H6.73923L12 11.9976C12 11.9976 12.0001 11.0649 12.0001 10.6449Z" fill="#D80027"/>
<path d="M15.348 6.73668H19.6524L17.5002 8.88885L15.348 6.73668Z" fill="#6DA544"/>
<path d="M17.0219 8.41061H17.9785V11.041H17.0219V8.41061Z" fill="#A2001D"/>
<path d="M17.0219 15.3454H17.9784V17.9758H17.0219V15.3454Z" fill="#A2001D"/>
<path d="M20.3698 13.9106C20.3698 13.1182 19.7274 12.4758 18.935 12.4758C18.5674 12.4758 18.2324 12.6142 17.9785 12.8415V11.9976H18.4567V11.041L17.9785 11.041L17.9785 10.5628H17.0219L17.0219 11.041L16.5437 11.041V11.9976H17.0219V12.8415C16.768 12.6142 16.433 12.4758 16.0654 12.4758C15.273 12.4758 14.6306 13.1182 14.6306 13.9106C14.6306 14.3354 14.8154 14.717 15.1089 14.9798V15.8237H19.8915V14.9798C20.1849 14.717 20.3698 14.3354 20.3698 13.9106Z" fill="#FFDA44"/>
<path d="M18.9349 13.4323C18.7841 13.4323 18.6784 13.4986 18.6164 13.5541L17.9784 14.1252H17.0219L16.384 13.5541C16.3219 13.4986 16.2163 13.4323 16.0654 13.4323C15.8017 13.4323 15.5871 13.6469 15.5871 13.9106C15.5871 14.0963 15.6873 14.2137 15.747 14.2672L16.0654 14.5523V14.8671H18.935V14.5523L19.2535 14.2672C19.3131 14.2137 19.4133 14.0963 19.4133 13.9106C19.4132 13.6469 19.1987 13.4323 18.9349 13.4323Z" fill="#D80027"/>
</svg>
