<svg width="24" height="24" viewBox="0 0 24 24" fill="none" xmlns="http://www.w3.org/2000/svg">
<path d="M1 11.9976C1 5.92246 5.92491 0.997559 12 0.997559C18.0751 0.997559 23 5.92246 23 11.9976H1Z" fill="#F0F0F0"/>
<path d="M9.13084 11.3963L8.52949 11.9977H9.13084V11.3963Z" fill="#0052B4"/>
<path d="M14.87 11.3964V11.9977H15.4713L14.87 11.3964Z" fill="#0052B4"/>
<path d="M1.31758 9.36718C1.11069 10.2101 1 11.0909 1 11.9976L4.4711 11.9976L7.10148 9.36718H1.31758Z" fill="#0052B4"/>
<path d="M16.8991 9.36729L19.5295 11.9977L23 11.9976C23 11.0909 22.8899 10.2102 22.6831 9.36729H16.8991Z" fill="#0052B4"/>
<path d="M16.2227 9.36729H14.87L17.5004 11.9977H18.8531L16.2227 9.36729Z" fill="#D80027"/>
<path d="M9.13063 10.7198V9.36718L6.50017 11.9976H7.85292L9.13063 10.7198Z" fill="#D80027"/>
<path d="M6.15313 2.67945C5.69973 2.96459 5.26862 3.28178 4.86296 3.62798H7.10163L6.15313 2.67945Z" fill="#0052B4"/>
<path d="M19.1373 3.62804C18.7317 3.2818 18.3006 2.9646 17.8472 2.67951L16.8987 3.62804H19.1373Z" fill="#0052B4"/>
<path d="M13.435 7.93233H22.2242C21.8084 6.88737 21.2368 5.92152 20.5384 5.06275H13.435L13.435 1.09067C12.9653 1.02953 12.4863 0.997559 12 0.997559C11.5136 0.997559 11.0351 1.02953 10.5654 1.09067V5.0627L3.46196 5.06275C2.76359 5.92152 2.19202 6.88737 1.77617 7.93233H10.5653L10.5654 11.9976H13.435V7.93233Z" fill="#D80027"/>
<path d="M9.13066 3.62798L7.47237 1.96964C7.16579 2.1083 6.86698 2.26106 6.57621 2.42619L7.77801 3.62798H9.13066Z" fill="#D80027"/>
<path d="M14.8698 3.62797L16.5281 1.96968C16.2127 1.82707 15.8893 1.69919 15.5589 1.58623L14.8698 2.27532V3.62797Z" fill="#D80027"/>
<path d="M23 11.9976C23 18.0727 18.0753 22.9976 12.0002 22.9976C5.92512 22.9976 1 18.0727 1 11.9976H23Z" fill="#F0F0F0"/>
<path d="M21.1667 13.4005C20.2501 13.4005 20.2501 12.5623 19.3334 12.5623C18.4167 12.5623 18.4167 13.4005 17.5001 13.4005C16.5835 13.4005 16.5835 12.5623 15.6669 12.5623C14.7502 12.5623 14.7502 13.4005 13.8335 13.4005C12.9168 13.4005 12.9168 12.5623 12 12.5623C11.0834 12.5623 11.0834 13.4005 10.1668 13.4005C9.25026 13.4005 9.25026 12.5623 8.33361 12.5623C7.41687 12.5623 7.41687 13.4005 6.50013 13.4005C5.58339 13.4005 5.58339 12.5623 4.66665 12.5623C3.75013 12.5623 3.75013 13.4005 2.83348 13.4005C1.92177 13.4005 1.91648 12.5716 1.01452 12.5627C1.03992 13.0659 1.09999 13.5599 1.19083 14.0429C1.92147 14.1503 1.98545 14.8671 2.83352 14.8671C3.75017 14.8671 3.75017 14.0291 4.6667 14.0291C5.58344 14.0291 5.58344 14.8671 6.50017 14.8671C7.41691 14.8671 7.41691 14.0291 8.33365 14.0291C9.2503 14.0291 9.2503 14.8671 10.1668 14.8671C11.0835 14.8671 11.0835 14.0291 12.0001 14.0291C12.9168 14.0291 12.9168 14.8671 13.8336 14.8671C14.7503 14.8671 14.7503 14.0291 15.6669 14.0291C16.5836 14.0291 16.5836 14.8671 17.5002 14.8671C18.4168 14.8671 18.4168 14.0291 19.3334 14.0291C20.2502 14.0291 20.2502 14.8671 21.1668 14.8671C22.0149 14.8671 22.0789 14.1503 22.8096 14.043C22.9005 13.5599 22.9605 13.0659 22.986 12.5628C22.0839 12.5717 22.0785 13.4005 21.1667 13.4005Z" fill="#0052B4"/>
<path d="M19.3336 15.4318C18.4169 15.4318 18.4169 16.27 17.5003 16.27C16.5837 16.27 16.5837 15.4318 15.6671 15.4318C14.7504 15.4318 14.7504 16.27 13.8337 16.27C12.917 16.27 12.917 15.4318 12.0002 15.4318C11.0836 15.4318 11.0836 16.27 10.167 16.27C9.25046 16.27 9.25046 15.4318 8.33381 15.4318C7.41707 15.4318 7.41707 16.27 6.50033 16.27C5.58359 16.27 5.58359 15.4318 4.66685 15.4318C3.75033 15.4318 3.75033 16.27 2.83368 16.27C2.17871 16.27 1.99162 15.8422 1.60383 15.5978C1.86198 16.3437 2.19783 17.0532 2.60229 17.7165C2.67263 17.7295 2.7492 17.7366 2.83368 17.7366C3.75033 17.7366 3.75033 16.8986 4.66685 16.8986C5.58359 16.8986 5.58359 17.7366 6.50033 17.7366C7.41707 17.7366 7.41707 16.8986 8.33381 16.8986C9.25046 16.8986 9.25046 17.7366 10.167 17.7366C11.0836 17.7366 11.0836 16.8986 12.0002 16.8986C12.917 16.8986 12.917 17.7366 13.8337 17.7366C14.7505 17.7366 14.7505 16.8986 15.6671 16.8986C16.5837 16.8986 16.5837 17.7366 17.5003 17.7366C18.4169 17.7366 18.417 16.8986 19.3336 16.8986C20.2503 16.8986 20.2503 17.7366 21.1669 17.7366C21.2515 17.7366 21.3281 17.7295 21.3984 17.7164C21.8029 17.0532 22.1387 16.3437 22.397 15.5978C22.0091 15.8421 21.822 16.27 21.1669 16.27C20.2503 16.27 20.2503 15.4318 19.3336 15.4318Z" fill="#0052B4"/>
<path d="M1 11.9976C1 12.1979 1.00588 12.397 1.01658 12.5947C1.91647 12.6048 1.92245 13.4323 2.83351 13.4323C3.75017 13.4323 3.75017 12.5943 4.66669 12.5943C5.58343 12.5943 5.58343 13.4323 6.50016 13.4323C7.4169 13.4323 7.4169 12.5943 8.33364 12.5943C9.25029 12.5943 9.25029 13.4323 10.1668 13.4323C11.0835 13.4323 11.0835 12.5943 12.0001 12.5943C12.9168 12.5943 12.9168 13.4323 13.8336 13.4323C14.7503 13.4323 14.7503 12.5943 15.6669 12.5943C16.5836 12.5943 16.5836 13.4323 17.5002 13.4323C18.4168 13.4323 18.4168 12.5943 19.3334 12.5943C20.2502 12.5943 20.2502 13.4323 21.1668 13.4323C22.0779 13.4323 22.0839 12.6048 22.984 12.5947C22.9945 12.397 23 12.1979 23 11.9976H1Z" fill="#F0F0F0"/>
<path d="M19.3334 18.3015C18.4167 18.3015 18.4167 19.1396 17.5001 19.1396C16.5835 19.1396 16.5835 18.3015 15.6669 18.3015C14.7502 18.3015 14.7502 19.1396 13.8335 19.1396C12.9168 19.1396 12.9168 18.3015 12 18.3015C11.0834 18.3015 11.0834 19.1396 10.1668 19.1396C9.25025 19.1396 9.25025 18.3015 8.33359 18.3015C7.41686 18.3015 7.41686 19.1396 6.50012 19.1396C5.58338 19.1396 5.58338 18.3015 4.66664 18.3015C4.03354 18.3015 3.83765 18.7012 3.47499 18.9486C4.43702 20.1271 5.63885 21.1018 7.00547 21.7997L12.0002 21.548L16.9949 21.7996C18.3615 21.1017 19.5633 20.1271 20.5253 18.9487C20.1625 18.7013 19.9666 18.3015 19.3334 18.3015Z" fill="#0052B4"/>
<path d="M18.101 18.5638L14.7548 19.2038L14.3309 15.8237L12.0002 18.3096L9.66957 15.8236L9.24547 19.2038L5.89945 18.5637L7.54038 21.548L7.00448 21.8001C8.50357 22.5657 10.2014 22.9976 12.0002 22.9976C13.799 22.9976 15.4968 22.5657 16.9959 21.8001L16.4602 21.5481L18.101 18.5638Z" fill="#FFDA44"/>
</svg>
