<svg width="24" height="24" viewBox="0 0 24 24" fill="none" xmlns="http://www.w3.org/2000/svg">
<path d="M23 11.9976C23 18.0727 18.0751 22.9976 12 22.9976C5.92491 22.9976 1 18.0727 1 11.9976C1 12.0002 12 0.998762 12 0.997559C18.0751 0.997559 23 5.92246 23 11.9976Z" fill="#0052B4"/>
<path d="M11.9707 11.9976H12.0002C12.0002 11.9877 12.0002 11.978 12.0002 11.9681C11.9904 11.978 11.9806 11.9878 11.9707 11.9976Z" fill="#F0F0F0"/>
<path d="M12 6.73668C12 4.80115 12 3.53293 12 0.997559C11.9993 0.997559 11.9989 0.997559 11.9983 0.997559C5.92397 0.99859 1 5.92302 1 11.9976H6.73912V8.76584L9.97084 11.9976L11.9707 11.9976C11.9806 11.9878 11.9904 11.978 12.0002 11.9681C12.0002 11.227 12 10.5658 12 9.96849L8.76823 6.73668H12Z" fill="#F0F0F0"/>
<path d="M6.56522 2.43233C4.8448 3.41198 3.4145 4.84224 2.43489 6.56266V11.9976H5.30448V5.302L12.0001 5.30192C12.0001 4.39686 12.0001 3.53465 12.0001 2.43233H6.56522Z" fill="#D80027"/>
<path d="M16.7827 11.9976L13.8096 14.9707C14.3668 16.0454 15.4887 16.7802 16.7827 16.7802C18.0768 16.7802 19.1987 16.0454 19.7559 14.9707L16.7827 11.9976Z" fill="#FFDA44"/>
<path d="M12.0002 10.6449L8.09194 6.73672H6.73928L12.0002 11.9976C12.0002 11.9976 12.0002 11.0648 12.0002 10.6449Z" fill="#D80027"/>
<path d="M13.4349 6.73668V11.9975C13.4349 14.5601 16.7827 15.3454 16.7827 15.3454C16.7827 15.3454 20.1305 14.5602 20.1305 11.9976V6.73668H13.4349Z" fill="#6DA544"/>
<path d="M16.0654 9.12798H17.5002V12.954H16.0654V9.12798Z" fill="#F0F0F0"/>
<path d="M16.7828 9.84538C17.179 9.84538 17.5002 9.52419 17.5002 9.12798C17.5002 8.73177 17.179 8.41057 16.7828 8.41057C16.3865 8.41057 16.0654 8.73177 16.0654 9.12798C16.0654 9.52419 16.3865 9.84538 16.7828 9.84538Z" fill="#A2001D"/>
<path d="M14.3915 7.6932H15.348V8.64973H14.3915V7.6932Z" fill="#FFDA44"/>
<path d="M14.3914 9.84527H15.3479V10.8018H14.3914V9.84527Z" fill="#FFDA44"/>
<path d="M14.3914 11.9975H15.3479V12.954H14.3914V11.9975Z" fill="#FFDA44"/>
<path d="M18.2175 7.6931H19.174V8.64963H18.2175V7.6931Z" fill="#FFDA44"/>
<path d="M18.2175 9.84527H19.174V10.8018H18.2175V9.84527Z" fill="#FFDA44"/>
<path d="M18.2175 11.9975H19.174V12.954H18.2175V11.9975Z" fill="#FFDA44"/>
</svg>
