<svg width="24" height="24" viewBox="0 0 24 24" fill="none" xmlns="http://www.w3.org/2000/svg">
<path d="M12.0008 22.996C18.0754 22.996 22.9998 18.0719 22.9998 11.9976C22.9998 5.92339 18.0754 0.999237 12.0008 0.999237C5.92621 0.999237 1.00178 5.92339 1.00178 11.9976C1.00178 18.0719 5.92621 22.996 12.0008 22.996Z" fill="#F0F0F0"/>
<path d="M2.47529 6.49837C1.97884 7.35811 1.61263 8.25695 1.36876 9.1725L19.7633 19.7921C20.4343 19.1231 21.0298 18.3565 21.5261 17.4968L2.47529 6.49837Z" fill="black"/>
<path d="M17.5001 2.47266C13.099 -0.068092 7.67251 0.778712 4.23787 4.20305L22.6324 14.8225C23.8809 10.1362 21.901 5.01346 17.5001 2.47266Z" fill="#FFDA44"/>
<path d="M6.50103 21.5225C10.902 24.0632 16.3288 23.2164 19.7633 19.7921L1.36876 9.1725C0.120376 13.859 2.1 18.9817 6.50103 21.5225Z" fill="#FFDA44"/>
<path d="M15.1091 10.8021C15.1091 12.5187 13.7174 13.9104 12.0006 13.9104C10.2839 13.9104 8.8922 12.5188 8.8922 10.8021C8.8922 10.2669 9.02752 9.76327 9.26584 9.32356C8.59131 10.0133 8.17487 10.9566 8.17487 11.9976C8.17487 14.1104 9.88769 15.8232 12.0006 15.8232C14.1136 15.8232 15.8264 14.1104 15.8264 11.9976C15.8264 10.9566 15.41 10.0133 14.7354 9.32356C14.9737 9.76335 15.1091 10.2669 15.1091 10.8021Z" fill="#D80027"/>
<path d="M11.2834 7.21577H12.7181V14.3887H11.2834V7.21577Z" fill="#D80027"/>
<path d="M14.3917 8.65031H9.60957C9.60957 8.98045 9.89718 9.24806 10.2273 9.24806H10.2074C10.2074 9.5782 10.475 9.84581 10.8051 9.84581C10.8051 10.1759 11.0728 10.4436 11.4029 10.4436H12.5985C12.9286 10.4436 13.1962 10.1759 13.1962 9.84581C13.5264 9.84581 13.794 9.5782 13.794 9.24806H13.7741C14.1042 9.24802 14.3917 8.98049 14.3917 8.65031Z" fill="#D80027"/>
<path d="M8.65318 14.8668H15.3482V16.3014H8.65318V14.8668Z" fill="#D80027"/>
<path d="M13.4353 15.345H16.3046V16.7796H13.4353V15.345Z" fill="#D80027"/>
<path d="M7.69676 15.345H10.5661V16.7796H7.69676V15.345Z" fill="#D80027"/>
</svg>
