<svg width="24" height="24" viewBox="0 0 24 24" fill="none" xmlns="http://www.w3.org/2000/svg">
<path d="M23.0001 11.9976C23.0001 10.652 22.7581 9.3631 22.3159 8.17149L12.0001 7.6932L1.68431 8.17145C1.24217 9.3631 1.00012 10.652 1.00012 11.9976C1.00012 13.3431 1.24217 14.632 1.68431 15.8236L12.0001 16.3019L22.3159 15.8237C22.7581 14.632 23.0001 13.3431 23.0001 11.9976Z" fill="#496E2D"/>
<path d="M12.0001 22.9976C16.7297 22.9976 20.7617 20.0125 22.3159 15.8237L1.68431 15.8236C3.23854 20.0124 7.2705 22.9976 12.0001 22.9976Z" fill="#D80027"/>
<path d="M1.68431 8.17145L22.3159 8.17149C20.7617 3.98268 16.7297 0.997559 12.0001 0.997559C7.2705 0.997559 3.23854 3.98264 1.68431 8.17145Z" fill="#F0F0F0"/>
</svg>
