<svg width="24" height="24" viewBox="0 0 24 24" fill="none" xmlns="http://www.w3.org/2000/svg">
<path d="M12 22.9976C18.0751 22.9976 23 18.0727 23 11.9976C23 5.92243 18.0751 0.997559 12 0.997559C5.92487 0.997559 1 5.92243 1 11.9976C1 18.0727 5.92487 22.9976 12 22.9976Z" fill="#F0F0F0"/>
<path d="M18.6978 3.27069C14.7596 0.240275 9.24038 0.240275 5.3022 3.27065L12 9.96844L18.6978 3.27069Z" fill="#D80027"/>
<path d="M11.9999 14.0268L5.30216 20.7245C9.24033 23.7549 14.7596 23.7549 18.6978 20.7245L11.9999 14.0268Z" fill="#D80027"/>
<path d="M9.9709 11.9976L3.27315 5.29976C0.242732 9.23794 0.242732 14.7572 3.27315 18.6954L9.9709 11.9976Z" fill="#6DA544"/>
<path d="M14.0291 11.9975L20.7268 18.6953C23.7572 14.7571 23.7572 9.23789 20.7268 5.29972L14.0291 11.9975Z" fill="#6DA544"/>
<path d="M12 16.7802C14.6414 16.7802 16.7826 14.6389 16.7826 11.9976C16.7826 9.35621 14.6414 7.21497 12 7.21497C9.35866 7.21497 7.21742 9.35621 7.21742 11.9976C7.21742 14.6389 9.35866 16.7802 12 16.7802Z" fill="#F0F0F0"/>
<path d="M12.0002 8.64966L12.4143 9.36707H13.2427L12.8285 10.0844L13.2427 10.8018H12.4143L12.0002 11.5192L11.586 10.8018H10.7576L11.1718 10.0844L10.7576 9.36707H11.586L12.0002 8.64966Z" fill="#D80027"/>
<path d="M9.8949 11.9975L10.3091 12.7149H11.1374L10.7232 13.4323L11.1374 14.1497H10.3091L9.8949 14.8671L9.48068 14.1497H8.65233L9.0665 13.4323L8.65233 12.7149H9.48068L9.8949 11.9975Z" fill="#D80027"/>
<path d="M14.1055 11.9975L14.5196 12.7149H15.348L14.9338 13.4323L15.348 14.1497H14.5196L14.1055 14.8671L13.6912 14.1497H12.8629L13.2771 13.4323L12.8629 12.7149H13.6912L14.1055 11.9975Z" fill="#D80027"/>
</svg>
