<svg width="24" height="24" viewBox="0 0 24 24" fill="none" xmlns="http://www.w3.org/2000/svg">
<path d="M1 11.9976C1 13.9032 1.48482 15.6956 2.33749 17.2584L12 18.215L21.6625 17.2584C22.5152 15.6956 23 13.9032 23 11.9976C23 10.0919 22.5152 8.29949 21.6625 6.73668L12 5.78015L2.33749 6.73668C1.48482 8.29949 1 10.0919 1 11.9976Z" fill="#D80027"/>
<path d="M2.33749 6.73668H21.6625C19.7969 3.3174 16.1695 0.997559 12 0.997559C7.83053 0.997559 4.20315 3.3174 2.33749 6.73668Z" fill="#0052B4"/>
<path d="M12.0001 22.9976C16.1696 22.9976 19.7969 20.6777 21.6625 17.2584H2.33749C4.20315 20.6777 7.83061 22.9976 12.0001 22.9976Z" fill="#0052B4"/>
<path d="M15.8261 14.1497V12.715H14.8696V10.8019L13.9131 9.84539L12.9565 10.8019V8.88886L12 7.93233L11.0435 8.88886V10.8019L10.087 9.84539L9.13043 10.8019V12.715H8.17395V14.1497H7.21742V15.5845H16.7826V14.1497H15.8261Z" fill="#F0F0F0"/>
</svg>
