<svg width="24" height="24" viewBox="0 0 24 24" fill="none" xmlns="http://www.w3.org/2000/svg">
<path d="M16.7826 2.08905C15.3364 1.38978 13.714 0.997559 12 0.997559C10.286 0.997559 8.66355 1.38978 7.21739 2.08905L6.26086 11.9976L7.21739 21.9061C8.66355 22.6053 10.286 22.9976 12 22.9976C13.714 22.9976 15.3364 22.6053 16.7826 21.9061L17.7391 11.9976L16.7826 2.08905Z" fill="#D80027"/>
<path d="M11.9999 8.17149L12.9495 11.0942H16.023L13.5367 12.9008L14.4863 15.8236L11.9999 14.0172L9.51353 15.8236L10.4634 12.9008L7.97701 11.0942H11.0503L11.9999 8.17149Z" fill="#FFDA44"/>
<path d="M7.21739 2.08905C3.53798 3.86821 1 7.63648 1 11.9976C1 16.3586 3.53798 20.1269 7.21739 21.9061V2.08905Z" fill="#496E2D"/>
<path d="M16.7826 2.08905V21.9061C20.462 20.1269 23 16.3586 23 11.9976C23 7.63653 20.462 3.86821 16.7826 2.08905Z" fill="#FFDA44"/>
</svg>
