<svg width="24" height="24" viewBox="0 0 24 24" fill="none" xmlns="http://www.w3.org/2000/svg">
<path d="M12 0.997559C10.6545 0.997559 9.36555 1.2396 8.17394 1.68175L7.69566 11.9976L8.1739 22.3134C9.36555 22.7556 10.6545 22.9976 12 22.9976C13.3455 22.9976 14.6345 22.7556 15.8261 22.3134L16.3044 11.9976L15.8261 1.68175C14.6345 1.2396 13.3455 0.997559 12 0.997559Z" fill="#338AF3"/>
<path d="M23 11.9976C23 7.26795 20.0149 3.23597 15.8261 1.68175L15.8261 22.3134C20.0149 20.7591 23 16.7272 23 11.9976Z" fill="#FFDA44"/>
<path d="M8.1739 22.3134L8.17394 1.68175C3.98513 3.23597 1 7.26795 1 11.9976C1 16.7272 3.98509 20.7591 8.1739 22.3134Z" fill="#F0F0F0"/>
</svg>
