<svg width="24" height="24" viewBox="0 0 24 24" fill="none" xmlns="http://www.w3.org/2000/svg">
<path d="M12 22.9976C18.0751 22.9976 23 18.0727 23 11.9976C23 5.92243 18.0751 0.997559 12 0.997559C5.92487 0.997559 1 5.92243 1 11.9976C1 18.0727 5.92487 22.9976 12 22.9976Z" fill="#F0F0F0"/>
<path d="M23 11.9976C23 7.63649 20.462 3.86835 16.7826 2.0891V21.9061C20.462 20.1269 23 16.3586 23 11.9976Z" fill="#D80027"/>
<path d="M1 11.9976C1 16.3586 3.53795 20.1268 7.21741 21.9061V2.08906C3.53795 3.8683 1 7.63649 1 11.9976Z" fill="#D80027"/>
<path d="M13.9131 13.4324L15.8261 12.4759L14.8696 11.9976V11.0411L12.9565 11.9976L13.9131 10.0846H12.9565L12 8.64979L11.0435 10.0846H10.0869L11.0435 11.9976L9.13042 11.0411V11.9976L8.17393 12.4759L10.0869 13.4324L9.60871 14.3889H11.5218V15.8237H12.4782V14.3889H14.3913L13.9131 13.4324Z" fill="#D80027"/>
</svg>
