<svg width="24" height="24" viewBox="0 0 24 24" fill="none" xmlns="http://www.w3.org/2000/svg">
<path d="M12 22.9976C18.0751 22.9976 23 18.0727 23 11.9976C23 5.92243 18.0751 0.997559 12 0.997559C5.92487 0.997559 1 5.92243 1 11.9976C1 18.0727 5.92487 22.9976 12 22.9976Z" fill="#F0F0F0"/>
<path d="M12 22.9976C15.334 22.9976 18.3213 21.5141 20.3386 19.1715H3.66146C5.67871 21.5141 8.66601 22.9976 12 22.9976Z" fill="#0052B4"/>
<path d="M23 11.9976C23 5.92243 18.0751 0.997559 12 0.997559C5.92487 0.997559 1 5.92243 1 11.9976C1 12.9904 1.13234 13.9522 1.37894 14.8671H22.6211C22.8677 13.9522 23 12.9904 23 11.9976Z" fill="#0052B4"/>
<path d="M1.87431 16.3019C2.08636 16.8002 2.33425 17.2794 2.61454 17.7367H21.3855C21.6657 17.2793 21.9136 16.8001 22.1257 16.3019H1.87431Z" fill="#D80027"/>
<path d="M8.86287 12.7149L9.04094 13.2629H9.61719L9.15102 13.6016L9.32908 14.1497L8.86287 13.8109L8.39666 14.1497L8.57477 13.6016L8.1086 13.2629H8.68485L8.86287 12.7149Z" fill="#FFDA44"/>
<path d="M8.86287 19.8888L9.04094 20.4368H9.61719L9.15102 20.7755L9.32908 21.3235L8.86287 20.9849L8.39666 21.3235L8.57477 20.7755L8.1086 20.4368H8.68485L8.86287 19.8888Z" fill="#FFDA44"/>
<path d="M5.52352 17.4626L5.70158 18.0106H6.27784L5.81167 18.3493L5.98973 18.8974L5.52352 18.5587L5.05731 18.8974L5.23546 18.3493L4.76925 18.0106H5.34546L5.52352 17.4626Z" fill="#FFDA44"/>
<path d="M6.79903 13.4323L6.97709 13.9803H7.55331L7.08718 14.319L7.26524 14.8671L6.79903 14.5283L6.33282 14.8671L6.51097 14.319L6.04472 13.9803H6.62097L6.79903 13.4323Z" fill="#FFDA44"/>
<path d="M4.76925 15.6891L5.34537 15.6892L5.52348 15.141L5.70158 15.6891L6.27784 15.6891L5.81163 16.0278L5.98973 16.5759L5.52348 16.2372L5.05731 16.5758L5.23537 16.0278L4.76925 15.6891Z" fill="#FFDA44"/>
<path d="M6.33287 20.5015L6.51093 19.9535L6.04467 19.6148H6.62093L6.79903 19.0668L6.97714 19.6148H7.55335L7.08714 19.9535L7.2652 20.5016L6.79899 20.1628L6.33287 20.5015Z" fill="#FFDA44"/>
<path d="M12.201 17.4626L12.023 18.0106H11.4467L11.9129 18.3493L11.7348 18.8974L12.201 18.5587L12.6672 18.8974L12.4891 18.3493L12.9553 18.0106H12.3791L12.201 17.4626Z" fill="#FFDA44"/>
<path d="M10.9255 13.4323L10.7474 13.9803H10.1712L10.6373 14.319L10.4592 14.8671L10.9255 14.5283L11.3917 14.8671L11.2136 14.319L11.6798 13.9803H11.1035L10.9255 13.4323Z" fill="#FFDA44"/>
<path d="M12.9553 15.6891L12.3792 15.6892L12.2011 15.141L12.023 15.6891L11.4467 15.6891L11.9129 16.0278L11.7348 16.5759L12.2011 16.2372L12.6672 16.5758L12.4892 16.0278L12.9553 15.6891Z" fill="#FFDA44"/>
<path d="M11.3916 20.5015L11.2136 19.9535L11.6798 19.6148H11.1036L10.9255 19.0668L10.7474 19.6148H10.1711L10.6374 19.9535L10.4593 20.5016L10.9255 20.1628L11.3916 20.5015Z" fill="#FFDA44"/>
</svg>
