<svg width="24" height="24" viewBox="0 0 24 24" fill="none" xmlns="http://www.w3.org/2000/svg">
<path d="M23 11.9976C23 18.0727 18.0751 22.9976 12 22.9976C5.92491 22.9976 1 18.0727 1 11.9976C1 12.0002 12 0.998762 12 0.997559C18.0751 0.997559 23 5.92246 23 11.9976Z" fill="#0052B4"/>
<path d="M11.9706 11.9976H12C12 11.9877 12 11.978 12 11.9681C11.9902 11.978 11.9804 11.9878 11.9706 11.9976Z" fill="#F0F0F0"/>
<path d="M12 6.73668C12 4.80115 12 3.53293 12 0.997559C11.9993 0.997559 11.9988 0.997559 11.9982 0.997559C5.92383 0.99859 1 5.92302 1 11.9976H6.73912V8.76584L9.97084 11.9976L11.9706 11.9976C11.9804 11.9878 11.9902 11.978 12 11.9681C12 11.227 12 10.5658 12 9.96849L8.76823 6.73668H12Z" fill="#F0F0F0"/>
<path d="M16.7826 9.12802C17.8392 9.12802 18.6957 8.27152 18.6957 7.21497C18.6957 6.15842 17.8392 5.30191 16.7826 5.30191C15.7261 5.30191 14.8695 6.15842 14.8695 7.21497C14.8695 8.27152 15.7261 9.12802 16.7826 9.12802Z" fill="#6DA544"/>
<path d="M6.56486 2.43235C4.84443 3.412 3.41413 4.84226 2.43453 6.56268V11.9976H5.30411V5.30202L11.9998 5.30194C11.9998 4.39689 11.9998 3.53467 11.9998 2.43235H6.56486Z" fill="#D80027"/>
<path d="M11.9998 10.6449L8.09153 6.73675H6.73887L12 11.9976C12 11.9976 11.9998 11.0649 11.9998 10.6449Z" fill="#D80027"/>
<path d="M13.4345 6.73671H20.1302V9.60629H13.4345V6.73671Z" fill="#D80027"/>
<path d="M13.4348 13.9106V15.8237H14.4413C15.0448 16.4151 15.8708 16.7802 16.7826 16.7802C17.6943 16.7802 18.5204 16.4151 19.1239 15.8237H20.1304V13.9106H13.4348Z" fill="#FFDA44"/>
<path d="M13.4348 9.12798L13.4345 11.9984C13.4345 14.561 16.7826 15.3454 16.7826 15.3454C16.7826 15.3454 20.1302 14.561 20.1302 11.9984L20.1304 9.12798H13.4348Z" fill="#338AF3"/>
<path d="M16.7822 10.6607C15.9453 10.6607 15.9453 11.4259 15.1084 11.4259C14.2715 11.4259 14.2715 10.6607 13.4346 10.6607V11.9998C14.2715 11.9998 14.2715 12.765 15.1084 12.765C15.9453 12.765 15.9453 11.9998 16.7822 11.9998C17.6192 11.9998 17.6192 12.765 18.4562 12.765C19.2933 12.765 19.2932 11.9998 20.1303 11.9998V10.6607C19.2933 10.6607 19.2933 11.4259 18.4562 11.4259C17.6192 11.4259 17.6192 10.6607 16.7822 10.6607Z" fill="#F3F3F3"/>
<path d="M16.7824 7.98015C15.9455 7.98015 15.9455 8.74538 15.1086 8.74538C14.2717 8.74538 14.2717 7.98015 13.4348 7.98015V9.31927C14.2717 9.31927 14.2717 10.0845 15.1086 10.0845C15.9455 10.0845 15.9455 9.31927 16.7824 9.31927C17.6194 9.31927 17.6194 10.0845 18.4564 10.0845C19.2935 10.0845 19.2934 9.31927 20.1304 9.31927V7.98015C19.2935 7.98015 19.2935 8.74538 18.4564 8.74538C17.6194 8.74538 17.6194 7.98015 16.7824 7.98015Z" fill="#F3F3F3"/>
</svg>
