<svg width="24" height="24" viewBox="0 0 24 24" fill="none" xmlns="http://www.w3.org/2000/svg">
<path d="M12 22.9976C18.0751 22.9976 23 18.0727 23 11.9976C23 5.92243 18.0751 0.997559 12 0.997559C5.92487 0.997559 1 5.92243 1 11.9976C1 18.0727 5.92487 22.9976 12 22.9976Z" fill="#F0F0F0"/>
<path d="M21.6626 6.73658C20.2412 4.13142 17.797 2.16479 14.8697 1.37579L14.3914 6.73658H21.6626Z" fill="#0052B4"/>
<path d="M2.33749 6.73668H9.60866L9.13042 1.3759C6.20308 2.16489 3.75894 4.13157 2.33749 6.73668Z" fill="#0052B4"/>
<path d="M14.3913 11.9976V17.2584H21.6625C22.5152 15.6956 23 13.9032 23 11.9976H14.3913Z" fill="#6DA544"/>
<path d="M9.6087 11.9976H1C1 13.9032 1.48482 15.6956 2.33749 17.2584H9.60866L9.6087 11.9976Z" fill="#6DA544"/>
<path d="M2.33749 17.2584C3.75894 19.8636 6.20308 21.8302 9.13042 22.6192L9.60866 17.9309L2.33749 17.2584Z" fill="#FFDA44"/>
<path d="M14.8697 22.6191C17.797 21.8301 20.2411 19.8636 21.6625 17.2584L14.3914 17.9308L14.8697 22.6191Z" fill="#FFDA44"/>
<path d="M14.3914 17.9308L21.6625 17.2584H14.3913L14.3914 17.9308Z" fill="#FFDA44"/>
<path d="M9.60866 17.2584H2.33749L9.60866 17.9309L9.60866 17.2584Z" fill="#FFDA44"/>
<path d="M12 0.997559C11.0071 0.997559 10.0454 1.1293 9.13042 1.3759V22.6192C10.0454 22.8658 11.0071 22.9976 12 22.9976C12.9929 22.9976 13.9547 22.8657 14.8697 22.6191V1.37579C13.9547 1.1292 12.9929 0.997559 12 0.997559Z" fill="#D80027"/>
<path d="M6.91673 3.38886L7.21347 4.30225H8.17395L7.39699 4.86677L7.69377 5.78016L6.91673 5.21568L6.13972 5.78016L6.43659 4.86677L5.65963 4.30225H6.62003L6.91673 3.38886Z" fill="#FFDA44"/>
</svg>
