<svg width="24" height="24" viewBox="0 0 24 24" fill="none" xmlns="http://www.w3.org/2000/svg">
<path d="M12 22.9976C18.0751 22.9976 23 18.0727 23 11.9976C23 5.92243 18.0751 0.997559 12 0.997559C5.92487 0.997559 1 5.92243 1 11.9976C1 18.0727 5.92487 22.9976 12 22.9976Z" fill="#F0F0F0"/>
<path d="M12 0.997559C8.96241 0.997559 6.21243 2.22879 4.22182 4.21936L12 11.9976L12 0.997559Z" fill="black"/>
<path d="M1 11.9976C1 15.0351 2.23123 17.7851 4.2218 19.7758L12 11.9976H1Z" fill="black"/>
<path d="M12 22.9976C15.0376 22.9976 17.7876 21.7663 19.7782 19.7758L12 11.9976L12 22.9976Z" fill="black"/>
<path d="M23 11.9976C23 8.95997 21.7688 6.20997 19.7782 4.21935L12 11.9976H23Z" fill="black"/>
<path d="M8.17393 8.64973L12 9.1281L15.8261 8.64973V6.35408L14.2956 7.11932L12 4.82362L9.70435 7.11932L8.17393 6.35408V8.64973Z" fill="#FFDA44"/>
<path d="M12 17.7367C9.89028 17.7367 8.17393 16.0203 8.17393 13.9106V10.0847L9.60871 8.64983H14.3913L15.8261 10.0847V13.9106C15.8261 16.0203 14.1097 17.7367 12 17.7367Z" fill="#D80027"/>
<path d="M12 16.3019C10.6814 16.3019 9.60869 15.2292 9.60869 13.9106V10.0846H14.3913V13.9106C14.3913 15.2292 13.3186 16.3019 12 16.3019Z" fill="#F0F0F0"/>
<path d="M8.17393 8.64973L9.60871 8.64983L9.60869 10.0846L8.17393 10.0847V8.64973Z" fill="#FFDA44"/>
<path d="M14.3913 8.64983L15.8261 8.64973V10.0847L14.3913 10.0846L14.3913 8.64983Z" fill="#FFDA44"/>
<path d="M14.3913 11.7584H15.826V13.1931H14.3913V11.7584Z" fill="#FFDA44"/>
<path d="M8.17388 11.7584H9.60865V13.1931H8.17388V11.7584Z" fill="#FFDA44"/>
<path d="M12 16.3019C11.7501 16.3019 11.5091 16.2632 11.2825 16.1917V17.6682C11.5151 17.7125 11.7547 17.7367 12 17.7367C12.2453 17.7367 12.4848 17.7125 12.7173 17.6682V16.1917C12.4908 16.2631 12.2499 16.3019 12 16.3019Z" fill="#FFDA44"/>
<path d="M9.64063 14.2987L8.4956 15.4438C8.69411 15.8957 8.97737 16.3022 9.3255 16.6429L10.3396 15.6289C9.97768 15.2792 9.72558 14.8169 9.64063 14.2987Z" fill="#FFDA44"/>
<path d="M15.5043 15.4438L14.3593 14.2988C14.2743 14.8169 14.0222 15.2792 13.6604 15.629L14.6744 16.643C15.0225 16.3023 15.3058 15.8958 15.5043 15.4438Z" fill="#FFDA44"/>
<path d="M11.5217 10.8816V11.6787C11.5217 11.9428 11.7358 12.1569 11.9999 12.1569C12.264 12.1569 12.4781 11.9428 12.4781 11.6787V10.8816H11.5217Z" fill="#0052B4"/>
<path d="M11.5217 14.07V14.8671C11.5217 15.1312 11.7358 15.3453 11.9999 15.3453C12.264 15.3453 12.4781 15.1312 12.4781 14.8671V14.07H11.5217Z" fill="#0052B4"/>
<path d="M12.9564 12.4758V13.2729C12.9564 13.537 13.1706 13.7512 13.4347 13.7512C13.6988 13.7512 13.9129 13.537 13.9129 13.2729V12.4758H12.9564Z" fill="#0052B4"/>
<path d="M11.5217 12.4758V13.2729C11.5217 13.537 11.7358 13.7512 11.9999 13.7512C12.264 13.7512 12.4781 13.537 12.4781 13.2729V12.4758H11.5217Z" fill="#0052B4"/>
<path d="M10.0869 12.4758V13.2729C10.0869 13.537 10.301 13.7512 10.5651 13.7512C10.8292 13.7512 11.0433 13.537 11.0433 13.2729V12.4758H10.0869Z" fill="#0052B4"/>
</svg>
