<svg width="24" height="24" viewBox="0 0 24 24" fill="none" xmlns="http://www.w3.org/2000/svg">
<path d="M12 22.9973C18.0751 22.9973 23 18.0724 23 11.9973C23 5.92218 18.0751 0.997314 12 0.997314C5.92487 0.997314 1 5.92218 1 11.9973C1 18.0724 5.92487 22.9973 12 22.9973Z" fill="#F0F0F0"/>
<path d="M23 11.9973C23 18.0724 18.0751 22.9973 12 22.9973C5.92487 22.9973 1 18.0724 1 11.9973C1 5.92222 12 11.9973 12 11.9973C12 11.9973 20.3257 11.9973 23 11.9973Z" fill="#D80027"/>
<path d="M1 11.9973C1 5.92218 5.92487 0.997314 12 0.997314V11.9973C12 11.9973 4.82607 11.9973 1 11.9973Z" fill="#0052B4"/>
<path d="M7.54796 4.82338L8.26026 7.01556H10.5652L8.70047 8.37036L9.41272 10.5625L7.54796 9.2077L5.6832 10.5625L6.39545 8.37036L4.5307 7.01556H6.83567L7.54796 4.82338Z" fill="#F0F0F0"/>
</svg>
