<svg width="24" height="24" viewBox="0 0 24 24" fill="none" xmlns="http://www.w3.org/2000/svg">
<path d="M12 22.9973C18.0751 22.9973 23 18.0724 23 11.9973C23 5.92218 18.0751 0.997314 12 0.997314C5.92487 0.997314 1 5.92218 1 11.9973C1 18.0724 5.92487 22.9973 12 22.9973Z" fill="#D80027"/>
<path d="M7.01992 7.6918L7.96953 10.6137H11.0418L8.5582 12.4227L9.50781 15.3445L7.01992 13.5399L4.53203 15.3445L5.48594 12.4227L2.99805 10.6137H6.07031L7.01992 7.6918Z" fill="#FFDA44"/>
<path d="M14.041 18.0344L13.3149 17.1406L12.2406 17.5574L12.8637 16.5906L12.1375 15.6926L13.2504 15.9891L13.8777 15.0223L13.9379 16.1738L15.0551 16.4703L13.9766 16.8828L14.041 18.0344Z" fill="#FFDA44"/>
<path d="M15.4848 15.4133L15.8285 14.3133L14.8875 13.6473L16.0391 13.6301L16.3785 12.5301L16.7524 13.6215L17.9039 13.6086L16.9801 14.2961L17.3496 15.3875L16.4086 14.7215L15.4848 15.4133Z" fill="#FFDA44"/>
<path d="M17.4312 9.0711L16.9242 10.1066L17.7492 10.9102L16.6105 10.7469L16.1035 11.7781L15.9059 10.6438L14.7629 10.4805L15.7855 9.94337L15.5879 8.8047L16.4129 9.60821L17.4312 9.0711Z" fill="#FFDA44"/>
<path d="M14.0711 5.93438L13.9852 7.08165L15.0551 7.51563L13.9336 7.79063L13.852 8.94219L13.2461 7.96251L12.1246 8.23751L12.868 7.35665L12.2578 6.38126L13.3278 6.81524L14.0711 5.93438Z" fill="#FFDA44"/>
</svg>
