<svg width="24" height="24" viewBox="0 0 24 24" fill="none" xmlns="http://www.w3.org/2000/svg">
<path d="M12 22.9973C18.0751 22.9973 23 18.0724 23 11.9973C23 5.92218 18.0751 0.997314 12 0.997314C5.92487 0.997314 1 5.92218 1 11.9973C1 18.0724 5.92487 22.9973 12 22.9973Z" fill="#6DA544"/>
<path d="M17.8859 16.7799L18.1878 17.411L18.8694 17.2535L18.5642 17.883L19.1124 18.3177L18.4298 18.4715L18.4318 19.1712L17.8859 18.7335L17.3401 19.1712L17.342 18.4715L16.6596 18.3177L17.2077 17.883L16.9025 17.2535L17.5841 17.411L17.8859 16.7799Z" fill="#FFDA44"/>
<path d="M15.0778 10.0842L15.3797 10.7154L16.0614 10.5578L15.7561 11.1874L16.3042 11.6221L15.6218 11.7759L15.6236 12.4755L15.0778 12.0378L14.532 12.4755L14.5339 11.7759L13.8514 11.6221L14.3996 11.1874L14.0943 10.5578L14.776 10.7154L15.0778 10.0842Z" fill="#FFDA44"/>
<path d="M17.8859 6.25814L18.1878 6.88931L18.8694 6.7317L18.5642 7.36128L19.1123 7.796L18.4298 7.94978L18.4317 8.64944L17.8859 8.21172L17.3401 8.64944L17.342 7.94978L16.6596 7.796L17.2077 7.36128L16.9025 6.7317L17.5841 6.88931L17.8859 6.25814Z" fill="#FFDA44"/>
<path d="M20.3387 9.12768L20.6406 9.75885L21.3223 9.60128L21.017 10.2309L21.5651 10.6655L20.8827 10.8194L20.8846 11.519L20.3387 11.0813L19.7929 11.519L19.7948 10.8194L19.1124 10.6655L19.6605 10.2309L19.3552 9.60128L20.0369 9.75885L20.3387 9.12768Z" fill="#FFDA44"/>
<path d="M18.5848 12.4755L18.8223 13.2063H19.5906L18.969 13.6579L19.2065 14.3886L18.5848 13.937L17.9633 14.3886L18.2007 13.6579L17.5791 13.2063H18.3474L18.5848 12.4755Z" fill="#FFDA44"/>
<path d="M13.1955 15.106C11.4786 15.106 10.0868 13.7141 10.0868 11.9973C10.0868 10.2804 11.4786 8.88856 13.1955 8.88856C13.7308 8.88856 14.2346 9.02396 14.6743 9.26222C13.9844 8.58752 13.0411 8.17115 11.9998 8.17115C9.88677 8.17115 8.17378 9.88415 8.17378 11.9972C8.17378 14.1103 9.88677 15.8233 11.9998 15.8233C13.041 15.8233 13.9844 15.4069 14.6743 14.7322C14.2346 14.9706 13.7308 15.106 13.1955 15.106Z" fill="#FFDA44"/>
<path d="M7.91725 5.30162C7.58639 4.72996 6.96871 4.34509 6.26076 4.34509C5.5528 4.34509 4.93513 4.72996 4.60427 5.30162H7.91725Z" fill="#FFDA44"/>
<path d="M7.92362 5.31266L6.26077 6.97551L4.59792 5.31266C4.43898 5.59157 4.34776 5.91413 4.34776 6.25814C4.34776 7.3147 5.20425 8.1712 6.26081 8.1712C7.31737 8.1712 8.17387 7.31474 8.17387 6.25814C8.17382 5.91413 8.08256 5.59157 7.92362 5.31266Z" fill="#FFDA44"/>
<path d="M5.78258 6.49731V8.11096C5.93542 8.15028 6.09568 8.1712 6.26081 8.1712C6.42594 8.1712 6.58623 8.15024 6.73907 8.11096V6.49731H5.78258Z" fill="#A2001D"/>
</svg>
