<svg width="24" height="24" viewBox="0 0 24 24" fill="none" xmlns="http://www.w3.org/2000/svg">
<path d="M12 22.9973C18.0751 22.9973 23 18.0724 23 11.9973C23 5.92218 18.0751 0.997314 12 0.997314C5.9249 0.997314 1.00004 5.92218 1.00004 11.9973C1.00004 18.0724 5.9249 22.9973 12 22.9973Z" fill="#F0F0F0"/>
<path d="M22.9996 11.9655H11.0754C8.70793 14.333 7.2763 16.1607 5.81451 17.6225L12.0319 18.1828L21.6798 17.2263C22.5218 15.6711 23 13.89 23 11.9973C23 11.9867 22.9996 11.9761 22.9996 11.9655Z" fill="#D80027"/>
<path d="M5.81456 6.7046H21.6447C19.774 3.30285 16.1564 0.997314 12 0.997314C8.97051 0.997314 6.22758 2.2224 4.23834 4.20381L5.81456 6.7046Z" fill="#FFDA44"/>
<path d="M6.2928 17.2263C5.30392 18.2152 4.92176 19.0437 4.20628 19.7591C6.1981 21.7592 8.95432 22.9973 12 22.9973C16.1824 22.9973 19.8194 20.663 21.6798 17.2263L6.2928 17.2263Z" fill="#0052B4"/>
<path d="M4.22181 4.18727C-0.0739374 8.48303 -0.0739374 15.4479 4.22181 19.7437C5.99698 17.9685 7.70425 16.2612 12 11.9655L4.22181 4.18727Z" fill="#6DA544"/>
<path d="M3.90149 11.9655C3.90149 10.3628 5.02783 9.02396 6.53191 8.69551C6.30073 8.64502 6.06088 8.61765 5.8145 8.61765C3.96552 8.61765 2.46668 10.1165 2.46668 11.9655C2.46668 13.8145 3.96552 15.3133 5.8145 15.3133C6.06084 15.3133 6.30069 15.2859 6.53191 15.2354C5.02783 14.9069 3.90149 13.5681 3.90149 11.9655Z" fill="#F0F0F0"/>
<path d="M6.4949 9.09587L6.673 9.6439H7.24921L6.783 9.98262L6.96111 10.5306L6.4949 10.192L6.02869 10.5306L6.20679 9.98262L5.74058 9.6439H6.31679L6.4949 9.09587Z" fill="#F0F0F0"/>
<path d="M6.4949 10.5306L6.673 11.0787H7.24921L6.783 11.4174L6.96111 11.9655L6.4949 11.6267L6.02869 11.9655L6.20679 11.4174L5.74058 11.0787H6.31679L6.4949 10.5306Z" fill="#F0F0F0"/>
<path d="M6.4949 11.9655L6.673 12.5135H7.24921L6.783 12.8522L6.96111 13.4002L6.4949 13.0615L6.02869 13.4002L6.20679 12.8522L5.74058 12.5135H6.31679L6.4949 11.9655Z" fill="#F0F0F0"/>
<path d="M6.4949 13.4002L6.673 13.9482H7.24921L6.783 14.287L6.96111 14.835L6.4949 14.4963L6.02869 14.835L6.20679 14.287L5.74058 13.9482H6.31679L6.4949 13.4002Z" fill="#F0F0F0"/>
</svg>
