<svg width="24" height="24" viewBox="0 0 24 24" fill="none" xmlns="http://www.w3.org/2000/svg">
<path d="M23 11.9973C23 18.0724 18.0751 22.9973 12 22.9973C5.92491 22.9973 1 18.0724 1 11.9973C1 11.9999 12 0.998518 12 0.997314C18.0751 0.997314 23 5.92222 23 11.9973Z" fill="#0052B4"/>
<path d="M11.9706 11.9973H12C12 11.9874 12 11.9778 12 11.9679C11.9902 11.9777 11.9804 11.9875 11.9706 11.9973Z" fill="#F0F0F0"/>
<path d="M12 6.73644C12 4.80091 12 3.53269 12 0.997314C11.9993 0.997314 11.9988 0.997314 11.9982 0.997314C5.92383 0.998346 1 5.92278 1 11.9973H6.73912V8.76559L9.97084 11.9973L11.9706 11.9973C11.9804 11.9875 11.9902 11.9777 12 11.9679C12 11.2268 12 10.5656 12 9.96824L8.76823 6.73644H12Z" fill="#F0F0F0"/>
<path d="M6.56486 2.4321C4.84443 3.41174 3.41413 4.842 2.43453 6.56243V11.9973H5.30411V5.30177L11.9998 5.30168C11.9998 4.39663 11.9998 3.53442 11.9998 2.4321H6.56486Z" fill="#D80027"/>
<path d="M11.9998 10.6446L8.09153 6.7365H6.73887L12 11.9973C12 11.9973 11.9998 11.0646 11.9998 10.6446Z" fill="#D80027"/>
<path d="M15.8261 11.9973L16.0297 12.6236H16.6882L16.1554 13.0107L16.3589 13.637L15.8261 13.2499L15.2933 13.637L15.4968 13.0107L14.9641 12.6236H15.6226L15.8261 11.9973Z" fill="#F0F0F0"/>
<path d="M13.1207 13.118L13.7074 13.4169L14.1731 12.9513L14.0701 13.6017L14.6569 13.9007L14.0064 14.0037L13.9034 14.6542L13.6044 14.0674L12.954 14.1704L13.4197 13.7048L13.1207 13.118Z" fill="#F0F0F0"/>
<path d="M12 15.8234L12.6263 15.6199L12.6264 14.9614L13.0134 15.4941L13.6397 15.2906L13.2526 15.8234L13.6397 16.3562L13.0134 16.1527L12.6264 16.6855V16.027L12 15.8234Z" fill="#F0F0F0"/>
<path d="M13.1207 18.5288L13.4196 17.942L12.954 17.4764L13.6044 17.5794L13.9034 16.9926L14.0064 17.6431L14.6569 17.7461L14.0701 18.0451L14.1731 18.6956L13.7074 18.2298L13.1207 18.5288Z" fill="#F0F0F0"/>
<path d="M15.8261 19.6495L15.6226 19.0231H14.964L15.4968 18.6361L15.2933 18.0098L15.8261 18.3968L16.3589 18.0098L16.1554 18.6361L16.6882 19.0231H16.0297L15.8261 19.6495Z" fill="#F0F0F0"/>
<path d="M18.5315 18.5288L17.9447 18.2299L17.4791 18.6956L17.5821 18.0451L16.9953 17.7461L17.6458 17.6431L17.7488 16.9926L18.0478 17.5794L18.6982 17.4764L18.2325 17.9421L18.5315 18.5288Z" fill="#F0F0F0"/>
<path d="M19.6522 15.8234L19.0258 16.027V16.6855L18.6388 16.1527L18.0124 16.3562L18.3995 15.8234L18.0124 15.2906L18.6388 15.4941L19.0258 14.9614V15.6199L19.6522 15.8234Z" fill="#F0F0F0"/>
<path d="M18.5315 13.118L18.2326 13.7048L18.6982 14.1704L18.0478 14.0674L17.7488 14.6542L17.6458 14.0037L16.9953 13.9007L17.5821 13.6017L17.4791 12.9513L17.9448 13.4169L18.5315 13.118Z" fill="#F0F0F0"/>
</svg>
