<svg width="24" height="24" viewBox="0 0 24 24" fill="none" xmlns="http://www.w3.org/2000/svg">
<path d="M12 22.9973C18.0751 22.9973 23 18.0724 23 11.9973C23 5.92218 18.0751 0.997314 12 0.997314C5.92487 0.997314 1 5.92218 1 11.9973C1 18.0724 5.92487 22.9973 12 22.9973Z" fill="#FCFCFC"/>
<path d="M15.83 10.3144C15.83 7.98786 13.9441 6.10191 11.6176 6.10191C9.90083 6.10191 8.42499 7.1293 7.76877 8.60244L7.24923 10.486L7.72747 10.9642L6.77095 12.8773L7.72747 13.3555L7.24923 13.8338V14.312L7.72747 14.7902V15.7468L8.20572 16.225L9.64049 15.7468C9.64049 15.7468 9.64049 16.225 10.1187 16.7033C10.597 17.1815 11.0753 18.1381 11.0753 18.1381C11.0753 18.1381 12.5101 18.6163 13.4666 17.1816C14.4231 15.7468 15.3797 15.2685 15.3797 15.2685L14.4577 13.4246C15.3008 12.6544 15.83 11.5464 15.83 10.3144Z" fill="black"/>
<path d="M16.1734 11.9252C18.1168 11.5974 18.4405 7.79183 18.4405 7.79183H15.7623C17.1492 11.1397 15.6975 11.3649 15.6975 11.3649C15.5009 11.2185 8.46267 7.88434 8.23957 7.79957C8.18582 7.8715 7.98795 8.06043 7.74741 8.64867C7.50683 9.23691 7.44779 9.76612 7.44779 9.76612C7.56045 9.83955 15.035 12.4495 15.2326 12.4713C15.6247 12.7276 16.1071 13.4942 15.8375 15.7672L18.4153 15.0407C18.4153 15.0407 17.5405 12.7133 16.1734 11.9252Z" fill="#ACABB1"/>
</svg>
