<svg width="24" height="24" viewBox="0 0 24 24" fill="none" xmlns="http://www.w3.org/2000/svg">
<path d="M12 22.9973C18.0751 22.9973 23 18.0724 23 11.9973C23 5.92218 18.0751 0.997314 12 0.997314C5.92487 0.997314 1 5.92218 1 11.9973C1 18.0724 5.92487 22.9973 12 22.9973Z" fill="#F0F0F0"/>
<path d="M22.3158 8.17125H1.68419C1.24204 9.3629 1 10.6518 1 11.9973C1 13.3428 1.24204 14.6317 1.68419 15.8234H22.3159C22.758 14.6317 23 13.3428 23 11.9973C23 10.6518 22.758 9.3629 22.3158 8.17125Z" fill="#D80027"/>
<path d="M12 0.997314C8.66601 0.997314 5.67871 2.48077 3.66146 4.82338H20.3385C18.3213 2.48077 15.334 0.997314 12 0.997314Z" fill="#0052B4"/>
<path d="M20.3387 19.1712H3.66154C5.6788 21.5139 8.66601 22.9973 12 22.9973C15.334 22.9973 18.3214 21.5139 20.3387 19.1712Z" fill="#0052B4"/>
</svg>
