<svg width="24" height="24" viewBox="0 0 24 24" fill="none" xmlns="http://www.w3.org/2000/svg">
<path d="M23 11.9973C23 10.6518 22.758 9.36286 22.3158 8.17125L12 7.69297L1.68419 8.17121C1.24204 9.36286 1 10.6518 1 11.9973C1 13.3428 1.24204 14.6318 1.68419 15.8234L12 16.3017L22.3158 15.8234C22.758 14.6318 23 13.3428 23 11.9973Z" fill="#F0F0F0"/>
<path d="M12 22.9973C16.7296 22.9973 20.7616 20.0122 22.3158 15.8234L1.68419 15.8234C3.23841 20.0122 7.27038 22.9973 12 22.9973Z" fill="#0052B4"/>
<path d="M1.68419 8.17121L22.3158 8.17125C20.7615 3.98244 16.7296 0.997314 12 0.997314C7.27038 0.997314 3.23841 3.9824 1.68419 8.17121Z" fill="#D80027"/>
<path d="M14.8695 8.64951H12.9565L13.2754 6.25817L14.5507 5.30164L15.826 6.25817V8.17122L14.8695 8.64951Z" fill="#338AF3"/>
<path d="M9.13042 8.64953H11.0435L10.7246 6.25819L9.44925 5.30166L8.17393 6.25819V8.17125L9.13042 8.64953Z" fill="#338AF3"/>
<path d="M13.2754 8.64953H10.7246L10.7246 6.25819L12 5.30166L13.2754 6.25817L13.2754 8.64953Z" fill="#0052B4"/>
<path d="M8.17393 8.17125V13.4321C8.17393 14.6848 8.77902 15.7988 9.7123 16.4972L10.3819 16.3296L11.2268 17.1796C11.4767 17.2311 11.7352 17.2582 12 17.2582C12.2634 17.2582 12.5207 17.2315 12.7692 17.1805L13.7337 16.3774L14.2877 16.4956C15.2206 15.7973 15.8261 14.6845 15.8261 13.4321L15.826 8.17122L8.17393 8.17125Z" fill="#F0F0F0"/>
<path d="M8.17393 8.17125L9.70435 8.17125V9.70167H8.17393V8.17125Z" fill="#D80027"/>
<path d="M11.2347 8.17119H12.7651V9.70161H11.2347V8.17119Z" fill="#D80027"/>
<path d="M14.2956 8.17119L15.826 8.17122L15.826 9.70161H14.2956V8.17119Z" fill="#D80027"/>
<path d="M9.70435 9.70167L11.2347 9.70161L11.2347 11.232H9.70431L9.70435 9.70167Z" fill="#D80027"/>
<path d="M12.7651 9.70161H14.2956L14.2956 11.232H12.7652L12.7651 9.70161Z" fill="#D80027"/>
<path d="M8.17388 11.2316L9.70431 11.232L9.7043 12.762H8.17388V11.2316Z" fill="#D80027"/>
<path d="M9.7043 12.762L11.2347 12.762V14.2924H9.70431L9.7043 12.762Z" fill="#D80027"/>
<path d="M11.2347 11.232H12.7652L12.7651 12.762L11.2347 12.762V11.232Z" fill="#D80027"/>
<path d="M14.2956 11.232L15.826 11.2316V12.762H14.2956L14.2956 11.232Z" fill="#D80027"/>
<path d="M12.7651 12.762H14.2956L14.2956 14.2924H12.7652L12.7651 12.762Z" fill="#D80027"/>
<path d="M11.2347 14.2924H12.7652L12.7651 15.8229H11.2347L11.2347 14.2924Z" fill="#D80027"/>
<path d="M9.70431 14.2924L8.27261 14.2926C8.40393 14.8615 8.66208 15.382 9.01606 15.823H9.70429L9.70431 14.2924Z" fill="#D80027"/>
<path d="M14.2956 15.823H14.9838C15.3378 15.3821 15.5959 14.8615 15.7272 14.2926L14.2956 14.2924L14.2956 15.823Z" fill="#D80027"/>
<path d="M9.70429 15.823L9.70431 16.4908C10.1494 16.8257 10.6696 17.0659 11.2347 17.1811L11.2347 15.8229L9.70429 15.823Z" fill="#D80027"/>
<path d="M12.7651 15.8229L12.7652 17.1811C13.3303 17.066 13.8505 16.8257 14.2956 16.4908L14.2956 15.823L12.7651 15.8229Z" fill="#D80027"/>
</svg>
