<svg width="24" height="24" viewBox="0 0 24 24" fill="none" xmlns="http://www.w3.org/2000/svg">
<path d="M1.00004 2.91033L1 21.0843L1.00004 11.9974V2.91033Z" fill="#FF9811"/>
<path d="M12 22.9973C18.0751 22.9973 23 18.0724 23 11.9973C23 5.92218 18.0751 0.997314 12 0.997314C5.92487 0.997314 1.00004 5.92222 1.00004 11.9974C1.00004 18.0725 5.92487 22.9973 12 22.9973Z" fill="#F0F0F0"/>
<path d="M12 0.997314C8.40127 0.997314 5.20634 2.72567 3.19948 5.39735H20.8004C18.7936 2.72563 15.5987 0.997314 12 0.997314Z" fill="#0052B4"/>
<path d="M12 22.9973C15.5987 22.9973 18.7936 21.269 20.8005 18.5973H3.19948C5.2063 21.269 8.40127 22.9973 12 22.9973Z" fill="#0052B4"/>
<path d="M1.00004 11.9974C1.00004 12.7508 1.07589 13.4865 1.22022 14.1973H22.7797C22.9241 13.4865 23 12.7508 23 11.9973C23 11.2439 22.924 10.5082 22.7797 9.79733H1.22022C1.07589 10.5082 1.00004 11.2439 1.00004 11.9974Z" fill="#0052B4"/>
<path d="M4.22184 4.21917C-0.0738908 8.5149 -0.0738908 15.4798 4.22184 19.7756C5.99702 18.0004 7.70426 16.2931 12 11.9974L4.22184 4.21917Z" fill="#D80027"/>
<path d="M5.45204 9.12781L6.1642 11.3199H8.46931L6.60459 12.6748L7.31676 14.8669L5.45204 13.5121L3.58723 14.8669L4.29957 12.6748L2.4348 11.3199H4.73974L5.45204 9.12781Z" fill="#F0F0F0"/>
</svg>
