<svg width="24" height="24" viewBox="0 0 24 24" fill="none" xmlns="http://www.w3.org/2000/svg">
<path d="M11.9998 22.9973C18.0749 22.9973 22.9998 18.0724 22.9998 11.9973C22.9998 5.92218 18.0749 0.997314 11.9998 0.997314C5.92462 0.997314 0.999756 5.92218 0.999756 11.9973C0.999756 18.0724 5.92462 22.9973 11.9998 22.9973Z" fill="#FFDA44"/>
<path d="M11.9998 22.9973C15.6091 22.9973 18.8126 21.2589 20.8184 18.5737H3.18155C5.18733 21.2589 8.39038 22.9973 11.9998 22.9973Z" fill="#0052B4"/>
<path d="M22.9998 11.9973C22.9998 5.92218 18.0749 0.997314 11.9998 0.997314C5.92462 0.997314 0.999756 5.92218 0.999756 11.9973C0.999756 13.2981 1.22616 14.5459 1.64068 15.7042H22.3588C22.7734 14.5459 22.9998 13.2981 22.9998 11.9973Z" fill="#0052B4"/>
<path d="M8.52867 8.052L9.12219 9.87868H11.0431L9.48911 11.0078L10.0826 12.8346L8.52867 11.7055L6.9747 12.8346L7.56832 11.0078L6.01435 9.87868H7.93514L8.52867 8.052Z" fill="#F0F0F0"/>
<path d="M5.23019 6.13896L5.58631 7.235H6.73886L5.80649 7.91245L6.16261 9.00854L5.23019 8.33109L4.29781 9.00854L4.65398 7.91245L3.72164 7.235H4.87415L5.23019 6.13896Z" fill="#F0F0F0"/>
</svg>
