<svg width="24" height="24" viewBox="0 0 24 24" fill="none" xmlns="http://www.w3.org/2000/svg">
<path d="M11.9996 22.9973C18.0748 22.9973 22.9996 18.0724 22.9996 11.9973C22.9996 5.92218 18.0748 0.997314 11.9996 0.997314C5.9245 0.997314 0.999634 5.92218 0.999634 11.9973C0.999634 18.0724 5.9245 22.9973 11.9996 22.9973Z" fill="#FCFCFC"/>
<path d="M18.217 10.5625C17.8823 10.5625 17.4677 10.5625 16.7823 10.5625C16.7823 13.2039 14.641 15.3451 11.9997 15.3451C9.35824 15.3451 7.21707 13.2039 7.21707 10.5625C6.75473 10.5625 6.24456 10.5625 5.7823 10.5625C5.7823 13.4077 7.69338 15.8065 10.302 16.5453C10.016 17.0886 10.0596 17.7726 10.4681 18.2824C11.0047 17.8524 11.5603 17.4072 12.0315 17.0296C12.5028 17.4072 13.0584 17.8524 13.595 18.2824C14.0075 17.7675 14.0482 17.0748 13.7527 16.5289C16.3327 15.772 18.217 13.3875 18.217 10.5625Z" fill="#6DA544"/>
<path d="M8.17357 10.0843C8.17357 10.0843 8.17357 12.4756 10.5649 12.4756L11.0431 12.9538H11.9996C11.9996 12.9538 12.4779 11.519 13.4344 11.519C13.4344 11.519 13.4344 10.5625 14.3909 10.5625C15.3475 10.5625 15.8257 10.5625 15.8257 10.5625C15.8257 10.5625 15.3475 8.64945 17.7388 7.21468L16.7822 6.73644C16.7822 6.73644 13.4344 9.12773 11.0431 8.64949V9.60602H10.0866L9.60834 9.12778L8.17357 10.0843Z" fill="#FFDA44"/>
</svg>
