<svg width="24" height="24" viewBox="0 0 24 24" fill="none" xmlns="http://www.w3.org/2000/svg">
<path d="M11.9996 22.9973C18.0747 22.9973 22.9996 18.0724 22.9996 11.9973C22.9996 5.92218 18.0747 0.997314 11.9996 0.997314C5.92446 0.997314 0.999594 5.92218 0.999594 11.9973C0.999594 18.0724 5.92446 22.9973 11.9996 22.9973Z" fill="#F0F0F0"/>
<path d="M11.0431 11.9973C11.0431 11.9973 4.22785 19.777 4.22141 19.7755C6.21198 21.7661 8.962 22.9973 11.9996 22.9973C18.0747 22.9973 22.9996 18.0724 22.9996 11.9973H11.0431Z" fill="#D80027"/>
<path d="M4.22137 4.21911C-0.0743859 8.51487 -0.0743452 15.4797 4.22141 19.7755C5.99657 18.0003 7.70381 16.2931 11.9996 11.9973L4.22137 4.21911Z" fill="#0052B4"/>
</svg>
