<svg width="24" height="24" viewBox="0 0 24 24" fill="none" xmlns="http://www.w3.org/2000/svg">
<path d="M21.7791 6.95347C21.2708 5.96867 20.6045 5.04432 19.779 4.21881C18.9535 3.39325 18.0291 2.72702 17.0443 2.21878L9.29496 9.2917L2.222 17.0411C2.73028 18.0259 3.39651 18.9503 4.22203 19.7758C5.04754 20.6013 5.97193 21.2675 6.95669 21.7758L14.7061 14.7028L21.7791 6.95347Z" fill="#FFDA44"/>
<path d="M4.22203 19.7758C4.68347 20.2372 5.17584 20.6488 5.69228 21.0112L21.0142 5.68911C20.652 5.17267 20.2405 4.68025 19.779 4.21881C19.3175 3.75737 18.8252 3.3459 18.3087 2.98359L2.98675 18.3056C3.34902 18.8219 3.76054 19.3143 4.22203 19.7758Z" fill="#D80027"/>
<path d="M4.22204 4.21876C0.751586 7.68922 0.0853398 12.9012 2.222 17.0411L17.0443 2.21878C12.9045 0.0821629 7.69245 0.748478 4.22204 4.21876Z" fill="#338AF3"/>
<path d="M19.779 19.7758C23.2494 16.3054 23.9156 11.0933 21.7791 6.95347L6.95669 21.7758C11.0965 23.9124 16.3086 23.2463 19.779 19.7758Z" fill="#338AF3"/>
<path d="M6.86256 4.34479L7.45613 6.1717H9.37701L7.823 7.30074L8.41657 9.1276L6.86256 7.99851L5.30847 9.1276L5.90213 7.30074L4.34803 6.1717H6.26891L6.86256 4.34479Z" fill="#FFDA44"/>
</svg>
