<svg width="24" height="24" viewBox="0 0 24 24" fill="none" xmlns="http://www.w3.org/2000/svg">
<path d="M12.0004 22.9973C18.0755 22.9973 23.0004 18.0724 23.0004 11.9973C23.0004 5.92218 18.0755 0.997314 12.0004 0.997314C5.92523 0.997314 1.00037 5.92218 1.00037 11.9973C1.00037 18.0724 5.92523 22.9973 12.0004 22.9973Z" fill="#F0F0F0"/>
<path d="M9.60902 10.5625H22.9072C22.2041 5.16537 17.5892 0.997314 12.0004 0.997314C11.179 0.997314 10.379 1.08811 9.60898 1.25878L9.60902 10.5625Z" fill="#D80027"/>
<path d="M6.73941 10.5625V2.3348C3.71901 3.98283 1.55673 7.00572 1.0934 10.5625L6.73941 10.5625Z" fill="#D80027"/>
<path d="M6.73937 13.4321H1.0934C1.55673 16.9889 3.71901 20.0118 6.73941 21.6598L6.73937 13.4321Z" fill="#D80027"/>
<path d="M9.60898 13.4321V22.7359C10.379 22.9065 11.179 22.9973 12.0004 22.9973C17.5892 22.9973 22.2041 18.8293 22.9072 13.4321L9.60898 13.4321Z" fill="#D80027"/>
</svg>
