<svg width="24" height="24" viewBox="0 0 24 24" fill="none" xmlns="http://www.w3.org/2000/svg">
<path d="M11.0439 12.9538C11.0439 12.9538 4.22863 4.21761 4.22218 4.21915C6.21275 2.22854 8.96279 0.997314 12.0004 0.997314C18.0755 0.997314 23.0004 5.92222 23.0004 11.9973L11.0439 12.9538Z" fill="#338AF3"/>
<path d="M11.0439 11.9973C11.0439 11.9973 4.22863 19.777 4.22218 19.7755C6.21275 21.7661 8.96279 22.9973 12.0004 22.9973C18.0755 22.9973 23.0004 18.0724 23.0004 11.9973H11.0439Z" fill="#6DA544"/>
<path d="M4.22218 4.21915C-0.073572 8.51491 -0.073572 15.4797 4.22218 19.7755C5.99735 18.0003 7.70458 16.2931 12.0003 11.9973L4.22218 4.21915Z" fill="#F0F0F0"/>
<path d="M5.45234 9.12773L6.16455 11.3198H8.46965L6.60489 12.6747L7.31705 14.8669L5.45234 13.512L3.58754 14.8669L4.29988 12.6747L2.43512 11.3198H4.74005L5.45234 9.12773Z" fill="#D80027"/>
</svg>
