<svg width="24" height="24" viewBox="0 0 24 24" fill="none" xmlns="http://www.w3.org/2000/svg">
<path d="M12 22.9973C18.0751 22.9973 23 18.0724 23 11.9973C23 5.92218 18.0751 0.997314 12 0.997314C5.92487 0.997314 1 5.92218 1 11.9973C1 18.0724 5.92487 22.9973 12 22.9973Z" fill="#F0F0F0"/>
<path d="M1.37909 14.8669C2.39478 18.6354 5.36208 21.6027 9.13061 22.6184V14.8669H1.37909Z" fill="#D80027"/>
<path d="M9.13057 1.37625C5.36208 2.39191 2.39474 5.35924 1.37909 9.12773H9.13061L9.13057 1.37625Z" fill="#0052B4"/>
<path d="M22.6212 9.12773C21.6055 5.35924 18.6382 2.39191 14.8697 1.37625V9.12777L22.6212 9.12773Z" fill="#D80027"/>
<path d="M14.8697 22.6184C18.6382 21.6027 21.6055 18.6354 22.6212 14.8669H14.8697V22.6184Z" fill="#0052B4"/>
<path d="M14.8697 11.9973C14.8697 13.5822 13.585 14.8669 12.0001 14.8669C10.4153 14.8669 9.13054 13.5822 9.13054 11.9973C9.13054 10.4125 12.0001 9.12773 12.0001 9.12773C12.0001 9.12773 14.8697 10.4125 14.8697 11.9973Z" fill="#496E2D"/>
<path d="M9.13054 11.9973C9.13054 10.4125 10.4153 9.12773 12.0001 9.12773C13.585 9.12773 14.8697 10.4125 14.8697 11.9973" fill="#0052B4"/>
<path d="M10.386 10.5625V12.356C10.386 13.2475 11.1086 13.9701 12.0001 13.9701C12.8916 13.9701 13.6142 13.2475 13.6142 12.356V10.5625H10.386Z" fill="#D80027"/>
</svg>
