<svg width="24" height="24" viewBox="0 0 24 24" fill="none" xmlns="http://www.w3.org/2000/svg">
<path d="M12.0001 22.9973C18.0753 22.9973 23.0001 18.0724 23.0001 11.9973C23.0001 5.92218 18.0753 0.997314 12.0001 0.997314C5.92499 0.997314 1.00012 5.92218 1.00012 11.9973C1.00012 18.0724 5.92499 22.9973 12.0001 22.9973Z" fill="#F0F0F0"/>
<path d="M14.1526 22.7862C18.5011 21.9236 21.9266 18.498 22.7893 14.1495H14.1526V22.7862Z" fill="#496E2D"/>
<path d="M1.21149 14.1495C2.07409 18.498 5.49965 21.9236 9.84821 22.7862V14.1495H1.21149Z" fill="#496E2D"/>
<path d="M22.7893 9.84515C21.9266 5.49663 18.5011 2.07107 14.1526 1.20843V9.84515H22.7893Z" fill="#496E2D"/>
<path d="M9.84816 1.20842C5.49959 2.07106 2.07404 5.49662 1.21144 9.84514H9.84816V1.20842Z" fill="#496E2D"/>
<path d="M11.283 14.1495L9.84821 14.1495V22.7862C10.3164 22.8791 10.7954 22.942 11.283 22.9734V14.1495Z" fill="#FFDA44"/>
<path d="M11.2829 9.84514V1.02125C10.7954 1.05262 10.3163 1.11557 9.84816 1.20842V9.84514L11.2829 9.84514Z" fill="#FFDA44"/>
<path d="M12.7177 1.02125C12.4805 1.00591 12.2412 0.997314 12.0001 0.997314C11.759 0.997314 11.5202 1.00591 11.2829 1.02125V9.84514L12.7177 9.84518L12.7177 1.02125Z" fill="black"/>
<path d="M11.283 22.9734C11.5202 22.9887 11.759 22.9973 12.0001 22.9973C12.2412 22.9973 12.4805 22.9887 12.7177 22.9734V14.1495L11.283 14.1495V22.9734Z" fill="black"/>
<path d="M9.84814 11.2799L9.84816 9.84514H1.21144C1.11854 10.3134 1.05562 10.7923 1.02425 11.2799H9.84814Z" fill="#FFDA44"/>
<path d="M14.1525 11.2799H22.9764C22.945 10.7923 22.8821 10.3134 22.7893 9.84515H14.1526L14.1525 11.2799Z" fill="#FFDA44"/>
<path d="M14.1525 12.7147H22.9764C22.9917 12.4775 23.0001 12.2384 23.0001 11.9973C23.0001 11.7562 22.9917 11.5171 22.9764 11.2799H14.1525L14.1525 12.7147Z" fill="black"/>
<path d="M1.02425 11.2799C1.00895 11.5171 1.00012 11.7562 1.00012 11.9973C1.00012 12.2384 1.00897 12.4775 1.02426 12.7147H9.8482L9.84814 11.2799H1.02425Z" fill="black"/>
<path d="M12.0003 17.2582C14.9059 17.2582 17.2612 14.9028 17.2612 11.9973C17.2612 9.09181 14.9059 6.73644 12.0003 6.73644C9.09484 6.73644 6.73947 9.09181 6.73947 11.9973C6.73947 14.9028 9.09484 17.2582 12.0003 17.2582Z" fill="#D80027"/>
<path d="M13.1991 12.5843C12.8077 11.8017 12.2991 11.0085 12.2991 11.0085C12.2991 11.0085 12.3118 10.6473 12.3118 10.4321C12.3118 10.108 12.049 9.84519 11.7248 9.84519C11.4177 9.84519 11.1661 10.0811 11.1404 10.3815C10.8989 10.3973 10.7079 10.5976 10.7079 10.8431C10.7079 11.0215 10.809 11.1761 10.957 11.2534C11.0305 11.0814 11.1746 10.9471 11.3527 10.8858C11.3817 10.9096 11.4129 10.9308 11.4462 10.9488L11.5214 10.9848C11.5214 10.9848 11.2426 11.7708 11.2426 12.193C11.2426 13.38 12.0252 13.746 12.0252 13.746V13.7583L11.6339 14.1495H12.4165V13.3669L12.8078 13.7582C12.8113 13.7509 13.549 13.2843 13.1991 12.5843Z" fill="#496E2D"/>
<path d="M12.0005 7.69297L12.1785 8.24099H12.7547L12.2886 8.57972L12.4667 9.12774L12.0005 8.78906L11.5343 9.12774L11.7124 8.57972L11.2462 8.24099H11.8224L12.0005 7.69297Z" fill="#496E2D"/>
<path d="M9.47046 8.51505L9.93658 8.85377L10.4028 8.515L10.2247 9.06311L10.6909 9.40175L10.1147 9.40179L9.93663 9.94982L9.75852 9.40179L9.18231 9.40175L9.64848 9.06303L9.47046 8.51505Z" fill="#496E2D"/>
<path d="M7.9068 10.6672H8.48297L8.66107 10.1192L8.83914 10.6672L9.41539 10.6672L8.94922 11.0059L9.12733 11.554L8.66107 11.2152L8.19491 11.5539L8.37292 11.0059L7.9068 10.6672Z" fill="#496E2D"/>
<path d="M7.9068 13.3274L8.37292 12.9888L8.19486 12.4407L8.66107 12.7794L9.12728 12.4407L8.94922 12.9887L9.41543 13.3275L8.83914 13.3275L8.66107 13.8755L8.48297 13.3274H7.9068Z" fill="#496E2D"/>
<path d="M9.47046 15.4796L9.64848 14.9317L9.18227 14.5929H9.75852L9.93663 14.0449L10.1147 14.5929H10.6909L10.2247 14.9317L10.4028 15.4796L9.93658 15.1409L9.47046 15.4796Z" fill="#496E2D"/>
<path d="M12.0005 16.3017L11.8224 15.7537H11.2462L11.7124 15.415L11.5343 14.8669L12.0005 15.2056L12.4666 14.8669L12.2886 15.415L12.7547 15.7537L12.1785 15.7537L12.0005 16.3017Z" fill="#496E2D"/>
<path d="M14.5305 15.4796L14.0644 15.1409L13.5982 15.4797L13.7762 14.9317L13.31 14.5929L13.8862 14.5929L14.0643 14.0449L14.2424 14.5929H14.8186L14.3525 14.9317L14.5305 15.4796Z" fill="#496E2D"/>
<path d="M16.0941 13.3274H15.518L15.3399 13.8755L15.1618 13.3275H14.5855L15.0517 12.9887L14.8736 12.4408L15.3399 12.7794L15.806 12.4408L15.628 12.9888L16.0941 13.3274Z" fill="#496E2D"/>
<path d="M16.0941 10.6672L15.628 11.0059L15.806 11.5539L15.3399 11.2152L14.8737 11.554L15.0517 11.0059L14.5855 10.6673L15.1618 10.6672L15.3398 10.1192L15.518 10.6672H16.0941Z" fill="#496E2D"/>
<path d="M14.5305 8.51505L14.3525 9.06303L14.8186 9.40175H14.2424L14.0644 9.94982L13.8862 9.40179L13.31 9.40184L13.7762 9.06303L13.5981 8.51509L14.0644 8.85373L14.5305 8.51505Z" fill="#496E2D"/>
</svg>
