<svg width="24" height="24" viewBox="0 0 24 24" fill="none" xmlns="http://www.w3.org/2000/svg">
<path d="M12 22.9973C18.0751 22.9973 23 18.0724 23 11.9973C23 5.92218 18.0751 0.997314 12 0.997314C5.92487 0.997314 1 5.92218 1 11.9973C1 18.0724 5.92487 22.9973 12 22.9973Z" fill="#FFDA44"/>
<path d="M12 0.997314C9.30685 0.997314 6.84024 1.96574 4.92805 3.57265L16.7827 11.9974L4.92805 20.4221C6.84024 22.029 9.30685 22.9973 12 22.9973C18.0751 22.9973 23 18.0724 23 11.9973C23 5.92218 18.0751 0.997314 12 0.997314Z" fill="#D80027"/>
<path d="M4.22186 4.21915C-0.0739019 8.51491 -0.0739019 15.4798 4.22186 19.7756C5.99702 18.0004 7.7043 16.2931 12.0001 11.9974L4.22186 4.21915Z" fill="black"/>
<path d="M4.04995 9.47745L5.72401 11.0618L7.74818 9.95905L6.75883 12.0409L8.43293 13.6253L6.14725 13.3276L5.15777 15.4094L4.73465 13.1435L2.44897 12.8458L4.47306 11.7432L4.04995 9.47745Z" fill="#F0F0F0"/>
</svg>
