<svg width="24" height="24" viewBox="0 0 24 24" fill="none" xmlns="http://www.w3.org/2000/svg">
<path d="M0.999634 11.9973C0.999634 5.92222 5.92454 0.997314 11.9996 0.997314C18.0747 0.997314 22.9996 5.92222 22.9996 11.9973L11.9996 12.9538L0.999634 11.9973Z" fill="#FFDA44"/>
<path d="M2.47157 17.4973C4.37358 20.7851 7.92812 22.9973 11.9996 22.9973C16.0711 22.9973 19.6257 20.7851 21.5277 17.4973L11.9996 16.7799L2.47157 17.4973Z" fill="#D80027"/>
<path d="M21.5277 17.4973C22.4636 15.8794 22.9996 14.001 22.9996 11.9973H0.999634C0.999634 14.001 1.53562 15.8794 2.47157 17.4973H21.5277Z" fill="#0052B4"/>
<path d="M11.9996 15.8234C14.1127 15.8234 15.8257 14.1104 15.8257 11.9973C15.8257 9.88424 14.1127 8.17125 11.9996 8.17125C9.88656 8.17125 8.17357 9.88424 8.17357 11.9973C8.17357 14.1104 9.88656 15.8234 11.9996 15.8234Z" fill="#FFDA44"/>
<path d="M11.9996 14.3886C10.681 14.3886 9.60832 13.3159 9.60832 11.9973V10.5625C9.60832 9.24396 10.6811 8.17125 11.9996 8.17125C13.3182 8.17125 14.3909 9.24401 14.3909 10.5625V11.9973C14.3909 13.3159 13.3182 14.3886 11.9996 14.3886Z" fill="#338AF3"/>
<path d="M15.8257 6.25819H12.9561C12.9561 5.72994 12.5279 5.30167 11.9996 5.30167C11.4713 5.30167 11.0431 5.72994 11.0431 6.25819H8.17348C8.17348 6.78649 8.63364 7.21472 9.16185 7.21472H9.13001C9.13001 7.74302 9.55824 8.17125 10.0865 8.17125C10.0865 8.69955 10.5148 9.12778 11.0431 9.12778H12.9561C13.4844 9.12778 13.9126 8.69955 13.9126 8.17125C14.4409 8.17125 14.8692 7.74302 14.8692 7.21472H14.8373C15.3656 7.21472 15.8257 6.78645 15.8257 6.25819Z" fill="black"/>
</svg>
