<svg width="24" height="24" viewBox="0 0 24 24" fill="none" xmlns="http://www.w3.org/2000/svg">
<path d="M12.0004 22.9973C18.0756 22.9973 23.0004 18.0724 23.0004 11.9973C23.0004 5.92218 18.0756 0.997314 12.0004 0.997314C5.92529 0.997314 1.00043 5.92218 1.00043 11.9973C1.00043 18.0724 5.92529 22.9973 12.0004 22.9973Z" fill="#F0F0F0"/>
<path d="M12.0004 0.997314C7.27081 0.997314 3.23883 3.98244 1.68461 8.17125H22.3163C20.762 3.98244 16.73 0.997314 12.0004 0.997314Z" fill="#D80027"/>
<path d="M12.0004 22.9973C16.73 22.9973 20.762 20.0122 22.3162 15.8234H1.68461C3.23883 20.0122 7.27081 22.9973 12.0004 22.9973Z" fill="black"/>
<path d="M15.8265 10.8017H12.9569C12.9569 10.2734 12.5286 9.84514 12.0004 9.84514C11.4721 9.84514 11.0439 10.2734 11.0439 10.8017H8.17428C8.17428 11.33 8.63443 11.7582 9.16269 11.7582H9.13081C9.13081 12.2865 9.55903 12.7147 10.0873 12.7147C10.0873 13.243 10.5156 13.6712 11.0439 13.6712H12.9569C13.4852 13.6712 13.9134 13.243 13.9134 12.7147C14.4417 12.7147 14.87 12.2865 14.87 11.7582H14.8381C15.3664 11.7582 15.8265 11.33 15.8265 10.8017Z" fill="#FF9811"/>
</svg>
