<svg width="24" height="24" viewBox="0 0 24 24" fill="none" xmlns="http://www.w3.org/2000/svg">
<path d="M12.0003 22.9973C18.0754 22.9973 23.0003 18.0724 23.0003 11.9973C23.0003 5.92218 18.0754 0.997314 12.0003 0.997314C5.92517 0.997314 1.00031 5.92218 1.00031 11.9973C1.00031 18.0724 5.92517 22.9973 12.0003 22.9973Z" fill="#F0F0F0"/>
<path d="M12.0003 0.997314C7.63923 0.997314 3.87106 3.53526 2.09181 7.21472H21.9088C20.1296 3.53526 16.3613 0.997314 12.0003 0.997314Z" fill="#0052B4"/>
<path d="M12.0003 22.9973C16.3613 22.9973 20.1297 20.4594 21.9089 16.7799H2.09191C3.87116 20.4594 7.63923 22.9973 12.0003 22.9973Z" fill="#0052B4"/>
<path d="M9.79128 12.4756L12.0003 8.64949L14.2093 12.4756H9.79128Z" fill="#FFDA44"/>
<path d="M14.8699 13.7389L12.0003 15.1737L9.13071 13.7389V11.8259H14.8699V13.7389Z" fill="#6DA544"/>
<path d="M14.7057 8.81363L13.6912 9.82817C14.1239 10.2609 14.3916 10.8587 14.3916 11.5191C14.3916 12.8398 13.321 13.9104 12.0003 13.9104C10.6797 13.9104 9.60905 12.8397 9.60905 11.5191C9.60905 10.8587 9.87675 10.2609 10.3095 9.82817L9.29495 8.81363C8.60251 9.50594 8.17428 10.4625 8.17428 11.5191C8.17428 13.6322 9.88727 15.3451 12.0003 15.3451C14.1134 15.3451 15.8264 13.6321 15.8264 11.5191C15.8264 10.4625 15.3981 9.50594 14.7057 8.81363Z" fill="#FFDA44"/>
</svg>
