<svg width="24" height="24" viewBox="0 0 24 24" fill="none" xmlns="http://www.w3.org/2000/svg">
<path d="M12 22.9973C18.0751 22.9973 23 18.0724 23 11.9973C23 5.92218 18.0751 0.997314 12 0.997314C5.92487 0.997314 1 5.92218 1 11.9973C1 18.0724 5.92487 22.9973 12 22.9973Z" fill="#F0F0F0"/>
<path d="M22.9069 10.5625H13.4349L13.4348 1.09043C12.9651 1.02928 12.4863 0.997314 12 0.997314C11.5137 0.997314 11.0349 1.02928 10.5652 1.09043V10.5625L1.09311 10.5625C1.03197 11.0322 1 11.511 1 11.9973C1 12.4837 1.03197 12.9624 1.09311 13.4321H10.5651L10.5652 22.9042C11.0349 22.9653 11.5137 22.9973 12 22.9973C12.4863 22.9973 12.9651 22.9654 13.4348 22.9042V13.4322L22.9069 13.4321C22.968 12.9624 23 12.4837 23 11.9973C23 11.511 22.968 11.0322 22.9069 10.5625Z" fill="#D80027"/>
</svg>
