<svg width="24" height="24" viewBox="0 0 24 24" fill="none" xmlns="http://www.w3.org/2000/svg">
<path d="M12 22.9973C18.0751 22.9973 23 18.0724 23 11.9973C23 5.92218 18.0751 0.997314 12 0.997314C5.92487 0.997314 1 5.92218 1 11.9973C1 18.0724 5.92487 22.9973 12 22.9973Z" fill="#F0F0F0"/>
<path d="M7.69563 8.17129H22.3157C20.7616 3.98248 16.7296 0.997314 12 0.997314C8.96237 0.997314 6.21265 2.2288 4.22216 4.21954L7.69563 8.17129Z" fill="#6DA544"/>
<path d="M7.69563 15.8234H22.3157C20.7616 20.0122 16.7296 22.9973 12 22.9973C8.96237 22.9973 6.21265 21.7659 4.22216 19.7752L7.69563 15.8234Z" fill="#D80027"/>
<path d="M4.22216 4.21954C-0.0735942 8.5153 -0.0735942 15.4794 4.22216 19.7752C5.99733 18 7.70419 16.2931 11.9999 11.9974L4.22216 4.21954Z" fill="#0052B4"/>
<path d="M13.913 10.0843V12.4756C13.913 13.94 15.8261 14.3887 15.8261 14.3887C15.8261 14.3887 17.7392 13.94 17.7392 12.4756V10.0843H13.913Z" fill="#DEDDE0"/>
<path d="M15.3478 12.0452H16.3043V13.4321H15.3478V12.0452Z" fill="#786145"/>
<path d="M16.7826 11.5191C16.7826 10.9908 16.3544 10.5626 15.826 10.5626C15.2977 10.5626 14.8695 10.9908 14.8695 11.5191C14.6054 11.5191 14.3913 11.7332 14.3913 11.9974C14.3913 12.2615 14.6054 12.4756 14.8695 12.4756H16.7826C17.0467 12.4756 17.2608 12.2615 17.2608 11.9974C17.2608 11.7332 17.0467 11.5191 16.7826 11.5191Z" fill="#6DA544"/>
</svg>
