<svg width="24" height="24" viewBox="0 0 24 24" fill="none" xmlns="http://www.w3.org/2000/svg">
<path d="M11.0433 11.0408C11.0433 11.0408 4.22808 19.7771 4.22163 19.7755C6.2122 21.7661 8.96224 22.9973 11.9998 22.9973C18.0749 22.9973 22.9998 18.0724 22.9998 11.9973L11.0433 11.0408Z" fill="#338AF3"/>
<path d="M11.0433 11.9973C11.0433 11.9973 4.22808 4.21761 4.22163 4.21915C6.2122 2.22854 8.96224 0.997314 11.9998 0.997314C18.0749 0.997314 22.9998 5.92222 22.9998 11.9973H11.0433Z" fill="#6DA544"/>
<path d="M4.22163 4.21915C-0.0741217 8.51491 -0.0741217 15.4797 4.22163 19.7755C4.22133 19.7772 22.9998 11.9973 22.9998 11.9973L4.22163 4.21915Z" fill="#D80027"/>
<path d="M6.73895 7.45384C4.62923 7.45384 2.91289 9.17023 2.91289 11.2799V12.7147C2.91289 14.8244 4.62928 16.5407 6.73895 16.5407C8.84863 16.5407 10.565 14.8244 10.565 12.7147V11.2799C10.5651 9.17023 8.84868 7.45384 6.73895 7.45384ZM9.13025 12.7147C9.13025 13.7834 8.42548 14.6905 7.45632 14.9959V13.4321L8.47141 12.417L7.45687 11.4025L7.45632 11.0414V10.5626H6.02159V11.9973L5.00719 13.0117L6.02159 14.026V14.996C5.05243 14.6905 4.34766 13.7835 4.34766 12.7148V11.28C4.34766 9.96141 5.42042 8.8887 6.73895 8.8887C8.05749 8.8887 9.13025 9.96146 9.13025 11.28V12.7147Z" fill="#FFDA44"/>
</svg>
