<svg width="24" height="24" viewBox="0 0 24 24" fill="none" xmlns="http://www.w3.org/2000/svg">
<path d="M0.999634 11.9973C0.999634 13.3428 1.24168 14.6317 1.68383 15.8234L11.9996 16.3017L22.3154 15.8234C22.7576 14.6317 22.9996 13.3428 22.9996 11.9973C22.9996 10.6518 22.7576 9.3629 22.3154 8.17125L11.9996 7.69296L1.68383 8.1712C1.24168 9.3629 0.999634 10.6518 0.999634 11.9973Z" fill="black"/>
<path d="M11.9996 0.997314C7.27001 0.997314 3.23805 3.9824 1.68383 8.1712L22.3154 8.17125C20.7612 3.98244 16.7292 0.997314 11.9996 0.997314Z" fill="#0052B4"/>
<path d="M22.3154 15.8234L1.68383 15.8234C3.23805 20.0121 7.27001 22.9973 11.9996 22.9973C16.7292 22.9973 20.7612 20.0122 22.3154 15.8234Z" fill="#F0F0F0"/>
</svg>
