<svg width="24" height="24" viewBox="0 0 24 24" fill="none" xmlns="http://www.w3.org/2000/svg">
<path d="M1.00049 11.9973C1.00049 13.3429 1.24253 14.6318 1.68472 15.8235L12.0005 16.7799L22.3163 15.8235C22.7585 14.6318 23.0005 13.3429 23.0005 11.9973C23.0005 10.6702 22.7654 9.39805 22.3347 8.22015L12.0005 7.21472L1.66625 8.22019C1.23557 9.39805 1.00049 10.6702 1.00049 11.9973Z" fill="#FFDA44"/>
<path d="M12.0005 22.9973C16.7301 22.9973 20.762 20.0123 22.3163 15.8235L1.68472 15.8235C3.23895 20.0123 7.27087 22.9973 12.0005 22.9973Z" fill="#D80027"/>
<path d="M12.0005 0.997314C7.27087 0.997314 3.2389 3.98244 1.68467 8.17125H22.3163C20.7621 3.98244 16.7301 0.997314 12.0005 0.997314Z" fill="#6DA544"/>
<path d="M12.0005 17.2582C14.906 17.2582 17.2614 14.9028 17.2614 11.9973C17.2614 9.09181 14.906 6.73644 12.0005 6.73644C9.095 6.73644 6.73963 9.09181 6.73963 11.9973C6.73963 14.9028 9.095 17.2582 12.0005 17.2582Z" fill="#0052B4"/>
<path d="M11.9994 7.92349L12.9491 10.8463H16.0272L13.536 12.6528L14.4932 15.5843L11.9994 13.7692L9.50942 15.5809L10.4627 12.6528L7.97376 10.8463H11.0497L11.9994 7.92349Z" fill="#FFDA44"/>
<path d="M15.7873 12.7248L12.7745 11.7458L14.6364 9.18312L13.8626 8.62083L12.0006 11.1837L10.1387 8.62087L9.36485 9.18307L11.2268 11.7459L8.2141 12.7247L8.50964 13.6345L11.5224 12.6556V15.8234H12.4789V12.6556L15.4916 13.6345L15.7873 12.7248Z" fill="#FFDA44"/>
</svg>
