<svg width="24" height="24" viewBox="0 0 24 24" fill="none" xmlns="http://www.w3.org/2000/svg">
<path d="M12.0001 22.9973C18.0753 22.9973 23.0001 18.0724 23.0001 11.9973C23.0001 5.92218 18.0753 0.997314 12.0001 0.997314C5.92499 0.997314 1.00012 5.92218 1.00012 11.9973C1.00012 18.0724 5.92499 22.9973 12.0001 22.9973Z" fill="#0052B4"/>
<path d="M12.0003 5.30167L12.3565 6.39776H13.5089L12.5765 7.07516L12.9327 8.17125L12.0003 7.49381L11.0679 8.17125L11.424 7.07516L10.4917 6.39776H11.6441L12.0003 5.30167Z" fill="#FFDA44"/>
<path d="M7.26569 7.26276L8.29264 7.78595L9.10755 6.97109L8.92721 8.10934L9.95412 8.63257L8.81583 8.81286L8.63554 9.95119L8.11231 8.92428L6.97406 9.10462L7.78897 8.28972L7.26569 7.26276Z" fill="#FFDA44"/>
<path d="M5.30466 11.9973L6.40075 11.6412V10.4887L7.07811 11.4211L8.17424 11.0649L7.49675 11.9973L8.17424 12.9297L7.07811 12.5736L6.40075 13.506V12.3535L5.30466 11.9973Z" fill="#FFDA44"/>
<path d="M7.26569 16.7319L7.78892 15.7049L6.97406 14.89L8.11235 15.0704L8.63549 14.0435L8.81583 15.1818L9.95407 15.3621L8.92729 15.8853L9.10755 17.0235L8.29264 16.2086L7.26569 16.7319Z" fill="#FFDA44"/>
<path d="M12.0003 18.693L11.6441 17.5969H10.4917L11.4241 16.9195L11.0679 15.8235L12.0003 16.5008L12.9327 15.8235L12.5765 16.9195L13.5089 17.5969H12.3564L12.0003 18.693Z" fill="#FFDA44"/>
<path d="M16.7349 16.7319L15.708 16.2087L14.893 17.0236L15.0734 15.8853L14.0465 15.3621L15.1848 15.1818L15.3651 14.0435L15.8883 15.0704L17.0265 14.89L16.2116 15.705L16.7349 16.7319Z" fill="#FFDA44"/>
<path d="M18.6959 11.9973L17.5998 12.3535V13.506L16.9224 12.5735L15.8264 12.9297L16.5038 11.9973L15.8264 11.0649L16.9225 11.4211L17.5998 10.4887V11.6412L18.6959 11.9973Z" fill="#FFDA44"/>
<path d="M16.7349 7.26276L16.2116 8.28972L17.0265 9.10462L15.8882 8.92424L15.3651 9.95115L15.1848 8.81286L14.0465 8.63252L15.0734 8.10934L14.893 6.97114L15.708 7.786L16.7349 7.26276Z" fill="#FFDA44"/>
</svg>
