<svg width="24" height="24" viewBox="0 0 24 24" fill="none" xmlns="http://www.w3.org/2000/svg">
<path d="M23 11.9973C23 18.0724 18.0751 22.9973 12 22.9973C5.92491 22.9973 1 18.0724 1 11.9973C1 11.9999 12 0.998518 12 0.997314C18.0751 0.997314 23 5.92222 23 11.9973Z" fill="#0052B4"/>
<path d="M11.9707 11.9974H12.0001C12.0001 11.9875 12.0001 11.9779 12.0001 11.968C11.9903 11.9778 11.9805 11.9876 11.9707 11.9974Z" fill="#F0F0F0"/>
<path d="M12 6.73644C12 4.80091 12 3.53269 12 0.997314C11.9993 0.997314 11.9989 0.997398 11.9983 0.997398C5.92399 0.99843 1 5.92278 1 11.9973H6.73912V8.76559L9.97089 11.9973L11.9707 11.9974L12.0001 11.968C12.0001 11.2269 12 10.5656 12 9.96824L8.76823 6.73644H12Z" fill="#F0F0F0"/>
<path d="M6.56522 2.43217C4.84479 3.41181 3.41454 4.84207 2.43489 6.5625V11.9974H5.30447V5.30184L12.0001 5.30175C12.0001 4.3967 12.0001 3.53449 12.0001 2.43217H6.56522Z" fill="#D80027"/>
<path d="M12 10.6447L8.09188 6.73656H6.73919L12.0001 11.9974C12.0001 11.9974 12 11.0647 12 10.6447Z" fill="#D80027"/>
<path d="M18.6958 13.9105V14.3887H14.8697V13.9105H13.4349V15.8235H14.3914V16.3018H19.1741V15.8235H20.1305V13.9105H18.6958Z" fill="#FFDA44"/>
<path d="M13.4349 6.73652V11.9974C13.4349 14.56 16.7827 15.3452 16.7827 15.3452C16.7827 15.3452 20.1305 14.56 20.1305 11.9974V6.73652H13.4349Z" fill="#338AF3"/>
<path d="M16.7825 10.6606C15.9455 10.6606 15.9455 11.4258 15.1086 11.4258C14.2717 11.4258 14.2717 10.6606 13.4348 10.6606V11.9997C14.2717 11.9997 14.2717 12.765 15.1086 12.765C15.9455 12.765 15.9455 11.9997 16.7825 11.9997C17.6194 11.9997 17.6194 12.765 18.4565 12.765C19.2935 12.765 19.2935 11.9997 20.1305 11.9997V10.6606C19.2935 10.6606 19.2935 11.4258 18.4565 11.4258C17.6194 11.4258 17.6194 10.6606 16.7825 10.6606Z" fill="#F3F3F3"/>
<path d="M16.7825 7.97999C15.9456 7.97999 15.9456 8.74522 15.1087 8.74522C14.2718 8.74522 14.2718 7.97999 13.4349 7.97999V9.31911C14.2718 9.31911 14.2718 10.0843 15.1087 10.0843C15.9456 10.0843 15.9456 9.31911 16.7825 9.31911C17.6195 9.31911 17.6195 10.0843 18.4566 10.0843C19.2936 10.0843 19.2935 9.31911 20.1306 9.31911V7.97999C19.2936 7.97999 19.2936 8.74522 18.4566 8.74522C17.6195 8.74522 17.6195 7.97999 16.7825 7.97999Z" fill="#F3F3F3"/>
</svg>
