<svg width="24" height="24" viewBox="0 0 24 24" fill="none" xmlns="http://www.w3.org/2000/svg">
<path d="M11.9996 22.9973C18.0748 22.9973 22.9996 18.0724 22.9996 11.9973C22.9996 5.92218 18.0748 0.997314 11.9996 0.997314C5.9245 0.997314 0.999634 5.92218 0.999634 11.9973C0.999634 18.0724 5.9245 22.9973 11.9996 22.9973Z" fill="#F0F0F0"/>
<path d="M22.5214 11.9973L22.9063 10.5625C22.8424 10.0735 22.7465 9.5945 22.6207 9.12778H11.0431V1.03917C10.555 1.08119 10.0761 1.15548 9.60833 1.25921L7.69528 2.43208L6.73875 2.33553C6.23537 2.61019 5.7558 2.923 5.30398 3.27015V9.12773H1.37857C1.2528 9.59446 1.1569 10.0735 1.09296 10.5625L1.47787 11.9973L1.09291 13.4321C1.15685 13.9211 1.25276 14.4001 1.37853 14.8669H5.30394V20.7244C5.75575 21.0716 6.23537 21.3844 6.73871 21.6591L8.17348 21.5625L9.60825 22.7354C10.076 22.8391 10.5549 22.9134 11.043 22.9554V14.8669H22.6206C22.7464 14.4002 22.8423 13.9212 22.9062 13.4321L22.5214 11.9973Z" fill="#0052B4"/>
<path d="M22.9063 10.5625H9.60838L9.60833 1.25921C8.59178 1.48462 7.62803 1.85029 6.73875 2.33553L6.73875 10.5625H1.09296C1.03181 11.0322 0.999634 11.511 0.999634 11.9973C0.999634 12.4836 1.03177 12.9624 1.09291 13.4321L6.73871 13.4321L6.73871 21.6591C7.62799 22.1443 8.59169 22.51 9.60825 22.7354L9.60834 13.4322L22.9062 13.4321C22.9674 12.9624 22.9996 12.4836 22.9996 11.9973C22.9996 11.511 22.9675 11.0322 22.9063 10.5625Z" fill="#D80027"/>
</svg>
