<svg width="24" height="24" viewBox="0 0 24 24" fill="none" xmlns="http://www.w3.org/2000/svg">
<path d="M23.0004 11.9973C23.0004 18.0724 18.0755 22.9973 12.0004 22.9973C5.92533 22.9973 1.00043 18.0724 1.00043 11.9973C1.00043 11.9999 12.0004 0.998518 12.0004 0.997314C18.0755 0.997314 23.0004 5.92222 23.0004 11.9973Z" fill="#338AF3"/>
<path d="M12.0003 6.25822V9.96827L8.17419 6.25822H12.0003Z" fill="#0052B4"/>
<path d="M6.73935 11.9973H9.97112L6.73935 7.69299L6.26111 11.0408L6.73935 11.9973Z" fill="#0052B4"/>
<path d="M11.971 11.9974H12.0004C12.0004 11.9875 12.0004 11.9778 12.0004 11.9679C11.9906 11.9778 11.9808 11.9876 11.971 11.9974Z" fill="#F0F0F0"/>
<path d="M12.0004 6.73644C12.0004 4.80091 12.0004 3.53269 12.0004 0.997314C11.9997 0.997314 11.9992 0.997356 11.9986 0.997356C5.92427 0.998388 1.00043 5.92278 1.00043 11.9973L6.73935 11.9973L6.73955 8.76559L9.97112 11.9973L11.971 11.9974C11.9808 11.9876 11.9906 11.9778 12.0004 11.9679C12.0004 11.2268 12.0003 10.5656 12.0003 9.96827L8.76866 6.73644H12.0004Z" fill="#F0F0F0"/>
<path d="M6.56551 2.43208C4.84508 3.41173 3.41483 4.84199 2.43518 6.56241V11.9973H5.30476V5.30175L12.0004 5.30167C12.0004 4.39662 12.0004 3.5344 12.0004 2.43208H6.56551Z" fill="#D80027"/>
<path d="M12.0006 10.6447L8.09245 6.73653H6.73976L12.0004 11.9974C12.0004 11.9974 12.0006 11.0646 12.0006 10.6447Z" fill="#D80027"/>
<path d="M13.4352 8.17125V11.9973C13.4352 14.5599 16.783 15.3451 16.783 15.3451C16.783 15.3451 20.1308 14.5599 20.1308 11.9973V8.17125L16.783 7.21472L13.4352 8.17125Z" fill="#F3F3F3"/>
<path d="M20.1308 8.17125V6.73648H13.4352V8.17125H16.3047V11.0409H13.4352V11.9973L16.3047 11.9974V15.1985C16.5933 15.3006 16.783 15.3451 16.783 15.3451C16.783 15.3451 16.9726 15.3007 17.2612 15.1985V11.9974L20.1308 11.9973V11.0408H17.2612V8.1712L20.1308 8.17125Z" fill="#D80027"/>
</svg>
