<svg width="24" height="24" viewBox="0 0 24 24" fill="none" xmlns="http://www.w3.org/2000/svg">
<path d="M12.0003 22.9973C18.0754 22.9973 23.0003 18.0724 23.0003 11.9973C23.0003 5.92218 18.0754 0.997314 12.0003 0.997314C5.92517 0.997314 1.00031 5.92218 1.00031 11.9973C1.00031 18.0724 5.92517 22.9973 12.0003 22.9973Z" fill="#F0F0F0"/>
<path d="M22.9072 10.5625H9.60905L9.60901 1.25878C8.59245 1.48419 7.62871 1.84956 6.73943 2.3348V10.5625L1.09342 10.5625C1.03219 11.0322 1.00031 11.511 1.00031 11.9973C1.00031 12.4836 1.03219 12.9624 1.09342 13.4321H6.73938L6.73943 21.6598C7.62871 22.145 8.59245 22.5104 9.60901 22.7358V13.4322L22.9072 13.4321C22.9683 12.9624 23.0003 12.4836 23.0003 11.9973C23.0003 11.511 22.9683 11.0322 22.9072 10.5625Z" fill="#0052B4"/>
</svg>
