<svg width="24" height="24" viewBox="0 0 24 24" fill="none" xmlns="http://www.w3.org/2000/svg">
<path d="M12 22.9973C18.0751 22.9973 23 18.0724 23 11.9973C23 5.92218 18.0751 0.997314 12 0.997314C5.92487 0.997314 1 5.92218 1 11.9973C1 18.0724 5.92487 22.9973 12 22.9973Z" fill="#F0F0F0"/>
<path d="M2.33746 6.73648H21.6624C19.7968 3.3172 16.1695 0.997314 12 0.997314C7.83053 0.997314 4.20312 3.3172 2.33746 6.73648Z" fill="#D80027"/>
<path d="M12 22.9973C16.1695 22.9973 19.7969 20.6776 21.6625 17.2583H2.3375C4.20316 20.6776 7.83053 22.9973 12 22.9973Z" fill="#D80027"/>
<path d="M15.826 11.9974C15.826 14.1105 14.113 15.3452 12 15.3452C9.8869 15.3452 8.1739 14.1105 8.1739 11.9974C8.1739 9.88424 9.8869 8.17129 12 8.17129C14.113 8.17129 15.826 9.88424 15.826 11.9974Z" fill="#FFDA44"/>
<path d="M15.826 11.9974C15.826 14.1105 14.113 15.8234 12 15.8234C9.8869 15.8234 8.1739 14.1105 8.1739 11.9974" fill="#0052B4"/>
<path d="M9.60876 11.0408H10.5653V12.9539H9.60876V11.0408Z" fill="#D80027"/>
<path d="M13.4348 11.0408H14.3914V12.9539H13.4348V11.0408Z" fill="#D80027"/>
<path d="M11.5218 9.60603H12.4784V12.9539H11.5218V9.60603Z" fill="#D80027"/>
</svg>
