<svg width="24" height="24" viewBox="0 0 24 24" fill="none" xmlns="http://www.w3.org/2000/svg">
<path d="M12.0004 22.9973C18.0756 22.9973 23.0004 18.0724 23.0004 11.9973C23.0004 5.92218 18.0756 0.997314 12.0004 0.997314C5.92529 0.997314 1.00043 5.92218 1.00043 11.9973C1.00043 18.0724 5.92529 22.9973 12.0004 22.9973Z" fill="#F0F0F0"/>
<path d="M12.0004 0.997314C7.45283 0.997314 3.55005 3.75703 1.87474 7.69296H22.1261C20.4508 3.75703 16.548 0.997314 12.0004 0.997314Z" fill="#A2001D"/>
<path d="M12.0004 22.9973C16.548 22.9973 20.4508 20.2376 22.1261 16.3017H1.87474C3.55005 20.2376 7.45283 22.9973 12.0004 22.9973Z" fill="#496E2D"/>
<path d="M22.6215 9.12773H1.37937C1.13277 10.0427 1.00043 11.0044 1.00043 11.9973C1.00043 12.9902 1.13277 13.952 1.37937 14.8669H22.6215C22.8681 13.952 23.0004 12.9902 23.0004 11.9973C23.0004 11.0044 22.8681 10.0427 22.6215 9.12773Z" fill="#0052B4"/>
</svg>
