<svg width="24" height="24" viewBox="0 0 24 24" fill="none" xmlns="http://www.w3.org/2000/svg">
<path d="M12.0003 22.9973C18.0754 22.9973 23.0003 18.0724 23.0003 11.9973C23.0003 5.92218 18.0754 0.997314 12.0003 0.997314C5.92517 0.997314 1.00031 5.92218 1.00031 11.9973C1.00031 18.0724 5.92517 22.9973 12.0003 22.9973Z" fill="#F0F0F0"/>
<path d="M22.9072 10.5625H13.4352L13.4351 1.09043C12.9654 1.02928 12.4866 0.997314 12.0003 0.997314C11.514 0.997314 11.0352 1.02928 10.5655 1.09043V10.5625L1.09342 10.5625C1.03227 11.0322 1.00031 11.511 1.00031 11.9973C1.00031 12.4837 1.03227 12.9624 1.09342 13.4321H10.5654L10.5655 22.9042C11.0352 22.9653 11.514 22.9973 12.0003 22.9973C12.4866 22.9973 12.9654 22.9654 13.4351 22.9042V13.4322L22.9072 13.4321C22.9683 12.9624 23.0003 12.4837 23.0003 11.9973C23.0003 11.511 22.9683 11.0322 22.9072 10.5625Z" fill="#D80027"/>
<path d="M7.69577 6.25823V4.82342H6.261V6.25823H4.82619V7.693H6.261V9.12777H7.69577V7.693H9.13054V6.25823H7.69577Z" fill="#D80027"/>
<path d="M17.7393 6.25823V4.82342H16.3045V6.25823H14.8697V7.693H16.3045V9.12777H17.7393V7.693H19.1741V6.25823H17.7393Z" fill="#D80027"/>
<path d="M7.69577 16.3017V14.8669H6.261V16.3017H4.82619V17.7365H6.261V19.1713H7.69577V17.7365H9.13054V16.3017H7.69577Z" fill="#D80027"/>
<path d="M17.7393 16.3017V14.8669H16.3045V16.3017H14.8697V17.7365H16.3045V19.1713H17.7393V17.7365H19.1741V16.3017H17.7393Z" fill="#D80027"/>
</svg>
