<svg width="24" height="24" viewBox="0 0 24 24" fill="none" xmlns="http://www.w3.org/2000/svg">
<path d="M1.68431 15.8234C3.23853 20.0121 7.2705 22.9973 12.0001 22.9973C16.7297 22.9973 20.7617 20.0121 22.3159 15.8234L12.0001 14.8669L1.68431 15.8234Z" fill="#FFDA44"/>
<path d="M12.0001 0.997314C7.2705 0.997314 3.23853 3.98244 1.68431 8.17125L12.0001 9.12773L22.3159 8.17121C20.7617 3.98244 16.7297 0.997314 12.0001 0.997314Z" fill="black"/>
<path d="M1.68431 8.17125C1.24216 9.3629 1.00012 10.6518 1.00012 11.9973C1.00012 13.3428 1.24216 14.6317 1.68431 15.8234H22.3159C22.7581 14.6317 23.0001 13.3428 23.0001 11.9973C23.0001 10.6518 22.7581 9.36286 22.3159 8.17121L1.68431 8.17125Z" fill="#D80027"/>
</svg>
