<svg width="24" height="24" viewBox="0 0 24 24" fill="none" xmlns="http://www.w3.org/2000/svg">
<path d="M0.999878 11.9973C0.999878 13.3428 1.24192 14.6317 1.68407 15.8234L11.9999 16.3017L22.3157 15.8234C22.7579 14.6317 22.9999 13.3428 22.9999 11.9973C22.9999 10.6518 22.7579 9.3629 22.3157 8.17125L11.9999 7.69297L1.68407 8.17121C1.24192 9.3629 0.999878 10.6518 0.999878 11.9973Z" fill="#FFDA44"/>
<path d="M11.9999 0.997314C7.27026 0.997314 3.23829 3.9824 1.68407 8.17121L22.3157 8.17125C20.7614 3.98244 16.7295 0.997314 11.9999 0.997314Z" fill="#D80027"/>
<path d="M22.3157 15.8234L1.68407 15.8234C3.23829 20.0121 7.27026 22.9973 11.9999 22.9973C16.7295 22.9973 20.7615 20.0122 22.3157 15.8234Z" fill="#496E2D"/>
<path d="M11.9998 8.17125L12.9494 11.094H16.0229L13.5366 12.9005L14.4862 15.8234L11.9998 14.017L9.51341 15.8234L10.4632 12.9005L7.97689 11.094H11.0502L11.9998 8.17125Z" fill="black"/>
</svg>
