<svg width="24" height="24" viewBox="0 0 24 24" fill="none" xmlns="http://www.w3.org/2000/svg">
<path d="M11.9998 22.9973C18.0749 22.9973 22.9998 18.0724 22.9998 11.9973C22.9998 5.92218 18.0749 0.997314 11.9998 0.997314C5.92462 0.997314 0.999756 5.92218 0.999756 11.9973C0.999756 18.0724 5.92462 22.9973 11.9998 22.9973Z" fill="#F9F9F9"/>
<path d="M11.9998 22.9973C16.7293 22.9973 20.7613 20.0122 22.3155 15.8234H1.68388C3.23815 20.0122 7.2701 22.9973 11.9998 22.9973Z" fill="#D80027"/>
<path d="M16.3041 10.0842V8.64947H16.7823V7.69294H15.8258V8.17123H14.8693V7.69294H13.9128V8.64947H14.391V10.0842H13.4345V6.7365H13.9128V5.78002H12.9562V6.25817H12.478V5.78002H11.5215V6.25817H11.0432V5.78002H10.0867V6.7365H10.5649V10.0842H9.60842V8.64947H10.0867V7.69294H9.13013V8.17123H8.17365V7.69294H7.21712V8.64947H7.69536V10.0842H6.73884V13.9103H17.2606V10.0842H16.3041Z" fill="#D80027"/>
<path d="M11.9997 13.4321C11.2073 13.4321 10.565 14.0745 10.565 14.8669C10.565 15.4915 10.9643 16.0227 11.5215 16.2197V18.2147H10.0867V20.1278H12.478V16.2197C13.0352 16.0228 13.4345 15.4915 13.4345 14.8669C13.4345 14.0745 12.7921 13.4321 11.9997 13.4321ZM11.9997 15.3451C11.7356 15.3451 11.5215 15.131 11.5215 14.8669C11.5215 14.6028 11.7356 14.3887 11.9997 14.3887C12.2639 14.3887 12.478 14.6028 12.478 14.8669C12.478 15.131 12.2639 15.3451 11.9997 15.3451Z" fill="#FFDA44"/>
</svg>
