<svg width="24" height="24" viewBox="0 0 24 24" fill="none" xmlns="http://www.w3.org/2000/svg">
<path d="M0.999573 11.9973C0.999573 5.92222 5.92448 0.997314 11.9996 0.997314C18.0747 0.997314 22.9996 5.92222 22.9996 11.9973C22.5213 11.9973 11.9996 13.4321 11.9996 13.4321L0.999573 11.9973Z" fill="#F0F0F0"/>
<path d="M22.9996 11.9973C22.9996 18.0724 18.0747 22.9973 11.9996 22.9973C5.92448 22.9973 0.999573 18.0724 0.999573 11.9973" fill="#D80027"/>
<path d="M8.65176 17.2582C11.5573 17.2582 13.9126 14.9028 13.9126 11.9973C13.9126 9.09181 11.5573 6.73643 8.65176 6.73643C5.74626 6.73643 3.39088 9.09181 3.39088 11.9973C3.39088 14.9028 5.74626 17.2582 8.65176 17.2582Z" fill="#F0F0F0"/>
<path d="M3.39088 11.9973C3.39088 9.09181 5.74626 6.73643 8.65176 6.73643C11.5573 6.73643 13.9126 9.09181 13.9126 11.9973" fill="#D80027"/>
</svg>
