<svg width="24" height="24" viewBox="0 0 24 24" fill="none" xmlns="http://www.w3.org/2000/svg">
<path d="M11.9996 22.9973C18.0748 22.9973 22.9996 18.0724 22.9996 11.9973C22.9996 5.92218 18.0748 0.997314 11.9996 0.997314C5.9245 0.997314 0.999634 5.92218 0.999634 11.9973C0.999634 18.0724 5.9245 22.9973 11.9996 22.9973Z" fill="#F0F0F0"/>
<path d="M11.9998 9.12773H22.6208C22.345 8.10447 21.9258 7.14021 21.3853 6.25815H11.9998V9.12773Z" fill="#338AF3"/>
<path d="M5.15241 20.606H18.8471C19.851 19.8065 20.7119 18.8353 21.3852 17.7364H2.61428C3.28765 18.8352 4.14857 19.8065 5.15241 20.606Z" fill="#338AF3"/>
<path d="M4.82584 3.65875C3.96105 4.40345 3.21344 5.2804 2.61428 6.25819H4.82584V3.65875Z" fill="#338AF3"/>
<path d="M11.9998 11.9973C11.9998 10.8769 11.9998 9.93915 11.9998 9.12773L7.69542 9.12773V11.9973H4.82583V9.12773H1.37871C1.13211 10.0427 0.999634 11.0044 0.999634 11.9973C0.999634 12.9902 1.13211 13.9519 1.37871 14.8669H22.6209C22.8674 13.9519 22.9996 12.9902 22.9996 11.9973L11.9998 11.9973Z" fill="#338AF3"/>
<path d="M11.9996 0.997314C10.4721 0.997314 9.01757 1.30897 7.69542 1.87164V6.25819L11.9998 6.25815C11.9998 5.25646 11.9998 4.40456 11.9998 3.38861H18.8471C16.9681 1.8921 14.5885 0.997314 11.9996 0.997314Z" fill="#338AF3"/>
</svg>
