<svg width="24" height="24" viewBox="0 0 24 24" fill="none" xmlns="http://www.w3.org/2000/svg">
<path d="M12.0004 22.9973C18.0756 22.9973 23.0004 18.0724 23.0004 11.9973C23.0004 5.92218 18.0756 0.997314 12.0004 0.997314C5.92533 0.997314 1.00047 5.92218 1.00047 11.9973C1.00047 18.0724 5.92533 22.9973 12.0004 22.9973Z" fill="#FFDA44"/>
<path d="M5.80062 2.91037C7.56599 1.70355 9.70059 0.997314 12.0004 0.997314C14.3003 0.997314 16.4349 1.70355 18.2003 2.91037L12.0004 3.38861L5.80062 2.91037Z" fill="#A2001D"/>
<path d="M12.0005 11.9973L11.2984 11.2953L11.112 11.6292L12.0005 11.9973Z" fill="#0052B4"/>
<path d="M4.22224 4.21911C-0.0735101 8.51487 -0.0735101 15.4797 4.22224 19.7755C5.9974 18.0003 7.70471 16.2931 12.0005 11.9973L4.22224 4.21911Z" fill="#496E2D"/>
<path d="M19.7786 4.21914C24.0743 8.5149 24.0743 15.4797 19.7786 19.7755C18.0034 18.0004 16.2962 16.2931 12.0005 11.9973L19.7786 4.21914Z" fill="#496E2D"/>
<path d="M12.0004 15.8234C14.1135 15.8234 15.8265 14.1104 15.8265 11.9973C15.8265 9.88424 14.1135 8.17125 12.0004 8.17125C9.88738 8.17125 8.17439 9.88424 8.17439 11.9973C8.17439 14.1104 9.88738 15.8234 12.0004 15.8234Z" fill="#A2001D"/>
<path d="M12.0004 8.17125L12.8578 10.8108H15.6335L13.3881 12.4424L14.2457 15.0821L12.0002 13.4507L9.75469 15.0821L10.6125 12.4424L8.36702 10.8108H11.1425L12.0004 8.17125Z" fill="#FFDA44"/>
<path d="M12.0004 0.997314C11.9992 0.997314 11.9978 0.9974 11.9966 0.9974H12.0039C12.0027 0.9974 12.0017 0.997314 12.0004 0.997314Z" fill="#FFDA44"/>
<path d="M12.0039 0.9974H11.9966C8.96071 0.998389 6.21199 2.22957 4.22224 4.21911L19.7786 4.21914C17.7888 2.2296 15.0397 0.998389 12.0039 0.9974Z" fill="#A2001D"/>
<path d="M4.22308 19.7761C6.21365 21.7663 8.96321 22.9973 12.0004 22.9973C15.0377 22.9973 17.788 21.7658 19.7786 19.7755L4.22308 19.7761Z" fill="#A2001D"/>
<path d="M12.0007 2.19299L12.1788 2.74101H12.755L12.2888 3.07973L12.4669 3.62775L12.0007 3.28908L11.5345 3.62775L11.7126 3.07973L11.2464 2.74101H11.8226L12.0007 2.19299Z" fill="#FFDA44"/>
<path d="M9.33329 2.19299L9.5114 2.74101H10.0876L9.62144 3.07973L9.79955 3.62775L9.33329 3.28908L8.86717 3.62775L9.04523 3.07973L8.57898 2.74101H9.15519L9.33329 2.19299Z" fill="#FFDA44"/>
<path d="M14.668 2.19299L14.8461 2.74101H15.4224L14.9562 3.07973L15.1343 3.62775L14.668 3.28908L14.2019 3.62775L14.38 3.07973L13.9137 2.74101H14.4899L14.668 2.19299Z" fill="#FFDA44"/>
<path d="M12.0007 20.3669L12.1788 20.9149H12.755L12.2888 21.2537L12.4669 21.8017L12.0007 21.463L11.5345 21.8017L11.7126 21.2537L11.2464 20.9149H11.8226L12.0007 20.3669Z" fill="#FFDA44"/>
<path d="M9.33329 20.3669L9.5114 20.9149H10.0876L9.62144 21.2537L9.79955 21.8017L9.33329 21.463L8.86717 21.8017L9.04523 21.2537L8.57898 20.9149H9.15519L9.33329 20.3669Z" fill="#FFDA44"/>
<path d="M14.668 20.3669L14.8461 20.9149H15.4224L14.9562 21.2537L15.1343 21.8017L14.668 21.463L14.2019 21.8017L14.38 21.2537L13.9137 20.9149H14.4899L14.668 20.3669Z" fill="#FFDA44"/>
<path d="M4.35236 11.8157C4.63488 12.2621 4.50211 12.8529 4.0557 13.1355C3.60935 13.4181 3.01844 13.2853 2.73588 12.8389C2.22434 12.0307 2.52095 10.7109 2.52095 10.7109C2.52095 10.7109 3.84077 11.0075 4.35236 11.8157Z" fill="#FFDA44"/>
<path d="M3.79969 13.2097C4.06382 13.2097 4.27793 12.9956 4.27793 12.7314C4.27793 12.4673 4.06382 12.2532 3.79969 12.2532C3.53556 12.2532 3.32145 12.4673 3.32145 12.7314C3.32145 12.9956 3.53556 13.2097 3.79969 13.2097Z" fill="#A2001D"/>
</svg>
