<svg width="24" height="24" viewBox="0 0 24 24" fill="none" xmlns="http://www.w3.org/2000/svg">
<path d="M5.80063 21.0843C7.56595 22.291 9.70064 22.9973 12.0005 22.9973C14.3003 22.9973 16.4349 22.291 18.2003 21.0843L12.0005 20.1277L5.80063 21.0843Z" fill="#D80027"/>
<path d="M18.2002 2.91037C16.4348 1.70359 14.3002 0.997314 12.0004 0.997314C9.70055 0.997314 7.56586 1.70359 5.80053 2.91037L12.0004 3.8669L18.2002 2.91037Z" fill="#D80027"/>
<path d="M23.0004 11.9973C23.0004 8.35743 20.8212 4.70208 18.2002 2.91037H5.80053C2.90259 4.8914 1.00037 8.22208 1.00037 11.9973C1.00037 15.7727 2.90268 19.1032 5.80063 21.0843H18.2003C21.0983 19.1032 23.0004 15.7727 23.0004 11.9973Z" fill="#0052B4"/>
<path d="M11.3779 18.9409C11.2276 18.812 7.69602 15.742 7.69602 11.9973C7.69602 8.25263 11.2275 5.18256 11.3779 5.05369L12.0004 4.52011L12.6229 5.05365C12.7732 5.18256 16.3047 8.25259 16.3047 11.9973C16.3047 15.742 12.7732 18.8121 12.6229 18.9409L12.0004 19.4745L11.3779 18.9409Z" fill="#D80027"/>
<path d="M15.3482 11.9973C15.3482 8.64949 12.0004 5.77991 12.0004 5.77991C12.0004 5.77991 8.65254 8.64957 8.65254 11.9973C8.65254 13.0215 8.96608 14.0007 9.40101 14.8669H14.5997C15.0346 14.0007 15.3482 13.0215 15.3482 11.9973Z" fill="#338AF3"/>
<path d="M15.3482 11.9973C15.3482 13.0215 15.0346 14.0007 14.5997 14.8669L12.0004 15.3451L9.40101 14.8669C8.96608 14.0007 8.65254 13.0215 8.65254 11.9973H15.3482Z" fill="#0052B4"/>
<path d="M12.0004 18.2147C12.0004 18.2147 13.6129 16.8321 14.5997 14.8669H9.40101C10.3878 16.8321 12.0004 18.2147 12.0004 18.2147Z" fill="#FFDA44"/>
<path d="M9.84819 10.0843H14.1525L12.0004 12.2364L9.84819 10.0843Z" fill="#6DA544"/>
<path d="M11.2829 11.5191H12.7177V15.8234H11.2829V11.5191Z" fill="#A2001D"/>
</svg>
