<svg width="24" height="24" viewBox="0 0 24 24" fill="none" xmlns="http://www.w3.org/2000/svg">
<path d="M12.0003 22.9973C18.0754 22.9973 23.0003 18.0724 23.0003 11.9973C23.0003 5.92218 18.0754 0.997314 12.0003 0.997314C5.92517 0.997314 1.00031 5.92218 1.00031 11.9973C1.00031 18.0724 5.92517 22.9973 12.0003 22.9973Z" fill="#F0F0F0"/>
<path d="M23.0003 11.9973C23.0003 7.63624 20.4622 3.86809 16.7827 2.08884V21.9058C20.4622 20.1266 23.0003 16.3583 23.0003 11.9973Z" fill="#338AF3"/>
<path d="M1.00031 11.9973C1.00031 16.3583 3.53825 20.1266 7.21771 21.9058V2.08881C3.53825 3.86806 1.00031 7.63624 1.00031 11.9973Z" fill="#338AF3"/>
<path d="M14.8748 13.8573L13.0149 11.9974L14.7853 10.2269L14.7051 9.29179L14.1982 8.78484L12.0003 10.9828L9.80235 8.78484L9.29549 9.29179L9.21527 10.2269L10.9857 11.9974L9.12572 13.8573L10.1403 14.8718L12.0003 13.0119L13.8603 14.8718L14.8748 13.8573Z" fill="#ACABB1"/>
<path d="M14.7051 9.29179L13.6912 10.3064C14.124 10.7391 14.3916 11.337 14.3916 11.9973C14.3916 13.318 13.321 14.3886 12.0003 14.3886C10.6797 14.3886 9.60901 13.318 9.60901 11.9973C9.60901 11.337 9.87671 10.7391 10.3094 10.3064L9.29549 9.29179C8.60305 9.9841 8.17424 10.9407 8.17424 11.9973C8.17424 14.1104 9.88723 15.8234 12.0003 15.8234C14.1134 15.8234 15.8264 14.1104 15.8264 11.9973C15.8264 10.9408 15.3975 9.98415 14.7051 9.29179Z" fill="#6DA544"/>
</svg>
