<svg width="24" height="24" viewBox="0 0 24 24" fill="none" xmlns="http://www.w3.org/2000/svg">
<path d="M12.0002 22.9973C18.0754 22.9973 23.0002 18.0724 23.0002 11.9973C23.0002 5.92218 18.0754 0.997314 12.0002 0.997314C5.92511 0.997314 1.00024 5.92218 1.00024 11.9973C1.00024 18.0724 5.92511 22.9973 12.0002 22.9973Z" fill="#F0F0F0"/>
<path d="M22.9071 10.5625H13.4351L13.4351 1.09043C12.9654 1.02928 12.4865 0.997314 12.0002 0.997314C11.514 0.997314 11.0351 1.02928 10.5655 1.09043V10.5625H1.09336C1.03221 11.0322 1.00024 11.511 1.00024 11.9973C1.00024 12.4836 1.03221 12.9624 1.09336 13.4321H10.5654L10.5654 22.9042C11.0351 22.9653 11.514 22.9973 12.0002 22.9973C12.4865 22.9973 12.9654 22.9654 13.435 22.9042V13.4322L22.9071 13.4321C22.9683 12.9624 23.0002 12.4836 23.0002 11.9973C23.0002 11.511 22.9683 11.0322 22.9071 10.5625Z" fill="#D80027"/>
<path d="M15.1089 12.4756L15.8263 12.9538V11.0408L15.1089 11.5191H12.4785V8.88861L12.9568 8.17125H11.0437L11.522 8.88861V11.5191H8.89154L8.17418 11.0408V12.9538L8.89154 12.4756H11.522V15.106L11.0437 15.8234H12.9568L12.4785 15.106V12.4756H15.1089Z" fill="#FFDA44"/>
</svg>
