<svg width="24" height="24" viewBox="0 0 24 24" fill="none" xmlns="http://www.w3.org/2000/svg">
<path d="M12.0002 0.997314C11.0074 0.997314 10.0456 1.12966 9.13064 1.37626L8.17415 11.9973L9.13068 22.6184C10.0456 22.865 11.0074 22.9973 12.0002 22.9973C18.0754 22.9973 23.0003 18.0724 23.0003 11.9973C23.0003 5.92222 18.0754 0.997314 12.0002 0.997314Z" fill="#FFDA44"/>
<path d="M8.17415 11.9973L9.13068 22.6184C10.0456 22.865 11.0074 22.9973 12.0002 22.9973C18.0754 22.9973 23.0003 18.0724 23.0003 11.9973H8.17415Z" fill="#6DA544"/>
<path d="M1.00031 11.9974C1.00031 16.1668 3.3202 19.7943 6.73946 21.6599V2.33485C3.3202 4.20047 1.00031 7.82789 1.00031 11.9974Z" fill="#D80027"/>
<path d="M1.00031 11.9974C1.00031 17.0797 4.44723 21.3561 9.13068 22.6184L9.13064 1.37626C4.44719 2.63851 1.00031 6.91507 1.00031 11.9974Z" fill="#D80027"/>
<path d="M5.15681 9.12773L5.86902 11.3198H8.17413L6.30936 12.6747L7.02153 14.8669L5.15681 13.5121L3.29199 14.8669L4.00433 12.6747L2.13956 11.3198H4.44455L5.15681 9.12773Z" fill="black"/>
</svg>
