<svg width="24" height="24" viewBox="0 0 24 24" fill="none" xmlns="http://www.w3.org/2000/svg">
<path d="M15.8263 1.68155C14.6346 1.23936 13.3456 0.997314 12.0001 0.997314C10.6546 0.997314 9.3657 1.23936 8.17409 1.68146L7.6958 11.9973L8.17404 22.3132C9.36569 22.7553 10.6546 22.9973 12.0001 22.9973C13.3457 22.9973 14.6346 22.7553 15.8263 22.3131L16.3045 11.9973L15.8263 1.68155Z" fill="#FFDA44"/>
<path d="M1.00006 11.9973C1.00006 16.7269 3.98523 20.759 8.17404 22.3132L8.17409 1.68146C3.98528 3.23573 1.00006 7.26766 1.00006 11.9973Z" fill="#D80027"/>
<path d="M23.0001 11.9973C23.0001 7.26766 20.0151 3.23581 15.8263 1.68155V22.3131C20.0151 20.7589 23.0001 16.7269 23.0001 11.9973Z" fill="#6DA544"/>
</svg>
