<svg width="24" height="24" viewBox="0 0 24 24" fill="none" xmlns="http://www.w3.org/2000/svg">
<path d="M11.9996 22.9973C18.0748 22.9973 22.9996 18.0724 22.9996 11.9973C22.9996 5.92218 18.0748 0.997314 11.9996 0.997314C5.9245 0.997314 0.999635 5.92218 0.999635 11.9973C0.999635 18.0724 5.9245 22.9973 11.9996 22.9973Z" fill="#F0F0F0"/>
<path d="M11.9996 0.997314C10.0548 0.997314 8.2283 1.50271 6.6431 2.3883V21.6063C8.22835 22.4919 10.0548 22.9973 11.9996 22.9973C18.0748 22.9973 22.9996 18.0724 22.9996 11.9973C22.9996 5.92218 18.0748 0.997314 11.9996 0.997314Z" fill="#6DA544"/>
<path d="M6.67546 2.37021C5.98345 2.7537 5.33729 3.20951 4.74694 3.72772C4.80662 3.67538 4.86691 3.62365 4.92766 3.5726L13.3523 11.9973L4.92762 20.422C4.86682 20.371 4.80658 20.3192 4.7469 20.2669C5.33724 20.7851 5.98345 21.2409 6.67542 21.6244L22.9996 11.9973L6.67546 2.37021Z" fill="#F0F0F0"/>
<path d="M5.74637 2.94733C5.41092 3.17961 5.08874 3.42956 4.78172 3.6967L11.9996 11.9973L4.78168 20.2979C5.08869 20.5651 5.41087 20.8151 5.74633 21.0473L21.1166 11.9973L5.74637 2.94733Z" fill="#FFDA44"/>
<path d="M4.92766 3.5726C4.68313 3.77808 4.44712 3.99349 4.22145 4.21912L11.0431 11.9973L4.22145 19.7755C4.44712 20.0012 4.68304 20.2166 4.92762 20.422L13.3523 11.9973L4.92766 3.5726Z" fill="black"/>
<path d="M4.22145 4.21912C-0.0743058 8.51487 -0.0743058 15.4797 4.22145 19.7755C5.99662 18.0004 7.70386 16.2931 11.9996 11.9973L4.22145 4.21912Z" fill="#D80027"/>
</svg>
