<svg width="24" height="24" viewBox="0 0 24 24" fill="none" xmlns="http://www.w3.org/2000/svg">
<path d="M23.0004 11.9973C23.0004 18.0724 18.0755 22.9973 12.0004 22.9973C5.92527 22.9973 1.00037 18.0724 1.00037 11.9973C1.00037 5.92222 12.0004 0.997314 12.0004 0.997314C12.0004 0.997314 23.0004 5.92222 23.0004 11.9973Z" fill="#A2001D"/>
<path d="M1.00037 11.9973C1.00037 5.92222 5.92527 0.997314 12.0004 0.997314C18.0755 0.997314 23.0004 5.92222 23.0004 11.9973" fill="#0052B4"/>
<path d="M15.8264 14.8669L12.0004 14.3886L8.1743 14.8669V9.12773H15.8264V14.8669Z" fill="#F0F0F0"/>
<path d="M12.0004 14.3886C13.0569 14.3886 13.9134 13.5321 13.9134 12.4756C13.9134 11.419 13.0569 10.5625 12.0003 10.5625C10.9438 10.5625 10.0873 11.419 10.0873 12.4756C10.0873 13.5321 10.9438 14.3886 12.0004 14.3886Z" fill="#0052B4"/>
<path d="M12.0004 13.4321C12.5287 13.4321 12.9569 13.0038 12.9569 12.4756C12.9569 11.9473 12.5287 11.519 12.0004 11.519C11.4721 11.519 11.0439 11.9473 11.0439 12.4756C11.0439 13.0038 11.4721 13.4321 12.0004 13.4321Z" fill="#A2001D"/>
<path d="M10.5656 10.0843H13.4352L12.0004 11.519L10.5656 10.0843Z" fill="#6DA544"/>
<path d="M11.5221 11.0408H12.4787V13.9104H11.5221V11.0408Z" fill="#FFDA44"/>
<path d="M13.5308 13.6234H10.4699L8.1743 14.8669H15.8264L13.5308 13.6234Z" fill="#6DA544"/>
</svg>
