<svg width="24" height="24" viewBox="0 0 24 24" fill="none" xmlns="http://www.w3.org/2000/svg">
<path d="M12.0002 22.9973C18.0754 22.9973 23.0002 18.0724 23.0002 11.9973C23.0002 5.92218 18.0754 0.997314 12.0002 0.997314C5.92511 0.997314 1.00024 5.92218 1.00024 11.9973C1.00024 18.0724 5.92511 22.9973 12.0002 22.9973Z" fill="#F0F0F0"/>
<path d="M12.0002 22.9973C14.7896 22.9973 17.3361 21.9585 19.2751 20.2473H4.72539C6.66444 21.9585 9.21084 22.9973 12.0002 22.9973Z" fill="#D80027"/>
<path d="M1.34675 14.7474C1.5979 15.723 1.97972 16.6461 2.47214 17.4974H21.5282C22.0206 16.6461 22.4025 15.723 22.6536 14.7474L12.0002 13.9104L1.34675 14.7474Z" fill="#0052B4"/>
<path d="M22.6537 9.24736C22.4025 8.27171 22.0207 7.34857 21.5283 6.49736L12.0002 6.25823C12.0002 4.33697 12.0002 2.5212 12.0002 0.997314C11.1831 0.997314 10.3867 1.08652 9.62035 1.25551C9.60565 1.25878 2.43498 6.91493 2.43498 11.9974C2.61833 12.0292 12.0002 12.9539 12.0002 12.9539C12.0002 12.9539 12.0002 10.8587 12.0002 9.24736H22.6537Z" fill="#0052B4"/>
<path d="M12.0002 7.86037V2.36036H8.51655L9.62035 1.25551C5.08753 2.25522 1.60507 6.05108 1.072 10.7419C1.02517 11.154 1.00024 11.5727 1.00024 11.9973L6.572 11.9973V9.80492L8.7861 11.9973H12.7214L8.51651 7.86037H12.0002Z" fill="#F0F0F0"/>
<path d="M12.0053 11.9973L7.86833 7.86037H6.572L10.7089 11.9973H5.18501V6.49731L21.5283 6.49736C20.9294 5.46211 20.1664 4.53377 19.2752 3.74731H5.18501V3.36382C4.07522 4.24111 3.13884 5.3277 2.43501 6.56409L2.43498 11.9974L1.00024 11.9973C1.00024 12.9469 1.12052 13.8684 1.34675 14.7474H22.6536C22.8799 13.8684 23.0002 12.9469 23.0002 11.9973L12.0053 11.9973Z" fill="#D80027"/>
</svg>
