<svg width="24" height="24" viewBox="0 0 24 24" fill="none" xmlns="http://www.w3.org/2000/svg">
<path d="M12 22.9973C18.0751 22.9973 23 18.0724 23 11.9973C23 5.92218 18.0751 0.997314 12 0.997314C5.92487 0.997314 1 5.92218 1 11.9973C1 18.0724 5.92487 22.9973 12 22.9973Z" fill="#F0F0F0"/>
<path d="M12 22.9973C16.361 22.9973 20.1293 20.4594 21.9086 16.78H2.09157C3.87082 20.4594 7.63893 22.9973 12 22.9973Z" fill="#338AF3"/>
<path d="M12 0.997314C7.63893 0.997314 3.87088 3.53531 2.09163 7.21476H21.9086C20.1294 3.53531 16.361 0.997314 12 0.997314Z" fill="#338AF3"/>
<path d="M7.7696 8.17133L8.12572 9.26742H9.27819L8.34585 9.94478L8.70202 11.0409L7.7696 10.3635L6.83718 11.0409L7.19335 9.94478L6.26097 9.26742H7.41343L7.7696 8.17133Z" fill="#338AF3"/>
<path d="M7.7696 12.9539L8.12572 14.0501H9.27819L8.34585 14.7274L8.70202 15.8235L7.7696 15.1461L6.83718 15.8235L7.19335 14.7274L6.26097 14.0501H7.41343L7.7696 12.9539Z" fill="#338AF3"/>
<path d="M16.2306 8.17133L16.5868 9.26742H17.7392L16.8068 9.94478L17.163 11.0409L16.2306 10.3635L15.2982 11.0409L15.6543 9.94478L14.722 9.26742H15.8745L16.2306 8.17133Z" fill="#338AF3"/>
<path d="M16.2306 12.9539L16.5868 14.0501H17.7392L16.8068 14.7274L17.163 15.8235L16.2306 15.1461L15.2982 15.8235L15.6543 14.7274L14.722 14.0501H15.8745L16.2306 12.9539Z" fill="#338AF3"/>
<path d="M12.0001 10.5626L12.3563 11.6588H13.5087L12.5763 12.3361L12.9325 13.4322L12.0001 12.7548L11.0677 13.4322L11.4238 12.3361L10.4915 11.6588H11.6439L12.0001 10.5626Z" fill="#338AF3"/>
</svg>
