<svg width="24" height="24" viewBox="0 0 24 24" fill="none" xmlns="http://www.w3.org/2000/svg">
<path d="M12 22.9973C18.0751 22.9973 23 18.0724 23 11.9973C23 5.92218 18.0751 0.997314 12 0.997314C5.92487 0.997314 1 5.92218 1 11.9973C1 18.0724 5.92487 22.9973 12 22.9973Z" fill="#D80027"/>
<path d="M13.1357 9.3191C12.8857 10.3589 12.4415 10.1606 12.2235 11.0674C10.9395 10.7587 10.1487 9.46747 10.4574 8.18335C10.766 6.89931 12.0574 6.10852 13.3414 6.41725C12.9054 8.23083 13.3593 8.38913 13.1357 9.3191Z" fill="#F0F0F0"/>
<path d="M9.80374 10.0896C10.7154 10.6486 10.3895 11.0099 11.1845 11.4974C10.4941 12.6233 9.02179 12.9763 7.89592 12.2859C6.7701 11.5955 6.41703 10.1231 7.10745 8.99727C8.69755 9.97231 8.98823 9.58959 9.80374 10.0896Z" fill="#F0F0F0"/>
<path d="M9.50689 13.4967C10.3203 12.8024 10.5631 13.2239 11.2724 12.6185C12.1299 13.623 12.0106 15.1324 11.0062 15.9898C10.0016 16.8473 8.49222 16.7279 7.63491 15.7235C9.05348 14.5125 8.7793 14.1176 9.50689 13.4967Z" fill="#F0F0F0"/>
<path d="M12.6554 14.8319C12.2464 13.8437 12.7223 13.743 12.3657 12.8813C13.586 12.3763 14.9847 12.9561 15.4898 14.1764C15.9948 15.3967 15.4149 16.7954 14.1946 17.3004C13.4814 15.577 13.0213 15.7157 12.6554 14.8319Z" fill="#F0F0F0"/>
<path d="M14.8982 12.2499C13.8321 12.3336 13.8832 11.8497 12.9536 11.9227C12.8504 10.6062 13.8341 9.45501 15.1507 9.35167C16.4672 9.24859 17.6184 10.2322 17.7216 11.5489C15.862 11.6947 15.8518 12.1752 14.8982 12.2499Z" fill="#F0F0F0"/>
</svg>
