<svg width="24" height="24" viewBox="0 0 24 24" fill="none" xmlns="http://www.w3.org/2000/svg">
<path d="M1.68401 8.17125C1.24186 9.36295 0.999817 10.6518 0.999817 11.9973C0.999817 13.3428 1.24186 14.6318 1.68401 15.8234L11.9998 16.7799L22.3156 15.8234C22.7578 14.6318 22.9998 13.3428 22.9998 11.9973C22.9998 10.6518 22.7578 9.36295 22.3156 8.17125L11.9998 7.21472L1.68401 8.17125Z" fill="#F0F0F0"/>
<path d="M11.9998 0.997314C7.27024 0.997314 3.23819 3.98244 1.68401 8.17125H22.3156C20.7613 3.98244 16.7295 0.997314 11.9998 0.997314Z" fill="#D80027"/>
<path d="M11.9998 22.9973C16.7295 22.9973 20.7614 20.0122 22.3156 15.8234H1.68401C3.23819 20.0122 7.27024 22.9973 11.9998 22.9973Z" fill="#6DA544"/>
</svg>
