<svg width="24" height="24" viewBox="0 0 24 24" fill="none" xmlns="http://www.w3.org/2000/svg">
<path d="M11.9996 22.9973C18.0748 22.9973 22.9996 18.0724 22.9996 11.9973C22.9996 5.92218 18.0748 0.997314 11.9996 0.997314C5.9245 0.997314 0.999634 5.92218 0.999634 11.9973C0.999634 18.0724 5.9245 22.9973 11.9996 22.9973Z" fill="#F0F0F0"/>
<path d="M1.37855 14.8669C2.015 17.2285 3.41772 19.2752 5.30396 20.7245V14.8669H1.37855Z" fill="#0052B4"/>
<path d="M11.0431 22.9555C11.3584 22.9827 11.6773 22.9973 11.9996 22.9973C17.0819 22.9973 21.3584 19.5504 22.6207 14.8669H11.0431V22.9555Z" fill="#0052B4"/>
<path d="M22.6207 9.12777C21.3584 4.44435 17.0819 0.997314 11.9996 0.997314C11.6773 0.997314 11.3584 1.01205 11.0431 1.03921V9.12777H22.6207Z" fill="#0052B4"/>
<path d="M5.30396 3.27019C3.41772 4.71953 2.015 6.76625 1.37855 9.12777H5.30396V3.27019Z" fill="#0052B4"/>
<path d="M22.9065 10.5625H9.60838L9.60834 1.25878C8.59178 1.48419 7.62804 1.84955 6.73875 2.3348V10.5625H1.09275C1.03152 11.0322 0.999634 11.511 0.999634 11.9973C0.999634 12.4836 1.03152 12.9624 1.09275 13.4321H6.73871L6.73875 21.6598C7.62804 22.145 8.59178 22.5104 9.60834 22.7358V13.4322L22.9065 13.4321C22.9677 12.9624 22.9996 12.4836 22.9996 11.9973C22.9996 11.511 22.9677 11.0322 22.9065 10.5625Z" fill="#D80027"/>
</svg>
