<svg width="24" height="24" viewBox="0 0 24 24" fill="none" xmlns="http://www.w3.org/2000/svg">
<path d="M12.0004 22.9973C18.0756 22.9973 23.0004 18.0724 23.0004 11.9973C23.0004 5.92218 18.0756 0.997314 12.0004 0.997314C5.92529 0.997314 1.00043 5.92218 1.00043 11.9973C1.00043 18.0724 5.92529 22.9973 12.0004 22.9973Z" fill="#F0F0F0"/>
<path d="M12.0004 0.997314C7.63936 0.997314 3.87118 3.53526 2.09193 7.21472H21.9089C20.1297 3.53526 16.3615 0.997314 12.0004 0.997314Z" fill="#FF9811"/>
<path d="M12.0004 22.9973C16.3615 22.9973 20.1297 20.4594 21.9089 16.7799H2.09193C3.87118 20.4594 7.63936 22.9973 12.0004 22.9973Z" fill="#6DA544"/>
<path d="M12.0004 15.8234C14.1135 15.8234 15.8265 14.1104 15.8265 11.9973C15.8265 9.88424 14.1135 8.17125 12.0004 8.17125C9.88735 8.17125 8.17436 9.88424 8.17436 11.9973C8.17436 14.1104 9.88735 15.8234 12.0004 15.8234Z" fill="#0052B4"/>
<path d="M12.0004 14.3886C13.3211 14.3886 14.3917 13.318 14.3917 11.9973C14.3917 10.6766 13.3211 9.60601 12.0004 9.60601C10.6797 9.60601 9.60912 10.6766 9.60912 11.9973C9.60912 13.318 10.6797 14.3886 12.0004 14.3886Z" fill="#F0F0F0"/>
<path d="M12.0004 9.04648L12.7382 10.7196L14.5559 10.5219L13.4759 11.9973L14.5559 13.4727L12.7382 13.275L12.0004 14.9481L11.2627 13.275L9.44496 13.4727L10.525 11.9973L9.44496 10.5219L11.2627 10.7196L12.0004 9.04648Z" fill="#0052B4"/>
</svg>
