<svg width="24" height="24" viewBox="0 0 24 24" fill="none" xmlns="http://www.w3.org/2000/svg">
<path d="M12 22.9973C18.0751 22.9973 23 18.0724 23 11.9973C23 5.92218 18.0751 0.997314 12 0.997314C5.92487 0.997314 1 5.92218 1 11.9973C1 18.0724 5.92487 22.9973 12 22.9973Z" fill="#F0F0F0"/>
<path d="M15.5728 9.12782H14.1336C14.1455 9.28599 14.1523 9.44557 14.1523 9.60606C14.1523 10.6701 13.8863 11.7015 13.4226 12.4357C13.2796 12.6621 13.0392 12.9819 12.7175 13.1976V9.12778H11.2827V13.1976C10.961 12.9819 10.7206 12.6622 10.5776 12.4357C10.1138 11.7015 9.8479 10.6701 9.8479 9.60606C9.8479 9.44557 9.85469 9.28594 9.86655 9.12782H8.42735C8.41811 9.28521 8.41309 9.44463 8.41309 9.60606C8.41309 12.5561 9.98866 14.8669 12 14.8669C14.0114 14.8669 15.587 12.5561 15.587 9.60606C15.5871 9.44463 15.582 9.28521 15.5728 9.12782Z" fill="#D80027"/>
<path d="M5.54358 6.25828H6.97835V7.2148H8.41312V6.25828H9.84789V7.2148H11.2827V6.25828H12.7174V7.2148H14.1522V6.25828H15.587V7.2148H17.0217V6.25828H18.4565V7.2148H21.9085C20.1294 3.53535 16.361 0.997314 12 0.997314C7.63897 0.997314 3.87085 3.53535 2.0916 7.2148H5.54358V6.25828Z" fill="#6DA544"/>
<path d="M18.4566 16.78V17.7365H17.0219V16.78H15.5871V17.7365H14.1523V16.78H12.7176V17.7365H11.2828V16.78H9.84802V17.7365H8.41325V16.78H6.97835V17.7365H5.54358V16.78H2.0916C3.87085 20.4594 7.63893 22.9973 12 22.9973C16.3611 22.9973 20.1294 20.4594 21.9086 16.78H18.4566Z" fill="#D80027"/>
</svg>
