<svg width="24" height="24" viewBox="0 0 24 24" fill="none" xmlns="http://www.w3.org/2000/svg">
<path d="M11.9996 22.9976C18.0748 22.9976 22.9996 18.0727 22.9996 11.9976C22.9996 5.92243 18.0748 0.997559 11.9996 0.997559C5.9245 0.997559 0.999634 5.92243 0.999634 11.9976C0.999634 18.0727 5.9245 22.9976 11.9996 22.9976Z" fill="#F0F0F0"/>
<path d="M11.9996 0.997559C7.27002 0.997559 3.23804 3.98268 1.68382 8.17149H22.3155C20.7612 3.98268 16.7292 0.997559 11.9996 0.997559Z" fill="#A2001D"/>
<path d="M11.9996 22.9976C16.7292 22.9976 20.7612 20.0124 22.3154 15.8236H1.68382C3.23804 20.0124 7.27002 22.9976 11.9996 22.9976Z" fill="black"/>
<path d="M9.36921 11.2802C9.3632 11.2802 9.35731 11.2805 9.3513 11.2806L7.24853 11.2802C7.35514 10.8683 7.72888 10.5627 8.17357 10.5627V9.12798C6.85498 9.12798 5.78227 10.2007 5.78227 11.5193V12.715H9.36921C9.50109 12.715 9.60834 12.8223 9.60834 12.9541V13.4323H4.8257V14.8671H11.0431V12.954C11.0431 12.0311 10.2922 11.2802 9.36921 11.2802Z" fill="#496E2D"/>
<path d="M12.9563 13.4323V9.12792H11.5216V14.8671H13.9129V13.4323H12.9563Z" fill="#496E2D"/>
<path d="M17.7389 13.4323V9.12792H16.3042V13.4323H15.8259V11.9975H14.3911V14.8671H18.6955V13.4323H17.7389Z" fill="#496E2D"/>
</svg>
