<svg width="24" height="24" viewBox="0 0 24 24" fill="none" xmlns="http://www.w3.org/2000/svg">
<path d="M12.0002 22.9976C18.0754 22.9976 23.0002 18.0727 23.0002 11.9976C23.0002 5.92243 18.0754 0.997559 12.0002 0.997559C5.92511 0.997559 1.00024 5.92243 1.00024 11.9976C1.00024 18.0727 5.92511 22.9976 12.0002 22.9976Z" fill="#D80027"/>
<path d="M16.0731 8.37151L15.2957 11.146L12.9629 10.7153L11.4613 7.62003L7.40475 9.05953L7.08485 8.15804L6.02352 8.02729L6.82321 10.281L9.61485 9.56703L10.4082 11.8027L8.47836 14.6507L11.7533 17.4439L11.1326 18.1717L11.55 19.1563L13.1019 17.3368L11.0878 15.2762L12.6273 13.4713L16.0587 13.7186L16.8402 9.48574L17.7808 9.65946L18.4249 8.80567L16.0731 8.37151Z" fill="#F0F0F0"/>
</svg>
