<svg width="24" height="24" viewBox="0 0 24 24" fill="none" xmlns="http://www.w3.org/2000/svg">
<path d="M12 22.9976C18.0751 22.9976 23 18.0727 23 11.9976C23 5.92243 18.0751 0.997559 12 0.997559C5.92487 0.997559 1 5.92243 1 11.9976C1 18.0727 5.92487 22.9976 12 22.9976Z" fill="#F0F0F0"/>
<path d="M16.1422 9.60638H13.3809L12.0003 7.21509L10.6198 9.60638H7.85842L9.23918 11.9977L7.85842 14.389H10.6198L12.0003 16.7803L13.3809 14.389H16.1422L14.7614 11.9977L16.1422 9.60638ZM13.6965 11.9977L12.8485 13.4667H11.1523L10.3041 11.9977L11.1522 10.5287H12.8484L13.6965 11.9977ZM12.0003 9.05961L12.316 9.60634H11.6847L12.0003 9.05961ZM9.45595 10.5287H10.0872L9.7716 11.0754L9.45595 10.5287ZM9.45595 13.4667L9.77164 12.92L10.0873 13.4667H9.45595ZM12.0003 14.9357L11.6847 14.389H12.316L12.0003 14.9357ZM14.5447 13.4667H13.9134L14.2291 12.92L14.5447 13.4667ZM13.9134 10.5287H14.5447L14.229 11.0754L13.9134 10.5287Z" fill="#0052B4"/>
<path d="M18.8475 3.3889H5.15276C4.14888 4.18846 3.28796 5.15964 2.61464 6.25848H21.3856C20.7123 5.15969 19.8513 4.18846 18.8475 3.3889Z" fill="#0052B4"/>
<path d="M5.15292 20.6064H18.8476C19.8515 19.8068 20.7124 18.8356 21.3857 17.7368H2.6148C3.28817 18.8356 4.14909 19.8068 5.15292 20.6064Z" fill="#0052B4"/>
</svg>
