<svg width="24" height="24" viewBox="0 0 24 24" fill="none" xmlns="http://www.w3.org/2000/svg">
<path d="M11.9998 22.9976C13.3453 22.9976 14.6342 22.7556 15.8258 22.3134L16.3041 11.9976L15.8259 1.68175C14.6342 1.2396 13.3453 0.997559 11.9998 0.997559C10.6542 0.997559 9.36531 1.2396 8.1737 1.68175L7.69541 11.9976L8.17365 22.3134C9.36531 22.7556 10.6542 22.9976 11.9998 22.9976Z" fill="#F0F0F0"/>
<path d="M0.999756 11.9976C0.999756 16.7272 3.98485 20.7591 8.17365 22.3134L8.1737 1.68175C3.98489 3.23597 0.999756 7.26795 0.999756 11.9976Z" fill="#FF9811"/>
<path d="M15.8259 1.68175L15.8258 22.3134C20.0146 20.7591 22.9998 16.7272 22.9998 11.9976C22.9998 7.26795 20.0147 3.23597 15.8259 1.68175Z" fill="#6DA544"/>
</svg>
