<svg width="24" height="24" viewBox="0 0 24 24" fill="none" xmlns="http://www.w3.org/2000/svg">
<path d="M11.9996 22.9976C18.0748 22.9976 22.9996 18.0727 22.9996 11.9976C22.9996 5.92243 18.0748 0.997559 11.9996 0.997559C5.9245 0.997559 0.999634 5.92243 0.999634 11.9976C0.999634 18.0727 5.9245 22.9976 11.9996 22.9976Z" fill="#FFDA44"/>
<path d="M18.6966 3.27146C16.8417 1.84572 14.5199 0.997559 11.9996 0.997559C9.47934 0.997559 7.15747 1.84576 5.30263 3.27146L11.9996 9.9684L18.6966 3.27146Z" fill="#6DA544"/>
<path d="M3.2735 5.30062C1.84784 7.15545 0.999634 9.47727 0.999634 11.9976C0.999634 14.5178 1.84784 16.8397 3.27354 18.6946L9.97052 11.9976L3.2735 5.30062Z" fill="black"/>
<path d="M5.30263 20.7237C7.15751 22.1494 9.47934 22.9976 11.9996 22.9976C14.5199 22.9976 16.8417 22.1494 18.6966 20.7237L11.9996 14.0267L5.30263 20.7237Z" fill="#6DA544"/>
<path d="M20.7257 18.6945C22.1515 16.8397 22.9996 14.5178 22.9996 11.9976C22.9996 9.47727 22.1515 7.15545 20.7257 5.30062L14.0288 11.9976L20.7257 18.6945Z" fill="black"/>
</svg>
