<svg width="24" height="24" viewBox="0 0 24 24" fill="none" xmlns="http://www.w3.org/2000/svg">
<path d="M12.0003 22.9976C18.0754 22.9976 23.0003 18.0727 23.0003 11.9976C23.0003 5.92243 18.0754 0.997559 12.0003 0.997559C5.92517 0.997559 1.00031 5.92243 1.00031 11.9976C1.00031 18.0727 5.92517 22.9976 12.0003 22.9976Z" fill="#F0F0F0"/>
<path d="M20.7272 18.6953L14.0294 11.9976L20.7272 5.29977C20.4383 4.92439 20.1223 4.56324 19.7785 4.21936C19.4346 3.87552 19.0735 3.55949 18.6981 3.2707L12.0004 9.96845L5.30257 3.2707C4.92723 3.55953 4.56604 3.87548 4.22216 4.21936C3.87828 4.56324 3.56229 4.92439 3.2735 5.29977L9.97125 11.9975L3.27345 18.6954C3.56233 19.0707 3.87832 19.4319 4.22212 19.7758C4.566 20.1196 4.9271 20.4356 5.30252 20.7244L12.0003 14.0267L18.6981 20.7244C19.0734 20.4355 19.4346 20.1196 19.7785 19.7757C20.1224 19.4318 20.4383 19.0707 20.7272 18.6953Z" fill="#D80027"/>
<path d="M10.0872 4.34538L12.0003 4.82362L13.9133 4.34538V2.71932L13.1481 3.10191L12.0003 1.95409L10.8525 3.10191L10.0872 2.71932V4.34538Z" fill="#FFDA44"/>
<path d="M10.0872 4.34538V5.54112C10.0872 7.0055 12.0003 7.45418 12.0003 7.45418C12.0003 7.45418 13.9133 7.00545 13.9133 5.54112V4.34538H10.0872Z" fill="#D80027"/>
</svg>
