<svg width="24" height="24" viewBox="0 0 24 24" fill="none" xmlns="http://www.w3.org/2000/svg">
<path d="M12 22.9976C18.0751 22.9976 23 18.0727 23 11.9976C23 5.92243 18.0751 0.997559 12 0.997559C5.92487 0.997559 1 5.92243 1 11.9976C1 18.0727 5.92487 22.9976 12 22.9976Z" fill="#F0F0F0"/>
<path d="M7.69576 8.17158H22.3159C20.7617 3.98277 16.7296 0.997559 12 0.997559C8.96237 0.997559 6.21277 2.22908 4.22229 4.21983L7.69576 8.17158Z" fill="black"/>
<path d="M7.69576 15.8237H22.3159C20.7617 20.0125 16.7296 22.9976 12 22.9976C8.96237 22.9976 6.21277 21.7662 4.22229 19.7755L7.69576 15.8237Z" fill="#6DA544"/>
<path d="M4.22229 4.21983C-0.0734675 8.51558 -0.0734675 15.4797 4.22229 19.7755C5.99746 18.0003 7.70436 16.2934 12.0001 11.9976L4.22229 4.21983Z" fill="#D80027"/>
<path d="M5.36596 9.60634L5.96962 10.8687L7.33298 10.5536L6.72239 11.8127L7.81874 12.6821L6.45375 12.9897L6.45753 14.3889L5.36596 13.5135L4.27433 14.3889L4.27816 12.9897L2.91317 12.6821L4.00947 11.8127L3.39898 10.5536L4.76224 10.8687L5.36596 9.60634Z" fill="#F0F0F0"/>
</svg>
