<svg width="24" height="24" viewBox="0 0 24 24" fill="none" xmlns="http://www.w3.org/2000/svg">
<path d="M12.0005 22.9976C18.0756 22.9976 23.0005 18.0727 23.0005 11.9976C23.0005 5.92243 18.0756 0.997559 12.0005 0.997559C5.92536 0.997559 1.00049 5.92243 1.00049 11.9976C1.00049 18.0727 5.92536 22.9976 12.0005 22.9976Z" fill="#00ABC2"/>
<path d="M18.2179 12.1171H5.78307C5.78307 12.9756 6.53077 13.6715 7.38916 13.6715H7.33742C7.33742 14.53 8.0333 15.2259 8.89177 15.2259C8.89177 16.0843 9.58765 16.7802 10.4461 16.7802H13.5548C14.4133 16.7802 15.1092 16.0843 15.1092 15.2259C15.9677 15.2259 16.6635 14.53 16.6635 13.6715H16.6118C17.4701 13.6715 18.2179 12.9756 18.2179 12.1171Z" fill="#FFDA44"/>
<path d="M16.3048 10.0845C16.3048 12.4617 14.3777 14.3889 12.0005 14.3889C9.62325 14.3889 7.69614 12.4617 7.69614 10.0845" fill="#00ABC2"/>
<path d="M15.2883 10.0845L13.9448 10.7164L14.6602 12.0175L13.2014 11.7385L13.0166 13.2121L12.0005 12.1282L10.9844 13.2121L10.7996 11.7385L9.34078 12.0175L10.0561 10.7164L8.71275 10.0845L10.0562 9.4526L9.34078 8.15155L10.7995 8.43059L10.9844 6.95693L12.0005 8.04082L13.0166 6.95693L13.2014 8.43059L14.6603 8.15155L13.9449 9.45265L15.2883 10.0845Z" fill="#FFDA44"/>
</svg>
