<svg width="24" height="24" viewBox="0 0 24 24" fill="none" xmlns="http://www.w3.org/2000/svg">
<path d="M12.0002 22.9976C18.0754 22.9976 23.0002 18.0727 23.0002 11.9976C23.0002 5.92243 18.0754 0.997559 12.0002 0.997559C5.92511 0.997559 1.00024 5.92243 1.00024 11.9976C1.00024 18.0727 5.92511 22.9976 12.0002 22.9976Z" fill="#F0F0F0"/>
<path d="M12.0002 0.997559C7.63917 0.997559 3.871 3.53551 2.09175 7.21496H21.9087C20.1295 3.53551 16.3613 0.997559 12.0002 0.997559Z" fill="black"/>
<path d="M12.0002 22.9976C7.63917 22.9976 3.871 20.4596 2.09175 16.7802H21.9087C20.1295 20.4596 16.3613 22.9976 12.0002 22.9976Z" fill="#496E2D"/>
<path d="M22.4808 8.64973H1.51969C1.18273 9.70543 1.00024 10.8301 1.00024 11.9976C1.00024 13.165 1.18273 14.2897 1.51969 15.3454H22.4808C22.8178 14.2897 23.0002 13.165 23.0002 11.9976C23.0002 10.8301 22.8178 9.70543 22.4808 8.64973Z" fill="#A2001D"/>
<path d="M15.4255 6.08081L14.1228 5.47955L12.0003 10.2856L9.87768 5.47955L8.575 6.08081L11.2102 11.9976L8.575 17.9143L9.87768 18.5156L12.0003 13.7095L14.1228 18.5156L15.4255 17.9143L12.7903 11.9976L15.4255 6.08081Z" fill="#F0F0F0"/>
<path d="M12.8849 6.64731C12.3806 6.09658 12.0001 5.77999 12.0001 5.77999C12.0001 5.77999 11.6196 6.09654 11.1153 6.64731V17.3474C11.6196 17.8982 12.0001 18.2148 12.0001 18.2148C12.0001 18.2148 12.3806 17.8983 12.8849 17.3474V6.64731Z" fill="#F0F0F0"/>
<path d="M9.60893 8.6994V15.2956C10.1418 16.2399 10.7941 17.0138 11.2829 17.5269V6.46812C10.7941 6.98121 10.1418 7.75521 9.60893 8.6994Z" fill="#A2001D"/>
<path d="M14.3914 8.69952C13.8584 7.75528 13.2062 6.98133 12.7174 6.46824V17.5271C13.2062 17.0139 13.8584 16.24 14.3914 15.2957V8.69952Z" fill="#A2001D"/>
<path d="M14.3914 8.69952V15.2957C14.9308 14.3397 15.3481 13.2092 15.3481 11.9976C15.3481 10.786 14.9308 9.65557 14.3914 8.69952Z" fill="black"/>
<path d="M9.60893 8.6994V15.2956C9.06946 14.3396 8.65242 13.2092 8.65242 11.9976C8.65242 10.786 9.06946 9.65546 9.60893 8.6994Z" fill="black"/>
</svg>
