<svg width="24" height="24" viewBox="0 0 24 24" fill="none" xmlns="http://www.w3.org/2000/svg">
<path d="M1 11.9976C1 5.92246 5.92491 0.997559 12 0.997559C18.0751 0.997559 23 5.92246 23 11.9976" fill="#D80027"/>
<path d="M15.8259 11.2275L14.2625 11.9629L15.0951 13.477L13.3974 13.1522L13.1823 14.8672L11.9999 13.6059L10.8174 14.8672L10.6023 13.1522L8.90465 13.477L9.73717 11.9629L8.17379 11.2275L9.73717 10.4921L8.90465 8.97809L10.6023 9.30276L10.8174 7.58787L11.9999 8.84914L13.1824 7.58787L13.3974 9.30276L15.0951 8.97809L14.2626 10.4922L15.8259 11.2275Z" fill="#FFDA44"/>
<path d="M14.8694 4.58458H12.7173C12.7173 4.18845 12.396 3.86718 11.9998 3.86718C11.6037 3.86718 11.2824 4.18841 11.2824 4.58458H9.13027C9.13027 4.98075 9.47539 5.30199 9.87156 5.30199H9.84763C9.84763 5.69816 10.1688 6.01939 10.565 6.01939C10.565 6.41557 10.8862 6.7368 11.2824 6.7368H12.7172C13.1133 6.7368 13.4346 6.41561 13.4346 6.01939C13.8307 6.01939 14.152 5.6982 14.152 5.30199H14.1281C14.5243 5.30199 14.8694 4.9808 14.8694 4.58458Z" fill="#FFDA44"/>
<path d="M23 11.9976C23 18.0727 18.0751 22.9976 12 22.9976C5.92491 22.9976 1 18.0727 1 11.9976H23Z" fill="#F0F0F0"/>
<path d="M12 22.9976C15.4384 22.9976 18.5078 21.4195 20.525 18.9486C20.1622 18.7012 19.9663 18.3014 19.3331 18.3014C18.4165 18.3014 18.4165 19.1395 17.4998 19.1395C16.5832 19.1395 16.5832 18.3014 15.6666 18.3014C14.7499 18.3014 14.7499 19.1395 13.8332 19.1395C12.9165 19.1395 12.9165 18.3014 11.9998 18.3014C11.0831 18.3014 11.0831 19.1395 10.1665 19.1395C9.24997 19.1395 9.24997 18.3014 8.33332 18.3014C7.41658 18.3014 7.41658 19.1395 6.49984 19.1395C5.5831 19.1395 5.5831 18.3014 4.66637 18.3014C4.03326 18.3014 3.83737 18.7011 3.47471 18.9485C5.49184 21.4195 8.56151 22.9976 12 22.9976Z" fill="#0052B4"/>
<path d="M21.1665 13.4005C20.2499 13.4005 20.2499 12.5623 19.3332 12.5623C18.4165 12.5623 18.4165 13.4005 17.4999 13.4005C16.5833 13.4005 16.5833 12.5623 15.6667 12.5623C14.75 12.5623 14.75 13.4005 13.8333 13.4005C12.9166 13.4005 12.9166 12.5623 11.9998 12.5623C11.0832 12.5623 11.0832 13.4005 10.1666 13.4005C9.25004 13.4005 9.25004 12.5623 8.33339 12.5623C7.41665 12.5623 7.41665 13.4005 6.49991 13.4005C5.58318 13.4005 5.58318 12.5623 4.66644 12.5623C3.74991 12.5623 3.74991 13.4005 2.83326 13.4005C1.92155 13.4005 1.91627 12.5716 1.01431 12.5627C1.0397 13.0659 1.09977 13.5599 1.19061 14.0429C1.92125 14.1503 1.98523 14.8671 2.83331 14.8671C3.74996 14.8671 3.74996 14.0291 4.66648 14.0291C5.58322 14.0291 5.58322 14.8671 6.49996 14.8671C7.4167 14.8671 7.4167 14.0291 8.33344 14.0291C9.25009 14.0291 9.25009 14.8671 10.1666 14.8671C11.0833 14.8671 11.0833 14.0291 11.9999 14.0291C12.9166 14.0291 12.9166 14.8671 13.8333 14.8671C14.7501 14.8671 14.7501 14.0291 15.6667 14.0291C16.5833 14.0291 16.5833 14.8671 17.5 14.8671C18.4166 14.8671 18.4166 14.0291 19.3332 14.0291C20.25 14.0291 20.25 14.8671 21.1666 14.8671C22.0147 14.8671 22.0787 14.1503 22.8094 14.043C22.9003 13.5599 22.9603 13.0659 22.9858 12.5628C22.0837 12.5717 22.0783 13.4005 21.1665 13.4005Z" fill="#0052B4"/>
<path d="M19.3331 15.4318C18.4165 15.4318 18.4165 16.27 17.4999 16.27C16.5832 16.27 16.5832 15.4318 15.6666 15.4318C14.7499 15.4318 14.7499 16.27 13.8332 16.27C12.9165 16.27 12.9165 15.4318 11.9998 15.4318C11.0831 15.4318 11.0831 16.27 10.1665 16.27C9.24998 16.27 9.24998 15.4318 8.33333 15.4318C7.41659 15.4318 7.41659 16.27 6.49985 16.27C5.58312 16.27 5.58312 15.4318 4.66638 15.4318C3.74985 15.4318 3.74985 16.27 2.8332 16.27C2.17823 16.27 1.99114 15.8422 1.60335 15.5978C1.86151 16.3437 2.19735 17.0532 2.60181 17.7165C2.67215 17.7295 2.74872 17.7366 2.8332 17.7366C3.74985 17.7366 3.74985 16.8986 4.66638 16.8986C5.58312 16.8986 5.58312 17.7366 6.49985 17.7366C7.41659 17.7366 7.41659 16.8986 8.33333 16.8986C9.24998 16.8986 9.24998 17.7366 10.1665 17.7366C11.0832 17.7366 11.0832 16.8986 11.9998 16.8986C12.9165 16.8986 12.9165 17.7366 13.8332 17.7366C14.75 17.7366 14.75 16.8986 15.6666 16.8986C16.5832 16.8986 16.5832 17.7366 17.4999 17.7366C18.4165 17.7366 18.4165 16.8986 19.3331 16.8986C20.2499 16.8986 20.2499 17.7366 21.1665 17.7366C21.251 17.7366 21.3276 17.7295 21.3979 17.7164C21.8024 17.0532 22.1382 16.3437 22.3965 15.5978C22.0087 15.8421 21.8215 16.27 21.1665 16.27C20.2499 16.27 20.2499 15.4318 19.3331 15.4318Z" fill="#0052B4"/>
<path d="M22.9659 11.1285C22.0837 11.1494 22.0716 11.9657 21.1665 11.9657C20.2499 11.9657 20.2499 11.1276 19.3332 11.1276C18.4165 11.1276 18.4165 11.9657 17.4999 11.9657C16.5833 11.9657 16.5833 11.1276 15.6667 11.1276C14.75 11.1276 14.75 11.9657 13.8333 11.9657C12.9166 11.9657 12.9166 11.1276 11.9998 11.1276C11.0832 11.1276 11.0832 11.9657 10.1666 11.9657C9.25004 11.9657 9.25004 11.1276 8.33339 11.1276C7.41665 11.1276 7.41665 11.9657 6.49991 11.9657C5.58318 11.9657 5.58318 11.1276 4.66644 11.1276C3.74991 11.1276 3.74991 11.9657 2.83326 11.9657C1.92838 11.9657 1.91614 11.1494 1.03407 11.1285C1.01169 11.4153 1 11.7051 1 11.9976C1 12.1979 1.00567 12.397 1.01637 12.5947C1.91627 12.6048 1.92224 13.4323 2.8333 13.4323C3.74996 13.4323 3.74996 12.5943 4.66648 12.5943C5.58322 12.5943 5.58322 13.4323 6.49996 13.4323C7.4167 13.4323 7.4167 12.5943 8.33343 12.5943C9.25009 12.5943 9.25009 13.4323 10.1666 13.4323C11.0833 13.4323 11.0833 12.5943 11.9999 12.5943C12.9166 12.5943 12.9166 13.4323 13.8333 13.4323C14.7501 13.4323 14.7501 12.5943 15.6667 12.5943C16.5833 12.5943 16.5833 13.4323 17.5 13.4323C18.4166 13.4323 18.4166 12.5943 19.3332 12.5943C20.25 12.5943 20.25 13.4323 21.1666 13.4323C22.0777 13.4323 22.0837 12.6048 22.9838 12.5947C22.9943 12.397 23 12.1979 23 11.9976C23 11.7051 22.9883 11.4153 22.9659 11.1285Z" fill="#F0F0F0"/>
</svg>
