<svg width="24" height="24" viewBox="0 0 24 24" fill="none" xmlns="http://www.w3.org/2000/svg">
<path d="M11.9998 22.9976C18.0749 22.9976 22.9998 18.0727 22.9998 11.9976C22.9998 5.92243 18.0749 0.997559 11.9998 0.997559C5.92462 0.997559 0.999756 5.92243 0.999756 11.9976C0.999756 18.0727 5.92462 22.9976 11.9998 22.9976Z" fill="#0052B4"/>
<path d="M5.83176 7.69321L6.0692 8.42402H6.83749L6.21594 8.87558L6.45335 9.60626L5.83176 9.1547L5.21013 9.60626L5.44762 8.87558L4.82603 8.42402H5.59427L5.83176 7.69321Z" fill="#F0F0F0"/>
<path d="M8.22307 6.97583L8.46052 7.7066H9.2288L8.60725 8.15816L8.84466 8.88884L8.22307 8.43728L7.60148 8.88884L7.83893 8.15816L7.21739 7.7066H7.98567L8.22307 6.97583Z" fill="#F0F0F0"/>
<path d="M10.6143 6.25843L10.8518 6.9892H11.6201L10.9985 7.4408L11.2359 8.17149L10.6143 7.71988L9.99275 8.17149L10.2302 7.4408L9.60866 6.9892H10.3769L10.6143 6.25843Z" fill="#F0F0F0"/>
<path d="M18.1682 7.69321L17.9307 8.42402H17.1624L17.784 8.87558L17.5466 9.60626L18.1682 9.1547L18.7898 9.60626L18.5523 8.87558L19.1739 8.42402H18.4056L18.1682 7.69321Z" fill="#F0F0F0"/>
<path d="M15.7769 6.97583L15.5394 7.7066H14.7712L15.3927 8.15816L15.1553 8.88884L15.7769 8.43728L16.3985 8.88884L16.161 8.15816L16.7826 7.7066H16.0143L15.7769 6.97583Z" fill="#F0F0F0"/>
<path d="M13.3856 6.25843L13.1481 6.9892H12.3798L13.0014 7.4408L12.764 8.17149L13.3856 7.71988L14.0072 8.17149L13.7697 7.4408L14.3913 6.9892H13.623L13.3856 6.25843Z" fill="#F0F0F0"/>
<path d="M13.9128 12.4758L11.9998 10.0845L11.0432 10.5627V11.5193L9.60846 12.4758H8.65193V13.7115C10.0539 14.2792 11.0432 15.6529 11.0432 17.2584H11.9998V16.3019L12.9563 15.3454L13.9128 16.3019L14.8693 15.3454V14.3889L15.8259 12.9541L13.9128 12.4758Z" fill="#FFDA44"/>
</svg>
