<svg width="24" height="24" viewBox="0 0 24 24" fill="none" xmlns="http://www.w3.org/2000/svg">
<path d="M22.3162 15.8236C22.7583 14.632 23.0004 13.3431 23.0004 11.9976C23.0004 10.652 22.7583 9.36314 22.3162 8.17148L12.0004 7.21496L1.6846 8.17148C1.24245 9.36314 1.00041 10.652 1.00041 11.9976C1.00041 13.3431 1.24245 14.632 1.6846 15.8236L12.0004 16.7801L22.3162 15.8236Z" fill="#F0F0F0"/>
<path d="M12.0004 22.9976C16.7299 22.9976 20.762 20.0124 22.3162 15.8236H1.6846C3.23886 20.0124 7.27073 22.9976 12.0004 22.9976Z" fill="#D80027"/>
<path d="M12.0004 0.997559C7.27073 0.997559 3.23886 3.98268 1.6846 8.17148H22.3162C20.762 3.98268 16.7299 0.997559 12.0004 0.997559Z" fill="#6DA544"/>
<path d="M4.22218 4.21935C-0.0735712 8.51511 -0.0735712 15.48 4.22218 19.7758C5.34345 18.6545 6.43786 17.5601 8.17426 15.8237V8.17149L4.22218 4.21935Z" fill="black"/>
</svg>
