<svg width="24" height="24" viewBox="0 0 24 24" fill="none" xmlns="http://www.w3.org/2000/svg">
<path d="M12.0002 22.9976C18.0754 22.9976 23.0002 18.0727 23.0002 11.9976C23.0002 5.92243 18.0754 0.997559 12.0002 0.997559C5.92511 0.997559 1.00024 5.92243 1.00024 11.9976C1.00024 18.0727 5.92511 22.9976 12.0002 22.9976Z" fill="#D80027"/>
<path d="M17.3798 11.9976L15.1817 13.0315L16.3522 15.1604L13.9652 14.7037L13.6629 17.115L12.0002 15.3416L10.3376 17.115L10.0352 14.7037L7.64836 15.1604L8.81883 13.0314L6.62067 11.9976L8.81883 10.9637L7.64836 8.83466L10.0351 9.29142L10.3377 6.88014L12.0002 8.65351L13.663 6.88014L13.9652 9.29142L16.3523 8.83466L15.1818 10.9638L17.3798 11.9976Z" fill="#FFDA44"/>
<path d="M12.0002 15.3454C13.8492 15.3454 15.3481 13.8465 15.3481 11.9976C15.3481 10.1486 13.8492 8.64973 12.0002 8.64973C10.1513 8.64973 8.65242 10.1486 8.65242 11.9976C8.65242 13.8465 10.1513 15.3454 12.0002 15.3454Z" fill="#D80027"/>
<path d="M10.3262 11.9975C10.2456 11.9975 10.166 12.0016 10.0874 12.0094C10.0902 12.4731 10.258 12.8975 10.5351 13.2272C10.6829 12.8295 10.9036 12.4668 11.1819 12.1564C10.9161 12.0541 10.6277 11.9975 10.3262 11.9975Z" fill="#FFDA44"/>
<path d="M11.3567 13.7993C11.5578 13.8712 11.7743 13.9106 12.0002 13.9106C12.226 13.9106 12.4425 13.8712 12.6436 13.7993C12.534 13.3691 12.3077 12.9851 12.0002 12.6832C11.6926 12.985 11.4663 13.3691 11.3567 13.7993Z" fill="#FFDA44"/>
<path d="M13.6568 11.0413C13.326 10.4695 12.7083 10.0844 12.0002 10.0844C11.292 10.0844 10.6743 10.4695 10.3435 11.0413C10.9465 11.0443 11.512 11.2083 12.0002 11.4914C12.4883 11.2083 13.0537 11.0443 13.6568 11.0413Z" fill="#FFDA44"/>
<path d="M12.8184 12.1564C13.0967 12.4668 13.3174 12.8295 13.4652 13.2273C13.7422 12.8976 13.91 12.4732 13.9129 12.0095C13.8342 12.0016 13.7546 11.9975 13.674 11.9975C13.3726 11.9975 13.0842 12.0541 12.8184 12.1564Z" fill="#FFDA44"/>
</svg>
