<svg width="24" height="24" viewBox="0 0 24 24" fill="none" xmlns="http://www.w3.org/2000/svg">
<path d="M21.9085 7.21495C20.1293 3.5355 16.3611 0.997559 12 0.997559C7.63894 0.997559 3.87076 3.5355 2.09151 7.21495L12 8.17148L21.9085 7.21495Z" fill="#D80027"/>
<path d="M2.09129 16.7802C3.87054 20.4596 7.63872 22.9976 11.9998 22.9976C16.3609 22.9976 20.129 20.4596 21.9083 16.7802L11.9998 15.8236L2.09129 16.7802Z" fill="#D80027"/>
<path d="M21.9085 7.21495H2.09151C1.39223 8.66106 1 10.2835 1 11.9975C1 13.7116 1.39201 15.3341 2.09129 16.7802H21.9083C22.6077 15.3341 23 13.7116 23 11.9975C23 10.2835 22.6078 8.66106 21.9085 7.21495Z" fill="#0052B4"/>
<path d="M11.9998 15.8236C14.1129 15.8236 15.8261 14.1106 15.8261 11.9975C15.8261 9.88447 14.1131 8.17148 12 8.17148C9.88694 8.17148 8.17394 9.88447 8.17394 11.9975C8.17394 14.1106 9.88671 15.8236 11.9998 15.8236Z" fill="#F0F0F0"/>
</svg>
