<svg width="24" height="24" viewBox="0 0 24 24" fill="none" xmlns="http://www.w3.org/2000/svg">
<path d="M12.0005 22.9976C18.0756 22.9976 23.0005 18.0727 23.0005 11.9976C23.0005 5.92243 18.0756 0.997559 12.0005 0.997559C5.92536 0.997559 1.00049 5.92243 1.00049 11.9976C1.00049 18.0727 5.92536 22.9976 12.0005 22.9976Z" fill="#F0F0F0"/>
<path d="M12.0005 0.997559C7.63942 0.997559 3.87125 3.53551 2.092 7.21496H21.909C20.1298 3.53551 16.3615 0.997559 12.0005 0.997559Z" fill="#D80027"/>
<path d="M12.0005 22.9976C16.3615 22.9976 20.1295 20.4597 21.9088 16.7802H2.09177C3.87102 20.4597 7.63942 22.9976 12.0005 22.9976Z" fill="#D80027"/>
<path d="M14.8701 13.9106L12.0005 8.64973L9.1309 13.9106H11.2831V15.3454H12.7179V13.9106H14.8701Z" fill="#6DA544"/>
</svg>
