<svg width="24" height="24" viewBox="0 0 24 24" fill="none" xmlns="http://www.w3.org/2000/svg">
<path d="M1.00024 11.9976C1.00024 13.7116 1.39242 15.334 2.09174 16.7801L12.0002 17.2584L21.9088 16.7802C22.6081 15.334 23.0002 13.7116 23.0002 11.9976C23.0002 10.2835 22.6081 8.66112 21.9088 7.21496L12.0002 6.73668L2.09174 7.21492C1.39242 8.66112 1.00024 10.2835 1.00024 11.9976Z" fill="#F0F0F0"/>
<path d="M12.0002 22.9976C16.3613 22.9976 20.1295 20.4596 21.9088 16.7802L2.09174 16.7801C3.87099 20.4596 7.63917 22.9976 12.0002 22.9976Z" fill="#6DA544"/>
<path d="M12.0002 0.997559C7.63917 0.997559 3.87099 3.53546 2.09174 7.21492L21.9088 7.21496C20.1295 3.5355 16.3613 0.997559 12.0002 0.997559Z" fill="#0052B4"/>
<path d="M12.7177 11.7584V9.12801H11.2829V11.7584L9.54996 13.4914C10.0539 14.3164 10.9628 14.8671 12.0003 14.8671C13.0378 14.8671 13.9466 14.3164 14.4506 13.4914L12.7177 11.7584Z" fill="black"/>
</svg>
