<svg width="24" height="24" viewBox="0 0 24 24" fill="none" xmlns="http://www.w3.org/2000/svg">
<path d="M12 22.9976C18.0751 22.9976 23 18.0727 23 11.9976C23 5.92243 18.0751 0.997559 12 0.997559C5.92487 0.997559 1 5.92243 1 11.9976C1 18.0727 5.92487 22.9976 12 22.9976Z" fill="#F0F0F0"/>
<path d="M3.51434 4.9976H20.4856C19.8588 4.23856 19.1318 3.56545 18.3253 2.99762H5.67468C4.8682 3.56537 4.14121 4.23851 3.51434 4.9976Z" fill="#F0F0F0"/>
<path d="M1 11.9976C1 12.3347 1.01603 12.6681 1.04572 12.9976H22.9543C22.984 12.6681 23 12.3347 23 11.9976C23 11.6604 22.984 11.327 22.9543 10.9976H1.04572C1.01603 11.327 1 11.6604 1 11.9976Z" fill="#F0F0F0"/>
<path d="M2.1995 16.9975H21.8005C22.1244 16.3639 22.3885 15.6948 22.5858 14.9976H1.4142C1.61139 15.6948 1.87565 16.364 2.1995 16.9975Z" fill="#F0F0F0"/>
<path d="M5.67468 20.9976H18.3252C19.1317 20.4298 19.8588 19.7566 20.4856 18.9976H3.51434C4.14121 19.7566 4.8682 20.4298 5.67468 20.9976Z" fill="#F0F0F0"/>
<path d="M1.41416 8.99758H22.5858C22.3886 8.30028 22.1244 7.63117 21.8005 6.99759H2.1995C1.87565 7.63117 1.61139 8.30028 1.41416 8.99758Z" fill="#F0F0F0"/>
<path d="M6.26099 2.99754L18.3253 2.99762C16.5361 1.73786 14.3546 0.997559 12 0.997559C10.5652 0.997559 8.05021 1.73778 6.26099 2.99754Z" fill="#D80027"/>
<path d="M11.5218 6.99758L21.8005 6.99759C21.4347 6.28204 20.9929 5.61175 20.4856 4.9976L11.5218 4.9976V6.99758Z" fill="#D80027"/>
<path d="M11.5218 10.9976L22.9543 10.9976C22.8924 10.3109 22.768 9.64206 22.5858 8.99758L11.5218 8.99761V10.9976Z" fill="#D80027"/>
<path d="M1.4142 14.9976H22.5858C22.768 14.3531 22.8924 13.6843 22.9543 12.9976H1.04572C1.10759 13.6843 1.23193 14.3531 1.4142 14.9976Z" fill="#D80027"/>
<path d="M3.51434 18.9976H20.4856C20.9928 18.3834 21.4347 17.713 21.8005 16.9975H2.1995C2.56529 17.7131 3.0071 18.3835 3.51434 18.9976Z" fill="#D80027"/>
<path d="M12 22.9976C14.3546 22.9976 16.536 22.2573 18.3252 20.9976H5.67468C7.4639 22.2573 9.64544 22.9976 12 22.9976Z" fill="#D80027"/>
<path d="M1.41416 8.99758C1.23189 9.64211 1.10759 10.3109 1.04572 10.9976L12 10.9975L12 0.997559C6.96492 0.997559 2.72007 4.38058 1.41416 8.99758Z" fill="#0052B4"/>
<path d="M7.54792 3.86715L8.26013 6.0592H10.5652L8.70047 7.41409L9.41263 9.60627L7.54792 8.25147L5.68312 9.60627L6.39545 7.41409L4.5307 6.0592H6.83567L7.54792 3.86715Z" fill="#F0F0F0"/>
</svg>
