<svg width="24" height="24" viewBox="0 0 24 24" fill="none" xmlns="http://www.w3.org/2000/svg">
<path d="M2.09149 7.21497C1.39222 8.66112 1 10.2835 1 11.9976C1 13.7116 1.39222 15.334 2.09149 16.7801L12 17.7367L21.9085 16.7801C22.6078 15.334 23 13.7116 23 11.9976C23 10.2835 22.6078 8.66112 21.9085 7.21497L12 6.25844L2.09149 7.21497Z" fill="black"/>
<path d="M2.09149 16.7801C3.87066 20.4596 7.63889 22.9976 12 22.9976C16.361 22.9976 20.1293 20.4596 21.9085 16.7801H2.09149Z" fill="#496E2D"/>
<path d="M2.09149 7.21497H21.9085C20.1293 3.53551 16.361 0.997559 12 0.997559C7.63889 0.997559 3.87066 3.53551 2.09149 7.21497Z" fill="#D80027"/>
<path d="M14.5602 9.98592L15.4627 11.2296L16.9244 10.7557L16.0204 11.9984L16.9228 13.242L15.4617 12.7663L14.5577 14.009L14.5587 12.4723L13.0975 11.9966L14.5592 11.5227L14.5602 9.98592Z" fill="#F0F0F0"/>
<path d="M12.0972 15.1063C10.3803 15.1063 8.98847 13.7144 8.98847 11.9976C8.98847 10.2807 10.3803 8.88885 12.0972 8.88885C12.6325 8.88885 13.1362 9.02421 13.5759 9.26251C12.886 8.58786 11.9426 8.17145 10.9015 8.17145C8.78841 8.17145 7.07546 9.88444 7.07546 11.9975C7.07546 14.1106 8.78846 15.8236 10.9015 15.8236C11.9427 15.8236 12.8861 15.4072 13.5759 14.7325C13.1362 14.9709 12.6325 15.1063 12.0972 15.1063Z" fill="#F0F0F0"/>
</svg>
