<svg width="24" height="24" viewBox="0 0 24 24" fill="none" xmlns="http://www.w3.org/2000/svg">
<path d="M23 11.9976C23 18.0727 18.0751 22.9976 12 22.9976C5.92491 22.9976 1 18.0727 1 11.9976C1.47824 11.9976 12 10.5628 12 10.5628L23 11.9976Z" fill="#D80027"/>
<path d="M1 11.9976C1 5.92246 5.92491 0.997559 12 0.997559C18.0751 0.997559 23 5.92246 23 11.9976" fill="#0052B4"/>
<path d="M9.13043 8.64973C9.13043 7.85734 8.48805 7.21496 7.69566 7.21496C7.32807 7.21496 6.99304 7.35332 6.73914 7.58058V6.73667H7.21738V5.78015H6.73914V5.3019H5.78261V5.78015H5.30437V6.73667H5.78261V7.58058C5.52871 7.35332 5.19368 7.21496 4.82608 7.21496C4.03369 7.21496 3.39131 7.85734 3.39131 8.64973C3.39131 9.07456 3.57612 9.45612 3.86955 9.71888V10.5628H8.65215V9.71888C8.94567 9.45612 9.13043 9.07456 9.13043 8.64973Z" fill="#FFDA44"/>
</svg>
