<svg width="24" height="24" viewBox="0 0 24 24" fill="none" xmlns="http://www.w3.org/2000/svg">
<path d="M22.3158 15.8236C22.758 14.632 23 13.3431 23 11.9976C23 10.652 22.758 9.36309 22.3158 8.17148L12 7.21496L1.68419 8.17148C1.242 9.36309 1 10.652 1 11.9976C1 13.3431 1.242 14.632 1.68419 15.8236L12 16.7801L22.3158 15.8236Z" fill="#6DA544"/>
<path d="M22.3158 8.17148C20.7616 3.98268 16.7296 0.997559 12 0.997559C7.27042 0.997559 3.23841 3.98268 1.68419 8.17148H22.3158Z" fill="#FFDA44"/>
<path d="M12 22.9976C16.7296 22.9976 20.7616 20.0124 22.3158 15.8236H1.68419C3.23841 20.0124 7.27042 22.9976 12 22.9976Z" fill="#D80027"/>
</svg>
