<svg width="24" height="24" viewBox="0 0 24 24" fill="none" xmlns="http://www.w3.org/2000/svg">
<path d="M12 22.9976C18.0751 22.9976 23 18.0727 23 11.9976C23 5.92243 18.0751 0.997559 12 0.997559C5.92487 0.997559 1 5.92243 1 11.9976C1 18.0727 5.92487 22.9976 12 22.9976Z" fill="#496E2D"/>
<path d="M13.9131 11.5389C13.643 11.5389 13.3867 11.5927 13.1486 11.6784C13.2791 11.3877 13.3665 11.0644 13.3665 10.719C13.3665 9.35256 12 8.32772 12 8.32772C12 8.32772 10.6336 9.35256 10.6336 10.719C10.6336 11.0643 10.721 11.3877 10.8515 11.6784C10.6134 11.5928 10.357 11.5389 10.087 11.5389C8.72059 11.5389 7.69574 12.9053 7.69574 12.9053C7.69574 12.9053 8.72059 14.2718 10.087 14.2718C10.8882 14.2718 11.5715 13.8022 12.0001 13.4135C12.4287 13.8022 13.112 14.2718 13.9131 14.2718C15.2796 14.2718 16.3044 12.9053 16.3044 12.9053C16.3044 12.9053 15.2795 11.5389 13.9131 11.5389Z" fill="#F0F0F0"/>
<path d="M11.9997 5.30176L12.282 6.17042H13.1954L12.4565 6.70736L12.7386 7.57601L11.9997 7.03908L11.2609 7.57601L11.5429 6.70736L10.8041 6.17042H11.7175L11.9997 5.30176Z" fill="#FFDA44"/>
<path d="M8.52648 6.82109L9.06952 7.30999L9.70232 6.94467L9.40515 7.61219L9.94814 8.10117L9.22146 8.02477L8.92428 8.69229L8.77226 7.97759L8.04562 7.9012L8.67837 7.53579L8.52648 6.82109Z" fill="#FFDA44"/>
<path d="M5.98387 9.36372L6.69861 9.51562L7.06398 8.88281L7.14038 9.60946L7.85503 9.76148L7.18756 10.0587L7.26395 10.7853L6.77493 10.2424L6.10745 10.5396L6.47281 9.90672L5.98387 9.36372Z" fill="#FFDA44"/>
<path d="M15.473 6.82109L14.93 7.30999L14.2972 6.94467L14.5944 7.61219L14.0514 8.10117L14.7781 8.02477L15.0753 8.69229L15.2273 7.97759L15.954 7.9012L15.3212 7.53579L15.473 6.82109Z" fill="#FFDA44"/>
<path d="M18.0157 9.36372L17.301 9.51562L16.9357 8.88281L16.8592 9.60946L16.1446 9.76148L16.812 10.0587L16.7356 10.7853L17.2247 10.2424L17.8921 10.5396L17.5268 9.90672L18.0157 9.36372Z" fill="#FFDA44"/>
<path d="M12.0003 18.098C13.0858 18.098 14.0863 17.7358 14.8888 17.1265H9.11189C9.91446 17.7358 10.9149 18.098 12.0003 18.098Z" fill="#F0F0F0"/>
<path d="M7.61612 15.2284C7.76793 15.5758 7.96043 15.9012 8.18653 16.1999H15.8143C16.0404 15.9013 16.2329 15.5758 16.3847 15.2284H7.61612Z" fill="#F0F0F0"/>
</svg>
