<svg width="24" height="24" viewBox="0 0 24 24" fill="none" xmlns="http://www.w3.org/2000/svg">
<path d="M12 22.9976C18.0751 22.9976 23 18.0727 23 11.9976C23 5.92243 18.0751 0.997559 12 0.997559C5.92487 0.997559 1 5.92243 1 11.9976C1 18.0727 5.92487 22.9976 12 22.9976Z" fill="#F0F0F0"/>
<path d="M8.17393 11.9976V22.3134C9.36554 22.7556 10.6545 22.9976 12 22.9976C18.0751 22.9976 23 18.0727 23 11.9976C23 5.92246 8.17393 11.9976 8.17393 11.9976Z" fill="#6DA544"/>
<path d="M12 0.997559C10.6545 0.997559 9.36554 1.2396 8.17393 1.68175V11.9976L23 11.9976C23 5.92243 18.0751 0.997559 12 0.997559Z" fill="#D80027"/>
</svg>
