<svg width="24" height="24" viewBox="0 0 24 24" fill="none" xmlns="http://www.w3.org/2000/svg">
<path d="M16.7826 2.08905C15.3364 1.38978 13.7141 0.997559 12 0.997559C10.2859 0.997559 8.66358 1.38978 7.21742 2.08905L6.2609 11.9976L7.21742 21.9061C8.66358 22.6053 10.2859 22.9976 12 22.9976C13.7141 22.9976 15.3364 22.6053 16.7826 21.9061L17.7391 11.9976L16.7826 2.08905Z" fill="#FFDA44"/>
<path d="M7.21742 2.08905C3.53797 3.86826 1 7.63654 1 11.9976C1 16.3586 3.53797 20.1269 7.21742 21.9061V2.08905Z" fill="#0052B4"/>
<path d="M16.7826 2.08905V21.9061C20.462 20.1269 23 16.3588 23 11.9978C23 7.63675 20.462 3.86826 16.7826 2.08905Z" fill="#0052B4"/>
<path d="M15.1087 12.9541L15.826 13.9106V10.0845L15.1087 11.041H12.9565V8.88886L13.913 8.17149H10.0869L11.0435 8.88886V11.041H8.89129L8.17393 10.0845V13.9106L8.89129 12.9541H11.0435V15.1063L10.0869 15.8236H13.913L12.9565 15.1063V12.9541H15.1087Z" fill="#D80027"/>
<path d="M14.8696 11.5193H12.4782V9.12797H11.5217V11.5193H9.1304V12.4758H11.5217V14.8671H12.4782V12.4758H14.8696V11.5193Z" fill="#F0F0F0"/>
</svg>
