<svg width="24" height="24" viewBox="0 0 24 24" fill="none" xmlns="http://www.w3.org/2000/svg">
<path d="M12 22.9976C18.0751 22.9976 23 18.0727 23 11.9976C23 5.92243 18.0751 0.997559 12 0.997559C5.92487 0.997559 1 5.92243 1 11.9976C1 18.0727 5.92487 22.9976 12 22.9976Z" fill="#F0F0F0"/>
<path d="M11.522 11.9974L23 11.9976C23 11.0047 22.8679 10.0428 22.6213 9.12778H11.522V11.9974Z" fill="#D80027"/>
<path d="M11.522 6.25824H21.3857C20.7123 5.15945 19.8515 4.18822 18.8476 3.38866H11.522V6.25824Z" fill="#D80027"/>
<path d="M12 22.9976C14.5888 22.9976 16.9685 22.1026 18.8476 20.6061H5.15286C7.03193 22.1026 9.41118 22.9976 12 22.9976Z" fill="#D80027"/>
<path d="M2.61473 17.7365H21.3857C21.9263 16.8544 22.3455 15.8902 22.6213 14.8669H1.37917C1.6549 15.8902 2.07414 16.8544 2.61473 17.7365Z" fill="#D80027"/>
<path d="M12 11.9976C12 5.92246 12 5.20626 12 0.997559C5.92487 0.997559 1 5.92243 1 11.9976H12Z" fill="#0052B4"/>
<path d="M8.31445 10.4132C6.81217 10.4132 5.59435 9.19533 5.59435 7.6931C5.59435 6.19087 6.81222 4.973 8.31445 4.973C8.78285 4.973 9.22358 5.09147 9.60837 5.29995C9.00474 4.70969 8.17923 4.34532 7.26824 4.34532C5.41934 4.34532 3.92042 5.8442 3.92042 7.69314C3.92042 9.54209 5.41934 11.041 7.26824 11.041C8.17923 11.041 9.00474 10.6766 9.60837 10.0863C9.22358 10.2947 8.78289 10.4132 8.31445 10.4132Z" fill="#FFDA44"/>
<path d="M9.08095 5.78005L9.56388 6.7899L10.6545 6.53793L10.1661 7.54508L11.0432 8.24061L9.95116 8.48678L9.95421 9.60616L9.08095 8.90585L8.20765 9.60616L8.21066 8.48678L7.11866 8.24061L7.99573 7.54508L7.50731 6.53793L8.59798 6.7899L9.08095 5.78005Z" fill="#FFDA44"/>
</svg>
