<svg width="24" height="24" viewBox="0 0 24 24" fill="none" xmlns="http://www.w3.org/2000/svg">
<path d="M1 11.9976C1 13.3431 1.24204 14.632 1.68419 15.8236L12 16.3019L22.3158 15.8237C22.758 14.632 23 13.3431 23 11.9976C23 10.652 22.758 9.36315 22.3158 8.1715L12 7.69321L1.68419 8.17146C1.24204 9.36315 1 10.652 1 11.9976Z" fill="#D80027"/>
<path d="M12 0.997559C7.27042 0.997559 3.23841 3.98265 1.68419 8.17146L22.3158 8.1715C20.7615 3.98269 16.7296 0.997559 12 0.997559Z" fill="black"/>
<path d="M22.3158 15.8237L1.68419 15.8236C3.23841 20.0124 7.27042 22.9976 12 22.9976C16.7296 22.9976 20.7616 20.0124 22.3158 15.8237Z" fill="#496E2D"/>
<path d="M15.2877 6.25844L13.9444 5.62654L14.6597 4.32549L13.201 4.60457L13.0161 3.13083L12 4.21471L10.9839 3.13083L10.799 4.60457L9.34025 4.32549L10.0556 5.62654L8.71222 6.25844H15.2877Z" fill="#D80027"/>
</svg>
