<svg width="24" height="24" viewBox="0 0 24 24" fill="none" xmlns="http://www.w3.org/2000/svg">
<path d="M12 22.9976C18.0751 22.9976 23 18.0727 23 11.9976C23 5.92243 18.0751 0.997559 12 0.997559C5.92487 0.997559 1 5.92243 1 11.9976C1 18.0727 5.92487 22.9976 12 22.9976Z" fill="#D80027"/>
<path d="M4.82605 6.73668H19.1739V17.2584H4.82605V6.73668Z" fill="#6DA544"/>
<path d="M13.7715 15.1063C12.0546 15.1063 10.6627 13.7144 10.6627 11.9976C10.6627 10.2807 12.0546 8.88886 13.7715 8.88886C14.3068 8.88886 14.8105 9.02421 15.2502 9.26251C14.5604 8.58786 13.617 8.17145 12.5758 8.17145C10.4628 8.17145 8.74974 9.88444 8.74974 11.9975C8.74974 14.1106 10.4628 15.8236 12.5758 15.8236C13.617 15.8236 14.5604 15.4072 15.2502 14.7325C14.8105 14.9709 14.3068 15.1063 13.7715 15.1063Z" fill="#F0F0F0"/>
</svg>
