<svg width="24" height="24" viewBox="0 0 24 24" fill="none" xmlns="http://www.w3.org/2000/svg">
<path d="M15.8259 1.68175C14.6343 1.2396 13.3454 0.997559 11.9999 0.997559C10.6543 0.997559 9.36546 1.2396 8.1738 1.68175L7.21728 11.9976L8.1738 22.3134C9.36546 22.7556 10.6543 22.9976 11.9999 22.9976C13.3454 22.9976 14.6343 22.7556 15.8259 22.3134L16.7825 11.9976L15.8259 1.68175Z" fill="#FFDA44"/>
<path d="M22.9999 11.9976C22.9999 7.26798 20.0147 3.23593 15.8259 1.68175V22.3134C20.0147 20.7591 22.9999 16.7272 22.9999 11.9976Z" fill="#D80027"/>
<path d="M0.999878 11.9976C0.999878 16.7272 3.98499 20.7591 8.1738 22.3134V1.68175C3.98499 3.23593 0.999878 7.26798 0.999878 11.9976Z" fill="#6DA544"/>
</svg>
