<svg width="24" height="24" viewBox="0 0 24 24" fill="none" xmlns="http://www.w3.org/2000/svg">
<path d="M11.9996 22.9976C18.0747 22.9976 22.9996 18.0727 22.9996 11.9976C22.9996 10.1515 22.5442 8.41199 21.7406 6.88428L11.9867 12.0104L17.1129 2.25663C15.5852 1.45303 13.8457 0.997559 11.9996 0.997559C5.92454 0.997559 0.999634 5.92246 0.999634 11.9976C0.999634 15.0351 2.23086 17.7851 4.22143 19.7758C6.21204 21.7664 8.96204 22.9976 11.9996 22.9976Z" fill="#0052B4"/>
<path d="M21.729 6.89628C21.2255 5.9379 20.5708 5.03809 19.765 4.23226C18.9591 3.42642 18.0594 2.77179 17.101 2.26833L4.20858 19.7886L21.729 6.89628Z" fill="#F0F0F0"/>
<path d="M4.20858 19.7886L21.729 6.89628C21.2255 5.9379 20.5708 5.03809 19.765 4.23226L4.20858 19.7886Z" fill="#FF9811"/>
<path d="M10.5519 7.44811L9.20856 8.08001L9.92395 9.3811L8.46516 9.10202L8.2803 10.5757L7.26418 9.49179L6.24805 10.5757L6.06329 9.10202L4.6045 9.38102L5.3198 8.07997L3.97643 7.44811L5.31984 6.81617L4.6045 5.51516L6.0632 5.79416L6.2481 4.3205L7.26418 5.40439L8.2803 4.3205L8.46516 5.79416L9.92399 5.51516L9.2086 6.81621L10.5519 7.44811Z" fill="#F0F0F0"/>
</svg>
