<svg width="24" height="24" viewBox="0 0 24 24" fill="none" xmlns="http://www.w3.org/2000/svg">
<path d="M11.9996 22.9976C18.0748 22.9976 22.9996 18.0727 22.9996 11.9976C22.9996 5.92243 18.0748 0.997559 11.9996 0.997559C5.9245 0.997559 0.999634 5.92243 0.999634 11.9976C0.999634 18.0727 5.9245 22.9976 11.9996 22.9976Z" fill="#F0F0F0"/>
<path d="M22.9053 10.5625C22.6018 8.24281 21.5599 6.00131 19.7777 4.21918C17.9956 2.43705 15.754 1.39501 13.4343 1.09157L13.4344 10.5625H22.9053Z" fill="#0052B4"/>
<path d="M10.5648 1.09178C8.24512 1.39523 6.00356 2.43722 4.22144 4.21935C2.43935 6.00152 1.39731 8.24307 1.09387 10.5628L10.5649 10.5628L10.5648 1.09178Z" fill="#0052B4"/>
<path d="M1.09379 13.4322C1.39724 15.7519 2.43928 17.9935 4.22136 19.7755C6.00349 21.5576 8.245 22.5996 10.5648 22.9032L10.5648 13.4322L1.09379 13.4322Z" fill="#0052B4"/>
<path d="M13.4344 22.9031C15.7541 22.5996 17.9956 21.5576 19.7777 19.7755C21.5599 17.9934 22.6018 15.7519 22.9053 13.4322H13.4344V22.9031Z" fill="#0052B4"/>
<path d="M15.7544 7.97738C15.7544 7.83112 15.8733 7.71222 16.0196 7.71222H16.5878C17.4861 7.71222 18.2168 6.9815 18.2168 6.08332C18.2168 5.18514 17.4861 4.45437 16.5878 4.45437H16.0482C15.8721 4.32207 15.6358 4.24048 15.3752 4.24048C14.8315 4.24048 14.3908 4.59303 14.3908 5.02796C14.3908 5.45868 14.8231 5.8081 15.3595 5.81489L15.3592 5.81803H16.5878C16.7342 5.81803 16.853 5.93697 16.853 6.08323C16.853 6.2295 16.7342 6.34839 16.5878 6.34839H16.0196C15.1214 6.34839 14.3907 7.07912 14.3907 7.9773C14.3907 8.87547 15.1214 9.60624 16.0196 9.60624H18.2168V8.2425H16.0196C15.8733 8.24254 15.7544 8.12365 15.7544 7.97738Z" fill="#F0F0F0"/>
<path d="M7.14576 7.97738C7.14576 7.83112 7.26466 7.71222 7.41097 7.71222H7.97919C8.8774 7.71222 9.60817 6.9815 9.60817 6.08332C9.60817 5.18514 8.87745 4.45437 7.97919 4.45437H7.43958C7.26346 4.32207 7.02717 4.24048 6.76652 4.24048C6.22284 4.24048 5.78211 4.59303 5.78211 5.02796C5.78211 5.45868 6.21442 5.8081 6.75084 5.81489L6.75058 5.81803H7.97923C8.12554 5.81803 8.24443 5.93697 8.24443 6.08323C8.24443 6.2295 8.12554 6.34839 7.97923 6.34839H7.41101C6.51279 6.34839 5.78211 7.07912 5.78211 7.9773C5.78211 8.87547 6.51275 9.60624 7.41101 9.60624H9.60813V8.2425H7.41097C7.26466 8.24254 7.14576 8.12365 7.14576 7.97738Z" fill="#F0F0F0"/>
<path d="M15.7544 18.1258C15.7544 17.9796 15.8733 17.8607 16.0196 17.8607H16.5878C17.4861 17.8607 18.2168 17.1299 18.2168 16.2318C18.2168 15.3336 17.4861 14.6028 16.5878 14.6028H16.0482C15.8721 14.4705 15.6358 14.3889 15.3752 14.3889C14.8315 14.3889 14.3907 14.7415 14.3907 15.1764C14.3907 15.6071 14.823 15.9566 15.3595 15.9633L15.3592 15.9665H16.5878C16.7341 15.9665 16.853 16.0854 16.853 16.2317C16.853 16.3779 16.7341 16.4968 16.5878 16.4968H16.0196C15.1214 16.4968 14.3907 17.2276 14.3907 18.1257C14.3907 19.0239 15.1213 19.7547 16.0196 19.7547H18.2168V18.391H16.0196C15.8733 18.391 15.7544 18.2721 15.7544 18.1258Z" fill="#F0F0F0"/>
<path d="M7.14577 18.1258C7.14577 17.9796 7.26466 17.8607 7.41097 17.8607H7.97919C8.87741 17.8607 9.60818 17.1299 9.60818 16.2318C9.60818 15.3336 8.87745 14.6028 7.97919 14.6028H7.43959C7.26346 14.4705 7.02717 14.3889 6.76652 14.3889C6.2228 14.3889 5.78207 14.7415 5.78207 15.1764C5.78207 15.6071 6.21437 15.9566 6.7508 15.9633L6.75054 15.9665H7.97919C8.1255 15.9665 8.24439 16.0854 8.24439 16.2317C8.24439 16.3779 8.1255 16.4968 7.97919 16.4968H7.41097C6.51275 16.4968 5.78207 17.2276 5.78207 18.1257C5.78207 19.0239 6.51271 19.7547 7.41097 19.7547H9.60813V18.391H7.41097C7.26466 18.391 7.14577 18.2721 7.14577 18.1258Z" fill="#F0F0F0"/>
</svg>
