<svg width="24" height="24" viewBox="0 0 24 24" fill="none" xmlns="http://www.w3.org/2000/svg">
<path d="M11.9996 22.9976C18.0748 22.9976 22.9996 18.0727 22.9996 11.9976C22.9996 5.92243 18.0748 0.997559 11.9996 0.997559C5.9245 0.997559 0.999634 5.92243 0.999634 11.9976C0.999634 18.0727 5.9245 22.9976 11.9996 22.9976Z" fill="#496E2D"/>
<path d="M11.9996 13.7058C10.168 13.7058 8.63792 12.4185 8.2625 10.6995C8.20484 10.9638 8.17356 11.2378 8.17356 11.5194C8.17356 13.6326 9.88651 15.3455 11.9996 15.3455C14.1127 15.3455 15.8257 13.6325 15.8257 11.5194C15.8257 11.2378 15.7944 10.9638 15.7367 10.6995C15.3613 12.4185 13.8312 13.7058 11.9996 13.7058Z" fill="#FFDA44"/>
<path d="M11.9996 8.64987L12.3557 9.74596H13.5083L12.5759 10.4234L12.932 11.5195L11.9996 10.842L11.0672 11.5195L11.4234 10.4234L10.491 9.74596H11.6435L11.9996 8.64987Z" fill="#FFDA44"/>
</svg>
