<svg width="24" height="24" viewBox="0 0 24 24" fill="none" xmlns="http://www.w3.org/2000/svg">
<path d="M2.33797 6.73668L12.0005 7.69321L21.663 6.73668C19.7973 3.3174 16.17 0.997559 12.0005 0.997559C7.83101 0.997559 4.20363 3.3174 2.33797 6.73668Z" fill="#D80027"/>
<path d="M2.33798 17.2584L12.0005 18.215L21.663 17.2584C22.5157 15.6956 23.0005 13.9032 23.0005 11.9975L12.0005 11.041L1.00049 11.9975C1.00049 13.9032 1.4853 15.6956 2.33798 17.2584Z" fill="#FFDA44"/>
<path d="M2.33797 6.73668C1.4853 8.2995 1.00049 10.0919 1.00049 11.9975H23.0005C23.0005 10.0919 22.5157 8.2995 21.663 6.73668H2.33797Z" fill="#0052B4"/>
<path d="M12.0005 22.9976C16.17 22.9976 19.7973 20.6777 21.663 17.2584H2.33798C4.20364 20.6777 7.83101 22.9976 12.0005 22.9976Z" fill="#6DA544"/>
</svg>
