<svg width="24" height="24" viewBox="0 0 24 24" fill="none" xmlns="http://www.w3.org/2000/svg">
<path d="M12.0002 22.9976C18.0754 22.9976 23.0002 18.0727 23.0002 11.9976C23.0002 5.92243 18.0754 0.997559 12.0002 0.997559C5.92511 0.997559 1.00024 5.92243 1.00024 11.9976C1.00024 18.0727 5.92511 22.9976 12.0002 22.9976Z" fill="#338AF3"/>
<path d="M6.26112 12.9541H17.7394V14.3888H6.26112V12.9541Z" fill="#818085"/>
<path d="M8.17418 8.64973L12.0002 9.12806L15.8263 8.64973V6.35408L14.2959 7.11932L12.0002 4.82362L9.7046 7.11932L8.17418 6.35408V8.64973Z" fill="#FFDA44"/>
<path d="M7.21765 15.8237H5.78284V13.1932L6.26112 12.4758L5.78284 11.7584V10.0845H7.21765V15.8237Z" fill="#F0F0F0"/>
<path d="M18.2176 15.8237H16.7828V10.0845H18.2176V11.7584L17.7393 12.4878L18.2176 13.1933V15.8237Z" fill="#F0F0F0"/>
<path d="M5.78284 11.7584L18.2176 11.7584V13.1933L5.78284 13.1932V11.7584Z" fill="#ACABB1"/>
<path d="M12.0002 17.7367C9.89052 17.7367 8.17418 16.0203 8.17418 13.9106V8.64973H15.8263L15.8264 13.9106C15.8263 16.0203 14.11 17.7367 12.0002 17.7367Z" fill="#F0F0F0"/>
<path d="M12.0002 16.3019C10.6817 16.3019 9.60895 15.2292 9.60895 13.9106V10.0846H14.3915V13.9106C14.3915 15.2292 13.3188 16.3019 12.0002 16.3019Z" fill="#0052B4"/>
<path d="M8.17418 8.64973L9.60895 8.64973V10.0846L8.17418 10.0845V8.64973Z" fill="#D80027"/>
<path d="M14.3914 8.64987L15.8263 8.64973L15.8261 10.0846L14.3915 10.0846L14.3914 8.64987Z" fill="#D80027"/>
<path d="M14.3914 11.7586H15.8261V13.1933H14.3914V11.7586Z" fill="#D80027"/>
<path d="M8.17402 11.7586H9.60878V13.1933H8.17402V11.7586Z" fill="#D80027"/>
<path d="M11.2827 8.64987H12.7174V10.0846H11.2827V8.64987Z" fill="#D80027"/>
<path d="M12.0002 16.3019C11.7503 16.3019 11.5092 16.2634 11.2827 16.192V17.6684C11.5152 17.7127 11.755 17.7367 12.0002 17.7367C12.2455 17.7367 12.4849 17.7127 12.7175 17.6684V16.192C12.4909 16.2633 12.2502 16.3019 12.0002 16.3019Z" fill="#D80027"/>
<path d="M9.64075 14.2989L8.49572 15.4439C8.69424 15.8959 8.97749 16.3024 9.32562 16.6431L10.3397 15.6291C9.9778 15.2794 9.7257 14.8171 9.64075 14.2989Z" fill="#D80027"/>
<path d="M15.5044 15.4441L14.3594 14.299C14.2744 14.8171 14.0224 15.2794 13.6605 15.6292L14.6746 16.6433C15.0226 16.3025 15.3059 15.896 15.5044 15.4441Z" fill="#D80027"/>
</svg>
