<svg width="24" height="24" viewBox="0 0 24 24" fill="none" xmlns="http://www.w3.org/2000/svg">
<path d="M12.0002 22.9976C18.0754 22.9976 23.0002 18.0727 23.0002 11.9976C23.0002 5.92243 18.0754 0.997559 12.0002 0.997559C5.92511 0.997559 1.00024 5.92243 1.00024 11.9976C1.00024 18.0727 5.92511 22.9976 12.0002 22.9976Z" fill="#F0F0F0"/>
<path d="M23.0002 11.9976C23.0002 7.63649 20.4623 3.86829 16.7828 2.08904V21.906C20.4623 20.1268 23.0002 16.3586 23.0002 11.9976Z" fill="#D80027"/>
<path d="M1.00024 11.9976C1.00024 16.3586 3.53819 20.1268 7.21765 21.9061V2.08904C3.53819 3.86829 1.00024 7.63649 1.00024 11.9976Z" fill="#6DA544"/>
<path d="M9.1305 11.9974C9.1305 13.5822 10.4153 14.8669 12.0001 14.8669C13.5849 14.8669 14.8697 13.5822 14.8697 11.9974V11.0408H9.1305V11.9974Z" fill="#6DA544"/>
<path d="M15.8263 10.0845H12.9567C12.9567 9.55624 12.5285 9.12797 12.0002 9.12797C11.4719 9.12797 11.0437 9.55624 11.0437 10.0845H8.17409C8.17409 10.6128 8.63424 11.041 9.16246 11.041L9.1305 11.0408C9.1305 11.5691 9.55885 11.9976 10.0871 11.9976C10.0871 12.5259 10.5154 12.9541 11.0437 12.9541H12.9567C13.485 12.9541 13.9133 12.5259 13.9133 11.9976C14.4416 11.9976 14.8697 11.5691 14.8697 11.0408L14.8379 11.041C15.3662 11.041 15.8263 10.6128 15.8263 10.0845Z" fill="#FF9811"/>
</svg>
