<svg width="24" height="24" viewBox="0 0 24 24" fill="none" xmlns="http://www.w3.org/2000/svg">
<path d="M12 22.9976C18.0751 22.9976 23 18.0727 23 11.9976C23 5.92243 18.0751 0.997559 12 0.997559C5.92487 0.997559 1 5.92243 1 11.9976C1 18.0727 5.92487 22.9976 12 22.9976Z" fill="#338AF3"/>
<path d="M12 5.78024L12.4748 7.2417H14.0115L12.7684 8.14494L13.2432 9.60635L12 8.70315L10.7568 9.60635L11.2317 8.14494L9.98849 7.2417H11.5252L12 5.78024Z" fill="#F0F0F0"/>
<path d="M5.78263 11.9977L7.24408 11.5228V9.9861L8.14733 11.2294L9.60874 10.7545L8.70553 11.9977L9.60874 13.2408L8.14733 12.7659L7.24408 14.0091V12.4725L5.78263 11.9977Z" fill="#F0F0F0"/>
<path d="M12.0001 18.2151L11.5252 16.7536H9.98849L11.2318 15.8504L10.7569 14.389L12.0001 15.2922L13.2432 14.389L12.7683 15.8504L14.0115 16.7536H12.4749L12.0001 18.2151Z" fill="#F0F0F0"/>
<path d="M18.2174 11.9976L16.756 12.4724V14.0091L15.8527 12.7659L14.3913 13.2408L15.2945 11.9976L14.3913 10.7545L15.8527 11.2294L16.756 9.9861V11.5228L18.2174 11.9976Z" fill="#F0F0F0"/>
</svg>
