<svg width="24" height="24" viewBox="0 0 24 24" fill="none" xmlns="http://www.w3.org/2000/svg">
<path d="M16.7826 2.08905C15.3364 1.38978 13.714 0.997559 12 0.997559C10.286 0.997559 8.66356 1.38978 7.21741 2.08905L6.26088 11.9976L7.21741 21.9061C8.66356 22.6053 10.286 22.9976 12 22.9976C13.714 22.9976 15.3364 22.6053 16.7826 21.9061L17.7391 11.9976L16.7826 2.08905Z" fill="#FFDA44"/>
<path d="M7.21741 2.08905C3.53799 3.86826 1 7.63654 1 11.9976C1 16.3586 3.53799 20.1269 7.21741 21.9061V2.08905Z" fill="#0052B4"/>
<path d="M16.7826 2.08905V21.9061C20.462 20.1269 23 16.3586 23 11.9976C23 7.63654 20.462 3.86826 16.7826 2.08905Z" fill="#D80027"/>
<path d="M15.8261 9.65227H13.1956C13.1956 8.99193 12.6603 8.45662 12 8.45662C11.3397 8.45662 10.8043 8.99193 10.8043 9.65227H8.17393C8.17393 10.3024 8.7403 10.8294 9.39038 10.8294H9.35119C9.35119 11.4796 9.87824 12.0067 10.5284 12.0067C10.5284 12.5824 10.9419 13.0607 11.4879 13.163L10.5602 15.2574C11.0048 15.4381 11.4906 15.5385 12 15.5385C12.5094 15.5385 12.9952 15.4381 13.4397 15.2574L12.5121 13.163C13.0581 13.0607 13.4715 12.5824 13.4715 12.0067C14.1217 12.0067 14.6488 11.4796 14.6488 10.8294H14.6096C15.2597 10.8294 15.8261 10.3024 15.8261 9.65227Z" fill="#FF9811"/>
<path d="M12 11.2802L10.4457 11.9976V13.4323L12 14.3889L13.5544 13.4323V11.9976L12 11.2802Z" fill="#0052B4"/>
<path d="M10.4457 10.5628H13.5544V11.9976H10.4457V10.5628Z" fill="#D80027"/>
</svg>
