<svg width="24" height="24" viewBox="0 0 24 24" fill="none" xmlns="http://www.w3.org/2000/svg">
<path d="M12 22.9976C13.3455 22.9976 14.6345 22.7556 15.8261 22.3134L16.3044 11.9976L15.8261 1.68175C14.6345 1.2396 13.3455 0.997559 12 0.997559C10.6545 0.997559 9.36555 1.2396 8.17394 1.68175L7.69566 11.9976L8.1739 22.3134C9.36555 22.7556 10.6545 22.9976 12 22.9976Z" fill="#0052B4"/>
<path d="M1 11.9976C1 16.7272 3.98509 20.7591 8.1739 22.3134L8.17394 1.68175C3.98513 3.23597 1 7.26794 1 11.9976Z" fill="#A2001D"/>
<path d="M15.8261 1.68175L15.8261 22.3134C20.0149 20.7591 23 16.727 23 11.9974C23 7.26776 20.0149 3.23597 15.8261 1.68175Z" fill="#A2001D"/>
<path d="M6.26068 11.9977H7.21721V15.8237H6.26068V11.9977Z" fill="#FFDA44"/>
<path d="M2.43457 11.9977H3.3911V15.8237H2.43457V11.9977Z" fill="#FFDA44"/>
<path d="M4.82587 14.389C5.35415 14.389 5.7824 13.9607 5.7824 13.4324C5.7824 12.9042 5.35415 12.4759 4.82587 12.4759C4.2976 12.4759 3.86935 12.9042 3.86935 13.4324C3.86935 13.9607 4.2976 14.389 4.82587 14.389Z" fill="#FFDA44"/>
<path d="M4.82587 10.5629C5.08999 10.5629 5.30411 10.3487 5.30411 10.0846C5.30411 9.82049 5.08999 9.60637 4.82587 9.60637C4.56174 9.60637 4.34763 9.82049 4.34763 10.0846C4.34763 10.3487 4.56174 10.5629 4.82587 10.5629Z" fill="#FFDA44"/>
<path d="M3.86939 14.8672H5.78244V15.8238H3.86939V14.8672Z" fill="#FFDA44"/>
<path d="M3.86939 11.0411H5.78244V11.9977H3.86939V11.0411Z" fill="#FFDA44"/>
<path d="M4.82588 6.73678L5.16464 7.7792H6.26069L5.37403 8.42348L5.71254 9.4659L4.82588 8.82163L3.93926 9.4659L4.27777 8.42348L3.39111 7.7792H4.48716L4.82588 6.73678Z" fill="#FFDA44"/>
</svg>
