<svg width="24" height="24" viewBox="0 0 24 24" fill="none" xmlns="http://www.w3.org/2000/svg">
<path d="M12 22.9976C18.0751 22.9976 23 18.0727 23 11.9976C23 5.92243 18.0751 0.997559 12 0.997559C5.92487 0.997559 1 5.92243 1 11.9976C1 18.0727 5.92487 22.9976 12 22.9976Z" fill="#FFDA44"/>
<path d="M23 11.9976C23 8.22228 21.0978 4.8916 18.1998 2.91061H5.80017C2.90223 4.8916 1 8.22228 1 11.9976C1 15.7729 2.90223 19.1035 5.80017 21.0845H18.1998C21.0978 19.1035 23 15.7729 23 11.9976Z" fill="#A2001D"/>
<path d="M9.60874 9.12787H14.3913V7.21486L13.4348 7.69311L12 6.25834L10.5653 7.69311L9.60874 7.21486V9.12787Z" fill="#FFDA44"/>
<path d="M16.3044 11.9975H13.914C14.0078 11.8353 14.0622 11.6476 14.0622 11.4469C14.0622 10.8373 13.5681 10.3432 12.9585 10.3432C12.5374 10.3432 12.1717 10.5792 11.9856 10.9259C11.7995 10.5791 11.4337 10.3432 11.0126 10.3432C10.4031 10.3432 9.90888 10.8373 9.90888 11.4469C9.90888 11.6477 9.96346 11.8353 10.0571 11.9975H7.69561C7.69561 12.7289 8.3327 13.3218 9.06412 13.3218H9.02003C9.02003 13.9218 9.41908 14.4284 9.9662 14.5911L8.89125 15.6662L9.90579 16.6807L11.3449 15.2416C11.4013 15.2622 11.4596 15.2787 11.5199 15.2901L10.6503 17.2535C11.067 17.423 11.5224 17.517 12 17.517C12.4776 17.517 12.933 17.423 13.3498 17.2535L12.4802 15.2901C12.5404 15.2788 12.5987 15.2622 12.6551 15.2416L14.0942 16.6807L15.1087 15.6662L14.0337 14.5912C14.5808 14.4284 14.9799 13.9219 14.9799 13.3219H14.9358C15.6673 13.3218 16.3044 12.7289 16.3044 11.9975Z" fill="#FFDA44"/>
<path d="M12 12.715L10.4456 13.4323V14.8671L12 15.8236L13.5543 14.8671V13.4323L12 12.715Z" fill="#6DA544"/>
<path d="M10.4456 11.9976H13.5543V13.9106H10.4456V11.9976Z" fill="#0052B4"/>
</svg>
