<svg width="24" height="24" viewBox="0 0 24 24" fill="none" xmlns="http://www.w3.org/2000/svg">
<path d="M23 11.9976C23 18.0727 18.0751 22.9976 12 22.9976C5.92491 22.9976 1 18.0727 1 11.9976C1 12.0002 12 0.998762 12 0.997559C18.0751 0.997559 23 5.92246 23 11.9976Z" fill="#0052B4"/>
<path d="M11.9706 11.9976H12C12 11.9877 12 11.978 12 11.9681C11.9902 11.978 11.9804 11.9878 11.9706 11.9976Z" fill="#F0F0F0"/>
<path d="M12 6.73668C12 4.80115 12 3.53293 12 0.997559C11.9993 0.997559 11.9988 0.997559 11.9982 0.997559C5.92383 0.99859 1 5.92302 1 11.9976H6.73912V8.76584L9.97084 11.9976L11.9706 11.9976C11.9804 11.9878 11.9902 11.978 12 11.9681C12 11.227 12 10.5658 12 9.96849L8.76823 6.73668H12Z" fill="#F0F0F0"/>
<path d="M6.5651 2.43233C4.84468 3.41198 3.41438 4.84224 2.43477 6.56266V11.9976H5.30436V5.302L12 5.30192C12 4.39686 12 3.53465 12 2.43233H6.5651Z" fill="#D80027"/>
<path d="M11.9998 10.6447L8.09158 6.73652H6.73893L12 11.9976C12 11.9976 11.9998 11.0646 11.9998 10.6447Z" fill="#D80027"/>
<path d="M13.4348 6.73668V11.9975C13.4348 14.5602 16.7826 15.3454 16.7826 15.3454C16.7826 15.3454 20.1304 14.5602 20.1304 11.9975V6.73668H13.4348Z" fill="#338AF3"/>
<path d="M13.4348 11.9975C13.4348 14.5602 16.7826 15.3454 16.7826 15.3454C16.7826 15.3454 20.1304 14.5602 20.1304 11.9975H13.4348Z" fill="#A2001D"/>
<path d="M18.2174 9.12806H17.2608V8.17149H16.3043V9.12806H15.3478V10.0845H16.3043V12.9541H17.2608V10.0845H18.2174V9.12806Z" fill="black"/>
</svg>
