<svg width="24" height="24" viewBox="0 0 24 24" fill="none" xmlns="http://www.w3.org/2000/svg">
<path d="M12 22.9976C18.0751 22.9976 23 18.0727 23 11.9976C23 5.92243 18.0751 0.997559 12 0.997559C5.92487 0.997559 1 5.92243 1 11.9976C1 18.0727 5.92487 22.9976 12 22.9976Z" fill="#D80027"/>
<path d="M18.5007 10.0249H13.5346L12 5.3019L10.4654 10.0249H5.49934L9.51696 12.9438L7.98233 17.6669L12 14.7479L16.0177 17.6669L14.483 12.9439L18.5007 10.0249ZM10.6414 12.5784L11.1603 10.9813H12.8396L13.3586 12.5784L12 13.5655L10.6414 12.5784ZM12.5289 10.0249H11.4712L12 8.3972L12.5289 10.0249ZM14.1722 11.9873L13.8453 10.9814H15.5567L14.1722 11.9873ZM10.1546 10.9814L9.82775 11.9873L8.44317 10.9814H10.1546ZM9.80176 15.1627L10.3306 13.5351L11.1863 14.1567L9.80176 15.1627ZM12.8137 14.1568L13.6694 13.5351L14.1982 15.1627L12.8137 14.1568Z" fill="#FFDA44"/>
</svg>
