<svg width="24" height="24" viewBox="0 0 24 24" fill="none" xmlns="http://www.w3.org/2000/svg">
<path d="M12 22.9976C18.0751 22.9976 23 18.0727 23 11.9976C23 5.92243 18.0751 0.997559 12 0.997559C5.92487 0.997559 1 5.92243 1 11.9976C1 18.0727 5.92487 22.9976 12 22.9976Z" fill="#F0F0F0"/>
<path d="M6.94563 16.3019L4.22218 19.7754C6.21267 21.7661 8.96237 22.9976 12 22.9976C16.5474 22.9976 20.4495 20.2377 22.1248 16.3019H6.94563Z" fill="#FFDA44"/>
<path d="M22.1419 7.73304C20.476 3.776 16.5628 0.997559 12 0.997559C8.96237 0.997559 6.21267 2.229 4.22218 4.21974L6.97691 7.73304H22.1419Z" fill="#496E2D"/>
<path d="M3.3913 9.08815V14.8671H22.6211C22.8678 13.9523 23 12.9904 23 11.9976C23 10.9903 22.8643 10.0149 22.6107 9.08815H3.3913Z" fill="black"/>
<path d="M4.22218 4.21974C-0.0735736 8.5155 -0.0735736 15.4796 4.22218 19.7754C5.99735 18.0002 7.70424 16.2933 12 11.9976L4.22218 4.21974Z" fill="#A2001D"/>
<path d="M5.45199 9.12797L6.1642 11.3201H8.4693L6.60454 12.675L7.31671 14.8671L5.45199 13.5123L3.58719 14.8671L4.29953 12.675L2.43477 11.3201H4.7397L5.45199 9.12797Z" fill="#FFDA44"/>
<path d="M3.36788 11.9976H7.53688V13.9106H3.36788V11.9976Z" fill="#F0F0F0"/>
<path d="M8.32617 9.80438L7.6498 9.12797L5.45204 11.3257L3.25427 9.12797L2.5779 9.80438L4.7776 12.0002L2.5779 14.1999L3.25427 14.8671L5.45204 12.6733L7.6498 14.8671L8.32617 14.1999L6.12647 12.0002L8.32617 9.80438Z" fill="black"/>
</svg>
