<svg width="24" height="24" viewBox="0 0 24 24" fill="none" xmlns="http://www.w3.org/2000/svg">
<path d="M22.3158 15.8236C22.758 14.632 23 13.3431 23 11.9976C23 10.652 22.758 9.36309 22.3158 8.17148L12 7.21496L1.68419 8.17148C1.24204 9.36309 1 10.652 1 11.9976C1 13.3431 1.24204 14.632 1.68419 15.8236L12 16.7801L22.3158 15.8236Z" fill="#6DA544"/>
<path d="M22.3158 8.17148C20.7616 3.98268 16.7296 0.997559 12 0.997559C7.27039 0.997559 3.23841 3.98268 1.68419 8.17148H22.3158Z" fill="#FFDA44"/>
<path d="M12 22.9976C16.7296 22.9976 20.7616 20.0124 22.3158 15.8236H1.68419C3.23841 20.0124 7.27039 22.9976 12 22.9976Z" fill="#D80027"/>
<path d="M19.5431 10.304H13.7807L12 4.82362L10.2193 10.304H4.45688L9.11877 13.691L7.33806 19.1715L12 15.8236L16.6619 19.1714L14.8813 13.691L19.5431 10.304Z" fill="#F0F0F0"/>
</svg>
