<svg width="24" height="24" viewBox="0 0 24 24" fill="none" xmlns="http://www.w3.org/2000/svg">
<path d="M12 22.9976C18.0751 22.9976 23 18.0727 23 11.9976C23 5.92243 18.0751 0.997559 12 0.997559C5.92487 0.997559 1 5.92243 1 11.9976C1 18.0727 5.92487 22.9976 12 22.9976Z" fill="#F0F0F0"/>
<path d="M4.22184 19.7758C4.68328 20.2372 5.17562 20.6487 5.69206 21.011L21.0134 5.68965C20.6511 5.17321 20.2396 4.68088 19.7781 4.21944C19.3167 3.75799 18.8243 3.34653 18.3079 2.98421L2.98662 18.3056C3.34889 18.8219 3.7604 19.3143 4.22184 19.7758Z" fill="#A2001D"/>
<path d="M4.22184 4.21936C0.751513 7.68969 0.0853249 12.9015 2.22186 17.0411L17.0436 2.21947C12.9039 0.0829309 7.69208 0.749204 4.22184 4.21936Z" fill="#0052B4"/>
<path d="M19.7782 19.7758C23.2484 16.3055 23.9146 11.0937 21.7781 6.95398L6.95641 21.7757C11.0961 23.9122 16.3079 23.2461 19.7782 19.7758Z" fill="#496E2D"/>
<path d="M10.0869 7.21497L8.85435 7.79475L9.51074 8.9885L8.1723 8.7325L8.00266 10.0845L7.07041 9.09008L6.13812 10.0845L5.96856 8.7325L4.63009 8.98846L5.28644 7.7947L4.05388 7.21497L5.28648 6.63515L4.63009 5.44148L5.96852 5.69748L6.13816 4.34539L7.07041 5.33986L8.0027 4.34539L8.1723 5.69748L9.51074 5.44148L8.85443 6.63519L10.0869 7.21497Z" fill="#FFDA44"/>
</svg>
