<svg width="24" height="24" viewBox="0 0 24 24" fill="none" xmlns="http://www.w3.org/2000/svg">
<path d="M12 22.9976C18.0751 22.9976 23 18.0727 23 11.9976C23 5.92243 18.0751 0.997559 12 0.997559C5.92487 0.997559 1 5.92243 1 11.9976C1 18.0727 5.92487 22.9976 12 22.9976Z" fill="#0052B4"/>
<path d="M16.7208 12.765L18.6956 11.9976L16.7208 11.2302L15.636 10.8087L13.8736 10.1239L13.1889 8.36154C14.3436 8.74005 15.2575 9.65391 15.636 10.8087L16.7208 11.2302C16.3929 9.20652 14.791 7.60451 12.7674 7.27675L12 5.3019L11.2326 7.27679C9.20892 7.60464 7.60704 9.20652 7.27924 11.2302L5.30435 11.9976L7.27928 12.765C7.60709 14.7886 9.20896 16.3905 11.2326 16.7183L12 18.6932L12.7674 16.7183C14.791 16.3905 16.3929 14.7886 16.7208 12.765ZM13.1347 10.8629L12 11.9976H16.0547L13.1347 13.1323L12 11.9976V16.0523L10.8653 13.1322L12 11.9976H7.94525L10.8653 10.8629L12 11.9976V7.9428L13.1347 10.8629ZM10.8111 8.36158L10.1263 10.1239L8.36398 10.8087C8.74249 9.65386 9.65631 8.74013 10.8111 8.36158ZM8.36403 13.1865L10.1263 13.8712L10.8111 15.6335C9.65631 15.255 8.74258 14.3412 8.36403 13.1865ZM13.1889 15.6335L13.8737 13.8712L15.636 13.1865C15.2574 14.3412 14.3437 15.255 13.1889 15.6335Z" fill="#F0F0F0"/>
<path d="M16.0547 11.9976H12L13.1347 13.1323L16.0547 11.9976Z" fill="#0052B4"/>
<path d="M7.94525 11.9976H12L10.8653 10.8629L7.94525 11.9976Z" fill="#0052B4"/>
<path d="M12 16.0523V11.9976L10.8653 13.1322L12 16.0523Z" fill="#0052B4"/>
<path d="M12 11.9976L13.1347 10.8629L12 7.9428V11.9976Z" fill="#0052B4"/>
<path d="M11.5216 2.43213H12.4781V4.34519H11.5216V2.43213Z" fill="#F0F0F0"/>
<path d="M2.43456 11.5191H4.34762V12.4756H2.43456V11.5191Z" fill="#F0F0F0"/>
<path d="M11.5216 19.6495H12.4781V21.5626H11.5216V19.6495Z" fill="#F0F0F0"/>
<path d="M19.652 11.5191H21.565V12.4756H19.652V11.5191Z" fill="#F0F0F0"/>
</svg>
