<svg width="24" height="24" viewBox="0 0 24 24" fill="none" xmlns="http://www.w3.org/2000/svg">
<path d="M12 22.9976C18.0751 22.9976 23 18.0727 23 11.9976C23 5.92243 18.0751 0.997559 12 0.997559C5.92487 0.997559 1 5.92243 1 11.9976C1 18.0727 5.92487 22.9976 12 22.9976Z" fill="#0052B4"/>
<path d="M12 22.9976C18.0751 22.9976 23 18.0727 23 11.9976C23 5.92243 18.0751 0.997559 12 0.997559C5.92487 0.997559 1 5.92243 1 11.9976C1 18.0727 5.92487 22.9976 12 22.9976Z" fill="#FFDA44"/>
<path d="M12 0.997559C6.24717 0.997559 1.52671 5.41395 1.04189 11.0411H22.9581C22.4733 5.41395 17.7528 0.997559 12 0.997559Z" fill="#0052B4"/>
<path d="M12 22.9976C17.7528 22.9976 22.4731 18.5812 22.958 12.9541H1.04171C1.52652 18.5812 6.24717 22.9976 12 22.9976Z" fill="#0052B4"/>
<path d="M10.087 15.8236L8.85437 16.4035L9.51072 17.5972L8.17228 17.3411L8.00269 18.6932L7.07039 17.6988L6.13814 18.6932L5.96854 17.3411L4.63007 17.5971L5.28646 16.4034L4.05386 15.8236L5.2865 15.2439L4.63007 14.0502L5.9685 14.3062L6.13819 12.9541L7.07039 13.9485L8.00273 12.9541L8.17228 14.3062L9.51076 14.0502L8.85441 15.2439L10.087 15.8236Z" fill="#F0F0F0"/>
</svg>
