<svg width="24" height="24" viewBox="0 0 24 24" fill="none" xmlns="http://www.w3.org/2000/svg">
<path d="M12 22.9976C18.0751 22.9976 23 18.0727 23 11.9976C23 5.92243 18.0751 0.997559 12 0.997559C5.92487 0.997559 1 5.92243 1 11.9976C1 18.0727 5.92487 22.9976 12 22.9976Z" fill="#F0F0F0"/>
<path d="M22.9353 13.1932C22.9353 13.1931 22.9353 13.1933 22.9353 13.1932L10.8719 1.05477C10.3277 1.11025 9.79514 1.20538 9.27732 1.33725C4.51901 2.54875 1 11.9976 1 11.9976C1 11.9976 16.3999 22.303 18.1567 21.114C18.5083 20.8761 18.8453 20.6184 19.1662 20.3426L12.0169 13.1932L22.9353 13.1932Z" fill="#0052B4"/>
<path d="M20.1304 11.9976L9.43236 1.29961C4.59592 2.4562 1 6.80659 1 11.9976C1 18.0727 5.92487 22.9976 12 22.9976C14.3044 22.9976 16.4428 22.2885 18.2102 21.0774L9.13037 11.9976H20.1304Z" fill="#D80027"/>
<path d="M11.4617 17.2395L10.1183 16.6076L10.8337 15.3066L9.37492 15.5857L9.19006 14.1119L8.17398 15.1958L7.1579 14.1119L6.97301 15.5857L5.51426 15.3066L6.22965 16.6076L4.88618 17.2395L6.22965 17.8714L5.51426 19.1725L6.97309 18.8935L7.15786 20.3671L8.17398 19.2832L9.19006 20.3671L9.37492 18.8935L10.8337 19.1725L10.1183 17.8715L11.4617 17.2395Z" fill="#F0F0F0"/>
<path d="M10.5653 7.09848L9.58816 6.63893L10.1085 5.69263L9.04744 5.89562L8.91299 4.82372L8.17397 5.61207L7.43495 4.82372L7.30046 5.89562L6.23943 5.69263L6.75979 6.63893L5.78263 7.09848L8.17397 7.57681L10.5653 7.09848Z" fill="#F0F0F0"/>
<path d="M11.0435 7.09848C11.0435 8.6833 9.75875 9.96806 8.17394 9.96806C6.58912 9.96806 5.30435 8.6833 5.30435 7.09848" fill="#F0F0F0"/>
</svg>
