<svg width="24" height="24" viewBox="0 0 24 24" fill="none" xmlns="http://www.w3.org/2000/svg">
<path d="M23 11.9976C23 18.0727 18.0751 22.9976 12 22.9976C5.92491 22.9976 1 18.0727 1 11.9976C1 12.0002 12 0.998762 12 0.997559C18.0751 0.997559 23 5.92246 23 11.9976Z" fill="#0052B4"/>
<path d="M11.9704 11.9976H11.9999C11.9999 11.9877 11.9999 11.9781 11.9999 11.9681C11.9901 11.978 11.9803 11.9878 11.9704 11.9976Z" fill="#F0F0F0"/>
<path d="M12 6.73668C12 4.80115 12 3.53293 12 0.997559C11.9994 0.997559 11.9986 0.99758 11.998 0.99758C5.92376 0.998611 1 5.92302 1 11.9976H6.73912V8.76584L9.97089 11.9976L11.9704 11.9976C11.9803 11.9878 11.9901 11.978 11.9999 11.9681C11.9999 11.2271 12 10.5658 12 9.96849L8.76823 6.73668H12Z" fill="#F0F0F0"/>
<path d="M6.56498 2.43235C4.84456 3.412 3.4143 4.84226 2.43465 6.56268V11.9976H5.30424V5.30202L11.9999 5.30194C11.9999 4.39689 11.9999 3.53467 11.9999 2.43235H6.56498Z" fill="#D80027"/>
<path d="M12 10.6449L8.09187 6.73679C8.09187 6.73679 6.73917 6.73688 6.73917 6.73679L11.9999 11.9976C11.9999 11.9976 12 11.0649 12 10.6449Z" fill="#D80027"/>
<path d="M20.0493 9.15992L20.2867 9.89065H21.0551L20.4335 10.3422L20.6709 11.0729L20.0493 10.6214L19.4277 11.0729L19.6652 10.3422L19.0435 9.89065H19.8119L20.0493 9.15992Z" fill="#D80027"/>
<path d="M17.3028 14.4208L17.659 15.5169H18.8115L17.879 16.1943L18.2352 17.2903L17.3028 16.6129L16.3704 17.2903L16.7266 16.1943L15.7942 15.5169H16.9467L17.3028 14.4208Z" fill="#D80027"/>
<path d="M17.4066 5.8121L17.7034 6.72558H18.6638L17.8867 7.28997L18.1836 8.2034L17.4066 7.63883L16.6296 8.2034L16.9264 7.28997L16.1494 6.72558H17.1098L17.4066 5.8121Z" fill="#D80027"/>
<path d="M14.7638 9.12804L15.12 10.2242H16.2725L15.3401 10.9015L15.6963 11.9976L14.7638 11.3202L13.8314 11.9976L14.1876 10.9015L13.2552 10.2242H14.4077L14.7638 9.12804Z" fill="#D80027"/>
</svg>
