<svg width="24" height="24" viewBox="0 0 24 24" fill="none" xmlns="http://www.w3.org/2000/svg">
<path d="M12 22.9976C18.0751 22.9976 23 18.0727 23 11.9976C23 5.92243 18.0751 0.997559 12 0.997559C5.92487 0.997559 1 5.92243 1 11.9976C1 18.0727 5.92487 22.9976 12 22.9976Z" fill="#F0F0F0"/>
<path d="M12 0.997559C7.63893 0.997559 3.87059 3.53553 2.09134 7.21499H21.9083C20.1291 3.53553 16.361 0.997559 12 0.997559Z" fill="#338AF3"/>
<path d="M12 22.9976C16.361 22.9976 20.1292 20.4596 21.9085 16.7802H2.09145C3.8707 20.4596 7.63893 22.9976 12 22.9976Z" fill="#338AF3"/>
<path d="M11.9998 8.64975C10.1509 8.64975 8.65201 10.1486 8.65201 11.9976C8.65201 13.8465 10.1509 15.3454 11.9998 15.3454C13.8488 15.3454 15.3477 13.8465 15.3477 11.9976C15.3477 10.1486 13.8488 8.64975 11.9998 8.64975ZM11.9998 13.9106C10.9433 13.9106 10.0868 13.0542 10.0868 11.9976C10.0868 10.941 10.9433 10.0845 11.9998 10.0845C13.0564 10.0845 13.9129 10.941 13.9129 11.9976C13.9129 13.0542 13.0564 13.9106 11.9998 13.9106Z" fill="#FFDA44"/>
<path d="M13.6566 12.4758L11.9998 11.9976L10.3431 12.4758L9.79082 13.4323H14.2088L13.6566 12.4758Z" fill="#0052B4"/>
<path d="M11.9998 9.60628L10.8953 11.5193L11.9998 11.9976L13.1044 11.5193L11.9998 9.60628Z" fill="#338AF3"/>
<path d="M10.3431 12.4758H13.6566L13.1044 11.5193H10.8953L10.3431 12.4758Z" fill="#6DA544"/>
</svg>
