<svg width="24" height="24" viewBox="0 0 24 24" fill="none" xmlns="http://www.w3.org/2000/svg">
<path d="M2.09125 7.21497C1.39197 8.66112 0.999756 10.2835 0.999756 11.9976C0.999756 13.7116 1.39197 15.334 2.09125 16.7802L11.9998 17.7367L21.9083 16.7802C22.6075 15.334 22.9998 13.7116 22.9998 11.9976C22.9998 10.2835 22.6075 8.66112 21.9083 7.21497L11.9998 6.25844L2.09125 7.21497Z" fill="#F0F0F0"/>
<path d="M2.09125 16.7802C3.87041 20.4596 7.63868 22.9976 11.9998 22.9976C16.3608 22.9976 20.1291 20.4596 21.9083 16.7802H2.09125Z" fill="#6DA544"/>
<path d="M2.09125 7.21497H21.9083C20.1291 3.53551 16.3608 0.997559 11.9998 0.997559C7.63872 0.997559 3.87041 3.53551 2.09125 7.21497Z" fill="#FF9811"/>
<path d="M11.9998 15.8237C14.1128 15.8237 15.8258 14.1107 15.8258 11.9976C15.8258 9.8845 14.1128 8.17151 11.9998 8.17151C9.88668 8.17151 8.17369 9.8845 8.17369 11.9976C8.17369 14.1107 9.88668 15.8237 11.9998 15.8237Z" fill="#FF9811"/>
</svg>
