<svg width="24" height="24" viewBox="0 0 24 24" fill="none" xmlns="http://www.w3.org/2000/svg">
<path d="M22.9996 11.9976C22.9996 18.0727 18.0747 22.9976 11.9996 22.9976C5.92454 22.9976 0.999634 18.0727 0.999634 11.9976C0.999634 12.0002 11.9996 0.998762 11.9996 0.997559C18.0747 0.997559 22.9996 5.92246 22.9996 11.9976Z" fill="#FFDA44"/>
<path d="M11.9997 6.25835V9.9684L8.17363 6.25835H11.9997Z" fill="#0052B4"/>
<path d="M6.73882 11.9975H9.97054L6.73882 7.69313L6.26058 11.0409L6.73882 11.9975Z" fill="#0052B4"/>
<path d="M11.9704 11.9976H11.9998C11.9998 11.9877 11.9998 11.9781 11.9998 11.9681C11.99 11.978 11.9802 11.9878 11.9704 11.9976Z" fill="#F0F0F0"/>
<path d="M11.9996 6.73668C11.9996 4.80115 11.9996 3.53293 11.9996 0.997559C11.9989 0.997559 11.9984 0.997559 11.9978 0.997559C5.92347 0.99859 0.999634 5.92302 0.999634 11.9976L6.73882 11.9975L6.73875 8.76584L9.97054 11.9975L11.9704 11.9976C11.9802 11.9878 11.99 11.978 11.9998 11.9681C11.9998 11.2271 11.9997 10.5657 11.9997 9.9684L8.76787 6.73668H11.9996Z" fill="#F0F0F0"/>
<path d="M11.9996 10.6449L8.09138 6.73677H6.73872L11.9998 11.9976C11.9998 11.9976 11.9996 11.0649 11.9996 10.6449Z" fill="#D80027"/>
<path d="M6.56473 2.43233C6.14067 2.67382 5.7344 2.94293 5.34803 3.23671H5.79937L4.60647 4.10356L5.06203 5.50593L3.86913 4.63925L3.7422 4.73151C3.2469 5.29397 2.80776 5.90704 2.4344 6.56266V11.9976H5.30399V5.302L11.9996 5.30192C11.9996 4.39686 11.9996 3.53465 11.9996 2.43233H6.56473Z" fill="#D80027"/>
<path d="M5.6987 2.98066C5.58006 3.06371 5.46323 3.14909 5.34803 3.23671L4.60647 4.10356L3.86913 4.63925L3.74113 4.73219C3.47102 5.03899 3.21772 5.36091 2.98268 5.69663C3.25059 5.82665 3.55133 5.89974 3.86913 5.89974C4.99173 5.89974 5.90172 4.98975 5.90172 3.86714C5.90181 3.54926 5.82876 3.24861 5.6987 2.98066Z" fill="#0052B4"/>
<path d="M3.74113 4.73219L3.86913 4.63925L5.06203 5.50593L4.60647 4.10356L5.79937 3.23671H5.34803C4.76391 3.68096 4.22543 4.18215 3.74113 4.73219Z" fill="#FFDA44"/>
<path d="M8.60283 2.91068L8.84027 3.64136H9.60856L8.98701 4.09301L9.22433 4.82369L8.60283 4.37209L7.98129 4.82369L8.21856 4.09301L7.59702 3.64136H8.36534L8.60283 2.91068Z" fill="#FFDA44"/>
<path d="M3.86944 7.69327L4.10688 8.42395H4.87516L4.25366 8.87564L4.49098 9.60633L3.86944 9.15468L3.24785 9.60633L3.48517 8.87564L2.86367 8.42395H3.63195L3.86944 7.69327Z" fill="#FFDA44"/>
</svg>
