<svg width="24" height="24" viewBox="0 0 24 24" fill="none" xmlns="http://www.w3.org/2000/svg">
<path d="M16.7822 2.08905C15.336 1.38978 13.7137 0.997559 11.9996 0.997559C10.2856 0.997559 8.66321 1.38978 7.21706 2.08905L6.26054 11.9976L7.21706 21.9061C8.66321 22.6053 10.2856 22.9976 11.9996 22.9976C13.7137 22.9976 15.336 22.6053 16.7822 21.9061L17.7387 11.9976L16.7822 2.08905Z" fill="#F0F0F0"/>
<path d="M7.21706 2.08905C3.53763 3.86821 0.999695 7.63648 0.999695 11.9976C0.999695 16.3586 3.53763 20.1269 7.21706 21.9061V2.08905Z" fill="#6DA544"/>
<path d="M16.7822 2.08905V21.9061C20.4616 20.1269 22.9997 16.3586 22.9997 11.9976C22.9997 7.63652 20.4616 3.86821 16.7822 2.08905Z" fill="#6DA544"/>
<path d="M14.8693 15.3454L11.9998 6.25843L9.1302 15.3454H11.2824V17.7367H12.7172V15.3454H14.8693Z" fill="#6DA544"/>
</svg>
