<svg width="24" height="24" viewBox="0 0 24 24" fill="none" xmlns="http://www.w3.org/2000/svg">
<path d="M11.9996 22.9976C18.0748 22.9976 22.9996 18.0727 22.9996 11.9976C22.9996 5.92243 18.0748 0.997559 11.9996 0.997559C5.9245 0.997559 0.999634 5.92243 0.999634 11.9976C0.999634 18.0727 5.9245 22.9976 11.9996 22.9976Z" fill="#F0F0F0"/>
<path d="M11.9996 0.997559C8.66565 0.997559 5.67833 2.48101 3.66107 4.82363H20.3381C18.3209 2.48101 15.3336 0.997559 11.9996 0.997559Z" fill="#0052B4"/>
<path d="M20.3384 19.1715H3.66124C5.67849 21.5141 8.66565 22.9976 11.9996 22.9976C15.3336 22.9976 18.3211 21.5141 20.3384 19.1715Z" fill="#0052B4"/>
<path d="M21.3851 6.25844H2.61414C1.59024 7.92928 0.999634 9.89437 0.999634 11.9976C0.999634 14.1007 1.59024 16.0659 2.61414 17.7367H21.3851C22.409 16.0659 22.9996 14.1007 22.9996 11.9976C22.9996 9.89437 22.409 7.92928 21.3851 6.25844Z" fill="#D80027"/>
<path d="M7.76704 16.2302C10.1046 16.2302 11.9996 14.3352 11.9996 11.9976C11.9996 9.65997 10.1046 7.76497 7.76704 7.76497C5.42944 7.76497 3.53444 9.65997 3.53444 11.9976C3.53444 14.3352 5.42944 16.2302 7.76704 16.2302Z" fill="#F0F0F0"/>
<path d="M7.76704 7.76497L8.71669 10.6877H11.7949L9.30369 12.4942L10.2608 15.4257L7.76704 13.6107L5.27708 15.4223L6.23039 12.4942L3.74143 10.6877H6.81734L7.76704 7.76497Z" fill="#D80027"/>
</svg>
