<svg width="24" height="24" viewBox="0 0 24 24" fill="none" xmlns="http://www.w3.org/2000/svg">
<path d="M12 22.9976C18.0751 22.9976 23 18.0727 23 11.9976C23 5.92243 18.0751 0.997559 12 0.997559C5.92487 0.997559 1 5.92243 1 11.9976C1 18.0727 5.92487 22.9976 12 22.9976Z" fill="#338AF3"/>
<path d="M11.6532 18.9237C11.3567 18.9093 11.1114 18.7166 11.0152 18.455C10.8455 18.6764 10.5537 18.7879 10.2663 18.7137C9.97837 18.6396 9.77706 18.4014 9.73542 18.125C9.52402 18.3076 9.21602 18.3574 8.94966 18.2269C8.68278 18.0958 8.53359 17.8217 8.54889 17.5429C8.30547 17.6797 7.99364 17.6663 7.75882 17.4845C7.52447 17.3028 7.43312 17.0048 7.50389 16.7346C7.23795 16.8197 6.93571 16.7442 6.74201 16.5189C6.5483 16.2941 6.51861 15.9837 6.64206 15.7336C6.36466 15.7632 6.08347 15.6284 5.93901 15.3692C5.79407 15.11 5.82759 14.7996 5.99925 14.579C5.72137 14.5523 5.47267 14.3633 5.38372 14.0802C5.2943 13.7971 5.38995 13.4996 5.60278 13.3183C5.3359 13.236 5.13119 13.0007 5.10107 12.7057C5.07095 12.4106 5.22401 12.1394 5.46837 12.0046C5.22396 11.8706 5.06996 11.5995 5.09914 11.3049C5.12832 11.0093 5.33349 10.7736 5.59985 10.6903C5.38703 10.5095 5.29044 10.2125 5.37891 9.92935C5.46738 9.64575 5.71557 9.45634 5.99349 9.42859C5.82179 9.20859 5.78737 8.89814 5.93132 8.63852C6.07526 8.37929 6.35649 8.24394 6.63437 8.27311C6.51002 8.02299 6.53919 7.71259 6.73242 7.48687C6.92518 7.26163 7.22742 7.18558 7.49383 7.26975C7.42207 6.99999 7.51295 6.70158 7.7473 6.51939C7.98118 6.33711 8.29301 6.32324 8.53642 6.45906C8.52066 6.18028 8.66937 5.90618 8.93578 5.77465C9.20171 5.6436 9.51018 5.69241 9.72202 5.87507C9.76267 5.5987 9.96402 5.35958 10.2514 5.2849C10.5384 5.2103 10.8301 5.32077 11.0004 5.54172C11.0965 5.28013 11.3414 5.0869 11.6379 5.07207C11.934 5.05682 12.197 5.22319 12.3194 5.4734C12.4658 5.23617 12.7441 5.09558 13.0373 5.14005C13.331 5.18405 13.5562 5.40018 13.6261 5.67045C13.8174 5.46665 14.1187 5.38587 14.397 5.48818C14.6758 5.59101 14.8528 5.8483 14.8662 6.1276C15.0943 5.96694 15.4061 5.94825 15.6582 6.10513C15.9102 6.26153 16.0312 6.54895 15.9882 6.8249C16.2441 6.71348 16.553 6.75795 16.7682 6.96167C16.9835 7.1659 17.0447 7.47149 16.9471 7.73308C17.2202 7.6752 17.5139 7.78043 17.6841 8.02385C17.8544 8.2668 17.853 8.57862 17.7052 8.81538C17.984 8.81345 18.2504 8.97608 18.3685 9.2482C18.4862 9.5208 18.4216 9.82643 18.2289 10.0287C18.5029 10.0833 18.7311 10.2961 18.7913 10.5869C18.8511 10.8776 18.7262 11.1631 18.4972 11.3224C18.7535 11.4311 18.9343 11.685 18.9348 11.9815V11.9973C18.9348 12.2938 18.755 12.5482 18.4986 12.6578C18.7282 12.8161 18.854 13.1016 18.7942 13.3924C18.7349 13.6831 18.5072 13.8965 18.2332 13.952C18.4264 14.1538 18.4919 14.4589 18.3748 14.732C18.2576 15.0046 17.9912 15.1677 17.7119 15.1662C17.8601 15.403 17.8625 15.7148 17.6928 15.9582C17.523 16.2018 17.2298 16.3079 16.9567 16.2505C17.0548 16.5116 16.994 16.8177 16.7793 17.0224C16.5641 17.2267 16.2556 17.2716 15.9997 17.1611C16.0432 17.4366 15.9227 17.7245 15.6711 17.8819C15.4195 18.0392 15.1077 18.021 14.8791 17.8608C14.8662 18.1401 14.6902 18.3979 14.4119 18.5012C14.1336 18.6045 14.4124 18.5012 14.4119 18.5012C14.1335 18.604 13.8318 18.5237 13.64 18.3205C13.5711 18.5912 13.3463 18.8078 13.0527 18.8528C12.7595 18.8973 12.4807 18.7576 12.3339 18.5204C12.2172 18.761 11.9704 18.9245 11.6892 18.9245C11.6772 18.9247 11.6652 18.9242 11.6532 18.9237Z" fill="#F3F3F3"/>
<path d="M12 16.7802C14.6413 16.7802 16.7826 14.6389 16.7826 11.9976C16.7826 9.35621 14.6413 7.21497 12 7.21497C9.35864 7.21497 7.2174 9.35621 7.2174 11.9976C7.2174 14.6389 9.35864 16.7802 12 16.7802Z" fill="#338AF3"/>
<path d="M13.0468 10.3742C13.2818 10.1999 13.4348 9.92131 13.4348 9.60626V9.12802C13.4348 8.59972 13.0065 8.17149 12.4782 8.17149H11.5218C10.9935 8.17149 10.5652 8.59972 10.5652 9.12802V9.60626C10.5652 9.92131 10.7182 10.1999 10.9532 10.3742L10.087 19.1714C10.087 19.1714 10.5652 19.6498 12 19.6498C13.4349 19.6498 13.9131 19.1714 13.9131 19.1714L13.0468 10.3742Z" fill="#BDBCC1"/>
<path d="M12 8.17149L12.8309 10.7289H15.5201L13.3446 12.3096L14.1755 14.8671L12 13.2865L9.82437 14.8671L10.6554 12.3096L8.47988 10.7289H11.169L12 8.17149Z" fill="#F0F0F0"/>
</svg>
