<svg width="24" height="24" viewBox="0 0 24 24" fill="none" xmlns="http://www.w3.org/2000/svg">
<path d="M12 22.9976C18.0751 22.9976 23 18.0727 23 11.9976C23 5.92243 18.0751 0.997559 12 0.997559C5.92487 0.997559 1 5.92243 1 11.9976C1 18.0727 5.92487 22.9976 12 22.9976Z" fill="#F0F0F0"/>
<path d="M3.66145 4.82362C3.27546 5.27192 2.92505 5.75158 2.61448 6.25839H21.3855C21.0749 5.75158 20.7245 5.27187 20.3385 4.82362H3.66145Z" fill="#D80027"/>
<path d="M3.66146 19.1715H20.3385C20.7245 18.7233 21.0749 18.2436 21.3855 17.7368H2.61453C2.92507 18.2435 3.27548 18.7233 3.66146 19.1715Z" fill="#D80027"/>
<path d="M10.5924 9.98608L11.4949 11.2298L12.9565 10.7559L12.0526 11.9985L12.955 13.2422L11.4939 12.7665L10.59 14.0091L10.5909 12.4725L9.12971 11.9968L10.5914 11.5228L10.5924 9.98608Z" fill="#D80027"/>
<path d="M8.12919 15.1063C6.41233 15.1063 5.02049 13.7145 5.02049 11.9976C5.02049 10.2808 6.41233 8.88891 8.12919 8.88891C8.66449 8.88891 9.16822 9.02427 9.60796 9.26257C8.9181 8.58792 7.97463 8.17151 6.93354 8.17151C4.82043 8.17151 3.10748 9.8845 3.10748 11.9976C3.10748 14.1106 4.82047 15.8236 6.93354 15.8236C7.97463 15.8236 8.9181 15.4072 9.60796 14.7326C9.16822 14.971 8.66454 15.1063 8.12919 15.1063Z" fill="#D80027"/>
</svg>
