<svg width="24" height="24" viewBox="0 0 24 24" fill="none" xmlns="http://www.w3.org/2000/svg">
<path d="M12 22.9976C18.0751 22.9976 23 18.0727 23 11.9976C23 5.92243 18.0751 0.997559 12 0.997559C5.92487 0.997559 1 5.92243 1 11.9976C1 18.0727 5.92487 22.9976 12 22.9976Z" fill="#F0F0F0"/>
<path d="M1.37876 14.8671C2.01521 17.2287 3.41793 19.2754 5.30417 20.7247V14.8671H1.37876Z" fill="#D80027"/>
<path d="M11.0433 22.9557C11.3586 22.9829 11.6776 22.9976 12 22.9976C17.0823 22.9976 21.3586 19.5506 22.6209 14.8671H11.0433V22.9557Z" fill="#D80027"/>
<path d="M22.6209 9.12798C21.3586 4.44455 17.0823 0.997559 12 0.997559C11.6776 0.997559 11.3586 1.01225 11.0433 1.03941V9.12798H22.6209Z" fill="#D80027"/>
<path d="M5.30417 3.27039C3.41793 4.71973 2.01521 6.76646 1.37876 9.12798H5.30417V3.27039Z" fill="#D80027"/>
<path d="M22.9069 10.5628H9.60875L9.6087 1.25902C8.59215 1.48444 7.6284 1.8498 6.73912 2.33505V10.5627L1.09311 10.5627C1.03188 11.0324 1 11.5113 1 11.9976C1 12.4838 1.03188 12.9627 1.09311 13.4323H6.73908L6.73912 21.66C7.6284 22.1452 8.59215 22.5107 9.6087 22.736V13.4325L22.9069 13.4324C22.968 12.9627 23 12.4838 23 11.9976C23 11.5113 22.968 11.0324 22.9069 10.5628Z" fill="#0052B4"/>
</svg>
