<svg width="24" height="24" viewBox="0 0 24 24" fill="none" xmlns="http://www.w3.org/2000/svg">
<path d="M12 22.9976C18.0751 22.9976 23 18.0727 23 11.9976C23 5.92243 18.0751 0.997559 12 0.997559C5.92487 0.997559 1 5.92243 1 11.9976C1 18.0727 5.92487 22.9976 12 22.9976Z" fill="#F0F0F0"/>
<path d="M1 11.9976C1 16.167 3.31988 19.7945 6.73912 21.6601V2.33504C3.31988 4.20066 1 7.82809 1 11.9976Z" fill="#D80027"/>
<path d="M22.3159 15.8237C22.758 14.6321 23 13.3431 23 11.9976C23 10.652 22.758 9.36319 22.3159 8.17158H1.68423C1.24204 9.36319 1 10.652 1 11.9976C1 13.3431 1.24204 14.6321 1.68423 15.8237L12 16.7802L22.3159 15.8237Z" fill="#D80027"/>
<path d="M12 22.9976C16.7297 22.9976 20.7616 20.0125 22.3159 15.8237H1.68423C3.23841 20.0125 7.27043 22.9976 12 22.9976Z" fill="#6DA544"/>
<path d="M1 11.9976C1 17.0799 4.447 21.3564 9.13042 22.6186V1.3765C4.447 2.63875 1 6.91526 1 11.9976Z" fill="#D80027"/>
<path d="M7.72964 5.83816L6.71511 4.82362L6.03878 5.50004L5.36245 4.82362L4.34791 5.83816L5.02429 6.51453L4.34783 7.19094L5.36236 8.20548L6.03873 7.52906L6.71511 8.20548L7.72964 7.19094L7.05327 6.51453L7.72964 5.83816Z" fill="#F0F0F0"/>
</svg>
