<svg width="24" height="24" viewBox="0 0 24 24" fill="none" xmlns="http://www.w3.org/2000/svg">
<path d="M22.6211 14.8671C22.8677 13.9522 23 12.9904 23 11.9976C23 11.0047 22.8677 10.043 22.6211 9.12798L11.0435 1.03942C8.89413 1.22461 6.92174 2.0277 5.30435 3.2704L1.37894 9.12798C1.13234 10.043 1 11.0047 1 11.9976C1 12.9846 1.13075 13.9411 1.3746 14.8512L5.30431 20.7247C6.9217 21.9674 8.89409 22.7706 11.0434 22.9557L22.6211 14.8671Z" fill="#FFDA44"/>
<path d="M1.37878 14.8671C2.01523 17.2287 3.41811 19.2754 5.30431 20.7247L5.30419 14.8671H1.37878Z" fill="#D80027"/>
<path d="M11.0434 22.9557C11.3587 22.9829 11.6775 22.9976 11.9998 22.9976C17.0821 22.9976 21.3588 19.5506 22.6211 14.8671L11.0433 14.8671L11.0434 22.9557Z" fill="#D80027"/>
<path d="M22.6211 9.12798C21.3588 4.44456 17.0821 0.997559 11.9998 0.997559C11.6775 0.997559 11.3588 1.01226 11.0435 1.03942L11.0433 9.12798L22.6211 9.12798Z" fill="#D80027"/>
<path d="M5.30435 3.2704C3.41815 4.71973 2.01539 6.76646 1.37894 9.12798L5.30419 9.12798L5.30435 3.2704Z" fill="#D80027"/>
<path d="M22.9069 10.5628H9.60875L9.6087 1.25902C8.59215 1.48444 7.6284 1.8498 6.73912 2.33505V10.5627H1.09311C1.03197 11.0324 1 11.5113 1 11.9976C1 12.4838 1.03197 12.9627 1.09311 13.4323H6.73908L6.73912 21.66C7.6284 22.1452 8.59215 22.5107 9.6087 22.7361V13.4325L22.9069 13.4324C22.968 12.9627 23 12.4838 23 11.9976C23 11.5113 22.968 11.0324 22.9069 10.5628Z" fill="#0052B4"/>
</svg>
