<svg width="24" height="24" viewBox="0 0 24 24" fill="none" xmlns="http://www.w3.org/2000/svg">
<path d="M22.3158 15.8236C22.758 14.632 23 13.3431 23 11.9976C23 10.652 22.758 9.36315 22.3158 8.17149L12 7.21497L1.68419 8.17149C1.24204 9.36315 1 10.652 1 11.9976C1 13.3431 1.24204 14.632 1.68419 15.8236L12 16.7802L22.3158 15.8236Z" fill="#D80027"/>
<path d="M12 22.9976C16.7296 22.9976 20.7616 20.0124 22.3158 15.8236H1.68419C3.23846 20.0124 7.27035 22.9976 12 22.9976Z" fill="#FFDA44"/>
<path d="M12 0.997559C7.27035 0.997559 3.23846 3.98269 1.68419 8.17149H22.3158C20.7616 3.98269 16.7296 0.997559 12 0.997559Z" fill="#F0F0F0"/>
</svg>
