<svg width="24" height="24" viewBox="0 0 24 24" fill="none" xmlns="http://www.w3.org/2000/svg">
<path d="M12 22.9976C18.0751 22.9976 23 18.0727 23 11.9976C23 5.92243 18.0751 0.997559 12 0.997559C5.92487 0.997559 1 5.92243 1 11.9976C1 18.0727 5.92487 22.9976 12 22.9976Z" fill="#F0F0F0"/>
<path d="M1 11.9976C1 16.167 3.31984 19.7944 6.73912 21.6601V2.33504C3.31984 4.2007 1 7.82809 1 11.9976Z" fill="#F0F0F0"/>
<path d="M12 0.997559C10.0943 0.997559 8.30194 1.48237 6.73912 2.33504V21.6601C8.30194 22.5128 10.0943 22.9976 12 22.9976C18.0751 22.9976 23 18.0727 23 11.9976C23 5.92243 18.0751 0.997559 12 0.997559Z" fill="#496E2D"/>
<path d="M16.703 13.8168C15.3113 14.8223 13.368 14.5093 12.3626 13.1177C11.357 11.726 11.67 9.78277 13.0617 8.7773C13.4956 8.4638 13.9831 8.27847 14.4791 8.21406C13.5249 8.07136 12.5162 8.28638 11.6724 8.89606C9.95968 10.1336 9.57437 12.5253 10.8119 14.2382C12.0495 15.9508 14.4412 16.3362 16.154 15.0985C16.9979 14.4888 17.5187 13.5988 17.6828 12.648C17.4659 13.0985 17.1369 13.5032 16.703 13.8168Z" fill="#F0F0F0"/>
<path d="M16.6434 8.17161L17.4273 9.01641L18.473 8.53207L17.9117 9.53857L18.6956 10.3835L17.5648 10.1607L17.0035 11.1673L16.866 10.023L15.7352 9.80021L16.781 9.31586L16.6434 8.17161Z" fill="#F0F0F0"/>
</svg>
