<svg width="24" height="24" viewBox="0 0 24 24" fill="none" xmlns="http://www.w3.org/2000/svg">
<path d="M12 22.9976C18.0751 22.9976 23 18.0727 23 11.9976C23 5.92243 18.0751 0.997559 12 0.997559C5.92487 0.997559 1 5.92243 1 11.9976C1 18.0727 5.92487 22.9976 12 22.9976Z" fill="#F0F0F0"/>
<path d="M7.69565 8.17149H22.3158C20.7616 3.98268 16.7296 0.997559 12 0.997559C8.96237 0.997559 6.21267 2.229 4.22218 4.21974L7.69565 8.17149Z" fill="black"/>
<path d="M7.69565 15.8236H22.3158C20.7616 20.0124 16.7296 22.9976 12 22.9976C8.96237 22.9976 6.21267 21.7661 4.22218 19.7754L7.69565 15.8236Z" fill="#6DA544"/>
<path d="M4.22218 4.21974C-0.0735736 8.5155 -0.0735736 15.4796 4.22218 19.7754C5.99735 18.0002 7.70424 16.2933 12 11.9976L4.22218 4.21974Z" fill="#D80027"/>
</svg>
