<svg width="24" height="24" viewBox="0 0 24 24" fill="none" xmlns="http://www.w3.org/2000/svg">
<path d="M12 22.9976C18.0751 22.9976 23 18.0727 23 11.9976C23 5.92243 18.0751 0.997559 12 0.997559C5.92487 0.997559 1 5.92243 1 11.9976C1 18.0727 5.92487 22.9976 12 22.9976Z" fill="#F0F0F0"/>
<path d="M1 11.9976C1 18.0727 5.92487 22.9976 12 22.9976C12 18.8143 12 11.9976 12 11.9976C12 11.9976 4.82607 11.9976 1 11.9976Z" fill="#0052B4"/>
<path d="M12 0.997559C18.0751 0.997559 23 5.92243 23 11.9976C18.8168 11.9976 12 11.9976 12 11.9976C12 11.9976 12 4.82363 12 0.997559Z" fill="#D80027"/>
<path d="M7.54796 4.82362L8.26026 7.0158H10.5652L8.70047 8.37061L9.41272 10.5628L7.54796 9.20794L5.6832 10.5628L6.39545 8.37061L4.5307 7.0158H6.83567L7.54796 4.82362Z" fill="#0052B4"/>
<path d="M16.452 13.4323L17.1643 15.6245H19.4693L17.6045 16.9793L18.3168 19.1715L16.452 17.8167L14.5873 19.1715L15.2995 16.9793L13.4348 15.6245H15.7397L16.452 13.4323Z" fill="#D80027"/>
</svg>
