<svg width="24" height="24" viewBox="0 0 24 24" fill="none" xmlns="http://www.w3.org/2000/svg">
<path d="M19.7782 19.7755C15.4824 24.0713 8.51764 24.0713 4.22181 19.7755C-0.0739429 15.4797 -0.0739427 8.51488 4.22185 4.21908C8.5176 -0.0766857 14.806 0.599686 19.1018 4.89549C23.3975 9.19125 24.0739 15.4797 19.7782 19.7755Z" fill="black"/>
<path d="M4.22185 4.21908C8.5176 -0.0766857 15.4824 -0.0765551 19.7782 4.21916C24.0739 8.51492 24.0739 15.4797 19.7782 19.7755" fill="#A2001D"/>
<path d="M9.40656 15.8234L9.58462 16.3715H10.1609L9.69466 16.7102L9.87277 17.2582L9.40656 16.9195L8.94035 17.2582L9.11841 16.7102L8.65224 16.3715H9.22845L9.40656 15.8234Z" fill="#F0F0F0"/>
<path d="M7.93483 10.5625L8.2317 11.476H9.19205L8.41505 12.0405L8.71184 12.9539L7.93483 12.3893L7.15787 12.9539L7.4547 12.0405L6.67766 11.476H7.63809L7.93483 10.5625Z" fill="#F0F0F0"/>
<path d="M7.93483 17.2582L8.23162 18.1717H9.19205L8.41497 18.7361L8.71184 19.6495L7.93483 19.085L7.15787 19.6495L7.45462 18.7361L6.67766 18.1717H7.63796L7.93483 17.2582Z" fill="#F0F0F0"/>
<path d="M10.7428 12.9539L11.0397 13.8673H12.0001L11.2231 14.4318L11.5198 15.3452L10.7428 14.7806L9.96588 15.3452L10.2627 14.4318L9.48571 13.8673H10.4461L10.7428 12.9539Z" fill="#F0F0F0"/>
<path d="M5.12678 12.9539L5.42366 13.8673H6.38396L5.607 14.4318L5.90374 15.3452L5.12678 14.7806L4.34978 15.3452L4.64665 14.4318L3.86961 13.8673H4.83L5.12678 12.9539Z" fill="#F0F0F0"/>
<path d="M19.4142 9.14253C18.9226 8.65092 18.2838 8.3605 17.5974 8.31061L19.6522 6.71247C18.8338 5.89413 17.737 5.52456 16.6667 5.60272C16.5386 5.14226 16.2943 4.70733 15.9322 4.34524L15.1206 5.96851C15.0674 5.87149 14.9999 5.78018 14.9177 5.69798C14.4507 5.23104 13.6937 5.23104 13.2268 5.69798C12.7599 6.16492 12.7598 6.92194 13.2268 7.38889C13.309 7.47109 13.4003 7.5385 13.4974 7.59178L11.8741 8.40342C12.2363 8.76565 12.6715 9.0101 13.1322 9.13814C13.0538 10.2084 13.423 11.3051 14.2414 12.1234L16.0366 9.81525C16.1717 9.68226 16.35 9.60882 16.5398 9.60882C16.7314 9.60882 16.9115 9.68342 17.047 9.81899C17.1825 9.95447 17.2572 10.1346 17.2572 10.3262C17.2572 10.5179 17.1825 10.698 17.047 10.8335L17.7234 11.5099C18.0395 11.1938 18.2137 10.7734 18.2137 10.3263C18.2137 9.96044 18.097 9.61265 17.8815 9.3251C18.1955 9.40893 18.4922 9.57316 18.738 9.81899C19.4839 10.5649 19.4839 11.7786 18.738 12.5244L19.4144 13.2008C19.9563 12.6588 20.2548 11.9382 20.2548 11.1717C20.2547 10.4051 19.9562 9.68454 19.4142 9.14253Z" fill="#FFDA44"/>
</svg>
