<svg width="24" height="24" viewBox="0 0 24 24" fill="none" xmlns="http://www.w3.org/2000/svg">
<path d="M12 22.9973C18.0751 22.9973 23 18.0724 23 11.9973C23 5.92218 18.0751 0.997314 12 0.997314C5.92487 0.997314 1 5.92218 1 11.9973C1 18.0724 5.92487 22.9973 12 22.9973Z" fill="#F0F0F0"/>
<path d="M12 0.997314C7.63893 0.997314 3.87074 3.53526 2.09149 7.21472H21.9085C20.1293 3.53526 16.361 0.997314 12 0.997314Z" fill="#D80027"/>
<path d="M12 22.9973C16.361 22.9973 20.1293 20.4594 21.9085 16.7799H2.09149C3.87074 20.4594 7.63893 22.9973 12 22.9973Z" fill="#0052B4"/>
<path d="M14.7054 8.81363L13.6909 9.82817C14.1236 10.2609 14.3913 10.8587 14.3913 11.5191C14.3913 12.8398 13.3207 13.9104 12 13.9104C10.6794 13.9104 9.60875 12.8397 9.60875 11.5191C9.60875 10.8587 9.87644 10.2609 10.3092 9.82817L9.29465 8.81363C8.6022 9.50594 8.17398 10.4625 8.17398 11.5191C8.17398 13.6322 9.88697 15.3451 12 15.3451C14.1131 15.3451 15.8261 13.6321 15.8261 11.5191C15.8261 10.4625 15.3978 9.50594 14.7054 8.81363Z" fill="#6DA544"/>
<path d="M12 10.0843L12.3562 11.1804H13.5086L12.5763 11.8578L12.9324 12.9538L12 12.2764L11.0676 12.9538L11.4238 11.8578L10.4914 11.1804H11.6438L12 10.0843Z" fill="#FFDA44"/>
</svg>
