<svg width="24" height="24" viewBox="0 0 24 24" fill="none" xmlns="http://www.w3.org/2000/svg">
<path d="M12 22.9973C18.0751 22.9973 23 18.0724 23 11.9973C23 5.92218 18.0751 0.997314 12 0.997314C5.92487 0.997314 1 5.92218 1 11.9973C1 18.0724 5.92487 22.9973 12 22.9973Z" fill="#F0F0F0"/>
<path d="M12 0.997314L12 11.9973L4.2218 19.7755C6.21241 21.7661 8.96241 22.9973 12 22.9973C18.0751 22.9973 23 18.0724 23 11.9973C23 5.92222 12 0.997314 12 0.997314Z" fill="#D80027"/>
<path d="M12 0.997314C8.96241 0.997314 6.21241 2.22854 4.2218 4.21911C6.92066 6.91798 7.87874 7.8761 12 11.9973H23C23 5.92218 18.0751 0.997314 12 0.997314Z" fill="#0052B4"/>
<path d="M8.53206 11.9973L7.18868 11.3654L7.90407 10.0643L6.44528 10.3434L6.26043 8.86972L5.24431 9.95356L4.22822 8.86972L4.04333 10.3434L2.58458 10.0643L3.29997 11.3654L1.95655 11.9973L3.29997 12.6292L2.58458 13.9302L4.04346 13.6512L4.22818 15.1249L5.24431 14.041L6.26043 15.1249L6.44528 13.6512L7.90398 13.9303L7.18864 12.6292L8.53206 11.9973Z" fill="#FFDA44"/>
<path d="M3.93363 5.30164L4.38068 5.92654L5.11308 5.69455L4.65684 6.31278L5.10389 6.93768L4.37488 6.69486L3.91868 7.31305L3.92439 6.54477L3.19543 6.30191L3.92796 6.06992L3.93363 5.30164Z" fill="#FFDA44"/>
<path d="M3.93363 16.6815L4.38068 17.3064L5.11308 17.0744L4.65684 17.6927L5.10389 18.3176L4.37488 18.0747L3.91868 18.6929L3.92439 17.9247L3.19543 17.6818L3.92796 17.4498L3.93363 16.6815Z" fill="#FFDA44"/>
<path d="M10.3099 10.9916L9.86289 11.6165L9.13044 11.3844L9.58669 12.0027L9.13964 12.6276L9.86865 12.3848L10.3249 13.003L10.3191 12.2347L11.0481 11.9919L10.3156 11.7599L10.3099 10.9916Z" fill="#FFDA44"/>
</svg>
