<svg width="24" height="24" viewBox="0 0 24 24" fill="none" xmlns="http://www.w3.org/2000/svg">
<path d="M23 11.9973C23 18.0724 18.0751 22.9973 12 22.9973C5.92491 22.9973 1 18.0724 1 11.9973C1 11.9999 12 0.998518 12 0.997314C18.0751 0.997314 23 5.92222 23 11.9973Z" fill="#0052B4"/>
<path d="M11.9706 11.9973H12C12 11.9874 12 11.9778 12 11.9679C11.9902 11.9777 11.9804 11.9875 11.9706 11.9973Z" fill="#F0F0F0"/>
<path d="M12 6.73644C12 4.80091 12 3.53269 12 0.997314C11.9993 0.997314 11.9988 0.997314 11.9982 0.997314C5.92383 0.998346 1 5.92278 1 11.9973H6.73912V8.76559L9.97084 11.9973L11.9706 11.9973C11.9804 11.9875 11.9902 11.9777 12 11.9679C12 11.2268 12 10.5656 12 9.96824L8.76823 6.73644H12Z" fill="#F0F0F0"/>
<path d="M6.5651 2.43208C4.84468 3.41173 3.41438 4.84199 2.43477 6.56241V11.9973H5.30436V5.30175L12 5.30167C12 4.39662 12 3.5344 12 2.43208H6.5651Z" fill="#D80027"/>
<path d="M11.9998 10.6446L8.09158 6.7365H6.73893L12 11.9973C12 11.9973 11.9998 11.0646 11.9998 10.6446Z" fill="#D80027"/>
<path d="M18.2174 7.69296L16.7826 8.17125L15.3478 7.69296L14.8696 6.49731L15.3478 5.30166H18.2174L17.7391 6.49731L18.2174 7.69296Z" fill="#ACABB1"/>
<path d="M13.4348 7.69297V12.9538C13.4348 15.5165 16.7826 16.3017 16.7826 16.3017C16.7826 16.3017 20.1304 15.5165 20.1304 12.9538V7.69297H13.4348Z" fill="#338AF3"/>
<path d="M13.7366 14.2002C14.5595 15.7801 16.7826 16.3017 16.7826 16.3017C16.7826 16.3017 19.0058 15.7801 19.8287 14.2002L16.7826 9.12778L13.7366 14.2002Z" fill="#6DA544"/>
<path d="M20.1304 12.9006L16.7826 7.69297L13.4348 12.9007V12.9538C13.4348 13.4281 13.5497 13.8414 13.7366 14.2002L16.7826 9.46177L19.8287 14.2002C20.0156 13.8413 20.1304 13.4281 20.1304 12.9538V12.9006Z" fill="#FFDA44"/>
</svg>
