<svg width="24" height="24" viewBox="0 0 24 24" fill="none" xmlns="http://www.w3.org/2000/svg">
<path d="M12 22.9973C18.0751 22.9973 23 18.0724 23 11.9973C23 5.92218 18.0751 0.997314 12 0.997314C5.92488 0.997314 1.00002 5.92218 1.00002 11.9973C1.00002 18.0724 5.92488 22.9973 12 22.9973Z" fill="#F0F0F0"/>
<path d="M12 0.997314C8.4013 0.997314 5.20636 2.72565 3.19955 5.39731H20.8005C18.7937 2.72565 15.5987 0.997314 12 0.997314Z" fill="#D80027"/>
<path d="M12 22.9973C15.5987 22.9973 18.7937 21.269 20.8005 18.5973H3.19955C5.20636 21.269 8.4013 22.9973 12 22.9973Z" fill="#D80027"/>
<path d="M1.00002 11.9973C1.00002 12.7508 1.07599 13.4865 1.22032 14.1973H22.7798C22.9241 13.4865 23 12.7508 23 11.9973C23 11.2439 22.924 10.5081 22.7797 9.79732H1.22032C1.07599 10.5081 1.00002 11.2439 1.00002 11.9973Z" fill="#D80027"/>
<path d="M4.22182 4.21911C-0.0739384 8.51487 -0.0739384 15.4797 4.22182 19.7755C5.99698 18.0003 7.70426 16.2931 12 11.9973L4.22182 4.21911Z" fill="#0052B4"/>
<path d="M5.45201 9.12773L6.16421 11.3198H8.46931L6.60456 12.6747L7.31672 14.8669L5.45201 13.5121L3.58721 14.8669L4.29954 12.6747L2.43479 11.3198H4.73972L5.45201 9.12773Z" fill="#F0F0F0"/>
</svg>
