<svg width="24" height="24" viewBox="0 0 24 24" fill="none" xmlns="http://www.w3.org/2000/svg">
<path d="M12 22.9973C18.0751 22.9973 23 18.0724 23 11.9973C23 5.92218 18.0751 0.997314 12 0.997314C5.92487 0.997314 1 5.92218 1 11.9973C1 18.0724 5.92487 22.9973 12 22.9973Z" fill="#F0F0F0"/>
<path d="M23 11.9973C23 5.92218 18.0751 0.997314 12 0.997314C9.84812 0.997314 7.84088 1.61585 6.14542 2.68388L8.55653 3.7083L5.30435 5.09009L8.55653 6.47183L5.30435 7.85354L8.55653 9.2352L5.30435 10.6167L8.55653 11.9981L5.30435 13.3798L8.55653 14.7614L5.30435 16.1429L8.55653 17.5245L5.30435 18.9062L8.55653 20.2877L6.1465 21.3116C7.84174 22.3791 9.84855 22.9973 12 22.9973C18.0751 22.9973 23 18.0724 23 11.9973Z" fill="#751A46"/>
</svg>
