<svg width="24" height="24" viewBox="0 0 24 24" fill="none" xmlns="http://www.w3.org/2000/svg">
<path d="M12 22.9973C18.0751 22.9973 23 18.0724 23 11.9973C23 5.92218 18.0751 0.997314 12 0.997314C5.92487 0.997314 1 5.92218 1 11.9973C1 18.0724 5.92487 22.9973 12 22.9973Z" fill="#FCFCFC"/>
<path d="M15.3478 10.0843V11.0408H16.6606C16.1128 11.8022 15.383 12.4238 14.5352 12.8423C14.3176 12.6164 14.0123 12.4756 13.6739 12.4756C13.1035 12.4756 12.6267 12.8751 12.5073 13.4096C12.3401 13.4243 12.171 13.4321 12 13.4321C11.829 13.4321 11.6599 13.4242 11.4927 13.4096C11.3733 12.8752 10.8965 12.4756 10.3261 12.4756C9.98773 12.4756 9.68244 12.6164 9.46484 12.8423C8.61698 12.4238 7.88729 11.8022 7.33944 11.0408H8.65217V10.0843H5.30435C5.30435 13.7821 8.30215 16.7799 12 16.7799C15.6979 16.7799 18.6956 13.7821 18.6956 10.0843H15.3478Z" fill="#D80027"/>
</svg>
