<svg width="24" height="24" viewBox="0 0 24 24" fill="none" xmlns="http://www.w3.org/2000/svg">
<path d="M12 22.9973C18.0751 22.9973 23 18.0724 23 11.9973C23 5.92218 18.0751 0.997314 12 0.997314C5.92487 0.997314 1 5.92218 1 11.9973C1 18.0724 5.92487 22.9973 12 22.9973Z" fill="#FFDA44"/>
<path d="M13.6731 22.8709C15.4621 22.5979 17.1089 21.8934 18.5051 20.8678L12.0002 11.9973L13.6731 22.8709Z" fill="#D80027"/>
<path d="M10.3273 1.12378C8.53829 1.39672 6.89147 2.10124 5.49515 3.12686L12.0002 11.9973L10.3273 1.12378Z" fill="#D80027"/>
<path d="M5.49515 20.8678C6.89138 21.8934 8.5382 22.5979 10.3272 22.8709L12.0002 11.9973L5.49515 20.8678Z" fill="#D80027"/>
<path d="M3.12972 5.49229C2.10406 6.8886 1.39963 8.53538 1.12665 10.3244L12.0002 11.9973L3.12972 5.49229Z" fill="#D80027"/>
<path d="M1.12665 13.6702C1.39959 15.4592 2.1041 17.1061 3.12977 18.5023L12.0002 11.9973L1.12665 13.6702Z" fill="#D80027"/>
<path d="M22.8737 10.3244C22.6008 8.53542 21.8963 6.8886 20.8706 5.49233L12.0002 11.9973L22.8737 10.3244Z" fill="#D80027"/>
<path d="M18.5051 3.12681C17.1089 2.10119 15.4621 1.39672 13.6731 1.12378L12.0002 11.9973L18.5051 3.12681Z" fill="#D80027"/>
<path d="M20.8707 18.5023C21.8963 17.1061 22.6008 15.4592 22.8738 13.6702L12.0002 11.9973L20.8707 18.5023Z" fill="#D80027"/>
<path d="M12.0002 15.8234C14.1133 15.8234 15.8263 14.1104 15.8263 11.9973C15.8263 9.88425 14.1133 8.17126 12.0002 8.17126C9.88712 8.17126 8.17413 9.88425 8.17413 11.9973C8.17413 14.1104 9.88712 15.8234 12.0002 15.8234Z" fill="#D80027"/>
<path d="M12 14.8669C13.5848 14.8669 14.8696 13.5821 14.8696 11.9973C14.8696 10.4125 13.5848 9.12773 12 9.12773C10.4151 9.12773 9.13039 10.4125 9.13039 11.9973C9.13039 13.5821 10.4151 14.8669 12 14.8669Z" fill="#FFDA44"/>
</svg>
