<svg width="24" height="24" viewBox="0 0 24 24" fill="none" xmlns="http://www.w3.org/2000/svg">
<path d="M15.8259 1.68146C14.6342 1.23936 13.3454 0.997314 11.9999 0.997314C10.6543 0.997271 9.36546 1.23936 8.1738 1.68146L7.21728 11.9973L8.1738 22.3131C9.36541 22.7553 10.6543 22.9973 11.9999 22.9973C13.3454 22.9973 14.6343 22.7553 15.8259 22.3131L16.7824 11.9973L15.8259 1.68146Z" fill="#FFDA44"/>
<path d="M22.9999 11.9973C22.9999 7.26774 20.0147 3.23564 15.8259 1.68146V22.3131C20.0147 20.7587 22.9998 16.727 22.9999 11.9973Z" fill="#D80027"/>
<path d="M0.999878 11.9973C0.999878 16.727 3.98508 20.7588 8.1738 22.3131V1.68146C3.98504 3.23564 0.999878 7.26766 0.999878 11.9973Z" fill="#0052B4"/>
</svg>
