<svg width="24" height="24" viewBox="0 0 24 24" fill="none" xmlns="http://www.w3.org/2000/svg">
<path d="M11.9998 22.9973C18.0749 22.9973 22.9998 18.0724 22.9998 11.9973C22.9998 5.92218 18.0749 0.997314 11.9998 0.997314C5.92462 0.997314 0.999756 5.92218 0.999756 11.9973C0.999756 18.0724 5.92462 22.9973 11.9998 22.9973Z" fill="#F0F0F0"/>
<path d="M22.3156 15.8234C22.7578 14.6317 22.9998 13.3428 22.9998 11.9973C22.9998 10.6518 22.7578 9.3629 22.3156 8.17125H1.68395C1.2418 9.3629 0.999756 10.6518 0.999756 11.9973C0.999756 13.3428 1.2418 14.6317 1.68395 15.8234L11.9998 16.7799L22.3156 15.8234Z" fill="#0052B4"/>
<path d="M11.9998 22.9973C16.7294 22.9973 20.7613 20.0122 22.3156 15.8234H1.68395C3.23817 20.0122 7.27014 22.9973 11.9998 22.9973Z" fill="#D80027"/>
</svg>
