<svg width="24" height="24" viewBox="0 0 24 24" fill="none" xmlns="http://www.w3.org/2000/svg">
<path d="M0.999634 11.9973C0.999634 13.903 1.48445 15.6954 2.33712 17.2582L11.9996 18.2147L21.6621 17.2582C22.5148 15.6954 22.9996 13.903 22.9996 11.9973L11.9996 11.0408L0.999634 11.9973Z" fill="#FFDA44"/>
<path d="M21.6621 6.73644C19.7965 3.31715 16.1691 0.997314 11.9996 0.997314C7.83016 0.997314 4.20278 3.31715 2.33712 6.73644C1.48445 8.29925 0.999634 10.0917 0.999634 11.9973H22.9996C22.9996 10.0917 22.5148 8.29925 21.6621 6.73644Z" fill="#338AF3"/>
<path d="M11.9996 22.9973C16.1691 22.9973 19.7965 20.6775 21.6621 17.2582H2.33712C4.20278 20.6775 7.83016 22.9973 11.9996 22.9973Z" fill="#496E2D"/>
<path d="M13.4344 7.43494L14.7779 8.06688L14.0625 9.36797L15.5213 9.08893L15.7061 10.5625L16.7222 9.4787L17.7383 10.5625L17.9231 9.08893L19.3819 9.36789L18.6665 8.06683L20.0099 7.43494L18.6665 6.80308L19.3819 5.50199L17.9231 5.78103L17.7382 4.30741L16.7222 5.39126L15.7061 4.30741L15.5213 5.78103L14.0624 5.50199L14.7778 6.80312L13.4344 7.43494Z" fill="#FFDA44"/>
</svg>
