<svg width="24" height="24" viewBox="0 0 24 24" fill="none" xmlns="http://www.w3.org/2000/svg">
<path d="M11.9996 22.9973C18.0748 22.9973 22.9996 18.0724 22.9996 11.9973C22.9996 5.92218 18.0748 0.997319 11.9996 0.997319C5.9245 0.997319 0.999634 5.92218 0.999634 11.9973C0.999634 18.0724 5.9245 22.9973 11.9996 22.9973Z" fill="#F0F0F0"/>
<path d="M11.9996 0.997319C11.9894 0.989584 0.996712 11.9944 0.999634 11.9973C0.999634 5.92218 5.9245 0.997319 11.9996 0.997319Z" fill="#D80027"/>
<path d="M11.9996 0.997319C12.0099 0.989584 23.0026 11.9944 22.9996 11.9973C22.9996 5.92218 18.0748 0.997319 11.9996 0.997319Z" fill="#D80027"/>
<path d="M11.9996 22.9973C11.9894 23.005 0.996712 12.0002 0.999634 11.9973C0.999634 18.0724 5.9245 22.9973 11.9996 22.9973Z" fill="#0052B4"/>
<path d="M11.9996 22.9973C12.0099 23.005 23.0026 12.0002 22.9996 11.9973C22.9996 18.0724 18.0748 22.9973 11.9996 22.9973Z" fill="#0052B4"/>
<path d="M11.9996 6.73644L13.1868 10.39H17.0284L13.9204 12.648L15.1076 16.3017L11.9996 14.0436L8.8917 16.3017L10.0788 12.648L6.97092 10.39H10.8125L11.9996 6.73644Z" fill="#FFDA44"/>
</svg>
