<svg width="24" height="24" viewBox="0 0 24 24" fill="none" xmlns="http://www.w3.org/2000/svg">
<path d="M2.092 7.21472C1.39273 8.66088 1.00051 10.2832 1.00051 11.9973C1.00051 13.7114 1.39273 15.3338 2.092 16.7799L12.0005 17.7364L21.909 16.7799C22.6083 15.3338 23.0005 13.7114 23.0005 11.9973C23.0005 10.2832 22.6083 8.66088 21.909 7.21472L12.0005 6.25819L2.092 7.21472Z" fill="#F0F0F0"/>
<path d="M2.092 16.7799C3.87116 20.4594 7.63948 22.9973 12.0005 22.9973C16.3615 22.9973 20.1298 20.4594 21.909 16.7799H2.092Z" fill="#496E2D"/>
<path d="M2.092 7.21472H21.909C20.1298 3.53526 16.3616 0.997314 12.0005 0.997314C7.63943 0.997314 3.87116 3.53526 2.092 7.21472Z" fill="black"/>
<path d="M4.2223 4.21911C-0.07345 8.51487 -0.07345 15.4797 4.2223 19.7755C5.99747 18.0004 7.70475 16.2931 12.0005 11.9973L4.2223 4.21911Z" fill="#D80027"/>
<path d="M14.87 11.9973C14.87 10.3946 15.9964 9.05578 17.5005 8.72732C17.2693 8.67683 17.0294 8.64946 16.783 8.64946C14.9341 8.64946 13.4352 10.1483 13.4352 11.9973C13.4352 13.8463 14.9341 15.3451 16.783 15.3451C17.0294 15.3451 17.2692 15.3177 17.5005 15.2673C15.9964 14.9388 14.87 13.5999 14.87 11.9973Z" fill="#D80027"/>
<path d="M17.6411 9.84511L18.116 11.3067H19.6526L18.4095 12.2098L18.8843 13.6712L17.6411 12.768L16.398 13.6712L16.8729 12.2098L15.6296 11.3067H17.1662L17.6411 9.84511Z" fill="#D80027"/>
</svg>
