<svg width="24" height="24" viewBox="0 0 24 24" fill="none" xmlns="http://www.w3.org/2000/svg">
<path d="M23.0003 11.9973C23.0003 18.0724 18.0754 22.9973 12.0003 22.9973C5.92521 22.9973 1.00031 18.0724 1.00031 11.9973C4.77855 8.21907 7.9829 5.01472 12.0003 0.997314C18.0754 0.997314 23.0003 5.92222 23.0003 11.9973Z" fill="#D80027"/>
<path d="M12.0003 11.9973C12.0003 5.92222 12.0003 5.20602 12.0003 0.997314C5.92521 0.997314 1.00031 5.92222 1.00031 11.9973H12.0003Z" fill="#0052B4"/>
<path d="M9.81115 8.17126L9.98925 8.71933H10.5655L10.0993 9.05797L10.2774 9.60603L9.81115 9.26731L9.34494 9.60603L9.52304 9.05797L9.05683 8.71933H9.63304L9.81115 8.17126Z" fill="#F0F0F0"/>
<path d="M6.91694 3.86691L7.21373 4.78038H8.17417L7.39712 5.34478L7.69399 6.25821L6.91694 5.69364L6.13994 6.25821L6.43677 5.34478L5.65976 4.78038H6.62012L6.91694 3.86691Z" fill="#F0F0F0"/>
<path d="M9.78653 4.8234L10.0833 5.73691H11.0437L10.2667 6.30131L10.5635 7.21474L9.78653 6.65017L9.00952 7.21474L9.30635 6.30131L8.52935 5.73691H9.4897L9.78653 4.8234Z" fill="#F0F0F0"/>
<path d="M7.51829 8.64951L7.81512 9.56298H8.77547L7.99847 10.1274L8.2953 11.0408L7.51829 10.4763L6.74129 11.0408L7.03812 10.1274L6.26111 9.56298H7.22151L7.51829 8.64951Z" fill="#F0F0F0"/>
<path d="M5.00389 6.25821L5.30072 7.17168H6.26111L5.48407 7.73607L5.78089 8.64951L5.00389 8.08498L4.22693 8.64951L4.52371 7.73607L3.74675 7.17168H4.70711L5.00389 6.25821Z" fill="#F0F0F0"/>
</svg>
