<svg width="24" height="24" viewBox="0 0 24 24" fill="none" xmlns="http://www.w3.org/2000/svg">
<path d="M23.0002 11.9973C23.0002 18.0724 18.0753 22.9973 12.0002 22.9973C5.92515 22.9973 1.00024 18.0724 1.00024 11.9973C1.47849 11.9973 12.0002 10.5625 12.0002 10.5625L23.0002 11.9973Z" fill="#338AF3"/>
<path d="M1.00024 11.9973C1.00024 5.92222 5.92494 0.997314 12 0.997314C18.0751 0.997314 23.0002 5.92222 23.0002 11.9973" fill="#F0F0F0"/>
<path d="M16.3666 8.58749L12.0002 12.9538L7.63393 8.58749C7.06928 9.42568 6.73941 10.4345 6.73941 11.519V12.9538C6.73941 15.2576 8.22806 17.2201 10.2939 17.9304C10.0181 18.4708 10.0646 19.1452 10.4687 19.6494C11.0053 19.2194 11.5608 18.7742 12.0321 18.3966C12.5034 18.7742 13.059 19.2194 13.5955 19.6494C14.0043 19.1393 14.0474 18.4548 13.7608 17.9113C15.7984 17.1855 17.2611 15.2374 17.2611 12.9538V11.5191C17.2611 10.4345 16.9312 9.42572 16.3666 8.58749Z" fill="#6DA544"/>
<path d="M12.0002 16.7799C9.89052 16.7799 8.17418 15.0635 8.17418 12.9538V11.5191C8.17418 9.40935 9.89056 7.69301 12.0002 7.69301C14.1099 7.69301 15.8263 9.40939 15.8263 11.5191V12.9538C15.8263 15.0635 14.11 16.7799 12.0002 16.7799Z" fill="#FFDA44"/>
<path d="M14.3915 12.9538V11.5191C14.3915 10.2005 13.3188 9.12778 12.0002 9.12778C10.6817 9.12778 9.60895 10.2005 9.60895 11.5191V12.9538L12.0002 13.4321L14.3915 12.9538Z" fill="#338AF3"/>
<path d="M9.60895 12.9538C9.60895 14.2724 10.6817 15.3451 12.0002 15.3451C13.3188 15.3451 14.3915 14.2724 14.3915 12.9538H9.60895Z" fill="#6DA544"/>
<path d="M14.8698 7.69296C14.8698 6.90058 14.2274 6.25819 13.4351 6.25819C13.0675 6.25819 12.7324 6.39655 12.4785 6.62382V5.77991H12.9568V4.82338H12.4785V4.34514H11.522V4.82338H11.0438V5.77991H11.522V6.62382C11.2681 6.39655 10.933 6.25819 10.5655 6.25819C9.77309 6.25819 9.13071 6.90058 9.13071 7.69296C9.13071 8.1178 9.31551 8.49936 9.60895 8.76211V9.60602H14.3915V8.76211C14.685 8.49936 14.8698 8.1178 14.8698 7.69296Z" fill="#FFDA44"/>
</svg>
