<svg width="24" height="24" viewBox="0 0 24 24" fill="none" xmlns="http://www.w3.org/2000/svg">
<path d="M12 22.9973C18.0751 22.9973 23 18.0724 23 11.9973C23 5.92218 18.0751 0.997314 12 0.997314C5.92487 0.997314 1 5.92218 1 11.9973C1 18.0724 5.92487 22.9973 12 22.9973Z" fill="#FFDA44"/>
<path d="M7.69561 8.17129H22.3157C20.7615 3.98248 16.7296 0.997314 12 0.997314C8.96237 0.997314 6.21263 2.2288 4.22214 4.21954L7.69561 8.17129Z" fill="#6DA544"/>
<path d="M7.69553 15.8234H22.3156C20.7615 20.0122 16.7296 22.9973 12 22.9973C8.96237 22.9973 6.21255 21.7659 4.22206 19.7752L7.69553 15.8234Z" fill="#6DA544"/>
<path d="M4.22214 4.21954C-0.073617 8.5153 -0.073697 15.4794 4.22206 19.7752C5.99723 18 7.70421 16.2931 12 11.9974L4.22214 4.21954Z" fill="#D80027"/>
<path d="M14.968 10.0843L15.4428 11.5458H16.9795L15.7363 12.449L16.2112 13.9104L14.968 13.0072L13.7248 13.9104L14.1996 12.449L12.9565 11.5458H14.4931L14.968 10.0843Z" fill="black"/>
<path d="M19.7506 10.0843L20.2254 11.5458H21.7621L20.5189 12.449L20.9938 13.9104L19.7506 13.0072L18.5074 13.9104L18.9823 12.449L17.7391 11.5458H19.2757L19.7506 10.0843Z" fill="black"/>
</svg>
