<svg width="24" height="24" viewBox="0 0 24 24" fill="none" xmlns="http://www.w3.org/2000/svg">
<path d="M12 22.9973C18.0751 22.9973 23 18.0724 23 11.9973C23 5.92218 18.0751 0.997314 12 0.997314C5.92487 0.997314 1 5.92218 1 11.9973C1 18.0724 5.92487 22.9973 12 22.9973Z" fill="#F0F0F0"/>
<path d="M22.9069 10.5625H13.4349L13.4348 1.09043C12.9651 1.02928 12.4863 0.997314 12 0.997314C11.5137 0.997314 11.0349 1.02928 10.5652 1.09043V10.5625L1.09311 10.5625C1.03197 11.0322 1 11.511 1 11.9973C1 12.4836 1.03197 12.9624 1.09311 13.4321H10.5651L10.5652 22.9042C11.0349 22.9653 11.5137 22.9973 12 22.9973C12.4863 22.9973 12.9651 22.9654 13.4348 22.9042V13.4322L22.9069 13.4321C22.968 12.9624 23 12.4836 23 11.9973C23 11.511 22.968 11.0322 22.9069 10.5625Z" fill="#D80027"/>
<path d="M17.2607 4.82346C16.3693 4.82346 15.6203 5.43315 15.4079 6.25823L17.2607 6.73648L19.1135 6.25823C18.9011 5.43319 18.1521 4.82346 17.2607 4.82346Z" fill="black"/>
<path d="M15.3477 9.12782L17.7389 9.60606V8.58929C18.4112 8.41621 18.9403 7.88697 19.1133 7.21476L17.2607 6.73648L14.8694 6.73652L15.3477 8.17129V9.12782Z" fill="black"/>
<path d="M19.1135 6.25823L14.8694 6.25828V8.17133L15.3477 8.17129V7.2148L19.1133 7.21476C19.1527 7.06192 19.1738 6.90169 19.1738 6.73656C19.1738 6.57139 19.1528 6.41107 19.1135 6.25823Z" fill="#ACABB1"/>
<path d="M7.21723 4.82346C6.3258 4.82346 5.57681 5.43315 5.36446 6.25823L7.21723 6.73648L9.07 6.25823C8.85765 5.43319 8.10866 4.82346 7.21723 4.82346Z" fill="black"/>
<path d="M5.30417 9.12782L7.69547 9.60606V8.58929C8.36771 8.41621 8.89683 7.88697 9.06986 7.21476L7.21723 6.73648L4.82588 6.73652L5.30412 8.17129L5.30417 9.12782Z" fill="black"/>
<path d="M9.07 6.25823L4.82588 6.25828V8.17133L5.30412 8.17129V7.2148L9.06986 7.21476C9.10922 7.06192 9.13023 6.90169 9.13023 6.73656C9.13023 6.57139 9.10936 6.41107 9.07 6.25823Z" fill="#ACABB1"/>
<path d="M17.2607 14.3887C16.3693 14.3887 15.6203 14.9984 15.4079 15.8235L17.2607 16.3017L19.1135 15.8235C18.9011 14.9984 18.1521 14.3887 17.2607 14.3887Z" fill="black"/>
<path d="M15.3477 18.693L17.7389 19.1713V18.1545C18.4112 17.9814 18.9403 17.4522 19.1133 16.78L17.2607 16.3017L14.8694 16.3018L15.3477 17.7365V18.693Z" fill="black"/>
<path d="M19.1135 15.8235H14.8694V17.7365H15.3477V16.78H19.1133C19.1527 16.6272 19.1738 16.4669 19.1738 16.3018C19.1738 16.1366 19.1528 15.9763 19.1135 15.8235Z" fill="#ACABB1"/>
<path d="M7.21723 14.3887C6.3258 14.3887 5.57681 14.9984 5.36446 15.8235L7.21723 16.3017L9.07 15.8235C8.85765 14.9984 8.10866 14.3887 7.21723 14.3887Z" fill="black"/>
<path d="M5.30417 18.693L7.69547 19.1713V18.1545C8.36771 17.9814 8.89683 17.4522 9.06986 16.78L7.21723 16.3017L4.82588 16.3018L5.30412 17.7365L5.30417 18.693Z" fill="black"/>
<path d="M9.07 15.8235H4.82588V17.7365H5.30412V16.78H9.06986C9.10922 16.6272 9.13023 16.4669 9.13023 16.3018C9.13023 16.1366 9.10936 15.9763 9.07 15.8235Z" fill="#ACABB1"/>
</svg>
