<svg width="24" height="24" viewBox="0 0 24 24" fill="none" xmlns="http://www.w3.org/2000/svg">
<path d="M11.9996 22.9973C18.0748 22.9973 22.9996 18.0724 22.9996 11.9973C22.9996 5.92218 18.0748 0.997314 11.9996 0.997314C5.9245 0.997314 0.999634 5.92218 0.999634 11.9973C0.999634 18.0724 5.9245 22.9973 11.9996 22.9973Z" fill="#6DA544"/>
<path d="M7.21718 14.1495C7.21718 14.9419 7.85956 15.5843 8.65195 15.5843H12.9563C12.9563 16.2446 13.4916 16.7799 14.1519 16.7799H15.5867C16.2471 16.7799 16.7824 16.2446 16.7824 15.5843V14.1495H7.21718Z" fill="#F0F0F0"/>
<path d="M16.902 7.21473V10.5626C16.902 11.09 16.4729 11.5191 15.9454 11.5191V12.9538C17.264 12.9538 18.3367 11.8811 18.3367 10.5626V7.21473H16.902Z" fill="#F0F0F0"/>
<path d="M6.61936 10.5626C6.61936 11.09 6.19028 11.5191 5.66283 11.5191V12.9538C6.98142 12.9538 8.05413 11.8811 8.05413 10.5626V7.21473H6.61936V10.5626Z" fill="#F0F0F0"/>
<path d="M14.7498 7.21473H16.1845V10.5626H14.7498V7.21473Z" fill="#F0F0F0"/>
<path d="M12.5976 9.12774C12.5976 9.25961 12.4903 9.36686 12.3585 9.36686C12.2267 9.36686 12.1194 9.25957 12.1194 9.12774V7.21468H10.6846V9.12774C10.6846 9.25961 10.5773 9.36686 10.4455 9.36686C10.3136 9.36686 10.2064 9.25957 10.2064 9.12774V7.21468H8.77154V9.12774C8.77154 10.0507 9.52246 10.8017 10.4455 10.8017C10.801 10.8017 11.1306 10.69 11.402 10.5002C11.6734 10.6899 12.0031 10.8017 12.3585 10.8017C12.4301 10.8017 12.5005 10.7966 12.5697 10.7878C12.4681 11.2067 12.0908 11.519 11.6411 11.519V12.9538C12.9597 12.9538 14.0324 11.881 14.0324 10.5625V7.21468H12.5977L12.5976 9.12774Z" fill="#F0F0F0"/>
<path d="M8.77154 11.5191H10.9237V12.9538H8.77154V11.5191Z" fill="#F0F0F0"/>
</svg>
