<svg width="24" height="24" viewBox="0 0 24 24" fill="none" xmlns="http://www.w3.org/2000/svg">
<path d="M12.0005 22.9973C18.0756 22.9973 23.0005 18.0724 23.0005 11.9973C23.0005 5.92218 18.0756 0.997314 12.0005 0.997314C5.92536 0.997314 1.00049 5.92218 1.00049 11.9973C1.00049 18.0724 5.92536 22.9973 12.0005 22.9973Z" fill="#F0F0F0"/>
<path d="M18.6974 3.27122C16.8426 1.84547 14.5208 0.997314 12.0005 0.997314C9.4802 0.997314 7.15831 1.84552 5.30348 3.27122L12.0005 9.96816L18.6974 3.27122Z" fill="#0052B4"/>
<path d="M3.27432 5.30038C1.84866 7.15521 1.00049 9.47703 1.00049 11.9973C1.00049 14.5176 1.84866 16.8395 3.27436 18.6943L9.97134 11.9973L3.27432 5.30038Z" fill="#0052B4"/>
<path d="M5.30348 20.7234C7.15835 22.1492 9.4802 22.9973 12.0005 22.9973C14.5208 22.9973 16.8426 22.1491 18.6974 20.7234L12.0005 14.0265L5.30348 20.7234Z" fill="#0052B4"/>
<path d="M20.7266 18.6943C22.1523 16.8394 23.0005 14.5176 23.0005 11.9973C23.0005 9.47703 22.1523 7.15521 20.7266 5.30038L14.0296 11.9973L20.7266 18.6943Z" fill="#0052B4"/>
</svg>
