<svg width="24" height="24" viewBox="0 0 24 24" fill="none" xmlns="http://www.w3.org/2000/svg">
<path d="M16.7828 2.08881C15.3367 1.38953 13.7143 0.997314 12.0002 0.997314C10.2862 0.997314 8.66381 1.38953 7.21765 2.08881L6.26113 11.9973L7.21765 21.9058C8.66381 22.6051 10.2862 22.9973 12.0002 22.9973C13.7143 22.9973 15.3367 22.6051 16.7828 21.9058L17.7394 11.9973L16.7828 2.08881Z" fill="#FFDA44"/>
<path d="M12 8.17125L12.9496 11.094H16.0231L13.5367 12.9005L14.4864 15.8234L12 14.017L9.51359 15.8234L10.4634 12.9005L7.97707 11.094H11.0503L12 8.17125Z" fill="#496E2D"/>
<path d="M7.21765 2.08881C3.53824 3.86801 1.00024 7.63629 1.00024 11.9973C1.00024 16.3583 3.53824 20.1266 7.21765 21.9058V2.08881Z" fill="#496E2D"/>
<path d="M16.7828 2.08881V21.9058C20.4623 20.1266 23.0002 16.3583 23.0002 11.9973C23.0002 7.63629 20.4623 3.86801 16.7828 2.08881Z" fill="#D80027"/>
</svg>
