<svg width="24" height="24" viewBox="0 0 24 24" fill="none" xmlns="http://www.w3.org/2000/svg">
<path d="M12 22.9973C18.0751 22.9973 23 18.0724 23 11.9973C23 5.92218 18.0751 0.997314 12 0.997314C5.92487 0.997314 1 5.92218 1 11.9973C1 18.0724 5.92487 22.9973 12 22.9973Z" fill="#F0F0F0"/>
<path d="M12 0.997314C5.92487 0.997314 1 5.92218 1 11.9973C1 13.3428 1.24204 14.6318 1.68419 15.8234H22.3159C22.758 14.6318 23 13.3428 23 11.9973C23 5.92218 18.0751 0.997314 12 0.997314Z" fill="#0052B4"/>
<path d="M12 0.997314C7.27039 0.997314 3.23853 3.98248 1.68431 8.17129H22.316C20.7617 3.98248 16.7296 0.997314 12 0.997314Z" fill="#D80027"/>
<path d="M3.8445 7.21476V12.7021C3.8445 15.8236 7.92228 16.78 7.92228 16.78C7.92228 16.78 12 15.8236 12 12.7021V7.21476H3.8445Z" fill="#D80027"/>
<path d="M5.53116 8.1713H10.3138V6.25824L9.35727 6.73648L7.9225 5.30171L6.48768 6.73648L5.53116 6.25824V8.1713Z" fill="#FFDA44"/>
<path d="M11.0437 13.4662L7.93504 10.3575L4.82634 13.4662L5.84087 14.4807L7.93504 12.3865L10.0292 14.4807L11.0437 13.4662Z" fill="#FFDA44"/>
<path d="M11.0436 10.5626H9.59313C9.67469 10.4218 9.72213 10.2588 9.72213 10.0844C9.72213 9.55609 9.29386 9.1279 8.7656 9.1279C8.40058 9.1279 8.0836 9.33235 7.92234 9.63292C7.76107 9.33239 7.44409 9.1279 7.07907 9.1279C6.55082 9.1279 6.12255 9.55609 6.12255 10.0844C6.12255 10.2588 6.16998 10.4219 6.25154 10.5626H4.82618C4.82618 11.0909 5.28633 11.5191 5.81455 11.5191H5.78271C5.78271 12.0474 6.21093 12.4756 6.73923 12.4756C6.73923 12.9434 7.07516 13.332 7.51882 13.4152L6.76514 15.1168C7.12634 15.2637 7.52105 15.3452 7.93493 15.3452C8.3488 15.3452 8.74351 15.2637 9.10471 15.1168L8.35104 13.4152C8.79469 13.3321 9.13062 12.9434 9.13062 12.4756C9.65892 12.4756 10.0871 12.0474 10.0871 11.5191H10.0553C10.5835 11.5191 11.0436 11.0908 11.0436 10.5626Z" fill="#F0F0F0"/>
</svg>
