<svg width="24" height="24" viewBox="0 0 24 24" fill="none" xmlns="http://www.w3.org/2000/svg">
<path d="M12 22.9973C18.0751 22.9973 23 18.0724 23 11.9973C23 5.92218 18.0751 0.997314 12 0.997314C5.92487 0.997314 1 5.92218 1 11.9973C1 18.0724 5.92487 22.9973 12 22.9973Z" fill="#F0F0F0"/>
<path d="M19.4253 3.88215C17.4686 2.0907 14.8621 0.997314 12 0.997314C11.5315 0.997314 11.0697 1.02688 10.6166 1.08372L5.30432 7.21476L1.34805 14.753C1.60363 15.7439 1.99439 16.6803 2.49854 17.5424L12 11.9974L19.4253 3.88215Z" fill="#FFDA44"/>
<path d="M21.1579 18.092L5.76791 21.062C7.53947 22.2823 9.68613 22.9973 12 22.9973C15.8208 22.9973 19.1861 21.049 21.1579 18.092Z" fill="#6DA544"/>
<path d="M19.4269 3.88361L2.50482 17.553C2.94744 18.3079 3.47737 19.0053 4.08095 19.6314L23 11.9973C23 8.78501 21.6228 5.89463 19.4269 3.88361Z" fill="#D80027"/>
<path d="M1 11.9973C1 12.9489 1.12088 13.8723 1.34805 14.753L10.6166 1.08372C5.19449 1.76409 1 6.39075 1 11.9973Z" fill="#0052B4"/>
</svg>
