<svg width="24" height="24" viewBox="0 0 24 24" fill="none" xmlns="http://www.w3.org/2000/svg">
<path d="M22.3156 15.8234C22.7578 14.6317 22.9998 13.3428 22.9998 11.9973C22.9998 10.6518 22.7578 9.3629 22.3156 8.17125L11.9998 7.21472L1.68395 8.17125C1.24176 9.3629 0.999756 10.6518 0.999756 11.9973C0.999756 13.3428 1.24176 14.6317 1.68395 15.8234L11.9998 16.7799L22.3156 15.8234Z" fill="#F0F0F0"/>
<path d="M11.9998 22.9973C16.7293 22.9973 20.7614 20.0122 22.3156 15.8234H1.68395C3.23821 20.0122 7.2701 22.9973 11.9998 22.9973Z" fill="#338AF3"/>
<path d="M11.9998 0.997314C7.2701 0.997314 3.23821 3.98244 1.68395 8.17125H22.3156C20.7613 3.98244 16.7293 0.997314 11.9998 0.997314Z" fill="#6DA544"/>
</svg>
