<svg width="24" height="24" viewBox="0 0 24 24" fill="none" xmlns="http://www.w3.org/2000/svg">
<path d="M11.9996 22.9973C18.0748 22.9973 22.9996 18.0724 22.9996 11.9973C22.9996 5.92218 18.0748 0.997314 11.9996 0.997314C5.9245 0.997314 0.999634 5.92218 0.999634 11.9973C0.999634 18.0724 5.9245 22.9973 11.9996 22.9973Z" fill="#F0F0F0"/>
<path d="M0.999634 11.9973C0.999634 5.92218 5.9245 0.997314 11.9996 0.997314C18.0748 0.997314 22.9996 5.92218 22.9996 11.9973" fill="#D80027"/>
<path d="M7.69528 6.73639C7.69528 5.13374 8.82162 3.79492 10.3257 3.46643C10.0945 3.41598 9.85472 3.38861 9.60829 3.38861C7.75931 3.38861 6.26047 4.88745 6.26047 6.73644C6.26047 8.58542 7.75931 10.0843 9.60829 10.0843C9.85463 10.0843 10.0945 10.0569 10.3257 10.0064C8.82162 9.6779 7.69528 8.33908 7.69528 6.73639Z" fill="#F0F0F0"/>
<path d="M11.9996 3.62774L12.237 4.35842H13.0053L12.3837 4.81006L12.6212 5.54075L11.9996 5.08919L11.378 5.54075L11.6154 4.81006L10.9939 4.35842H11.7621L11.9996 3.62774Z" fill="#F0F0F0"/>
<path d="M10.1358 5.06251L10.3732 5.79323H11.1415L10.52 6.24483L10.7574 6.97552L10.1358 6.52396L9.51414 6.97552L9.75163 6.24483L9.13 5.79323H9.89832L10.1358 5.06251Z" fill="#F0F0F0"/>
<path d="M13.8634 5.06251L14.1009 5.79323H14.8692L14.2475 6.24483L14.485 6.97552L13.8634 6.52396L13.2418 6.97552L13.4793 6.24483L12.8577 5.79323H13.6259L13.8634 5.06251Z" fill="#F0F0F0"/>
<path d="M13.146 7.21468L13.3835 7.94541H14.1518L13.5302 8.39701L13.7676 9.12769L13.146 8.67614L12.5244 9.12769L12.7619 8.39701L12.1403 7.94541H12.9085L13.146 7.21468Z" fill="#F0F0F0"/>
<path d="M10.8532 7.21468L11.0906 7.94541H11.8589L11.2373 8.39701L11.4748 9.12769L10.8532 8.67614L10.2315 9.12769L10.469 8.39701L9.8474 7.94541H10.6157L10.8532 7.21468Z" fill="#F0F0F0"/>
</svg>
