<svg width="24" height="24" viewBox="0 0 24 24" fill="none" xmlns="http://www.w3.org/2000/svg">
<path d="M5.8006 21.0843C7.56601 22.291 9.70057 22.9973 12.0004 22.9973C14.3003 22.9973 16.4349 22.291 18.2003 21.0843L12.0004 20.1277L5.8006 21.0843Z" fill="#D80027"/>
<path d="M18.2003 2.91037C16.4349 1.70359 14.3003 0.997314 12.0004 0.997314C9.70057 0.997314 7.56592 1.70359 5.8006 2.91037L12.0004 3.8669L18.2003 2.91037Z" fill="#D80027"/>
<path d="M5.8006 21.0843C7.56601 22.291 9.70057 22.9973 12.0004 22.9973C14.3003 22.9973 16.4349 22.291 18.2003 21.0843L12.0004 20.1277L5.8006 21.0843Z" fill="#D80027"/>
<path d="M18.2003 2.91037C16.4349 1.70359 14.3003 0.997314 12.0004 0.997314C9.70057 0.997314 7.56592 1.70359 5.8006 2.91037L12.0004 3.8669L18.2003 2.91037Z" fill="#D80027"/>
<path d="M22.9724 11.2799C22.7118 7.88495 20.649 4.5843 18.2003 2.91037H5.8006C3.08772 4.76494 1.2475 7.80228 1.02354 11.2799L12.0004 11.9973L22.9724 11.2799Z" fill="#0052B4"/>
<path d="M1.02335 12.7147C1.2473 16.1924 3.08772 19.2297 5.8006 21.0843H18.2003C20.9133 19.2297 22.7531 16.1924 22.9771 12.7147L12.0004 11.9973L1.02335 12.7147Z" fill="#0052B4"/>
<path d="M22.9724 11.2799L12.7178 11.2799V2.43208H11.2831V11.2799L1.02354 11.2799C1.00829 11.5171 1.00043 11.7563 1.00043 11.9973C1.00043 12.2383 1.00809 12.4775 1.02335 12.7147L11.2831 12.7147V21.5625H12.7178V12.7147L22.9771 12.7147C22.9923 12.4775 23.0004 12.2383 23.0004 11.9973C23.0004 11.758 22.9908 11.5188 22.9724 11.2799Z" fill="#D80027"/>
<path d="M5.30478 11.9973L12.0004 7.78887L18.6961 11.9973L12.0004 16.2058L5.30478 11.9973Z" fill="#F0F0F0"/>
<path d="M8.17436 13.9104H16.783L14.87 11.0408L13.9135 11.9973L12.957 11.5191L12.0004 12.9538H10.0874L9.13085 11.9973L8.17436 13.9104Z" fill="#6DA544"/>
<path d="M12.0004 9.12773L12.2379 9.85842H13.0061L12.3846 10.3101L12.622 11.0408L12.0004 10.5892L11.3788 11.0408L11.6163 10.3101L10.9947 9.85842H11.763L12.0004 9.12773Z" fill="#FFDA44"/>
<path d="M12.0004 6.58643L3.39172 11.9973L12.0004 17.4082L20.6091 11.9973L12.0004 6.58643ZM6.08793 11.9973L12.0004 8.28108L17.9129 11.9973L12.0004 15.7136L6.08793 11.9973Z" fill="#D80027"/>
</svg>
