<svg width="24" height="24" viewBox="0 0 24 24" fill="none" xmlns="http://www.w3.org/2000/svg">
<path d="M11.0435 12.9538C11.0435 12.9538 4.22826 4.21761 4.22182 4.21915C6.21238 2.22854 8.96242 0.997314 12 0.997314C18.0751 0.997314 23 5.92222 23 11.9973L11.0435 12.9538Z" fill="#D80027"/>
<path d="M11.0435 11.9973C11.0435 11.9973 4.22826 19.777 4.22182 19.7755C6.21238 21.7661 8.96242 22.9973 12 22.9973C18.0751 22.9973 23 18.0724 23 11.9973H11.0435Z" fill="#0052B4"/>
<path d="M4.22182 4.21915C-0.0739386 8.51491 -0.0739386 15.4797 4.22182 19.7755C5.99698 18.0003 7.70426 16.2931 12 11.9973L4.22182 4.21915Z" fill="#F0F0F0"/>
<path d="M2.20588 11.9973C2.19986 12.0763 2.19578 12.1559 2.19578 12.2364C2.19578 13.9532 3.58762 15.3451 5.30448 15.3451C7.02134 15.3451 8.41318 13.9532 8.41318 12.2364C8.41318 12.1559 8.4091 12.0762 8.40308 11.9973H2.20588Z" fill="#FFDA44"/>
<path d="M5.30448 10.5625C5.83275 10.5625 6.261 10.1342 6.261 9.60597C6.261 9.07769 5.83275 8.64944 5.30448 8.64944C4.7762 8.64944 4.34795 9.07769 4.34795 9.60597C4.34795 10.1342 4.7762 10.5625 5.30448 10.5625Z" fill="#FFDA44"/>
<path d="M3.15219 9.36689V12.4756C3.15219 14.123 5.30437 14.6278 5.30437 14.6278C5.30437 14.6278 7.45654 14.123 7.45654 12.4756V9.36689H3.15219Z" fill="#D80027"/>
<path d="M5.30541 13.6267C4.90614 13.483 4.10869 13.1158 4.10869 12.4756V10.3234H6.50002V12.4756C6.50002 13.1179 5.70265 13.4842 5.30541 13.6267Z" fill="#338AF3"/>
<path d="M5.78261 11.5191V11.0408L5.30437 10.8017L4.82609 11.0408V11.5191L4.58697 11.7582V12.7147H6.02178V11.7582L5.78261 11.5191Z" fill="#F3F3F3"/>
</svg>
