<svg width="24" height="24" viewBox="0 0 24 24" fill="none" xmlns="http://www.w3.org/2000/svg">
<path d="M11.9996 22.9973C18.0748 22.9973 22.9996 18.0724 22.9996 11.9973C22.9996 5.92218 18.0748 0.997314 11.9996 0.997314C5.9245 0.997314 0.999634 5.92218 0.999634 11.9973C0.999634 18.0724 5.9245 22.9973 11.9996 22.9973Z" fill="#F0F0F0"/>
<path d="M22.3154 8.17125H10.5649V5.30167H4.8257V8.17125H1.68383C1.24168 9.36286 0.999634 10.6518 0.999634 11.9973C0.999634 13.3428 1.24168 14.6317 1.68383 15.8234L11.9996 16.7799L22.3154 15.8234C22.7576 14.6317 22.9996 13.3428 22.9996 11.9973C22.9996 10.6518 22.7576 9.36286 22.3154 8.17125Z" fill="#0052B4"/>
<path d="M11.9996 22.9973C16.7292 22.9973 20.7612 20.0122 22.3154 15.8234H1.68383C3.23805 20.0122 7.27002 22.9973 11.9996 22.9973Z" fill="#D80027"/>
<path d="M4.8257 8.17125L4.8257 9.12773C4.8257 11.3243 7.69528 11.9974 7.69528 11.9974C7.69528 11.9974 10.5649 11.3243 10.5649 9.12773L10.5649 8.17125L9.60834 9.12778L7.69528 7.69301L5.78223 9.12778L4.8257 8.17125Z" fill="#F0F0F0"/>
</svg>
