<svg width="24" height="24" viewBox="0 0 24 24" fill="none" xmlns="http://www.w3.org/2000/svg">
<path d="M12 22.9973C18.0751 22.9973 23 18.0724 23 11.9973C23 5.92218 18.0751 0.997314 12 0.997314C5.92487 0.997314 1 5.92218 1 11.9973C1 18.0724 5.92487 22.9973 12 22.9973Z" fill="#F0F0F0"/>
<path d="M12 22.9973C18.0751 22.9973 23 18.0724 23 11.9973C23 10.6518 22.7578 9.36294 22.3156 8.17133H1.68401C1.24186 9.36294 1 10.6518 1 11.9973C1 18.0724 5.92487 22.9973 12 22.9973Z" fill="#0052B4"/>
<path d="M12 22.9973C16.7296 22.9973 20.7614 20.0123 22.3156 15.8235H1.684C3.23823 20.0123 7.27039 22.9973 12 22.9973Z" fill="#D80027"/>
<path d="M3.84427 7.2148V12.7022C3.84427 15.8236 7.92205 16.78 7.92205 16.78C7.92205 16.78 11.9998 15.8236 11.9998 12.7022V7.2148H3.84427Z" fill="#F0F0F0"/>
<path d="M4.80079 7.2148V12.7022C4.80079 13.0686 4.88217 13.4147 5.04339 13.7391H10.8006C10.9619 13.4147 11.0432 13.0686 11.0432 12.7022V7.2148H4.80079Z" fill="#D80027"/>
<path d="M9.83506 11.0409H8.40033V10.0843H9.35686V9.12782H8.40033V8.17133H7.4438V9.12782H6.48732V10.0843H7.4438V11.0409H6.00899V11.9974H7.4438V12.9539H8.40033V11.9974H9.83506V11.0409Z" fill="#F0F0F0"/>
<path d="M6.34818 15.0744C6.96456 15.4618 7.59784 15.6867 7.92204 15.7867C8.24624 15.6867 8.87951 15.4618 9.4959 15.0744C10.1175 14.6837 10.5532 14.2369 10.8006 13.7391C10.5278 13.5461 10.1948 13.4322 9.83509 13.4322C9.70412 13.4322 9.57689 13.4477 9.45456 13.4762C9.19533 12.8872 8.60687 12.4757 7.92208 12.4757C7.23729 12.4757 6.64879 12.8872 6.3896 13.4762C6.26727 13.4477 6.13999 13.4322 6.00907 13.4322C5.64938 13.4322 5.31629 13.5461 5.04339 13.7391C5.29068 14.2369 5.72655 14.6837 6.34818 15.0744Z" fill="#0052B4"/>
</svg>
