<svg width="24" height="24" viewBox="0 0 24 24" fill="none" xmlns="http://www.w3.org/2000/svg">
<path d="M19.7789 19.7758C23.9044 15.6503 24.0673 9.06391 20.2694 4.74303L12.0005 11.9973L4.74613 20.2662C9.06702 24.0641 15.6534 23.9012 19.7789 19.7758Z" fill="#496E2D"/>
<path d="M4.222 4.21884C8.34747 0.0933865 14.9339 -0.0695074 19.2548 3.72844L12.0005 11.9973L3.73165 19.2516C-0.0663594 14.9307 0.0965781 8.34429 4.222 4.21884Z" fill="#0052B4"/>
<path d="M19.2548 3.72844L3.73165 19.2516C3.88857 19.4301 4.05142 19.6053 4.22196 19.7757C4.39246 19.9462 4.56755 20.1092 4.74613 20.2662L20.2694 4.74303C20.1124 4.56446 19.9494 4.38932 19.7789 4.21877C19.6085 4.04836 19.4334 3.88536 19.2548 3.72844Z" fill="#FFDA44"/>
<path d="M5.63512 4.82313L5.87261 5.55389H6.64093L6.01935 6.00545L6.25675 6.73622L5.63512 6.28457L5.01349 6.73622L5.25098 6.00545L4.62935 5.55389H5.39772L5.63512 4.82313Z" fill="#F0F0F0"/>
<path d="M9.56006 4.82313L9.79755 5.5539H10.5658L9.94425 6.00546L10.1817 6.73622L9.56006 6.28458L8.93843 6.73622L9.17592 6.00546L8.55429 5.5539H9.32262L9.56006 4.82313Z" fill="#F0F0F0"/>
<path d="M5.63534 8.64935L5.87283 9.38012H6.64115L6.01956 9.83172L6.25697 10.5625L5.63534 10.1108L5.01371 10.5625L5.2512 9.83172L4.62957 9.38012H5.39794L5.63534 8.64935Z" fill="#F0F0F0"/>
<path d="M9.56006 8.64935L9.79755 9.38012H10.5658L9.94425 9.83172L10.1817 10.5625L9.56006 10.1108L8.93843 10.5625L9.17592 9.83172L8.55429 9.38012H9.32262L9.56006 8.64935Z" fill="#F0F0F0"/>
<path d="M7.59772 6.73622L7.83521 7.46699H8.60349L7.9819 7.91859L8.21935 8.64935L7.59772 8.19771L6.97609 8.64935L7.21353 7.91859L6.59191 7.46699H7.36027L7.59772 6.73622Z" fill="#F0F0F0"/>
</svg>
