<svg width="24" height="24" viewBox="0 0 24 24" fill="none" xmlns="http://www.w3.org/2000/svg">
<path d="M22.3159 15.8234C22.7581 14.6317 23.0001 13.3428 23.0001 11.9973C23.0001 10.6518 22.7581 9.3629 22.3159 8.17125L12.0001 7.21472L1.68431 8.17125C1.24217 9.3629 1.00012 10.6518 1.00012 11.9973C1.00012 13.3428 1.24217 14.6317 1.68431 15.8234L12.0001 16.7799L22.3159 15.8234Z" fill="#F0F0F0"/>
<path d="M12.0001 22.9973C16.7297 22.9973 20.7618 20.0122 22.3159 15.8234H1.68431C3.23858 20.0122 7.27047 22.9973 12.0001 22.9973Z" fill="#D80027"/>
<path d="M12.0001 0.997314C7.27047 0.997314 3.23858 3.98244 1.68431 8.17125H22.3159C20.7617 3.98244 16.7297 0.997314 12.0001 0.997314Z" fill="#496E2D"/>
<path d="M12.0001 9.60602L12.5936 11.4327H14.5145L12.9605 12.5618L13.5541 14.3886L12.0001 13.2597L10.4461 14.3886L11.0397 12.5618L9.48576 11.4327H11.4066L12.0001 9.60602Z" fill="black"/>
<path d="M15.2681 3.14946V5.3813C15.2681 5.73299 14.982 6.01899 14.6304 6.01899V6.97552C15.5094 6.97552 16.2246 6.26039 16.2246 5.3813V3.14946H15.2681Z" fill="#F0F0F0"/>
<path d="M8.41318 5.38133C8.41318 5.73303 8.12713 6.01903 7.77548 6.01903V6.97556C8.65458 6.97556 9.36971 6.26043 9.36971 5.38133V3.14949H8.41318V5.38133Z" fill="#F0F0F0"/>
<path d="M13.8331 3.14946H14.7896V5.3813H13.8331V3.14946Z" fill="#F0F0F0"/>
<path d="M12.3985 4.42477C12.3985 4.51268 12.3269 4.58422 12.2391 4.58422C12.1511 4.58422 12.0796 4.51268 12.0796 4.42477V3.14946H11.1231V4.42477C11.1231 4.51268 11.0516 4.58422 10.9637 4.58422C10.8757 4.58422 10.8042 4.51268 10.8042 4.42477V3.14946H9.84771V4.42477C9.84771 5.04017 10.3483 5.54075 10.9637 5.54075C11.2006 5.54075 11.4205 5.46629 11.6013 5.33983C11.7823 5.46629 12.002 5.54075 12.239 5.54075C12.2867 5.54075 12.3337 5.5374 12.3798 5.53151C12.312 5.81077 12.0605 6.01899 11.7608 6.01899V6.97552C12.6398 6.97552 13.355 6.26039 13.355 5.3813V3.14946H12.3984L12.3985 4.42477Z" fill="#F0F0F0"/>
<path d="M9.84776 6.01904H11.2825V6.97557H9.84776V6.01904Z" fill="#F0F0F0"/>
</svg>
