<svg width="24" height="24" viewBox="0 0 24 24" fill="none" xmlns="http://www.w3.org/2000/svg">
<path d="M11.9996 22.9973C18.0748 22.9973 22.9996 18.0724 22.9996 11.9973C22.9996 5.92218 18.0748 0.997314 11.9996 0.997314C5.9245 0.997314 0.999634 5.92218 0.999634 11.9973C0.999634 18.0724 5.9245 22.9973 11.9996 22.9973Z" fill="#F0F0F0"/>
<path d="M22.1415 7.7328C20.4756 3.77576 16.5624 0.997314 11.9996 0.997314C8.962 0.997314 6.2123 2.22876 4.22182 4.2195L6.97654 7.7328H22.1415Z" fill="black"/>
<path d="M7.00778 16.222L4.22182 19.7751C6.2123 21.7659 8.962 22.9973 11.9996 22.9973C16.5778 22.9973 20.5022 20.2003 22.1585 16.222H7.00778Z" fill="#496E2D"/>
<path d="M3.39093 9.0879V14.8669H22.6207C22.8675 13.952 22.9996 12.9902 22.9996 11.9973C22.9996 10.99 22.8639 10.0147 22.6103 9.0879H3.39093Z" fill="#A2001D"/>
<path d="M4.22182 4.2195C-0.0739399 8.51526 -0.0739399 15.4793 4.22182 19.7751C5.99699 18 7.70388 16.2931 11.9996 11.9973L4.22182 4.2195Z" fill="#0052B4"/>
<path d="M4.58263 9.26244L5.92519 11.1359L8.12209 10.4379L6.75521 12.2938L8.09777 14.1674L5.91032 13.4409L4.5434 15.2968L4.55844 12.9919L2.3709 12.2653L4.56763 11.5673L4.58263 9.26244Z" fill="#FFDA44"/>
</svg>
