<svg width="24" height="24" viewBox="0 0 24 24" fill="none" xmlns="http://www.w3.org/2000/svg">
<path d="M12 22.9973C18.0751 22.9973 23 18.0724 23 11.9973C23 5.92218 18.0751 0.997314 12 0.997314C5.92487 0.997314 1 5.92218 1 11.9973C1 18.0724 5.92487 22.9973 12 22.9973Z" fill="#F0F0F0"/>
<path d="M15.8259 11.9973C15.8259 12.9538 14.1129 15.3451 11.9998 15.3451C9.88674 15.3451 8.17375 12.9538 8.17375 11.9973C8.17375 9.8842 9.88674 8.17125 11.9998 8.17125C14.1129 8.17125 15.8259 9.8842 15.8259 11.9973Z" fill="#D80027"/>
<path d="M15.8259 11.9973C15.8259 14.1104 14.1129 15.8234 11.9998 15.8234C9.88674 15.8234 8.17375 14.1104 8.17375 11.9973" fill="#0052B4"/>
<path d="M16.055 15.3793L17.0694 14.3649L17.7456 15.0412L16.7312 16.0556L16.055 15.3793Z" fill="black"/>
<path d="M14.3638 17.07L15.3782 16.0556L16.0545 16.7319L15.0401 17.7463L14.3638 17.07Z" fill="black"/>
<path d="M18.0839 17.408L19.0983 16.3936L19.7746 17.0699L18.7602 18.0842L18.0839 17.408Z" fill="black"/>
<path d="M16.3928 19.0989L17.4072 18.0846L18.0835 18.7608L17.0691 19.7752L16.3928 19.0989Z" fill="black"/>
<path d="M17.0694 16.3937L18.0838 15.3793L18.76 16.0556L17.7457 17.07L17.0694 16.3937Z" fill="black"/>
<path d="M15.3787 18.0844L16.3931 17.07L17.0694 17.7463L16.055 18.7607L15.3787 18.0844Z" fill="black"/>
<path d="M18.0884 8.61719L15.3834 5.91216L16.0596 5.23589L18.7646 7.94092L18.0884 8.61719Z" fill="black"/>
<path d="M15.3828 7.9412L14.3685 6.92682L15.0447 6.25059L16.0591 7.26497L15.3828 7.9412Z" fill="black"/>
<path d="M17.0735 9.63227L16.0591 8.61788L16.7353 7.94165L17.7497 8.95603L17.0735 9.63227Z" fill="black"/>
<path d="M17.4114 5.91207L16.397 4.89769L17.0733 4.22142L18.0877 5.23581L17.4114 5.91207Z" fill="black"/>
<path d="M19.103 7.60334L18.0886 6.58896L18.7649 5.9127L19.7793 6.92708L19.103 7.60334Z" fill="black"/>
<path d="M4.89942 16.3918L7.60445 19.0968L6.92819 19.7731L4.22316 17.0681L4.89942 16.3918Z" fill="black"/>
<path d="M7.60431 17.0675L8.61869 18.0819L7.94246 18.7582L6.92807 17.7438L7.60431 17.0675Z" fill="black"/>
<path d="M5.91351 15.3772L6.92789 16.3916L6.25163 17.0679L5.23725 16.0535L5.91351 15.3772Z" fill="black"/>
<path d="M6.92802 14.3625L9.63305 17.0676L8.95679 17.7438L6.25176 15.0388L6.92802 14.3625Z" fill="black"/>
<path d="M7.60417 4.89559L4.89914 7.60062L4.22287 6.92436L6.9279 4.21933L7.60417 4.89559Z" fill="black"/>
<path d="M8.61856 5.90986L5.91353 8.61489L5.23726 7.93863L7.94229 5.2336L8.61856 5.90986Z" fill="black"/>
<path d="M9.63389 6.92486L6.92886 9.62989L6.25263 8.95366L8.95766 6.24863L9.63389 6.92486Z" fill="black"/>
</svg>
