<svg width="24" height="24" viewBox="0 0 24 24" fill="none" xmlns="http://www.w3.org/2000/svg">
<path d="M12 22.9973C18.0751 22.9973 23 18.0724 23 11.9973C23 5.92218 18.0751 0.997314 12 0.997314C5.92491 0.997314 1.00006 5.92218 1.00006 11.9973C1.00006 18.0724 5.92491 22.9973 12 22.9973Z" fill="#F0F0F0"/>
<path d="M4.22181 19.7756C-0.0739368 15.4798 -0.0739368 8.51495 4.22181 4.21915C4.22151 4.21962 10.5652 11.9974 10.5652 11.9974L4.22181 19.7756Z" fill="black"/>
<path d="M10.5652 11.9974L2.45894 6.5194C2.20761 6.95626 1.98598 7.41225 1.79554 7.88422L5.89944 11.9974L1.79567 16.1108C1.98594 16.5824 2.20736 17.0381 2.45851 17.4747L10.5652 11.9974Z" fill="#FFDA44"/>
<path d="M22.9069 10.5626H10.5649L4.22181 4.21915C3.53826 4.9027 2.94431 5.67588 2.45894 6.5194L7.92622 11.9974L2.45851 17.4747C2.94388 18.3184 3.53809 19.0918 4.22181 19.7756L10.5649 13.4321H22.9069C22.968 12.9625 23 12.4836 23 11.9973C23 11.511 22.968 11.0322 22.9069 10.5626Z" fill="#6DA544"/>
<path d="M5.30281 20.7233C7.15772 22.1491 9.47966 22.9973 12 22.9973C17.0823 22.9973 21.3588 19.5504 22.621 14.8669H11.1592L5.30281 20.7233Z" fill="#0052B4"/>
<path d="M22.621 9.12777C21.3588 4.44435 17.0823 0.997314 12 0.997314C9.47966 0.997314 7.15772 1.8456 5.30281 3.27139L11.1592 9.12777H22.621Z" fill="#D80027"/>
</svg>
