<svg width="24" height="24" viewBox="0 0 24 24" fill="none" xmlns="http://www.w3.org/2000/svg">
<path d="M1.00049 11.9973C1.00049 13.3428 1.24253 14.6317 1.68468 15.8234L12.0005 16.7799L22.3163 15.8234C22.7584 14.6317 23.0005 13.3428 23.0005 11.9973C23.0005 10.6518 22.7584 9.36288 22.3163 8.17123L12.0005 7.21471L1.68468 8.17123C1.24253 9.36288 1.00049 10.6518 1.00049 11.9973Z" fill="#FFDA44"/>
<path d="M22.3163 8.17123C20.7621 3.98248 16.7301 0.997314 12.0005 0.997314C7.27087 0.997314 3.2389 3.98248 1.68468 8.17123H22.3163Z" fill="#D80027"/>
<path d="M1.68468 15.8234C3.2389 20.0121 7.27066 22.9973 12.0003 22.9973C16.7299 22.9973 20.7621 20.0121 22.3163 15.8234H1.68468Z" fill="#D80027"/>
</svg>
