<svg width="24" height="24" viewBox="0 0 24 24" fill="none" xmlns="http://www.w3.org/2000/svg">
<path d="M1.00004 2.91038L1 21.0843L1.00004 11.9974V2.91038Z" fill="#FF9811"/>
<path d="M12 22.9973C18.0751 22.9973 23 18.0724 23 11.9973C23 5.92218 18.0751 0.997314 12 0.997314C5.92487 0.997314 1.00004 5.92227 1.00004 11.9974C1.00004 18.0725 5.92487 22.9973 12 22.9973Z" fill="#FFDA44"/>
<path d="M9.60878 2.91038H5.80023C5.63145 3.02575 5.46628 3.14585 5.30441 3.27015L4.34788 11.9973L5.30441 20.7245C5.46628 20.8488 5.63145 20.9689 5.80023 21.0843H9.60878V2.91038Z" fill="#FF9811"/>
<path d="M1.00004 11.9974C1.00004 15.5529 2.68735 18.7137 5.30441 20.7245V3.27015C2.68735 5.28101 1.00004 8.44194 1.00004 11.9974Z" fill="#6DA544"/>
<path d="M18.6957 7.70321V7.97843L18.706 7.97998L18.6957 7.70321Z" fill="#FFDA44"/>
<path d="M22.1233 14.8669H20.0508L19.174 15.8234V17.7365H17.261V16.78H18.2175V14.8669H13.9131V16.0626H12.9566V13.7839C12.6631 13.5212 12.4783 13.1396 12.4783 12.7147V6.49733C12.4783 5.70494 13.1207 5.06256 13.9131 5.06256V13.9104H15.8262L16.4826 13.3634C16.3679 13.0903 16.3044 12.7904 16.3044 12.4756V11.0409H14.8696V8.17132H17.7392C17.7392 7.69307 18.4566 7.21479 18.4566 7.21479C18.4566 7.21479 19.174 7.69303 19.174 8.17132V11.0409C19.7061 11.0472 20.5515 11.0334 21.4648 11.0409C21.2248 10.6215 21.087 10.1239 21.087 9.60614C21.087 8.76218 21.4514 8.00344 22.0314 7.47836C21.1954 5.62575 19.8614 4.04613 18.1999 2.91038H11.0436V21.0843H18.2C20.2203 19.7033 21.7564 17.6661 22.5017 15.2797L22.1233 14.8669Z" fill="#A2001D"/>
</svg>
