<svg width="24" height="24" viewBox="0 0 24 24" fill="none" xmlns="http://www.w3.org/2000/svg">
<path d="M11.9999 22.9973C18.075 22.9973 22.9999 18.0724 22.9999 11.9973C22.9999 5.92218 18.075 0.997314 11.9999 0.997314C5.92475 0.997314 0.999878 5.92218 0.999878 11.9973C0.999878 18.0724 5.92475 22.9973 11.9999 22.9973Z" fill="#F0F0F0"/>
<path d="M20.6404 9.84509H17.0215C17.0215 9.18477 16.4862 8.64945 15.8259 8.64945L14.8693 10.5625C14.8693 10.5625 15.8897 13.4321 15.8577 13.4321H17.0534C17.7138 13.4321 18.249 12.8968 18.249 12.2364C18.9094 12.2364 19.4447 11.7011 19.4447 11.0408H19.4049C20.0652 11.0407 20.6404 10.5055 20.6404 9.84509Z" fill="#ACABB1"/>
<path d="M3.3593 9.84514H6.97814C6.97814 9.18481 7.51345 8.6495 8.17378 8.6495L9.13031 10.5625C9.13031 10.5625 8.11 13.4321 8.14191 13.4321H6.94627C6.2859 13.4321 5.75063 12.8968 5.75063 12.2365C5.09026 12.2365 4.55499 11.7012 4.55499 11.0408H4.59481C3.93444 11.0408 3.3593 10.5055 3.3593 9.84514Z" fill="#ACABB1"/>
<path d="M15.8259 16.3016V16.7799H8.17377V16.3016H6.26073V18.2147H8.17377V18.6929H15.8259V18.2147H17.739V16.3016H15.8259Z" fill="#FFDA44"/>
<path d="M8.17378 8.6495L8.17376 13.432C8.17376 16.3607 11.9998 17.2581 11.9998 17.2581C11.9998 17.2581 15.8259 16.3607 15.8259 13.432L15.8259 8.64945L11.9998 8.1712L8.17378 8.6495Z" fill="#0052B4"/>
<path d="M8.1738 10.5627H15.8259L15.8259 13.432H8.17376L8.1738 10.5627Z" fill="#D80027"/>
<path d="M13.9129 6.25817V6.97556L13.4346 7.21471L12.9564 6.73642V5.30163H11.0433V6.73642L10.5651 7.21471L10.0868 6.97556V6.25817H8.17376L8.17378 8.6495L15.8259 8.64945L15.8259 6.25817H13.9129Z" fill="#FFDA44"/>
</svg>
