<svg width="24" height="24" viewBox="0 0 24 24" fill="none" xmlns="http://www.w3.org/2000/svg">
<path d="M17.2608 2.3348C15.6979 1.48213 13.9055 0.997314 11.9998 0.997314C10.0942 0.997314 8.30175 1.48213 6.73892 2.3348L5.78238 11.9973L6.73892 21.6598C8.30175 22.5125 10.0942 22.9973 11.9998 22.9973C13.9055 22.9973 15.6979 22.5125 17.2608 21.6598L18.2173 11.9973L17.2608 2.3348Z" fill="#FFDA44"/>
<path d="M6.73892 21.6598V2.3348C3.31961 4.20051 0.999756 7.82784 0.999756 11.9973C0.999756 16.1668 3.31961 19.7943 6.73892 21.6598Z" fill="#338AF3"/>
<path d="M22.9998 11.9974C22.9998 7.82788 20.6801 4.20051 17.2608 2.3348V21.6598C20.6801 19.7943 22.9998 16.1668 22.9998 11.9974Z" fill="#6DA544"/>
<path d="M9.60836 14.8669L7.69524 11.9974L9.60831 9.12777L11.5215 11.9974L9.60836 14.8669Z" fill="#6DA544"/>
<path d="M14.391 14.8669L12.4779 11.9974L14.391 9.12777L16.3041 11.9974L14.391 14.8669Z" fill="#6DA544"/>
<path d="M11.9997 18.693L10.0866 15.8234L11.9997 12.9539L13.9127 15.8234L11.9997 18.693Z" fill="#6DA544"/>
</svg>
