<svg width="24" height="24" viewBox="0 0 24 24" fill="none" xmlns="http://www.w3.org/2000/svg">
<path d="M2.09115 7.21472C1.39187 8.66088 0.999655 10.2833 0.999655 11.9973C0.999655 13.7114 1.39187 15.3338 2.09115 16.7799L11.9996 17.7364L21.9081 16.7799C22.6074 15.3338 22.9996 13.7114 22.9996 11.9973C22.9996 10.2833 22.6074 8.66088 21.9081 7.21472L11.9996 6.2582L2.09115 7.21472Z" fill="#F0F0F0"/>
<path d="M2.09115 16.7799C3.87031 20.4594 7.63857 22.9973 11.9996 22.9973C16.3607 22.9973 20.129 20.4594 21.9081 16.7799H2.09115Z" fill="black"/>
<path d="M2.09115 7.21472H21.9081C20.129 3.53527 16.3607 0.997314 11.9996 0.997314C7.63857 0.997314 3.87031 3.53527 2.09115 7.21472Z" fill="#D80027"/>
<path d="M4.22145 4.21911C-0.0743045 8.51487 -0.0743045 15.4797 4.22145 19.7755C5.99662 18.0004 7.70389 16.2931 11.9996 11.9973L4.22145 4.21911Z" fill="#496E2D"/>
</svg>
