<svg width="24" height="24" viewBox="0 0 24 24" fill="none" xmlns="http://www.w3.org/2000/svg">
<path d="M11.9996 22.9973C18.0748 22.9973 22.9996 18.0724 22.9996 11.9973C22.9996 5.92218 18.0748 0.997314 11.9996 0.997314C5.9245 0.997314 0.999634 5.92218 0.999634 11.9973C0.999634 18.0724 5.9245 22.9973 11.9996 22.9973Z" fill="#F0F0F0"/>
<path d="M22.3154 8.17125H1.68378C1.24168 9.36294 0.999634 10.6518 0.999634 11.9973C0.999634 13.3428 1.24168 14.6318 1.68378 15.8234H22.3154C22.7576 14.6318 22.9996 13.3428 22.9996 11.9973C22.9996 10.6518 22.7576 9.36294 22.3154 8.17125Z" fill="#A2001D"/>
<path d="M12.0313 22.9973C15.7988 22.9973 19.1236 21.1027 21.1061 18.2147H2.95647C4.93896 21.1027 8.26363 22.9973 12.0313 22.9973Z" fill="#6DA544"/>
<path d="M12.0315 0.997398C15.7991 0.997398 19.1238 2.89198 21.1063 5.77999H2.95668C4.93918 2.89198 8.26384 0.997398 12.0315 0.997398Z" fill="#6DA544"/>
<path d="M11.9996 8.17125L12.9493 11.094H16.0226L13.5363 12.9006L14.486 15.8234L11.9996 14.017L9.51325 15.8234L10.463 12.9006L7.97664 11.094H11.05L11.9996 8.17125Z" fill="#FFDA44"/>
</svg>
