<svg width="24" height="24" viewBox="0 0 24 24" fill="none" xmlns="http://www.w3.org/2000/svg">
<path d="M21.909 16.7799C22.6083 15.3338 23.0005 13.7113 23.0005 11.9973C23.0005 10.2833 22.6083 8.66083 21.909 7.21472L12.0005 6.73643L2.09198 7.21468C1.39271 8.66083 1.00049 10.2833 1.00049 11.9973C1.00049 13.7113 1.39271 15.3338 2.09198 16.7799L12.0005 17.2582L21.909 16.7799Z" fill="#FFDA44"/>
<path d="M12.0005 0.997314C7.63942 0.997314 3.87123 3.53522 2.09198 7.21468L21.909 7.21472C20.1298 3.53526 16.3615 0.997314 12.0005 0.997314Z" fill="black"/>
<path d="M12.0005 22.9973C7.63942 22.9973 3.87123 20.4594 2.09198 16.7799H21.909C20.1298 20.4594 16.3615 22.9973 12.0005 22.9973Z" fill="#0052B4"/>
<path d="M22.481 8.64949H1.51994C1.18298 9.70519 1.00049 10.8299 1.00049 11.9973C1.00049 13.1647 1.18298 14.2894 1.51994 15.3451H22.481C22.818 14.2894 23.0005 13.1647 23.0005 11.9973C23.0005 10.8299 22.818 9.70519 22.481 8.64949Z" fill="#A2001D"/>
<path d="M4.82658 11.5191H19.1744V12.4757H4.82658V11.5191Z" fill="#FFDA44"/>
<path d="M6.73964 9.60607H17.2614V10.5626H6.73964V9.60607Z" fill="#FFDA44"/>
<path d="M17.3297 11.9973C17.3297 11.9973 14.87 14.8669 12.0005 14.8669C9.13095 14.8669 9.13091 11.9973 9.13091 11.9973C9.13091 11.9973 9.13091 9.12773 12.0005 9.12773C14.8701 9.12773 17.3297 11.9973 17.3297 11.9973Z" fill="#F0F0F0"/>
<path d="M12.0005 14.8669C9.13091 14.8669 6.67129 11.9973 6.67129 11.9973C6.67129 11.9973 9.13091 9.12773 12.0005 9.12773" fill="black"/>
<path d="M10.0874 11.0408H11.044V12.9538H10.0874V11.0408Z" fill="#F0F0F0"/>
<path d="M12.957 11.0408H13.9135V12.9538H12.957V11.0408Z" fill="black"/>
<path d="M4.82655 12.9538C5.35483 12.9538 5.78308 12.5256 5.78308 11.9973C5.78308 11.469 5.35483 11.0408 4.82655 11.0408C4.29828 11.0408 3.87003 11.469 3.87003 11.9973C3.87003 12.5256 4.29828 12.9538 4.82655 12.9538Z" fill="#0052B4"/>
<path d="M19.1744 12.9538C19.7027 12.9538 20.131 12.5255 20.131 11.9973C20.131 11.469 19.7027 11.0407 19.1744 11.0407C18.6462 11.0407 18.2179 11.469 18.2179 11.9973C18.2179 12.5255 18.6462 12.9538 19.1744 12.9538Z" fill="#0052B4"/>
</svg>
