<svg width="24" height="24" viewBox="0 0 24 24" fill="none" xmlns="http://www.w3.org/2000/svg">
<path d="M12.0002 22.9973C18.0754 22.9973 23.0002 18.0724 23.0002 11.9973C23.0002 5.92218 18.0754 0.997314 12.0002 0.997314C5.92511 0.997314 1.00024 5.92218 1.00024 11.9973C1.00024 18.0724 5.92511 22.9973 12.0002 22.9973Z" fill="#FFDA44"/>
<path d="M9.60891 10.5625H22.9071C22.204 5.16537 17.5891 0.997314 12.0002 0.997314C11.1789 0.997314 10.3788 1.08811 9.60887 1.25878L9.60891 10.5625Z" fill="#0052B4"/>
<path d="M6.73929 10.5625V2.3348C3.71884 3.98282 1.55661 7.00572 1.09328 10.5625L6.73929 10.5625Z" fill="#0052B4"/>
<path d="M6.73924 13.4321H1.09328C1.55661 16.9889 3.71884 20.0118 6.73929 21.6598L6.73924 13.4321Z" fill="#0052B4"/>
<path d="M9.60887 13.4321V22.7359C10.3788 22.9065 11.1789 22.9973 12.0002 22.9973C17.5891 22.9973 22.204 18.8293 22.9071 13.4321L9.60887 13.4321Z" fill="#0052B4"/>
</svg>
