<svg width="24" height="24" viewBox="0 0 24 24" fill="none" xmlns="http://www.w3.org/2000/svg">
<path d="M12.0002 22.9973C18.0754 22.9973 23.0002 18.0724 23.0002 11.9973C23.0002 5.92218 18.0754 0.997314 12.0002 0.997314C5.92511 0.997314 1.00024 5.92218 1.00024 11.9973C1.00024 18.0724 5.92511 22.9973 12.0002 22.9973Z" fill="#F0F0F0"/>
<path d="M12.0002 0.997314C7.27063 0.997314 3.23866 3.98244 1.68443 8.17125H22.3161C20.7618 3.98244 16.7299 0.997314 12.0002 0.997314Z" fill="#D80027"/>
<path d="M12.0002 22.9973C16.7299 22.9973 20.7618 20.0122 22.3161 15.8234H1.68443C3.23866 20.0122 7.27063 22.9973 12.0002 22.9973Z" fill="black"/>
<path d="M7.57283 9.36689L8.16636 11.1936H10.0872L8.53323 12.3227L9.1268 14.1495L7.57283 13.0205L6.01887 14.1495L6.61244 12.3227L5.05847 11.1936H6.9793L7.57283 9.36689Z" fill="#6DA544"/>
<path d="M16.4278 9.36684L17.0213 11.1935H18.9422L17.3882 12.3227L17.9817 14.1494L16.4278 13.0204L14.8738 14.1494L15.4674 12.3227L13.9134 11.1935H15.8343L16.4278 9.36684Z" fill="#6DA544"/>
</svg>
