<svg width="24" height="24" viewBox="0 0 24 24" fill="none" xmlns="http://www.w3.org/2000/svg">
<path d="M23 11.9973C23 18.0724 18.0751 22.9973 12 22.9973C5.92491 22.9973 1 18.0724 1 11.9973C4.77824 8.21907 7.98259 5.01472 12 0.997314C18.0751 0.997314 23 5.92222 23 11.9973Z" fill="#D80027"/>
<path d="M12 11.9973C12 5.92222 12 5.20602 12 0.997314C5.92491 0.997314 1 5.92222 1 11.9973H12Z" fill="#0052B4"/>
<path d="M10.5652 7.43493L9.22178 8.06692L9.93713 9.36797L8.47838 9.08884L8.29349 10.5625L7.27745 9.4787L6.26132 10.5625L6.07651 9.08884L4.61773 9.36788L5.33307 8.06683L3.98969 7.43493L5.33311 6.80308L4.61773 5.50198L6.07647 5.78106L6.26137 4.30741L7.27745 5.39125L8.29353 4.30741L8.47838 5.78106L9.93717 5.50198L9.22178 6.80312L10.5652 7.43493Z" fill="#F0F0F0"/>
<path d="M7.27761 9.48231C8.40846 9.48231 9.3252 8.56558 9.3252 7.43472C9.3252 6.30387 8.40846 5.38713 7.27761 5.38713C6.14676 5.38713 5.23002 6.30387 5.23002 7.43472C5.23002 8.56558 6.14676 9.48231 7.27761 9.48231Z" fill="#0052B4"/>
<path d="M7.27745 8.526C6.67584 8.526 6.18643 8.03654 6.18643 7.43493C6.18643 6.83333 6.67589 6.34387 7.27745 6.34387C7.87905 6.34387 8.36851 6.83333 8.36851 7.43493C8.36847 8.03654 7.87897 8.526 7.27745 8.526Z" fill="#F0F0F0"/>
</svg>
