<svg width="24" height="24" viewBox="0 0 24 24" fill="none" xmlns="http://www.w3.org/2000/svg">
<path d="M2.09131 7.21472C1.39204 8.66088 0.999817 10.2833 0.999817 11.9973C0.999817 13.7113 1.39204 15.3338 2.09131 16.7799L11.9998 17.7364L21.9083 16.7799C22.6076 15.3338 22.9998 13.7113 22.9998 11.9973C22.9998 10.2833 22.6076 8.66088 21.9083 7.21472L11.9998 6.2582L2.09131 7.21472Z" fill="#F0F0F0"/>
<path d="M2.09131 16.7799C3.87052 20.4593 7.6388 22.9973 11.9998 22.9973C16.3608 22.9973 20.1292 20.4593 21.9083 16.7799H2.09131Z" fill="#6DA544"/>
<path d="M2.09131 7.21472H21.9083C20.1292 3.53531 16.3608 0.997314 11.9998 0.997314C7.6388 0.997314 3.87052 3.53531 2.09131 7.21472Z" fill="#D80027"/>
<path d="M10.0869 14.8669H13.913V13.2408L13.1478 13.6234L12 12.4756L10.8521 13.6234L10.0869 13.2408V14.8669Z" fill="#FFDA44"/>
<path d="M7.89783 12.9538L8.07593 13.5019H8.65215L8.18593 13.8406L8.36404 14.3886L7.89783 14.0499L7.43162 14.3886L7.60972 13.8406L7.14351 13.5019H7.71972L7.89783 12.9538Z" fill="#FFDA44"/>
<path d="M8.44994 11.0408L8.62804 11.5888H9.20426L8.73805 11.9275L8.91611 12.4756L8.44994 12.1369L7.98373 12.4756L8.16183 11.9275L7.69562 11.5888H8.27183L8.44994 11.0408Z" fill="#FFDA44"/>
<path d="M10.0283 9.60602L10.2064 10.154H10.7825L10.3164 10.4928L10.4944 11.0408L10.0283 10.7021L9.5621 11.0408L9.74016 10.4928L9.27395 10.154H9.8502L10.0283 9.60602Z" fill="#FFDA44"/>
<path d="M16.1021 12.9538L15.924 13.5019H15.3478L15.814 13.8406L15.6359 14.3886L16.1021 14.0499L16.5683 14.3886L16.3902 13.8406L16.8564 13.5019H16.2802L16.1021 12.9538Z" fill="#FFDA44"/>
<path d="M15.55 11.0408L15.3719 11.5888H14.7957L15.2619 11.9275L15.0838 12.4756L15.55 12.1369L16.0162 12.4756L15.8381 11.9275L16.3043 11.5888H15.7281L15.55 11.0408Z" fill="#FFDA44"/>
<path d="M13.9717 9.60602L13.7936 10.154H13.2174L13.6835 10.4928L13.5055 11.0408L13.9717 10.7021L14.4378 11.0408L14.2598 10.4928L14.7259 10.154H14.1497L13.9717 9.60602Z" fill="#FFDA44"/>
<path d="M12 8.88857L12.1781 9.43659H12.7543L12.2881 9.77531L12.4662 10.3233L12 9.98466L11.5337 10.3233L11.7119 9.77531L11.2456 9.43659H11.8219L12 8.88857Z" fill="#FFDA44"/>
</svg>
