<svg width="24" height="24" viewBox="0 0 24 24" fill="none" xmlns="http://www.w3.org/2000/svg">
<path d="M11.9996 22.9973C18.0748 22.9973 22.9996 18.0724 22.9996 11.9973C22.9996 5.92218 18.0748 0.997314 11.9996 0.997314C5.9245 0.997314 0.999634 5.92218 0.999634 11.9973C0.999634 18.0724 5.9245 22.9973 11.9996 22.9973Z" fill="#FFDA44"/>
<path d="M4.22143 19.7755C4.68287 20.237 5.1752 20.6485 5.69164 21.0108L21.013 5.68937C20.6508 5.17293 20.2392 4.68059 19.7778 4.21915C19.3163 3.75771 18.824 3.34624 18.3076 2.98393L2.98625 18.3053C3.34847 18.8216 3.76003 19.314 4.22143 19.7755Z" fill="black"/>
<path d="M4.22143 4.21912C0.751183 7.68944 0.0849525 12.9012 2.22149 17.0409L17.0432 2.21922C12.9035 0.0826869 7.69171 0.74896 4.22143 4.21912Z" fill="#6DA544"/>
<path d="M19.7778 19.7755C23.248 16.3053 23.9142 11.0935 21.7778 6.95373L6.95605 21.7755C11.0957 23.912 16.3075 23.2458 19.7778 19.7755Z" fill="#338AF3"/>
</svg>
