<svg width="24" height="24" viewBox="0 0 24 24" fill="none" xmlns="http://www.w3.org/2000/svg">
<path d="M12.0004 22.9973C18.0756 22.9973 23.0004 18.0724 23.0004 11.9973C23.0004 5.92218 18.0756 0.997314 12.0004 0.997314C5.92529 0.997314 1.00043 5.92218 1.00043 11.9973C1.00043 18.0724 5.92529 22.9973 12.0004 22.9973Z" fill="#F0F0F0"/>
<path d="M22.3162 8.17125H1.68462C1.24243 9.3629 1.00043 10.6518 1.00043 11.9973C1.00043 13.3428 1.24243 14.6317 1.68462 15.8234H22.3163C22.7584 14.6317 23.0004 13.3428 23.0004 11.9973C23.0004 10.6518 22.7584 9.3629 22.3162 8.17125Z" fill="#0052B4"/>
<path d="M12.0004 0.997314C8.66644 0.997314 5.67912 2.48077 3.66187 4.82338H20.3389C18.3217 2.48077 15.3344 0.997314 12.0004 0.997314Z" fill="#D80027"/>
<path d="M20.339 19.1713H3.66189C5.67914 21.5139 8.66644 22.9973 12.0004 22.9973C15.3344 22.9973 18.3217 21.5139 20.339 19.1713Z" fill="#D80027"/>
</svg>
