<svg width="24" height="24" viewBox="0 0 24 24" fill="none" xmlns="http://www.w3.org/2000/svg">
<path d="M12.0003 22.9973C18.0754 22.9973 23.0003 18.0724 23.0003 11.9973C23.0003 5.92218 18.0754 0.997314 12.0003 0.997314C5.92517 0.997314 1.00031 5.92218 1.00031 11.9973C1.00031 18.0724 5.92517 22.9973 12.0003 22.9973Z" fill="#F0F0F0"/>
<path d="M5.80047 2.91037C7.56584 1.70355 9.70045 0.997314 12.0003 0.997314C14.3002 0.997314 16.4348 1.70355 18.2001 2.91037L12.0003 3.38861L5.80047 2.91037Z" fill="#FFDA44"/>
<path d="M4.2227 19.7749L9.29482 14.7029L12.0003 10.0843L14.7055 14.7026L19.7779 19.7749C21.7687 17.7844 23.0003 15.0349 23.0003 11.9973C23.0003 8.22204 21.0981 4.89136 18.2001 2.91037H5.80047C2.90248 4.89136 1.00031 8.22204 1.00031 11.9973C1.00031 15.0349 2.23196 17.7844 4.2227 19.7749Z" fill="#D80027"/>
<path d="M22.1645 16.2092L14.122 12.8767L14.7055 14.7026L19.7779 19.7749C20.7908 18.7622 21.6069 17.553 22.1645 16.2092Z" fill="#0052B4"/>
<path d="M23.0003 11.9973C23.0003 10.5052 22.7027 9.08283 22.1645 7.78556L12.0001 11.9974L23.0003 11.9973Z" fill="#0052B4"/>
<path d="M19.7777 4.2198C19.2942 3.7364 18.7664 3.29747 18.2001 2.91037L15.7656 2.91045L12.0001 11.9974L19.7777 4.2198Z" fill="#0052B4"/>
<path d="M12.0001 2.91045H8.23472L12.0001 11.9974L12.0001 2.91045Z" fill="#0052B4"/>
<path d="M4.22252 4.21979C3.20966 5.23257 2.39338 6.44175 1.83582 7.78551L12.0001 11.9974L4.22252 4.21979Z" fill="#0052B4"/>
<path d="M1.00031 11.9973C1.00031 13.4894 1.29751 14.912 1.83578 16.2092L12.0001 11.9974L1.00031 11.9973Z" fill="#0052B4"/>
<path d="M5.80046 21.0842C7.56579 22.291 9.70045 22.9973 12.0003 22.9973C14.3002 22.9973 16.4348 22.291 18.2001 21.0842H5.80046Z" fill="#FFDA44"/>
<path d="M12.0001 11.9974L14.7055 14.7026C15.3979 14.0102 15.8264 13.0538 15.8264 11.9973C15.8264 9.88416 14.1134 8.17121 12.0003 8.17121C9.88726 8.17121 8.17422 9.88416 8.17422 11.9973C8.17422 13.0538 8.60238 14.0105 9.29482 14.7029L12.0001 11.9974Z" fill="#FFDA44"/>
<path d="M13.6742 17.4973C13.6742 18.4217 12.9247 18.6929 12.0003 18.6929C11.0759 18.6929 10.3264 18.4217 10.3264 17.4973C10.3264 16.5728 11.0759 15.8233 12.0003 15.8233C12.9247 15.8233 13.6742 16.5728 13.6742 17.4973Z" fill="#FFDA44"/>
<path d="M13.6742 17.4973C13.6742 18.4217 12.9247 19.1712 12.0003 19.1712C11.0759 19.1712 10.3264 18.4217 10.3264 17.4973" fill="#0052B4"/>
</svg>
