<svg width="24" height="24" viewBox="0 0 24 24" fill="none" xmlns="http://www.w3.org/2000/svg">
<path d="M12 22.9973C18.0751 22.9973 23 18.0724 23 11.9973C23 5.92218 18.0751 0.997314 12 0.997314C5.92487 0.997314 1 5.92218 1 11.9973C1 18.0724 5.92487 22.9973 12 22.9973Z" fill="#FFDA44"/>
<path d="M12 0.997314C11.992 0.9974 11.522 5.3974 11.522 5.3974H20.8008C18.7939 2.72573 15.5987 0.997314 12 0.997314Z" fill="#496E2D"/>
<path d="M12 22.9973C15.5987 22.9973 18.7939 21.2691 20.8008 18.5974H3.19981C5.20662 21.2691 8.40128 22.9973 12 22.9973Z" fill="#496E2D"/>
<path d="M22.78 9.7974H11.522L12.0003 14.1974H22.78C22.9244 13.4866 23 12.7508 23 11.9973C23 11.2439 22.9243 10.5082 22.78 9.7974Z" fill="#496E2D"/>
<path d="M12.0003 14.1974C12.0003 11.9018 12 3.57991 12 0.997314C5.92487 0.997314 1 5.92218 1 11.9973C1 12.7508 1.07597 13.4865 1.22026 14.1973L12.0003 14.1974Z" fill="#D80027"/>
<path d="M7.06975 6.25824L7.782 8.45029H10.0871L8.22235 9.80522L8.93451 11.9974L7.06975 10.6426L5.205 11.9974L5.91729 9.80522L4.05257 8.45029H6.35755L7.06975 6.25824Z" fill="#F0F0F0"/>
</svg>
