<svg width="24" height="24" viewBox="0 0 24 24" fill="none" xmlns="http://www.w3.org/2000/svg">
<path d="M12 22.9973C18.0751 22.9973 23 18.0724 23 11.9973C23 5.92218 18.0751 0.997314 12 0.997314C5.92487 0.997314 1 5.92218 1 11.9973C1 18.0724 5.92487 22.9973 12 22.9973Z" fill="#FFDA44"/>
<path d="M18.6956 6.25819C18.597 6.73235 18.5522 7.23736 18.5522 7.74079C18.5522 10.6426 20.2821 13.1542 22.7611 14.2848C22.9172 13.5468 23 12.7818 23 11.9973C23 5.92218 18.0751 0.997314 12 0.997314C5.92487 0.997314 1 5.92218 1 11.9973C1 18.0724 5.92487 22.9973 12 22.9973C15.7676 22.9973 19.0923 21.1027 21.0748 18.2147H7.21741V16.78H21.9085C22.0589 16.469 22.1947 16.1498 22.3159 15.8234H7.21741L18.6956 6.25819Z" fill="#0052B4"/>
<path d="M9.08105 6.73658L9.3185 7.46731H10.0868L9.46523 7.91896L9.70268 8.64964L9.08105 8.19808L8.45951 8.64964L8.69691 7.91896L8.07528 7.46731H8.84361L9.08105 6.73658Z" fill="#F0F0F0"/>
<path d="M5.96006 11.9975L6.25689 12.9109H7.21724L6.44023 13.4753L6.73706 14.3888L5.96006 13.8242L5.1831 14.3888L5.47988 13.4753L4.70292 12.9109H5.66327L5.96006 11.9975Z" fill="#F0F0F0"/>
<path d="M5.96006 4.34528L6.25689 5.25876H7.21724L6.44023 5.82315L6.73706 6.73658L5.96006 6.17206L5.1831 6.73658L5.47988 5.82315L4.70292 5.25876H5.66327L5.96006 4.34528Z" fill="#F0F0F0"/>
<path d="M3.56876 8.64964L3.86559 9.56311H4.8259L4.04894 10.1275L4.34577 11.0409L3.56876 10.4764L2.7918 11.0409L3.08859 10.1275L2.31163 9.56311H3.27194L3.56876 8.64964Z" fill="#F0F0F0"/>
</svg>
