<svg width="24" height="24" viewBox="0 0 24 24" fill="none" xmlns="http://www.w3.org/2000/svg">
<path d="M12 22.9973C18.0751 22.9973 23 18.0724 23 11.9973C23 5.92218 18.0751 0.997314 12 0.997314C5.92487 0.997314 1 5.92218 1 11.9973C1 18.0724 5.92487 22.9973 12 22.9973Z" fill="#F0F0F0"/>
<path d="M8.17375 6.73644V5.30167H6.73894V6.73644H5.30417V8.17125H6.73894V9.60602H8.17375V8.17125H9.60852V6.73644H8.17375Z" fill="#D80027"/>
<path d="M12 0.997314V11.9973C5.92491 11.9974 3.51045 11.9973 1 11.9973C1 18.0724 5.92487 22.9973 12 22.9973C18.0751 22.9973 23 18.0724 23 11.9973C23 5.92218 18.0751 0.997314 12 0.997314Z" fill="#D80027"/>
</svg>
