<svg width="24" height="24" viewBox="0 0 24 24" fill="none" xmlns="http://www.w3.org/2000/svg">
<path d="M22.6207 9.12772C21.3584 4.4443 17.0819 0.997314 11.9996 0.997314C6.91733 0.997314 2.64082 4.4443 1.37857 9.12772L11.9996 9.606L22.6207 9.12772Z" fill="#A2001D"/>
<path d="M1.37852 14.8669C2.64077 19.5503 6.91727 22.9973 11.9996 22.9973C17.0819 22.9973 21.3584 19.5503 22.6206 14.8669L11.9996 14.3886L1.37852 14.8669Z" fill="#A2001D"/>
<path d="M22.6207 9.12772H1.37857C1.13198 10.0426 0.999634 11.0044 0.999634 11.9973C0.999634 12.9902 1.13192 13.952 1.37852 14.8669H22.6206C22.8672 13.952 22.9996 12.9902 22.9996 11.9973C22.9996 11.0044 22.8673 10.0426 22.6207 9.12772Z" fill="#6DA544"/>
</svg>
