<svg width="24" height="24" viewBox="0 0 24 24" fill="none" xmlns="http://www.w3.org/2000/svg">
<path d="M6.95664 2.21874C5.97188 2.72702 5.0475 3.39325 4.22198 4.21876C3.39643 5.04432 2.7302 5.96871 2.22196 6.95346L9.29491 14.7028L17.0443 21.7758C18.0291 21.2675 18.9534 20.6013 19.779 19.7758C20.6045 18.9502 21.2707 18.0259 21.779 17.0411L14.706 9.29169L6.95664 2.21874Z" fill="#F0F0F0"/>
<path d="M19.779 19.7758C20.2404 19.3144 20.652 18.822 21.0143 18.3055L5.69228 2.9835C5.17584 3.34577 4.68342 3.75732 4.22198 4.21876C3.76054 4.6802 3.34903 5.17259 2.98672 5.68907L18.3087 21.011C18.8251 20.6488 19.3175 20.2372 19.779 19.7758Z" fill="black"/>
<path d="M4.22191 19.7758C7.69236 23.2463 12.9044 23.9124 17.0443 21.7758L2.22196 6.95346C0.0853478 11.0933 0.751634 16.3054 4.22191 19.7758Z" fill="#D80027"/>
<path d="M19.7789 4.21883C16.3085 0.748425 11.0965 0.0822098 6.95664 2.21874L21.779 17.0411C23.9156 12.9012 23.2494 7.68924 19.7789 4.21883Z" fill="#D80027"/>
</svg>
