<svg width="24" height="24" viewBox="0 0 24 24" fill="none" xmlns="http://www.w3.org/2000/svg">
<path d="M12 22.9976C18.0751 22.9976 23 18.0727 23 11.9976C23 5.92243 18.0751 0.997559 12 0.997559C5.92487 0.997559 1 5.92243 1 11.9976C1 18.0727 5.92487 22.9976 12 22.9976Z" fill="#D80027"/>
<path d="M12 17.2584C14.9055 17.2584 17.2608 14.9031 17.2608 11.9976C17.2608 9.09205 14.9055 6.73668 12 6.73668C9.09446 6.73668 6.73909 9.09205 6.73909 11.9976C6.73909 14.9031 9.09446 17.2584 12 17.2584Z" fill="#F0F0F0"/>
<path d="M12.6479 9.98612L13.5505 11.2298L15.0121 10.7559L14.1082 11.9986L15.0106 13.2422L13.5494 12.7665L12.6455 14.0092L12.6464 12.4725L11.1853 11.9968L12.647 11.5229L12.6479 9.98612Z" fill="#D80027"/>
<path d="M13.1956 15.1063C11.4788 15.1063 10.0869 13.7144 10.0869 11.9976C10.0869 10.2807 11.4788 8.88886 13.1956 8.88886C13.7309 8.88886 14.2346 9.02421 14.6744 9.26251C13.9845 8.58786 13.0411 8.17145 12 8.17145C9.88694 8.17145 8.1739 9.88444 8.1739 11.9975C8.1739 14.1106 9.88694 15.8236 12 15.8236C13.0411 15.8236 13.9846 15.4072 14.6744 14.7325C14.2346 14.9709 13.7309 15.1063 13.1956 15.1063Z" fill="#D80027"/>
</svg>
