<svg width="24" height="24" viewBox="0 0 24 24" fill="none" xmlns="http://www.w3.org/2000/svg">
<path d="M23.0004 11.9976C23.0004 18.0727 18.0755 22.9976 12.0004 22.9976C5.92533 22.9976 1.00043 18.0727 1.00043 11.9976C1.00043 12.0002 12.0004 0.998762 12.0004 0.997559C18.0755 0.997559 23.0004 5.92246 23.0004 11.9976Z" fill="#0052B4"/>
<path d="M11.971 11.9976H12.0004C12.0004 11.9878 12.0004 11.9781 12.0004 11.9682C11.9906 11.978 11.9808 11.9878 11.971 11.9976Z" fill="#F0F0F0"/>
<path d="M12.0004 6.73668C12.0004 4.80115 12.0004 3.53293 12.0004 0.997559C11.9997 0.997559 11.9992 0.997643 11.9985 0.997643C5.92423 0.998674 1.00043 5.92302 1.00043 11.9976H6.73955V8.76584L9.97127 11.9976L11.971 11.9976C11.9808 11.9878 11.9906 11.978 12.0004 11.9682C12.0004 11.2271 12.0005 10.5658 12.0005 9.96849L8.76866 6.73668H12.0004Z" fill="#F0F0F0"/>
<path d="M6.56553 2.43233C4.8451 3.41198 3.4148 4.84224 2.4352 6.56266V11.9976H5.30478V5.302L12.0004 5.30192C12.0004 4.39686 12.0004 3.53465 12.0004 2.43233H6.56553Z" fill="#D80027"/>
<path d="M12.0006 10.645L8.09242 6.73683H6.73976L12.0004 11.9976C12.0004 11.9976 12.0006 11.0649 12.0006 10.645Z" fill="#D80027"/>
<path d="M13.4352 6.73668V11.9975C13.4352 14.5602 16.783 15.3454 16.783 15.3454C16.783 15.3454 20.1308 14.5602 20.1308 11.9975V6.73668H13.4352Z" fill="#FFDA44"/>
<path d="M16.3048 8.64973C16.3048 9.17803 15.8766 10.5628 15.3483 10.5628C14.82 10.5628 14.3917 9.17803 14.3917 8.64973C14.3917 8.12143 15.3483 7.6932 15.3483 7.6932C15.3483 7.6932 16.3048 8.12143 16.3048 8.64973Z" fill="#FF9811"/>
<path d="M18.843 9.69151C18.9973 9.31489 19.1174 8.76437 19.1174 8.49032C19.1174 8.05006 18.5435 7.6932 18.5435 7.6932C18.5435 7.6932 17.9695 8.0501 17.9695 8.49032C17.9695 8.76437 18.0896 9.31489 18.2439 9.69151L17.9126 10.4396C18.1073 10.5187 18.3202 10.5627 18.5434 10.5627C18.7666 10.5627 18.9795 10.5187 19.1742 10.4396L18.843 9.69151Z" fill="#A2001D"/>
<path d="M16.0657 11.9976C16.0657 11.9976 15.5874 12.9541 15.5874 13.9106H17.9787C17.9787 12.9541 17.5004 11.9976 17.5004 11.9976L16.783 11.5193L16.0657 11.9976Z" fill="#6DA544"/>
<path d="M17.5004 11.9976L17.5004 11.7584C17.5004 11.3623 17.1792 11.041 16.783 11.041C16.3868 11.041 16.0656 11.3622 16.0656 11.7584L16.0657 11.9976H17.5004Z" fill="#D80027"/>
</svg>
