<svg width="24" height="24" viewBox="0 0 24 24" fill="none" xmlns="http://www.w3.org/2000/svg">
<path d="M12 22.9976C18.0751 22.9976 23 18.0727 23 11.9976C23 5.92243 18.0751 0.997559 12 0.997559C5.92487 0.997559 1 5.92243 1 11.9976C1 18.0727 5.92487 22.9976 12 22.9976Z" fill="#D80027"/>
<path d="M11.5493 9.98598L12.4519 11.2297L13.9136 10.7558L13.0096 11.9984L13.912 13.2421L12.4509 12.7664L11.5469 14.009L11.5479 12.4724L10.0867 11.9967L11.5484 11.5227L11.5493 9.98598Z" fill="#F0F0F0"/>
<path d="M9.08629 15.1063C7.36943 15.1063 5.97758 13.7145 5.97758 11.9976C5.97758 10.2807 7.36943 8.8889 9.08629 8.8889C9.62159 8.8889 10.1253 9.02429 10.565 9.26256C9.87515 8.58786 8.93169 8.17149 7.89064 8.17149C5.77752 8.17149 4.06457 9.88449 4.06457 11.9976C4.06457 14.1106 5.77756 15.8236 7.89064 15.8236C8.93177 15.8236 9.87519 15.4072 10.565 14.7326C10.1253 14.9709 9.62159 15.1063 9.08629 15.1063Z" fill="#F0F0F0"/>
</svg>
