<svg width="24" height="24" viewBox="0 0 24 24" fill="none" xmlns="http://www.w3.org/2000/svg">
<path d="M11.9998 0.997559C11.1785 0.997559 10.3785 1.08835 9.60857 1.25902L9.13032 11.9975L9.60857 22.736C10.3785 22.9067 11.1786 22.9976 11.9998 22.9976C18.075 22.9976 22.9999 18.0727 22.9999 11.9975C22.9998 5.92242 18.075 0.997559 11.9998 0.997559Z" fill="#496E2D"/>
<path d="M3.86943 4.5885C2.08691 6.54341 0.999878 9.14345 0.999878 11.9975C0.999878 14.8516 2.08695 17.4516 3.86947 19.4066L4.34772 11.9975L3.86943 4.5885Z" fill="#496E2D"/>
<path d="M17.0879 9.29482C17.6291 7.78636 17.0211 6.14577 15.7163 5.32868C15.951 5.35923 16.1859 5.41449 16.4178 5.49763C18.1582 6.12206 19.0628 8.03898 18.4384 9.7793C17.814 11.5197 15.8971 12.4243 14.1567 11.7999C13.9248 11.7167 13.7083 11.6099 13.5077 11.4843C15.0344 11.6832 16.5468 10.8033 17.0879 9.29482Z" fill="#F0F0F0"/>
<path d="M14.0863 4.91519L13.616 5.52285L12.8928 5.26337L13.3254 5.89836L12.8552 6.50594L13.5927 6.29083L14.0253 6.92574L14.0485 6.1578L14.7861 5.94266L14.063 5.68326L14.0863 4.91519Z" fill="#F0F0F0"/>
<path d="M15.3561 6.89515L14.8858 7.50277L14.1626 7.24328L14.5952 7.87828L14.1249 8.48586L14.8625 8.27067L15.2951 8.9057L15.3184 8.13772L16.056 7.92253L15.3328 7.66309L15.3561 6.89515Z" fill="#F0F0F0"/>
<path d="M11.8474 5.63629L11.3771 6.24387L10.654 5.98447L11.0866 6.61942L10.6163 7.22704L11.3538 7.01189L11.7864 7.64684L11.8097 6.8789L12.5473 6.66376L11.8242 6.40427L11.8474 5.63629Z" fill="#F0F0F0"/>
<path d="M11.7958 7.90427L11.3256 8.51189L10.6024 8.25244L11.035 8.88743L10.5647 9.49501L11.3023 9.27991L11.7349 9.91482L11.7582 9.14688L12.4958 8.93174L11.7726 8.67225L11.7958 7.90427Z" fill="#F0F0F0"/>
<path d="M13.954 8.67861L13.4837 9.28618L12.7606 9.02674L13.1932 9.66173L12.7229 10.2693L13.4605 10.0542L13.8931 10.6892L13.9163 9.92113L14.6539 9.70603L13.9307 9.44659L13.954 8.67861Z" fill="#F0F0F0"/>
<path d="M3.86943 4.5885L3.86947 19.4066C5.36823 21.0503 7.35893 22.2374 9.60857 22.736V1.25902C7.35888 1.75772 5.36823 2.94473 3.86943 4.5885Z" fill="#D80027"/>
<path d="M6.0594 6.78906L5.09857 6.07329V5.06107L6.0594 4.34534H7.4183L8.37912 5.06107V6.07329L7.4183 6.78906H6.0594Z" fill="#F0F0F0"/>
<path d="M6.73887 4.34534H6.0594L5.09857 5.06107V5.55595H6.73887V4.34534Z" fill="#FF9811"/>
<path d="M6.7388 6.78916L7.4183 6.78906L8.37912 6.07329L8.37906 5.55703H6.7388V6.78916Z" fill="#FF9811"/>
<path d="M6.0594 19.6496L5.09857 18.9338V17.9217L6.0594 17.2059H7.4183L8.37912 17.9217V18.9338L7.4183 19.6496H6.0594Z" fill="#F0F0F0"/>
<path d="M6.73887 17.2059H6.0594L5.09857 17.9217V18.4165H6.73887V17.2059Z" fill="#FF9811"/>
<path d="M6.7388 19.6496L7.4183 19.6496L8.37912 18.9338L8.37906 18.4175H6.7388V19.6496Z" fill="#FF9811"/>
<path d="M6.0593 13.2193L5.09847 12.5035V11.4913L6.0593 10.7756H7.41819L8.37902 11.4913V12.5035L7.41819 13.2193H6.0593Z" fill="#496E2D"/>
<path d="M8.41266 14.7941H7.99414V14.3756H7.25873L6.73872 13.8556L6.21875 14.3756H5.48334V14.7941H5.06486V15.631H5.48334V16.0495H6.21871L6.73876 16.5696L7.25873 16.0495H7.99414V15.631H8.41266V14.7941Z" fill="#496E2D"/>
<path d="M8.41276 8.36382H7.99424V7.94531H7.25883L6.73882 7.4253L6.21885 7.94531H5.48344V8.36382H5.06496V9.20077H5.48344V9.61924H6.21881L6.73886 10.1393L7.25883 9.61924H7.99424V9.20077H8.41276V8.36382Z" fill="#496E2D"/>
<path d="M6.26049 11.5191H7.21702V12.4756H6.26049V11.5191Z" fill="#D80027"/>
<path d="M6.73878 9.26037C7.00291 9.26037 7.21703 9.04625 7.21703 8.78212C7.21703 8.518 7.00291 8.30388 6.73878 8.30388C6.47466 8.30388 6.26054 8.518 6.26054 8.78212C6.26054 9.04625 6.47466 9.26037 6.73878 9.26037Z" fill="#D80027"/>
<path d="M6.73873 15.6909C7.00286 15.6909 7.21698 15.4768 7.21698 15.2127C7.21698 14.9486 7.00286 14.7344 6.73873 14.7344C6.47461 14.7344 6.26049 14.9486 6.26049 15.2127C6.26049 15.4768 6.47461 15.6909 6.73873 15.6909Z" fill="#D80027"/>
</svg>
