<svg width="24" height="24" viewBox="0 0 24 24" fill="none" xmlns="http://www.w3.org/2000/svg">
<path d="M23.0003 11.9976C23.0003 18.0727 18.0754 22.9976 12.0003 22.9976C5.92521 22.9976 1.00031 18.0727 1.00031 11.9976C1.00031 12.0002 12.0003 0.998762 12.0003 0.997559C18.0754 0.997559 23.0003 5.92246 23.0003 11.9976Z" fill="#338AF3"/>
<path d="M6.26133 11.9975H9.97133L6.73957 8.17141L6.26133 9.60618V11.9975Z" fill="#0052B4"/>
<path d="M12.0005 9.96841L8.17438 6.25836H12.0004L12.0005 9.96841Z" fill="#0052B4"/>
<path d="M11.9707 11.9976H12.0001C12.0001 11.9877 12.0001 11.9781 12.0001 11.9682C11.9903 11.978 11.9805 11.9878 11.9707 11.9976Z" fill="#F0F0F0"/>
<path d="M12.0003 6.73668C12.0003 4.80115 12.0003 3.53289 12.0003 0.997559C11.9997 0.997559 11.9989 0.997601 11.9983 0.997601C5.924 0.998632 1.00031 5.92302 1.00031 11.9976H6.73947V8.76584L9.97133 11.9975L11.9707 11.9976C11.9805 11.9878 11.9903 11.978 12.0001 11.9682C12.0001 11.2271 12.0005 10.5657 12.0005 9.96841L8.76854 6.73668H12.0003Z" fill="#F0F0F0"/>
<path d="M6.56541 2.43233C4.84498 3.41198 3.41472 4.84224 2.43508 6.56266V11.9976H5.30466V5.302L12.0003 5.30192C12.0003 4.39686 12.0003 3.53465 12.0003 2.43233H6.56541Z" fill="#D80027"/>
<path d="M12.0004 10.6449L8.09219 6.73679H6.73953L12.0001 11.9976C12.0001 11.9976 12.0004 11.0649 12.0004 10.6449Z" fill="#D80027"/>
<path d="M13.0063 19.1714L13.2437 19.9022H14.012L13.3905 20.3538L13.6279 21.0844L13.0063 20.6329L12.3847 21.0844L12.6222 20.3538L12.0005 19.9022H12.7688L13.0063 19.1714Z" fill="#FFDA44"/>
<path d="M19.1252 14.3888L19.3626 15.1195H20.1309L19.5094 15.5712L19.7469 16.3019L19.1252 15.8503L18.5037 16.3019L18.7411 15.5712L18.1195 15.1195H18.8878L19.1252 14.3888Z" fill="#FFDA44"/>
<path d="M20.6584 7.2149L20.8959 7.94563H21.6642L21.0427 8.39723L21.2801 9.12792L20.6584 8.67636L20.0369 9.12792L20.2743 8.39723L19.6527 7.94563H20.421L20.6584 7.2149Z" fill="#FFDA44"/>
<path d="M21.0383 12.4757L21.2757 13.2065H22.044L21.4225 13.6581L21.6599 14.3888L21.0383 13.9372L20.4167 14.3888L20.6542 13.6581L20.0325 13.2065H20.8008L21.0383 12.4757Z" fill="#FFDA44"/>
<path d="M14.108 17.4528L14.7927 17.8016L15.3359 17.2584L15.2158 18.0172L15.9003 18.366L15.1414 18.4862L15.0212 19.2451L14.6725 18.5605L13.9136 18.6807L14.4568 18.1375L14.108 17.4528Z" fill="#FFDA44"/>
<path d="M14.108 14.5832L14.7927 14.9321L15.3359 14.3888L15.2158 15.1476L15.9003 15.4964L15.1414 15.6166L15.0212 16.3755L14.6725 15.6909L13.9136 15.8111L14.4568 15.2679L14.108 14.5832Z" fill="#FFDA44"/>
<path d="M16.4993 16.4226L17.184 16.7715L17.7272 16.2282L17.6071 16.987L18.2916 17.3358L17.5327 17.456L17.4125 18.2149L17.0638 17.5302L16.3049 17.6506L16.8481 17.1073L16.4993 16.4226Z" fill="#FFDA44"/>
<path d="M16.4993 10.2789L17.184 10.6277L17.7272 10.0844L17.6071 10.8433L18.2916 11.192L17.5327 11.3123L17.4125 12.0711L17.0638 11.3866L16.3049 11.5068L16.8481 10.9635L16.4993 10.2789Z" fill="#FFDA44"/>
<path d="M18.8169 10.2052L19.5016 10.5541L20.0448 10.0108L19.9247 10.7696L20.6092 11.1184L19.8503 11.2386L19.7301 11.9975L19.3814 11.3129L18.6225 11.4332L19.1657 10.8899L18.8169 10.2052Z" fill="#FFDA44"/>
</svg>
