<svg width="24" height="24" viewBox="0 0 24 24" fill="none" xmlns="http://www.w3.org/2000/svg">
<path d="M20.1983 19.3309C21.9403 17.3847 23.0001 14.8151 23.0001 11.9976C23.0001 9.18001 21.9403 6.61035 20.1982 4.66421L12.0001 3.86714L3.80203 4.66421C2.05995 6.61035 1.00012 9.18001 1.00012 11.9976C1.00012 14.8151 2.0599 17.3847 3.80199 19.3309L12.0001 20.128L20.1983 19.3309Z" fill="#FFDA44"/>
<path d="M3.80203 4.66421H20.1982C18.1841 2.41406 15.2577 0.997559 12.0001 0.997559C8.74253 0.997559 5.81615 2.41406 3.80203 4.66421Z" fill="black"/>
<path d="M1.00012 11.9976L12.0001 12.9541L23.0001 11.9976C23.0001 10.7118 22.7788 9.47779 22.3733 8.33086H1.62695C1.22145 9.47779 1.00012 10.7118 1.00012 11.9976Z" fill="#D80027"/>
<path d="M1.62695 15.6642H22.3734C22.7788 14.5173 23.0001 13.2834 23.0001 11.9976H1.00012C1.00012 13.2834 1.22145 14.5173 1.62695 15.6642Z" fill="black"/>
<path d="M20.1983 19.3309H3.80199C5.8161 21.581 8.74249 22.9976 12.0001 22.9976C15.2578 22.9976 18.1841 21.581 20.1983 19.3309Z" fill="#D80027"/>
<path d="M15.6708 11.9976C15.6708 14.025 14.0275 15.6682 12.0001 15.6682C9.97273 15.6682 8.32947 14.025 8.32947 11.9976C8.32947 9.97016 9.97273 8.32691 12.0001 8.32691C14.0275 8.32691 15.6708 9.97016 15.6708 11.9976Z" fill="#F0F0F0"/>
<path d="M13.3448 12.1847L12.0001 11.602C12.0001 11.602 12.3147 10.5578 12.3315 10.4863C12.3437 10.4341 12.3503 10.3797 12.3503 10.3237C12.3503 10.1256 12.27 9.94623 12.1401 9.81646L12.4783 9.4783C12.2619 9.26195 11.963 9.1281 11.6328 9.1281C11.3027 9.1281 11.0037 9.26191 10.7874 9.4783L11.1255 9.81646C10.9957 9.94627 10.9154 10.1256 10.9154 10.3237C10.9154 10.3962 10.9264 10.466 10.9464 10.5319L10.4372 11.041H11.3626C11.3626 11.041 10.98 11.6157 10.7711 12.0876C10.5623 12.5595 10.774 13.1356 11.2567 13.3502L11.5358 13.4742L12.0001 13.9106V14.3889L11.5219 14.8671H12.4784V13.9106L12.9148 13.4741H13.8175C13.8219 13.4652 13.8264 13.4564 13.8305 13.4472C14.045 12.9645 13.8276 12.3992 13.3448 12.1847Z" fill="black"/>
</svg>
