<svg width="24" height="24" viewBox="0 0 24 24" fill="none" xmlns="http://www.w3.org/2000/svg">
<path d="M11.9996 22.9976C18.0748 22.9976 22.9996 18.0727 22.9996 11.9976C22.9996 5.92243 18.0748 0.997559 11.9996 0.997559C5.9245 0.997559 0.999634 5.92243 0.999634 11.9976C0.999634 18.0727 5.9245 22.9976 11.9996 22.9976Z" fill="#F0F0F0"/>
<path d="M3.27348 5.30064C2.40942 6.42483 1.75789 7.72055 1.37852 9.12817H7.10101L3.27348 5.30064Z" fill="#0052B4"/>
<path d="M22.6206 9.12817C22.2413 7.72059 21.5897 6.42487 20.7257 5.30068L16.8982 9.12817H22.6206Z" fill="#0052B4"/>
<path d="M1.37852 14.8673C1.75793 16.2749 2.40947 17.5706 3.27348 18.6947L7.10088 14.8673H1.37852Z" fill="#0052B4"/>
<path d="M18.6966 3.27161C17.5724 2.40755 16.2767 1.75602 14.8691 1.3766V7.09905L18.6966 3.27161Z" fill="#0052B4"/>
<path d="M5.30255 20.7237C6.42674 21.5878 7.72247 22.2393 9.13004 22.6187V16.8963L5.30255 20.7237Z" fill="#0052B4"/>
<path d="M9.12999 1.3766C7.72242 1.75602 6.4267 2.40755 5.30255 3.27157L9.12999 7.09901V1.3766Z" fill="#0052B4"/>
<path d="M14.8692 22.6187C16.2767 22.2393 17.5724 21.5878 18.6966 20.7238L14.8692 16.8963V22.6187Z" fill="#0052B4"/>
<path d="M16.8982 14.8673L20.7257 18.6948C21.5897 17.5706 22.2413 16.2749 22.6206 14.8673H16.8982Z" fill="#0052B4"/>
<path d="M22.9065 10.5628H13.4345L13.4344 1.09067C12.9648 1.02953 12.4859 0.997559 11.9996 0.997559C11.5133 0.997559 11.0345 1.02953 10.5649 1.09067V10.5627L1.09275 10.5627C1.0316 11.0324 0.999634 11.5113 0.999634 11.9976C0.999634 12.4839 1.0316 12.9627 1.09275 13.4323H10.5648L10.5648 22.9044C11.0345 22.9656 11.5133 22.9976 11.9996 22.9976C12.4859 22.9976 12.9648 22.9656 13.4344 22.9044V13.4324L22.9065 13.4324C22.9677 12.9627 22.9996 12.4839 22.9996 11.9976C22.9996 11.5113 22.9677 11.0324 22.9065 10.5628Z" fill="#D80027"/>
<path d="M14.8693 14.8672L19.7779 19.7758C20.0037 19.5501 20.219 19.3142 20.4245 19.0696L16.2221 14.8672L14.8693 14.8672Z" fill="#D80027"/>
<path d="M9.13017 14.8672L4.22154 19.7758C4.44722 20.0015 4.68316 20.2169 4.92774 20.4223L9.13017 16.2198V14.8672Z" fill="#D80027"/>
<path d="M9.13017 9.1281L4.22159 4.2194C3.99583 4.44507 3.78047 4.68101 3.57499 4.92559L7.77747 9.12806L9.13017 9.1281Z" fill="#D80027"/>
<path d="M14.8693 9.12811L19.7779 4.21944C19.5523 3.99369 19.3163 3.77833 19.0718 3.57289L14.8693 7.77537V9.12811Z" fill="#D80027"/>
</svg>
