<svg width="24" height="24" viewBox="0 0 24 24" fill="none" xmlns="http://www.w3.org/2000/svg">
<path d="M12 22.9976C18.0751 22.9976 23 18.0727 23 11.9976C23 5.92243 18.0751 0.997559 12 0.997559C5.92487 0.997559 1 5.92243 1 11.9976C1 18.0727 5.92487 22.9976 12 22.9976Z" fill="#F0F0F0"/>
<path d="M7.21722 15.8236L8.17375 22.3135C9.36536 22.7556 10.6545 22.9976 12 22.9976C16.7296 22.9976 20.7614 20.0124 22.3156 15.8236H7.21722Z" fill="black"/>
<path d="M7.21722 8.17149L8.17375 1.68166C9.36536 1.23947 10.6545 0.997559 12 0.997559C16.7296 0.997559 20.7614 3.98268 22.3156 8.17149H7.21722Z" fill="#6DA544"/>
<path d="M1 11.9976C1 16.7272 3.98498 20.7592 8.17375 22.3135V1.68166C3.98498 3.23589 1 7.26795 1 11.9976Z" fill="#A2001D"/>
</svg>
