<svg width="24" height="24" viewBox="0 0 24 24" fill="none" xmlns="http://www.w3.org/2000/svg">
<circle cx="12.0015" cy="11.9316" r="11" fill="white"/>
<path d="M12 22.9975C14.5888 22.9975 16.9685 22.1025 18.8475 20.6059H5.15289C7.03191 22.1025 9.41117 22.9975 12 22.9975Z" fill="#D80027"/>
<path d="M2.61472 17.7364H21.3857C21.9263 16.8543 22.3455 15.89 22.6213 14.8668H1.37915C1.65488 15.89 2.07413 16.8543 2.61472 17.7364Z" fill="#D80027"/>
<path d="M23 11.9974L11.522 11.9972V9.12758H22.6213C22.8679 10.0425 23 11.0045 23 11.9974Z" fill="#D80027"/>
<path d="M21.3857 6.17728H11.522V3.3077H18.8475C19.8514 4.10726 20.7123 5.07849 21.3857 6.17728Z" fill="#D80027"/>
<path d="M6.09687 2.64945H7.09929L6.16687 3.32685L6.52304 4.42294L5.59066 3.74554L4.65828 4.42294L4.96593 3.47604C4.14497 4.15988 3.42542 4.96108 2.83245 5.8538H3.15364L2.56011 6.28499C2.46764 6.43925 2.37896 6.59595 2.29396 6.75498L2.57739 7.62729L2.04861 7.24311C1.91717 7.52159 1.79695 7.80634 1.68888 8.09702L2.00113 9.05815H3.15364L2.22122 9.73555L2.57739 10.8316L1.64501 10.1542L1.0865 10.56C1.0306 11.0094 1.00146 11.4671 1.00146 11.9316H12.0015C12.0015 5.85655 12.0015 5.14034 12.0015 0.931641C9.82845 0.931641 7.80277 1.56199 6.09687 2.64945ZM6.52304 10.8316L5.59066 10.1542L4.65828 10.8316L5.01445 9.73555L4.08202 9.05815H5.23453L5.59066 7.96206L5.94678 9.05815H7.09929L6.16687 9.73555L6.52304 10.8316ZM6.16687 6.5312L6.52304 7.62729L5.59066 6.94989L4.65828 7.62729L5.01445 6.5312L4.08202 5.8538H5.23453L5.59066 4.75771L5.94678 5.8538H7.09929L6.16687 6.5312ZM10.4687 10.8316L9.53631 10.1542L8.60393 10.8316L8.96009 9.73555L8.02767 9.05815H9.18018L9.53631 7.96206L9.89243 9.05815H11.0449L10.1125 9.73555L10.4687 10.8316ZM10.1125 6.5312L10.4687 7.62729L9.53631 6.94989L8.60393 7.62729L8.96009 6.5312L8.02767 5.8538H9.18018L9.53631 4.75771L9.89243 5.8538H11.0449L10.1125 6.5312ZM10.1125 3.32685L10.4687 4.42294L9.53631 3.74554L8.60393 4.42294L8.96009 3.32685L8.02767 2.64945H9.18018L9.53631 1.55336L9.89243 2.64945H11.0449L10.1125 3.32685Z" fill="#0052B4"/>
</svg>
