<svg width="24" height="24" viewBox="0 0 24 24" fill="none" xmlns="http://www.w3.org/2000/svg">
<path d="M12.0005 22.9976C18.0756 22.9976 23.0005 18.0727 23.0005 11.9976C23.0005 5.92243 18.0756 0.997559 12.0005 0.997559C5.92536 0.997559 1.00049 5.92243 1.00049 11.9976C1.00049 18.0727 5.92536 22.9976 12.0005 22.9976Z" fill="#338AF3"/>
<path d="M11.9687 8.1714C9.85558 8.1714 8.14267 9.8844 8.14267 11.9975C8.14267 14.1105 9.85562 15.8235 11.9687 15.8235C14.0818 15.8235 15.7948 14.1105 15.7948 11.9975C15.7948 9.8844 14.0817 8.1714 11.9687 8.1714ZM11.0122 11.9975C11.0122 11.4692 11.4404 11.0409 11.9687 11.0409C12.497 11.0409 12.9253 11.4692 12.9253 11.9975C12.9253 12.5258 12.497 12.954 11.9687 12.954C11.4404 12.954 11.0122 12.5258 11.0122 11.9975ZM12.9605 10.3613C12.812 10.2711 12.6502 10.201 12.4788 10.1537V9.17404C12.9103 9.25147 13.3081 9.42502 13.6495 9.67226L12.9605 10.3613ZM11.5223 10.1374C11.3429 10.1803 11.1733 10.2485 11.0175 10.338L10.3253 9.64575C10.6752 9.40074 11.082 9.23149 11.5223 9.16261V10.1374ZM11.0175 13.657C11.1733 13.7464 11.3428 13.8147 11.5223 13.8575V14.8322C11.082 14.7635 10.6752 14.5941 10.3253 14.3491L11.0175 13.657ZM12.4789 13.8412C12.6502 13.7939 12.8121 13.7239 12.9605 13.6337L13.6495 14.3227C13.308 14.5699 12.9103 14.7435 12.4788 14.8209L12.4789 13.8412ZM13.6282 12.9488C13.7125 12.8021 13.7783 12.6435 13.8215 12.4758H14.7978C14.726 12.9038 14.5595 13.2995 14.3205 13.6409L13.6282 12.9488ZM13.8215 11.5192C13.7783 11.3514 13.7125 11.1929 13.6282 11.0462L14.3204 10.354C14.5595 10.6955 14.726 11.0911 14.7978 11.5192L13.8215 11.5192ZM9.64349 10.3167L10.3325 11.0058C10.2367 11.1634 10.1631 11.336 10.1159 11.5192H9.13959C9.21406 11.0755 9.39019 10.6666 9.64349 10.3167ZM9.13959 12.4757H10.1159C10.1631 12.6589 10.2367 12.8315 10.3325 12.9892L9.64349 13.6782C9.39019 13.3284 9.21406 12.9195 9.13959 12.4757Z" fill="#F0F0F0"/>
<path d="M18.1861 11.9976C18.1861 10.2969 17.5029 8.75596 16.3965 7.63344L15.382 8.64798C16.2288 9.51079 16.7513 10.6931 16.7513 11.9976C16.7513 14.6389 14.61 16.7802 11.9687 16.7802C9.32727 16.7802 7.18609 14.6389 7.18609 11.9976C7.18609 10.6768 7.72136 9.48118 8.58688 8.61575L7.57234 7.60121C6.44721 8.72635 5.75133 10.2807 5.75133 11.9976C5.75133 14.8427 7.66245 17.2416 10.271 17.9803C9.98504 18.5236 10.0286 19.2076 10.4372 19.7175C10.9737 19.2874 11.5293 18.8422 12.0006 18.4646C12.4719 18.8422 13.0274 19.2874 13.564 19.7175C13.9766 19.2026 14.0172 18.5099 13.7217 17.9639C16.3017 17.207 18.1861 14.8225 18.1861 11.9976Z" fill="#F0F0F0"/>
</svg>
