<svg width="24" height="24" viewBox="0 0 24 24" fill="none" xmlns="http://www.w3.org/2000/svg">
<path d="M11.9997 22.9976C18.0748 22.9976 22.9997 18.0727 22.9997 11.9976C22.9997 5.92243 18.0748 0.997559 11.9997 0.997559C5.92456 0.997559 0.999695 5.92243 0.999695 11.9976C0.999695 18.0727 5.92456 22.9976 11.9997 22.9976Z" fill="#F0F0F0"/>
<path d="M11.9997 9.12798H22.6208C22.3449 8.10472 21.9257 7.14046 21.3852 6.2584H11.9997V9.12798Z" fill="#338AF3"/>
<path d="M5.15255 20.6063H18.8473C19.8511 19.8067 20.7121 18.8356 21.3854 17.7367H2.61443C3.2878 18.8355 4.14872 19.8067 5.15255 20.6063Z" fill="#338AF3"/>
<path d="M11.9997 0.997559L11.9999 3.3889H18.8473C16.9683 1.89238 14.5885 0.997559 11.9997 0.997559Z" fill="#338AF3"/>
<path d="M11.9997 9.12798H22.6208C22.3449 8.10472 21.9257 7.14046 21.3852 6.2584H11.9997V9.12798Z" fill="#338AF3"/>
<path d="M0.999695 11.9976C0.999695 12.9904 1.13204 13.9522 1.37864 14.8671H22.6208C22.8674 13.9522 22.9997 12.9904 22.9997 11.9976H0.999695Z" fill="#338AF3"/>
<path d="M10.5649 7.43519L9.22147 8.06713L9.93686 9.36822L8.47807 9.08918L8.29322 10.5628L7.27718 9.47895L6.26105 10.5628L6.07624 9.08918L4.61745 9.36814L5.3328 8.06708L3.98942 7.43519L5.33284 6.80333L4.61745 5.50224L6.0762 5.78128L6.26109 4.30766L7.27718 5.39151L8.29326 4.30766L8.47807 5.78128L9.9369 5.50224L9.22151 6.80337L10.5649 7.43519Z" fill="#FFDA44"/>
</svg>
