<svg width="24" height="24" viewBox="0 0 24 24" fill="none" xmlns="http://www.w3.org/2000/svg">
<path d="M1.51983 8.64977C1.18287 9.70543 1.00038 10.83 1.00043 11.9975C1.00038 13.1649 1.18292 14.2896 1.51988 15.3453L12.0004 15.8236L22.4809 15.3454C22.8179 14.2897 23.0004 13.1649 23.0004 11.9976C23.0004 10.8301 22.8179 9.70543 22.4809 8.64972L12.0004 8.17148L1.51983 8.64977Z" fill="#F0F0F0"/>
<path d="M22.4809 8.64972L12.0004 8.17148L1.51983 8.64977C1.41997 8.96275 1.33395 9.28188 1.26189 9.60629H22.7387C22.6667 9.28184 22.5808 8.96262 22.4809 8.64972Z" fill="#D80027"/>
<path d="M1.26203 14.3888C1.33401 14.7132 1.42002 15.0323 1.51988 15.3453L1.52088 15.3453L12.0004 15.8236L22.4809 15.3454C22.5808 15.0324 22.6667 14.7132 22.7387 14.3888H1.26203Z" fill="#D80027"/>
<path d="M12.0004 22.9976C16.9081 22.9976 21.0645 19.7834 22.4809 15.3454L1.51988 15.3453C2.93634 19.7833 7.09278 22.9976 12.0004 22.9976Z" fill="#6DA544"/>
<path d="M12.0004 0.997559C7.09273 0.997602 2.93638 4.21181 1.51983 8.64977L22.4809 8.64972C21.0646 4.21168 16.9081 0.997516 12.0004 0.997559Z" fill="#338AF3"/>
<path d="M6.02705 5.54088C6.02705 4.51061 6.75112 3.64995 7.71804 3.4388C7.56946 3.40631 7.41524 3.38874 7.25686 3.38874C6.06826 3.38874 5.10469 4.35227 5.10469 5.54092C5.10469 6.72957 6.06817 7.69311 7.25686 7.69311C7.41524 7.69311 7.56941 7.67549 7.71804 7.64305C6.75116 7.43181 6.02705 6.57115 6.02705 5.54088Z" fill="#F0F0F0"/>
<path d="M8.99009 6.51915L9.13575 6.96753H9.6072L9.22581 7.24468L9.37148 7.69306L8.99009 7.41596L8.60861 7.69306L8.75432 7.24468L8.37289 6.96753H8.84434L8.99009 6.51915Z" fill="#F0F0F0"/>
<path d="M10.4949 6.51915L10.6406 6.96753H11.112L10.7306 7.24468L10.8763 7.69306L10.4949 7.41596L10.1134 7.69306L10.2591 7.24468L9.87773 6.96753H10.3491L10.4949 6.51915Z" fill="#F0F0F0"/>
<path d="M11.9997 6.51915L12.1453 6.96753H12.6168L12.2354 7.24468L12.381 7.69306L11.9997 7.41596L11.6182 7.69306L11.7639 7.24468L11.3825 6.96753H11.854L11.9997 6.51915Z" fill="#F0F0F0"/>
<path d="M13.5045 6.51915L13.6502 6.96753H14.1216L13.7402 7.24468L13.8859 7.69306L13.5045 7.41596L13.123 7.69306L13.2687 7.24468L12.8873 6.96753H13.3587L13.5045 6.51915Z" fill="#F0F0F0"/>
<path d="M15.0092 6.51915L15.1549 6.96753H15.6264L15.245 7.24468L15.3907 7.69306L15.0092 7.41596L14.6278 7.69306L14.7735 7.24468L14.3921 6.96753H14.8635L15.0092 6.51915Z" fill="#F0F0F0"/>
<path d="M10.4949 4.95394L10.6406 5.40227H11.112L10.7306 5.67947L10.8763 6.1278L10.4949 5.8507L10.1134 6.1278L10.2591 5.67947L9.87773 5.40227H10.3491L10.4949 4.95394Z" fill="#F0F0F0"/>
<path d="M11.9997 4.95394L12.1453 5.40227H12.6168L12.2354 5.67947L12.381 6.1278L11.9997 5.8507L11.6182 6.1278L11.7639 5.67947L11.3825 5.40227H11.854L11.9997 4.95394Z" fill="#F0F0F0"/>
<path d="M13.5045 4.95394L13.6502 5.40227H14.1216L13.7402 5.67947L13.8859 6.1278L13.5045 5.8507L13.123 6.1278L13.2687 5.67947L12.8873 5.40227H13.3587L13.5045 4.95394Z" fill="#F0F0F0"/>
<path d="M15.0092 4.95394L15.1549 5.40227H15.6264L15.245 5.67947L15.3907 6.1278L15.0092 5.8507L14.6278 6.1278L14.7735 5.67947L14.3921 5.40227H14.8635L15.0092 4.95394Z" fill="#F0F0F0"/>
<path d="M11.9997 3.38866L12.1453 3.83708H12.6168L12.2354 4.11419L12.381 4.56261L11.9997 4.2855L11.6182 4.56261L11.7639 4.11419L11.3825 3.83708H11.854L11.9997 3.38866Z" fill="#F0F0F0"/>
<path d="M13.5045 3.38866L13.6502 3.83708H14.1216L13.7402 4.11419L13.8859 4.56261L13.5045 4.2855L13.123 4.56261L13.2687 4.11419L12.8873 3.83708H13.3587L13.5045 3.38866Z" fill="#F0F0F0"/>
<path d="M15.0092 3.38866L15.1549 3.83708H15.6264L15.245 4.11419L15.3907 4.56261L15.0092 4.2855L14.6278 4.56261L14.7735 4.11419L14.3921 3.83708H14.8635L15.0092 3.38866Z" fill="#F0F0F0"/>
</svg>
