<svg width="24" height="24" viewBox="0 0 24 24" fill="none" xmlns="http://www.w3.org/2000/svg">
<path d="M23.0001 11.9976C23.0001 11.5113 22.9682 11.0324 22.907 10.5628H10.5653C8.31796 8.31561 4.22181 4.2197 4.22198 4.21936C-0.0737509 8.51511 -0.0737509 15.4799 4.22198 19.7758L10.5654 13.4324H22.907C22.9681 12.9627 23.0001 12.4838 23.0001 11.9976Z" fill="black"/>
<path d="M22.907 10.5628C22.9119 10.6005 22.9163 10.6383 22.9208 10.6761C22.268 5.22414 17.628 0.997559 12.0001 0.997559C8.96253 0.997559 6.21259 2.22866 4.22198 4.21936L10.5653 10.5628H22.907Z" fill="#D80027"/>
<path d="M22.907 13.4324H10.5654L4.22198 19.7758C6.21259 21.7664 8.96253 22.9976 12.0001 22.9976C17.628 22.9976 22.268 18.771 22.9208 13.319C22.9163 13.3567 22.9118 13.3947 22.907 13.4324Z" fill="#6DA544"/>
<path d="M22.9897 11.5152H10.1612L3.57166 4.92663C3.35867 5.15127 3.1278 5.46494 2.98501 5.68834L9.28674 11.9934L2.97973 18.3006C3.1046 18.5227 3.37663 18.8515 3.56762 19.0655L10.1613 12.4717H22.9912C22.998 12.3131 23.0002 12.1538 23.0002 11.9935C23.0001 11.7787 22.9942 11.6204 22.9897 11.5152Z" fill="#FFDA44"/>
<path d="M3.67234 14.3423V13.4209C4.59178 13.4209 5.33973 12.6729 5.33973 11.7535C5.33973 11.103 4.81049 10.5738 4.16003 10.5738C3.7169 10.5738 3.35635 10.9343 3.35635 11.3776C3.35635 11.6609 3.58687 11.8915 3.87029 11.8915C4.03048 11.8915 4.1608 11.7611 4.1608 11.6009H5.08213C5.08213 12.2692 4.5385 12.8129 3.87034 12.8129C3.0789 12.8129 2.4351 12.169 2.4351 11.3777C2.4351 10.4265 3.20896 9.65263 4.16007 9.65263C5.31859 9.65263 6.26115 10.5952 6.26115 11.7537C6.26111 13.181 5.09979 14.3423 3.67234 14.3423Z" fill="#FFDA44"/>
</svg>
