<svg width="24" height="24" viewBox="0 0 24 24" fill="none" xmlns="http://www.w3.org/2000/svg">
<path d="M11.9999 0.997559C18.075 0.997559 22.9999 5.92246 22.9999 11.9976C22.9999 18.0727 18.075 22.9976 11.9999 22.9976C11.9999 22.5193 10.5652 11.9976 10.5652 11.9976L11.9999 0.997559Z" fill="#F0F0F0"/>
<path d="M11.9999 22.9976C5.92484 22.9976 0.999939 18.0727 0.999939 11.9976C0.999939 5.92246 5.92484 0.997559 11.9999 0.997559" fill="#FFDA44"/>
<path d="M16.2122 10.5695L18.2794 13.3043C17.9537 13.7975 17.9555 14.4619 18.3322 14.9602C18.81 15.5924 19.7098 15.7175 20.3419 15.2396C20.9741 14.7618 21.0992 13.862 20.6213 13.2299C20.2447 12.7316 19.6058 12.5487 19.0425 12.7276L15.8206 8.46535L13.9129 9.9073L15.0665 11.4333L16.2122 10.5695ZM19.1883 13.7135C19.399 13.5542 19.699 13.5959 19.8583 13.8066C20.0175 14.0173 19.9759 14.3173 19.7652 14.4766C19.5545 14.6358 19.2545 14.5942 19.0953 14.3834C18.9359 14.1727 18.9776 13.8728 19.1883 13.7135Z" fill="#ACABB1"/>
<path d="M19.7579 11.4333L20.9116 9.90726L19.0039 8.46523L15.7821 12.7274C15.2189 12.5486 14.58 12.7315 14.2033 13.2298C13.7254 13.8619 13.8505 14.7617 14.4826 15.2395C15.1148 15.7173 16.0146 15.5922 16.4924 14.9601C16.869 14.4618 16.8708 13.7973 16.5451 13.3042L18.6124 10.5694L19.7579 11.4333ZM15.7293 14.3834C15.5701 14.5942 15.2702 14.6358 15.0594 14.4766C14.8487 14.3172 14.807 14.0173 14.9663 13.8065C15.1256 13.5959 15.4255 13.5541 15.6363 13.7135C15.847 13.8728 15.8886 14.1727 15.7293 14.3834Z" fill="#FFDA44"/>
</svg>
