<svg width="24" height="24" viewBox="0 0 24 24" fill="none" xmlns="http://www.w3.org/2000/svg">
<path d="M21.9082 16.7801C22.6075 15.334 22.9997 13.7116 22.9997 11.9976C22.9997 10.2835 22.6075 8.66112 21.9082 7.21496L11.9997 6.25844L2.09119 7.21496C1.39187 8.66112 0.999695 10.2835 0.999695 11.9976C0.999695 13.7116 1.39187 15.334 2.09119 16.7801L11.9997 17.7367L21.9082 16.7801Z" fill="#0052B4"/>
<path d="M11.9997 22.9976C16.3607 22.9976 20.129 20.4596 21.9082 16.7801H2.09119C3.87044 20.4596 7.63863 22.9976 11.9997 22.9976Z" fill="#D80027"/>
<path d="M20.0507 14.157L19.4697 14.611L19.7219 15.3037L19.1106 14.8915L18.5295 15.3454L18.7327 14.6366L18.1215 14.2243L18.8583 14.1986L19.0617 13.4898L19.3139 14.1827L20.0507 14.157Z" fill="#F0F0F0"/>
<path d="M18.5629 11.5801L18.1723 12.2055L18.6462 12.7702L17.9308 12.592L17.54 13.2172L17.4885 12.4817L16.7731 12.3032L17.4568 12.027L17.4054 11.2914L17.8793 11.8563L18.5629 11.5801Z" fill="#F0F0F0"/>
<path d="M16.2835 9.66747L16.1303 10.3887L16.7688 10.7574L16.0356 10.8347L15.8822 11.5557L15.5823 10.8822L14.849 10.9592L15.397 10.4658L15.0971 9.7923L15.7356 10.1609L16.2835 9.66747Z" fill="#F0F0F0"/>
<path d="M13.4875 8.64988L13.5902 9.38005L14.3162 9.50801L13.6536 9.83139L13.7562 10.5615L13.244 10.0311L12.5812 10.3543L12.9274 9.70322L12.4152 9.17289L13.1414 9.3009L13.4875 8.64988Z" fill="#F0F0F0"/>
<path d="M10.5121 8.64988L10.8583 9.3009L11.5843 9.17281L11.0722 9.70334L11.4183 10.3544L10.7556 10.0311L10.2433 10.5614L10.3461 9.83139L9.68335 9.50818L10.4095 9.38005L10.5121 8.64988Z" fill="#F0F0F0"/>
<path d="M7.71603 9.66747L8.26405 10.1609L8.90244 9.7923L8.60264 10.466L9.15054 10.9593L8.41728 10.8822L8.11727 11.5557L7.96417 10.8345L7.23087 10.7575L7.86938 10.3888L7.71603 9.66747Z" fill="#F0F0F0"/>
<path d="M5.43666 11.5801L6.12042 11.8563L6.59419 11.2916L6.54293 12.0272L7.22648 12.3035L6.51109 12.4817L6.45957 13.2172L6.06899 12.592L5.35351 12.7703L5.82746 12.2055L5.43666 11.5801Z" fill="#F0F0F0"/>
<path d="M3.94891 14.157L4.68591 14.1827L4.93796 13.4899L5.14142 14.1987L5.87821 14.2245L5.26693 14.6368L5.47009 15.3455L4.88915 14.8916L4.27784 15.3038L4.53002 14.611L3.94891 14.157Z" fill="#F0F0F0"/>
<path d="M21.9082 7.21496C20.129 3.53551 16.3607 0.997559 11.9997 0.997559C7.63863 0.997559 3.87044 3.53551 2.09119 7.21496H21.9082Z" fill="#FFDA44"/>
</svg>
