<svg width="24" height="24" viewBox="0 0 24 24" fill="none" xmlns="http://www.w3.org/2000/svg">
<path d="M12.0002 22.9976C18.0753 22.9976 23.0002 18.0727 23.0002 11.9976C23.0002 5.92243 18.0753 0.997559 12.0002 0.997559C5.92505 0.997559 1.00018 5.92243 1.00018 11.9976C1.00018 18.0727 5.92505 22.9976 12.0002 22.9976Z" fill="#FCFCFC"/>
<path d="M13.8684 8.68235C13.8684 7.65059 13.032 6.81416 12.0002 6.81416C10.9684 6.81416 10.1319 7.65059 10.1319 8.68235H6.02194C6.02194 9.69818 6.90684 10.5218 7.92266 10.5218H7.86148C7.86148 11.5377 8.68493 12.3613 9.70093 12.3613C9.70093 13.2608 10.3469 14.0082 11.2001 14.1679L11.1953 14.1787H12.8051L12.8003 14.1679C13.6535 14.0081 14.2995 13.2607 14.2995 12.3613C15.3154 12.3613 16.1389 11.5377 16.1389 10.5218H16.0777C17.0935 10.5218 17.9784 9.69818 17.9784 8.68235H13.8684Z" fill="#FFDA44"/>
<path d="M11.1788 13.9882L10.0205 16.6034C10.6317 16.8518 11.2997 16.9899 12.0002 16.9899C12.7006 16.9899 13.3686 16.8519 13.9798 16.6034L12.8215 13.9882H11.1788Z" fill="#FFDA44"/>
<path d="M9.60889 9.60106V12.819C9.60889 14.6494 12.0002 15.2103 12.0002 15.2103C12.0002 15.2103 14.3915 14.6494 14.3915 12.819V9.60106H9.60889Z" fill="#F0F0F0"/>
<path d="M3.66764 12.075L4.96096 15.6923L6.24082 12.075H7.21759L5.35163 16.8576H4.57024L2.69092 12.075H3.66764Z" fill="#338AF3"/>
<path d="M18.6957 16.8575V12.0749H19.6253V16.8575H18.6957Z" fill="#338AF3"/>
<path d="M10.5654 10.6402V14.5398C10.8942 14.7818 11.2479 14.9482 11.5219 15.0547V10.6402H10.5654Z" fill="#D80027"/>
<path d="M13.4348 10.6404V14.54C13.1061 14.7819 12.7524 14.9483 12.4783 15.0549V10.6404H13.4348Z" fill="#D80027"/>
<path d="M9.60889 9.60106H14.3915V11.1185H9.60889V9.60106Z" fill="#0052B4"/>
</svg>
