<svg width="24" height="24" viewBox="0 0 24 24" fill="none" xmlns="http://www.w3.org/2000/svg">
<path d="M11.9999 22.9976C18.0751 22.9976 22.9999 18.0727 22.9999 11.9976C22.9999 5.92243 18.0751 0.997559 11.9999 0.997559C5.92481 0.997559 0.999939 5.92243 0.999939 11.9976C0.999939 18.0727 5.92481 22.9976 11.9999 22.9976Z" fill="#F0F0F0"/>
<path d="M22.9999 11.9976C22.9999 18.0727 18.0751 22.9976 11.9999 22.9976C5.92481 22.9976 0.999939 18.0727 0.999939 11.9976" fill="#496E2D"/>
<path d="M20.0357 8.65214C19.6423 7.53654 18.5794 6.73672 17.3292 6.73672H14.8695C13.2847 6.73672 11.9999 8.02149 11.9999 9.6063C11.9999 10.1241 12.1378 10.6217 12.3777 11.0411C11.4643 11.0336 10.619 11.0474 10.0869 11.0411C10.0869 9.93437 10.0869 8.52456 10.0869 8.22958L10.1999 8.11658C10.7072 7.60929 10.538 6.76383 10.538 6.76383C10.538 6.76383 9.69264 6.59475 9.18536 7.10204L8.59415 7.69325H7.93471C6.48193 7.69325 5.30429 8.87093 5.30429 10.3237H7.21734V12.4758C7.21734 12.7906 7.28081 13.0905 7.39549 13.3636L6.73906 13.9106H5.78253V12.9541H4.826V14.8671H9.13036V16.7802H8.17383V17.7367H10.0869V15.8237L10.9637 14.7715H13.0362L13.9129 15.8237V16.7802H12.9564V17.7367H16.7825V12.4758C16.7825 11.6834 17.4249 11.041 18.2173 11.041C18.2376 11.041 18.2578 11.0418 18.278 11.0426C18.2384 10.8893 18.2173 10.7285 18.2173 10.5628C18.2173 9.53802 19.0231 8.70151 20.0357 8.65214ZM14.8695 16.7801V14.7714H14.9492L15.826 15.8236V16.7801H14.8695Z" fill="#D80027"/>
</svg>
