<svg width="24" height="24" viewBox="0 0 24 24" fill="none" xmlns="http://www.w3.org/2000/svg">
<path d="M12.0004 22.9973C18.0755 22.9973 23.0004 18.0724 23.0004 11.9973C23.0004 5.92218 18.0755 0.997314 12.0004 0.997314C5.92523 0.997314 1.00037 5.92218 1.00037 11.9973C1.00037 18.0724 5.92523 22.9973 12.0004 22.9973Z" fill="#496E2D"/>
<path d="M16.3047 11.9973H12.0004V22.9973C13.2862 22.9973 14.5201 22.776 15.667 22.3706L16.3047 11.9973Z" fill="#D80027"/>
<path d="M19.3337 20.1955C21.5839 18.1813 23.0004 15.2549 23.0004 11.9973H18.696L19.3337 20.1955Z" fill="#FF9811"/>
<path d="M15.667 11.9973L15.667 22.3706C17.0333 21.8876 18.2757 21.1425 19.3337 20.1955L19.3337 11.9973H15.667Z" fill="black"/>
<path d="M21.3264 8.17125H18.4569C18.4569 7.64299 18.0286 7.21472 17.5003 7.21472C16.9721 7.21472 16.5438 7.64299 16.5438 8.17125H13.6742C13.6742 8.69955 14.1344 9.12778 14.6626 9.12778H14.6307C14.6307 9.65608 15.0589 10.0843 15.5873 10.0843C15.5873 10.6126 16.0155 11.0408 16.5438 11.0408H18.4569C18.9851 11.0408 19.4134 10.6126 19.4134 10.0843C19.9416 10.0843 20.3699 9.65608 20.3699 9.12778H20.3381C20.8663 9.12773 21.3264 8.69951 21.3264 8.17125Z" fill="#FF9811"/>
</svg>
