<svg width="24" height="24" viewBox="0 0 24 24" fill="none" xmlns="http://www.w3.org/2000/svg">
<path d="M12 22.9973C18.0751 22.9973 23 18.0724 23 11.9973C23 5.92218 18.0751 0.997314 12 0.997314C5.92487 0.997314 1 5.92218 1 11.9973C1 18.0724 5.92487 22.9973 12 22.9973Z" fill="#F0F0F0"/>
<path d="M21.9472 7.2967C21.3883 6.11618 20.6256 5.05128 19.7043 4.14701L12 3.38865L4.29574 4.14705C4.27116 4.17115 4.24719 4.19582 4.22287 4.22018L7.29943 7.29674L12 7.4403L21.9472 7.2967Z" fill="#FFDA44"/>
<path d="M4.22274 19.7747C4.26322 19.8151 4.30361 19.8556 4.34469 19.8955L12 20.6061L19.6553 19.8955C20.5861 18.9932 21.3581 17.9282 21.9248 16.7458L7.69565 16.3017C6.47134 17.5261 5.05921 18.9381 4.22274 19.7747Z" fill="#FFDA44"/>
<path d="M22.8906 10.4464L10.0869 10.0843L12 11.9973C11.4334 12.5639 10.5875 13.4098 10.0869 13.9104L22.8839 13.5961C22.9599 13.0741 23 12.5404 23 11.9973C23 11.4708 22.9622 10.9532 22.8906 10.4464Z" fill="black"/>
<path d="M12 0.997314C8.99958 0.997314 6.2803 2.19919 4.29574 4.14705L19.7043 4.14701C17.7198 2.19915 15.0004 0.997314 12 0.997314Z" fill="#6DA544"/>
<path d="M10.4491 10.4463L22.8906 10.4464C22.7336 9.33437 22.4107 8.27592 21.9472 7.2967L7.29943 7.29674L10.4491 10.4463Z" fill="#D80027"/>
<path d="M7.25156 16.7457L21.9248 16.7458C22.3938 15.7673 22.7218 14.7087 22.8839 13.5961L10.4013 13.596C9.1815 14.8158 8.14776 15.8495 7.25156 16.7457Z" fill="#D80027"/>
<path d="M12 22.9973C14.9758 22.9973 17.6751 21.8152 19.6553 19.8955H4.34469C6.32486 21.8152 9.0242 22.9973 12 22.9973Z" fill="#6DA544"/>
<path d="M4.92801 3.5726C4.68347 3.77808 4.44753 3.99348 4.22182 4.21911L12 11.9973L4.22182 19.7755C4.44749 20.0012 4.68347 20.2165 4.92801 20.422L13.3527 11.9973L4.92801 3.5726Z" fill="black"/>
<path d="M5.42256 9.12773L6.13477 11.3198H8.43983L6.57507 12.6747L7.28732 14.8669L5.42256 13.5121L3.55776 14.8669L4.27009 12.6747L2.40538 11.3198H4.71031L5.42256 9.12773Z" fill="#D80027"/>
<path d="M7.38168 12.1767L5.52551 11.5191C5.52551 11.5191 5.38836 10.2325 5.38006 10.1888C5.31707 9.857 5.02544 9.60602 4.67525 9.60602C4.27907 9.60602 3.95784 9.92721 3.95784 10.3234C3.95784 10.3891 3.96742 10.4524 3.98397 10.5129L3.46353 11.0368H4.3889C4.3889 11.9973 3.67218 11.9973 3.67218 12.9538L4.06977 13.9104H6.46107L6.85965 12.9538C6.89957 12.8621 6.92363 12.7674 6.93364 12.6728C7.27722 12.5339 7.38168 12.1767 7.38168 12.1767Z" fill="#FFDA44"/>
</svg>
