<svg width="24" height="24" viewBox="0 0 24 24" fill="none" xmlns="http://www.w3.org/2000/svg">
<path fill-rule="evenodd" clip-rule="evenodd" d="M12.0324 2.99902C10.3588 2.99874 8.71864 3.46725 7.29767 4.35147C6.32052 4.95952 5.4739 5.74743 4.8 6.66862V2.99902H3V9.29969H9.3V7.4995H6.42986C6.93686 6.86266 7.55111 6.31397 8.24859 5.87995C9.38412 5.17335 10.6948 4.79896 12.0322 4.79921C15.9868 4.79921 19.2 8.02022 19.2 12H21C21 7.03285 16.9878 2.99911 12.0324 2.99902Z" fill="white"/>
<path fill-rule="evenodd" clip-rule="evenodd" d="M17.0912 17.0898C18.4414 15.7394 19.2 13.9078 19.2 11.9981H21C21 12.6073 20.9382 13.2101 20.8182 13.7983C20.4679 15.5146 19.621 17.1055 18.364 18.3627C16.6761 20.0507 14.3869 20.999 12 20.999C9.61305 20.999 7.32387 20.0507 5.63604 18.3627C4.37895 17.1055 3.53214 15.5146 3.1818 13.7983C3.06176 13.2101 3 12.6073 3 11.9981L4.8 11.9981C4.8 13.9078 5.55857 15.7394 6.90883 17.0898C8.25909 18.4402 10.0904 19.1988 12 19.1988C13.9096 19.1988 15.7409 18.4402 17.0912 17.0898Z" fill="white"/>
</svg>
