<svg width="24" height="24" viewBox="0 0 24 24" fill="none" xmlns="http://www.w3.org/2000/svg">
<path d="M8.29294 2.29346L9.70694 3.70746L6.41391 7.00049H14.5C16.2239 7.00049 17.8772 7.68531 19.0962 8.90429C20.3152 10.1233 21 11.7766 21 13.5005C21 15.2244 20.3152 16.8777 19.0962 18.0967C17.8772 19.3157 16.2239 20.0005 14.5 20.0005L8 19.9995V17.9995L14.5 18.0005C15.0909 18.0005 15.6761 17.8841 16.2221 17.6579C16.768 17.4318 17.2641 17.1003 17.682 16.6825C18.0998 16.2646 18.4313 15.7685 18.6575 15.2226C18.8836 14.6766 19 14.0914 19 13.5005C19 12.9095 18.8836 12.3244 18.6575 11.7784C18.4313 11.2324 18.0998 10.7364 17.682 10.3185C17.2641 9.90064 16.768 9.56918 16.2221 9.34303C15.6761 9.11688 15.0909 9.00049 14.5 9.00049H6.41397L9.70694 12.2935L8.29294 13.7075L2.58594 8.00046L8.29294 2.29346Z" fill="white"/>
</svg>
