<svg width="24" height="24" viewBox="0 0 24 24" fill="none" xmlns="http://www.w3.org/2000/svg">
<path fill-rule="evenodd" clip-rule="evenodd" d="M11.9676 2.99927C13.6412 2.99898 15.2814 3.46748 16.7023 4.35169C17.6795 4.95973 18.5261 5.74763 19.2 6.66879V2.99927H21V9.29982H14.7V7.49966H17.5701C17.0631 6.86283 16.4489 6.31415 15.7514 5.88014C14.6159 5.17355 13.3052 4.79917 11.9678 4.79942C8.01322 4.79942 4.8 8.02036 4.8 12.0001H3C3 7.03301 7.01223 2.99936 11.9676 2.99927Z" fill="white"/>
<path fill-rule="evenodd" clip-rule="evenodd" d="M12.0324 20.9993C10.3588 20.9996 8.71864 20.5311 7.29767 19.6468C6.32052 19.0388 5.4739 18.2509 4.8 17.3297V20.9993H3V14.6987H9.3V16.4989H6.42986C6.93686 17.1357 7.55111 17.6844 8.24859 18.1184C9.38412 18.825 10.6948 19.1994 12.0322 19.1991C15.9868 19.1991 19.2 15.9782 19.2 11.9985H21C21 16.9655 16.9878 20.9992 12.0324 20.9993Z" fill="white"/>
</svg>
