<svg width="24" height="24" viewBox="0 0 24 24" fill="none" xmlns="http://www.w3.org/2000/svg">
<path d="M17.3892 10.3425L12.267 5.1131C12.2319 5.07725 12.1903 5.0488 12.1445 5.0294C12.0987 5.00999 12.0496 5 12 5C11.9504 5 11.9013 5.00999 11.8555 5.0294C11.8097 5.0488 11.7681 5.07725 11.733 5.1131L6.61078 10.3425C6.55791 10.3963 6.52189 10.465 6.50728 10.5397C6.49268 10.6145 6.50015 10.692 6.52874 10.7624C6.55734 10.8329 6.60577 10.893 6.66791 10.9353C6.73004 10.9776 6.80308 11.0001 6.87775 11H17.1222C17.1969 11.0001 17.27 10.9776 17.3321 10.9353C17.3942 10.893 17.4427 10.8329 17.4713 10.7624C17.4999 10.692 17.5073 10.6145 17.4927 10.5397C17.4781 10.465 17.4421 10.3963 17.3892 10.3425Z" fill="white"/>
<path d="M6.61078 13.6575L11.733 18.8869C11.7681 18.9228 11.8097 18.9512 11.8555 18.9706C11.9013 18.99 11.9504 19 12 19C12.0496 19 12.0987 18.99 12.1445 18.9706C12.1903 18.9512 12.2319 18.9228 12.267 18.8869L17.3892 13.6575C17.4421 13.6037 17.4781 13.535 17.4927 13.4603C17.5073 13.3855 17.4999 13.308 17.4713 13.2376C17.4427 13.1671 17.3942 13.107 17.3321 13.0647C17.27 13.0224 17.1969 12.9999 17.1222 13H6.87775C6.80308 12.9999 6.73004 13.0224 6.66791 13.0647C6.60577 13.107 6.55734 13.1671 6.52874 13.2376C6.50015 13.308 6.49268 13.3855 6.50728 13.4603C6.52189 13.535 6.55791 13.6037 6.61078 13.6575Z" fill="white"/>
</svg>
