<svg width="24" height="24" viewBox="0 0 24 24" fill="none" xmlns="http://www.w3.org/2000/svg">
<path fill-rule="evenodd" clip-rule="evenodd" d="M16.4139 2.51322C16.9438 2.45125 17.5367 2.59788 18.0942 3.15046L20.8494 5.90462C21.1495 6.21834 21.4241 6.69742 21.4867 7.23251C21.5449 7.73068 21.4204 8.28315 20.9488 8.80591L20.8494 8.90993L20.5758 9.17514L20.4052 9.34007H21.0884V11.9986C21.0884 12.9187 20.5698 14.2167 19.2038 14.5691L19.1513 14.5832L19.1363 14.6347C18.9137 15.3828 18.3637 16.141 17.3661 16.4059L17.3145 16.4199L17.2995 16.4715C17.1614 16.9349 16.901 17.3994 16.4898 17.7478C16.0799 18.0951 15.5144 18.3316 14.7552 18.3316H11.418L11.3899 18.3597L8.91022 20.8478C8.56665 21.1913 7.99349 21.4999 7.37143 21.5C6.89222 21.5 6.38392 21.3259 5.90574 20.8478L3.15053 18.0936C2.85034 17.7797 2.57576 17.3024 2.51327 16.7685C2.45138 16.2386 2.59649 15.6449 3.14959 15.0874L3.80185 14.4454L3.82996 14.4173V10.7439L7.89154 6.68336L7.8981 6.6693C8.39875 5.64132 9.37865 4.74829 11.0816 4.74823H13.5004L13.5285 4.72012L15.0879 3.15139C15.4018 2.85081 15.8794 2.57582 16.4139 2.51322ZM7.3405 9.55279L5.47559 11.4176V15.0902L4.31821 16.2569C4.26953 16.3055 4.18376 16.3907 4.1589 16.5118C4.13216 16.6423 4.18002 16.7852 4.32571 16.941L4.32758 16.9438L7.07342 19.6801C7.12203 19.7287 7.20798 19.8145 7.32926 19.8394C7.45973 19.8661 7.60273 19.8183 7.75847 19.6726L10.7451 16.687H14.7552C15.1511 16.687 15.4115 16.5508 15.5696 16.345C15.7241 16.1437 15.7692 15.8898 15.7692 15.6721V14.8503H16.592C16.9879 14.8503 17.2483 14.7141 17.4064 14.5082C17.5608 14.307 17.606 14.053 17.606 13.8354V13.0135H18.4288C18.8247 13.0135 19.0851 12.8774 19.2432 12.6715C19.3976 12.4703 19.4428 12.2163 19.4428 11.9986V10.9847H12.8228V11.0812C12.8227 11.6181 12.6438 12.2845 12.223 12.8149C11.8048 13.342 11.1438 13.7398 10.1632 13.7398C9.18261 13.7398 8.52154 13.342 8.10334 12.8149C7.68265 12.2845 7.50367 11.6181 7.50357 11.0812V9.3888L7.3405 9.55279ZM16.6707 4.15879C16.5403 4.13223 16.3972 4.17996 16.2415 4.32559L14.1732 6.39286H11.0816C10.2086 6.3929 9.71782 6.76348 9.45095 7.19877C9.18863 7.62667 9.14921 8.10679 9.14919 8.32611V11.0812C9.14926 11.2986 9.19459 11.5521 9.3488 11.7531C9.50685 11.959 9.76735 12.0951 10.1632 12.0952C10.5591 12.0952 10.8195 11.959 10.9776 11.7531C11.1319 11.552 11.1771 11.2987 11.1772 11.0812V9.34007H18.0924L18.1205 9.31195L19.6818 7.74136C19.7304 7.69268 19.8162 7.60759 19.8411 7.48646C19.8678 7.35593 19.8201 7.2131 19.6743 7.05727L19.6724 7.05446L16.9266 4.3181C16.8779 4.26944 16.792 4.18366 16.6707 4.15879Z" fill="white"/>
</svg>
