<svg width="24" height="24" viewBox="0 0 24 24" fill="none" xmlns="http://www.w3.org/2000/svg">
<path fill-rule="evenodd" clip-rule="evenodd" d="M2.22594 4.97297C2.22594 4.43561 2.66155 4 3.19891 4H17.2432C17.9744 4 18.6756 4.29044 19.1926 4.80744C19.7096 5.32443 20 6.02562 20 6.75676V17.2432C20 17.9744 19.7096 18.6756 19.1926 19.1926C18.6756 19.7096 17.9744 20 17.2432 20H6.76648C6.03534 20 5.33415 19.7096 4.81716 19.1926C4.30016 18.6756 4.00972 17.9744 4.00972 17.2432V12.1081C4.00972 11.5708 4.44534 11.1351 4.98269 11.1351C5.52005 11.1351 5.95567 11.5708 5.95567 12.1081V17.2432C5.95567 17.4583 6.04109 17.6645 6.19315 17.8166C6.3452 17.9686 6.55144 18.0541 6.76648 18.0541H17.2432C17.4583 18.0541 17.6645 17.9686 17.8166 17.8166C17.9686 17.6645 18.0541 17.4583 18.0541 17.2432V6.75676C18.0541 6.54172 17.9686 6.33548 17.8166 6.18343C17.6645 6.03137 17.4583 5.94595 17.2432 5.94595H12.9453V9.43243C12.9453 9.96979 12.5097 10.4054 11.9723 10.4054C11.435 10.4054 10.9994 9.96979 10.9994 9.43243V5.94595H3.19891C2.66155 5.94595 2.22594 5.51033 2.22594 4.97297ZM3.11783 8.54054C3.11783 8.00318 3.55344 7.56757 4.0908 7.56757H8.55026C9.08762 7.56757 9.52323 8.00318 9.52323 8.54054C9.52323 9.0779 9.08762 9.51351 8.55026 9.51351H4.0908C3.55344 9.51351 3.11783 9.0779 3.11783 8.54054Z" fill="white"/>
</svg>
