<svg width="72" height="24" viewBox="0 0 72 24" fill="none" xmlns="http://www.w3.org/2000/svg">
<g clip-path="url(#clip0_13194_234644)">
<path d="M18.3 5H5.7C4.98392 5 4.29716 5.27656 3.79081 5.76884C3.28446 6.26113 3 6.92881 3 7.625V16.375C3 17.0712 3.28446 17.7389 3.79081 18.2312C4.29716 18.7234 4.98392 19 5.7 19H18.3C19.0161 19 19.7028 18.7234 20.2092 18.2312C20.7155 17.7389 21 17.0712 21 16.375V7.625C21 6.92881 20.7155 6.26113 20.2092 5.76884C19.7028 5.27656 19.0161 5 18.3 5ZM17.931 6.75L12.639 11.895C12.5553 11.977 12.4558 12.0421 12.3461 12.0865C12.2364 12.131 12.1188 12.1538 12 12.1538C11.8812 12.1538 11.7636 12.131 11.6539 12.0865C11.5442 12.0421 11.4447 11.977 11.361 11.895L6.069 6.75H17.931ZM19.2 16.375C19.2 16.6071 19.1052 16.8296 18.9364 16.9937C18.7676 17.1578 18.5387 17.25 18.3 17.25H5.7C5.46131 17.25 5.23239 17.1578 5.0636 16.9937C4.89482 16.8296 4.8 16.6071 4.8 16.375V7.98375L10.092 13.1287C10.5983 13.6203 11.2845 13.8964 12 13.8964C12.7155 13.8964 13.4017 13.6203 13.908 13.1287L19.2 7.98375V16.375Z" fill="white"/>
<path d="M53.5175 5C52.8453 5 52.2035 5.27057 51.7325 5.74759C51.2619 6.22414 51 6.86757 51 7.53563V16.3844C51 17.0735 51.2619 17.7373 51.7325 18.2288C52.2035 18.7209 52.8453 19 53.5175 19H66.4825C67.1547 19 67.7965 18.7209 68.2675 18.2288C68.7381 17.7373 69 17.0735 69 16.3844V7.53563C69 6.86757 68.7381 6.22414 68.2675 5.74759C67.7965 5.27057 67.1547 5 66.4825 5H53.5175ZM58.5587 11.6964C58.9628 12.0335 59.4628 12.2157 59.9764 12.2157C60.49 12.2157 60.99 12.0335 61.394 11.6964L66.9764 7.04005V9.34466L62.4928 13.0845C61.7803 13.6789 60.8928 14.0043 59.9764 14.0043C59.06 14.0043 58.1726 13.679 57.46 13.0846L52.9764 9.34466V7.04005L58.5587 11.6964Z" fill="white"/>
</g>
<defs>
<clipPath id="clip0_13194_234644">
<rect width="72" height="24" fill="white"/>
</clipPath>
</defs>
</svg>
