<svg width="24" height="24" viewBox="0 0 24 24" fill="none" xmlns="http://www.w3.org/2000/svg">
<path d="M14.2367 14.6282C14.2367 14.6282 21.214 9.41809 20.4401 3.45516C20.4321 3.35399 20.3933 3.25803 20.3294 3.18105C20.2579 3.11288 20.1663 3.07146 20.0694 3.06343C14.4383 2.24417 9.51894 9.63186 9.51894 9.63186C5.25091 9.10307 5.56128 9.9837 3.61407 14.8236C3.24144 15.7462 3.84537 16.0642 4.50761 15.8045L6.63075 14.975L9.19078 17.6833L8.40696 19.9325C8.16183 20.6341 8.46132 21.2734 9.3341 20.8796C13.9046 18.8176 14.7368 19.147 14.2367 14.6282ZM15.234 8.57735C14.9497 8.27328 14.7907 7.86671 14.7907 7.44357C14.7907 7.02043 14.9497 6.61387 15.234 6.3098C15.3731 6.16165 15.5395 6.04388 15.7234 5.96346C15.9073 5.88304 16.1049 5.8416 16.3045 5.8416C16.5041 5.8416 16.7017 5.88304 16.8856 5.96346C17.0694 6.04388 17.2359 6.16165 17.375 6.3098C17.6593 6.61387 17.8183 7.02043 17.8183 7.44357C17.8183 7.86671 17.6593 8.27328 17.375 8.57735C17.2359 8.7255 17.0694 8.84327 16.8856 8.92369C16.7017 9.00411 16.5041 9.04554 16.3045 9.04554C16.1049 9.04554 15.9073 9.00411 15.7234 8.92369C15.5395 8.84327 15.3731 8.7255 15.234 8.57735Z" fill="white"/>
</svg>
