<svg width="24" height="24" viewBox="0 0 24 24" fill="none" xmlns="http://www.w3.org/2000/svg">
<path fill-rule="evenodd" clip-rule="evenodd" d="M5.67358 5.66605C5.65175 5.36074 5.68961 5.04871 5.763 4.74751C6.00437 3.75691 6.78042 3.25127 7.56183 3.07962C8.30617 2.91612 9.13777 3.01993 9.87299 3.25005C10.6175 3.48309 11.3671 3.87771 11.9497 4.40697C11.9665 4.42229 11.9833 4.4378 12.0001 4.45351C12.0168 4.4378 12.0336 4.42229 12.0505 4.40697C12.633 3.87771 13.3826 3.48309 14.1271 3.25005C14.8624 3.01993 15.694 2.91612 16.4383 3.07962C17.2197 3.25127 17.9957 3.75691 18.2371 4.74751C18.3105 5.04871 18.3484 5.36074 18.3265 5.66605H19C20.1046 5.66605 21 6.56148 21 7.66605V10.3327C21 11.2035 20.4435 11.9444 19.6667 12.2189V18.9994C19.6667 20.1039 18.7712 20.9994 17.6667 20.9994H6.33333C5.22876 20.9994 4.33333 20.1039 4.33333 18.9994V12.1082C3.54502 11.7337 3 10.9302 3 9.99938V7.66605C3 6.56148 3.89543 5.66605 5 5.66605H5.67358ZM7.70614 5.22099L7.70708 5.2171C7.71897 5.16758 7.73793 5.08862 7.99092 5.03305C8.28771 4.96786 8.74929 4.99401 9.27558 5.15874C9.64563 5.27457 9.99688 5.44332 10.2884 5.64051C10.1062 5.64637 9.93067 5.65193 9.76369 5.65633C9.57627 5.66127 9.39997 5.66473 9.23439 5.66605H8.9556C8.63395 5.66312 8.35858 5.64911 8.1258 5.61797C7.84793 5.5808 7.71797 5.52937 7.66635 5.50379C7.66442 5.45693 7.67008 5.36901 7.70614 5.22099ZM8.93929 7.66605H5L5 9.99938C5 10.1835 5.14924 10.3327 5.33333 10.3327L19 10.3327V7.66605H15.0608C14.9554 7.66704 14.8489 7.66694 14.7418 7.66605H9.25836C9.15122 7.66694 9.04472 7.66704 8.93929 7.66605ZM15.0445 5.66605C15.3662 5.66312 15.6415 5.64911 15.8743 5.61797C16.1522 5.5808 16.2821 5.52937 16.3338 5.50379C16.3357 5.45693 16.33 5.36901 16.294 5.22099L16.293 5.2171C16.2811 5.16758 16.2622 5.08862 16.0092 5.03305C15.7124 4.96786 15.2508 4.99401 14.7245 5.15874C14.3545 5.27457 14.0032 5.44332 13.7117 5.64051C13.8939 5.64637 14.0694 5.65193 14.2364 5.65633C14.4239 5.66127 14.6002 5.66473 14.7657 5.66605H15.0445ZM16.3264 5.5484C16.3264 5.5484 16.3267 5.54226 16.331 5.53299C16.3291 5.54428 16.3264 5.5484 16.3264 5.5484ZM7.67373 5.5484C7.67373 5.5484 7.67098 5.54428 7.6691 5.53299C7.6734 5.54226 7.67373 5.5484 7.67373 5.5484ZM6.33333 18.9994V12.3327H17.6667V18.9994H6.33333Z" fill="white"/>
</svg>
