<svg width="24" height="24" viewBox="0 0 24 24" fill="none" xmlns="http://www.w3.org/2000/svg">
<path d="M12 15.8838C13.494 15.8838 14.7 14.6778 14.7 13.1838C14.7 12.1758 14.151 11.2938 13.35 10.8348L4.611 5.77684L9.588 14.3988C10.038 15.2808 10.947 15.8838 12 15.8838ZM12 4.18384C10.371 4.18384 8.85 4.63384 7.527 5.37184L9.417 6.46084C10.2 6.15484 11.1 5.98384 12 5.98384C15.978 5.98384 19.2 9.20584 19.2 13.1838C19.2 15.1728 18.399 16.9728 17.094 18.2688H17.085C17.0016 18.3521 16.9354 18.451 16.8902 18.5599C16.845 18.6687 16.8218 18.7855 16.8218 18.9033C16.8218 19.0212 16.845 19.1379 16.8902 19.2468C16.9354 19.3557 17.0016 19.4546 17.085 19.5378C17.436 19.8888 18.012 19.8888 18.363 19.5468C19.2 18.7122 19.8638 17.7204 20.3163 16.6284C20.7689 15.5365 21.0012 14.3659 21 13.1838C21 8.23384 16.95 4.18384 12 4.18384ZM3 13.1838C3 15.6678 4.008 17.9178 5.637 19.5468C5.988 19.8888 6.555 19.8888 6.906 19.5378C6.98943 19.4546 7.05562 19.3557 7.10079 19.2468C7.14595 19.1379 7.1692 19.0212 7.1692 18.9033C7.1692 18.7855 7.14595 18.6687 7.10079 18.5599C7.05562 18.451 6.98943 18.3521 6.906 18.2688C6.23667 17.6022 5.70596 16.8097 5.3445 15.9369C4.98304 15.0642 4.79798 14.1285 4.8 13.1838C4.8 12.2838 4.971 11.3838 5.286 10.5738L4.197 8.68384C3.45 10.0338 3 11.5458 3 13.1838Z" fill="white"/>
</svg>
