<svg width="24" height="24" viewBox="0 0 24 24" fill="none" xmlns="http://www.w3.org/2000/svg">
<path fill-rule="evenodd" clip-rule="evenodd" d="M15.6835 9.31648C16.3774 10.0104 17.3186 10.4002 18.2999 10.4002C19.2812 10.4002 20.2224 10.0104 20.9163 9.31648C21.6102 8.62258 22 7.68144 22 6.70011C22 5.71878 21.6102 4.77764 20.9163 4.08374C20.2224 3.38983 19.2812 3 18.2999 3C17.3186 3 16.3774 3.38983 15.6835 4.08374C14.9896 4.77764 14.5998 5.71878 14.5998 6.70011C14.5998 7.68144 14.9896 8.62258 15.6835 9.31648ZM19.4311 7.83098C19.131 8.131 18.7241 8.29955 18.2998 8.29955C17.8755 8.29955 17.4686 8.131 17.1686 7.83098C16.8686 7.53096 16.7001 7.12405 16.7001 6.69976C16.7001 6.27548 16.8686 5.86856 17.1686 5.56855C17.4686 5.26853 17.8755 5.09998 18.2998 5.09998C18.7241 5.09998 19.131 5.26853 19.4311 5.56855C19.7311 5.86856 19.8996 6.27548 19.8996 6.69976C19.8996 7.12405 19.7311 7.53096 19.4311 7.83098Z" fill="white"/>
<path d="M13.4586 4.98897L13.537 4.76663H5.05016C4.77164 4.76663 4.50453 4.87727 4.30759 5.07422C4.11064 5.27116 4 5.53827 4 5.81679V19.9498C4 20.2284 4.11064 20.4955 4.30759 20.6924C4.50453 20.8894 4.77164 21 5.05016 21H19.1832C19.4617 21 19.7288 20.8894 19.9258 20.6924C20.1227 20.4955 20.2334 20.2284 20.2334 19.9498V11.463L20.011 11.5414C19.4615 11.7353 18.8829 11.8339 18.3001 11.8332L18.133 11.8329V18.8997H6.10033V6.86696H13.1671L13.1668 6.69989C13.1661 6.11715 13.2647 5.53854 13.4586 4.98897Z" fill="white"/>
</svg>
