<svg width="24" height="24" viewBox="0 0 24 24" fill="none" xmlns="http://www.w3.org/2000/svg">
<path d="M5.61818 16.5227C5.61818 17.5043 6.4607 18.3 7.5 18.3H16.5C17.5393 18.3 18.3818 17.5043 18.3818 16.5227V10.7273H20.1818V16.5227C20.1818 18.4432 18.5334 20 16.5 20H7.5C5.46659 20 3.81818 18.4432 3.81818 16.5227V10.7273H5.61818V16.5227Z" fill="white"/>
<path fill-rule="evenodd" clip-rule="evenodd" d="M4.77718 7.21909C4.74313 7.21909 4.71614 7.21751 4.69539 7.21544C4.67145 7.15055 4.63636 7.01399 4.63636 6.76782V4.99673C4.63636 4.7395 4.67959 4.6056 4.7048 4.54915C4.72231 4.54712 4.74614 4.54545 4.77718 4.54545H19.2325C19.2626 4.54545 19.287 4.54669 19.3064 4.54838C19.3091 4.55601 19.3118 4.56454 19.3147 4.57404C19.3391 4.65551 19.3636 4.79185 19.3636 4.99673V6.76782C19.3636 6.9727 19.3391 7.10904 19.3147 7.19051C19.3118 7.20001 19.3091 7.20854 19.3064 7.21616C19.287 7.21786 19.2626 7.21909 19.2325 7.21909H4.77718ZM4.77718 8.76455H19.2325C20.4076 8.76455 21 8.02891 21 6.76782V4.99673C21 3.73564 20.4076 3 19.2325 3H4.77718C3.65066 3 3 3.73564 3 4.99673V6.76782C3 8.02891 3.6021 8.76455 4.77718 8.76455Z" fill="white"/>
</svg>
