<svg width="24" height="24" viewBox="0 0 24 24" fill="none" xmlns="http://www.w3.org/2000/svg">
<path fill-rule="evenodd" clip-rule="evenodd" d="M18.693 4.22725C18.8882 4.39957 19 4.64742 19 4.90781V15.4043C19 17.3157 17.4505 18.8652 15.539 18.8652C13.6276 18.8652 12.078 17.3157 12.078 15.4043C12.078 13.4928 13.6276 11.9433 15.539 11.9433C16.1346 11.9433 16.695 12.0937 17.1844 12.3586V5.93615L9.92199 6.84395V16.539C9.92199 18.4505 8.37245 20 6.46099 20C4.54954 20 3 18.4505 3 16.539C3 14.6276 4.54954 13.078 6.46099 13.078C7.05657 13.078 7.61701 13.2285 8.10638 13.4934V6.04256C8.10638 5.58473 8.4473 5.19855 8.90159 5.14177L17.9796 4.00702C18.238 3.97472 18.4978 4.05492 18.693 4.22725ZM8.10638 16.539C8.10638 15.6303 7.36972 14.8936 6.46099 14.8936C5.55227 14.8936 4.8156 15.6303 4.8156 16.539C4.8156 17.4477 5.55227 18.1844 6.46099 18.1844C7.36972 18.1844 8.10638 17.4477 8.10638 16.539ZM17.1844 15.4043C17.1844 14.4955 16.4477 13.7589 15.539 13.7589C14.6303 13.7589 13.8936 14.4955 13.8936 15.4043C13.8936 16.313 14.6303 17.0496 15.539 17.0496C16.4477 17.0496 17.1844 16.313 17.1844 15.4043Z" fill="white"/>
</svg>
