<svg width="24" height="24" viewBox="0 0 24 24" fill="none" xmlns="http://www.w3.org/2000/svg">
<path d="M4.89416 4.42746C5.03809 4.16395 5.31457 4 5.61504 4H8.04068C8.66411 4 9.0602 4.66678 8.76156 5.21355L6.96892 8.49557C6.82499 8.75908 6.5485 8.92303 6.24804 8.92303H3.8224C3.19896 8.92303 2.80287 8.25625 3.10152 7.70948L4.89416 4.42746Z" fill="white"/>
<path d="M10.4329 4.43595C10.5754 4.16771 10.8544 4 11.1584 4H12.843C13.1469 4 13.426 4.16771 13.5684 4.43595L15.3113 7.71797C15.6015 8.26446 15.205 8.92303 14.5858 8.92303H9.41553C8.79635 8.92303 8.39988 8.26446 8.69007 7.71797L10.4329 4.43595Z" fill="white"/>
<path d="M15.2384 5.21355C14.9398 4.66678 15.3359 4 15.9593 4H18.385C18.6854 4 18.9619 4.16394 19.1058 4.42746L20.8985 7.70948C21.1971 8.25625 20.801 8.92303 20.1776 8.92303H17.752C17.4515 8.92303 17.175 8.75908 17.0311 8.49557L15.2384 5.21355Z" fill="white"/>
<path fill-rule="evenodd" clip-rule="evenodd" d="M4.97094 18.359V10.1539H7V17.999H17V10.1539H19V18.359C19 19.2653 17.9731 20 17.066 20H6.61342C5.7063 20 4.97094 19.2653 4.97094 18.359Z" fill="white"/>
</svg>
