<svg width="24" height="24" viewBox="0 0 24 24" fill="none" xmlns="http://www.w3.org/2000/svg">
<path d="M12 21C10.755 21 9.585 20.7636 8.49 20.2908C7.395 19.818 6.4425 19.1769 5.6325 18.3675C4.8225 17.5575 4.1814 16.605 3.7092 15.51C3.237 14.415 3.0006 13.245 3 12C3 10.755 3.2364 9.585 3.7092 8.49C4.182 7.395 4.8231 6.4425 5.6325 5.6325C6.4425 4.8225 7.395 4.1814 8.49 3.7092C9.585 3.237 10.755 3.0006 12 3C13.245 3 14.415 3.2364 15.51 3.7092C16.605 4.182 17.5575 4.8231 18.3675 5.6325C19.1775 6.4425 19.8189 7.395 20.2917 8.49C20.7645 9.585 21.0006 10.755 21 12C21 13.245 20.7636 14.415 20.2908 15.51C19.818 16.605 19.1769 17.5575 18.3675 18.3675C17.5575 19.1775 16.605 19.8189 15.51 20.2917C14.415 20.7645 13.245 21.0006 12 21ZM9.39 18.705L10.47 16.23C9.84 16.005 9.2964 15.6564 8.8392 15.1842C8.382 14.712 8.0256 14.1606 7.77 13.53L5.295 14.565C5.64 15.525 6.1725 16.365 6.8925 17.085C7.6125 17.805 8.445 18.345 9.39 18.705ZM7.77 10.47C8.025 9.84 8.3814 9.2889 8.8392 8.8167C9.297 8.3445 9.8406 7.9956 10.47 7.77L9.435 5.295C8.475 5.655 7.635 6.195 6.915 6.915C6.195 7.635 5.655 8.475 5.295 9.435L7.77 10.47ZM12 14.7C12.75 14.7 13.3875 14.4375 13.9125 13.9125C14.4375 13.3875 14.7 12.75 14.7 12C14.7 11.25 14.4375 10.6125 13.9125 10.0875C13.3875 9.5625 12.75 9.3 12 9.3C11.25 9.3 10.6125 9.5625 10.0875 10.0875C9.5625 10.6125 9.3 11.25 9.3 12C9.3 12.75 9.5625 13.3875 10.0875 13.9125C10.6125 14.4375 11.25 14.7 12 14.7ZM14.61 18.705C15.555 18.345 16.3839 17.8089 17.0967 17.0967C17.8095 16.3845 18.3456 15.5556 18.705 14.61L16.23 13.53C16.005 14.16 15.66 14.7039 15.195 15.1617C14.73 15.6195 14.19 15.9756 13.575 16.23L14.61 18.705ZM16.23 10.425L18.705 9.39C18.345 8.445 17.8089 7.6164 17.0967 6.9042C16.3845 6.192 15.5556 5.6556 14.61 5.295L13.575 7.815C14.19 8.04 14.7225 8.3814 15.1725 8.8392C15.6225 9.297 15.975 9.8256 16.23 10.425Z" fill="white"/>
</svg>
