<svg width="72" height="24" viewBox="0 0 72 24" fill="none" xmlns="http://www.w3.org/2000/svg">
<g clip-path="url(#clip0_13528_166839)">
<path d="M17.3987 5.34495V3.5H6.59866V5.34495H2.99866V7.97368C2.99866 10.2329 4.69876 12.0877 6.89026 12.3865C7.20416 13.3017 7.76092 14.1155 8.50169 14.742C9.24246 15.3685 10.1397 15.7844 11.0987 15.9458V16.9211C11.0987 17.3956 10.909 17.8508 10.5714 18.1864C10.2339 18.522 9.77605 18.7105 9.29866 18.7105H8.39866V20.5H15.5987V18.7105H14.6987C14.2213 18.7105 13.7634 18.522 13.4259 18.1864C13.0883 17.8508 12.8987 17.3956 12.8987 16.9211V15.9458C13.8576 15.7844 14.7549 15.3685 15.4956 14.742C16.2364 14.1155 16.7932 13.3017 17.1071 12.3865C19.2986 12.0877 20.9987 10.2329 20.9987 7.97368V5.34495H17.3987ZM4.79866 7.97368V7.13442H6.59866V10.504C6.0726 10.3185 5.61717 9.97577 5.29489 9.52272C4.9726 9.06968 4.79926 8.52857 4.79866 7.97368ZM19.1987 7.97368C19.198 8.52867 19.0246 9.06985 18.7024 9.52302C18.3801 9.97619 17.9247 10.3192 17.3987 10.5049V7.13442H19.1987V7.97368Z" fill="white"/>
<path d="M65.3994 3.5V5.34473H69V7.97363C69 10.2327 67.2997 12.0877 65.1084 12.3867C64.7945 13.3018 64.2377 14.1157 63.4971 14.7422C62.7563 15.3687 61.8583 15.7839 60.8994 15.9453V16.9209C60.8994 17.3955 61.0892 17.8509 61.4268 18.1865C61.7642 18.522 62.222 18.7108 62.6992 18.7109H63.5996V20.5H56.3994V18.7109H57.2998C57.7771 18.7109 58.2348 18.522 58.5723 18.1865C58.9098 17.8509 59.0996 17.3955 59.0996 16.9209V15.9453C58.1408 15.784 57.2436 15.3686 56.5029 14.7422C55.7622 14.1157 55.2055 13.3017 54.8916 12.3867C52.7001 12.0879 51 10.2328 51 7.97363V5.34473H54.5996V3.5H65.3994ZM56.5293 5.29004V7.91797C56.5293 7.91797 56.5023 10.024 56.5293 10.3545C56.5563 10.6837 56.5152 11.0542 56.7178 11.7158C56.9204 12.3776 57.2796 12.9669 57.7578 13.4199C58.236 13.8729 58.8157 14.1734 59.4346 14.29C59.448 14.2923 59.7922 14.3495 60.0146 14.3496C60.2372 14.3496 60.5825 14.2923 60.5957 14.29C61.2146 14.1734 61.7943 13.8729 62.2725 13.4199C62.7506 12.9669 63.1099 12.3776 63.3125 11.7158C63.3167 11.6981 63.501 10.9247 63.501 10.3555V5.29004H56.5293ZM65.3994 7.13477V10.5049C65.9253 10.3192 66.3809 9.97642 66.7031 9.52344C67.0254 9.07027 67.1985 8.52861 67.1992 7.97363V7.13477H65.3994ZM52.7998 7.13477V7.97363C52.8004 8.52846 52.9737 9.06945 53.2959 9.52246C53.6182 9.97549 54.0736 10.3184 54.5996 10.5039V7.13477H52.7998Z" fill="white"/>
</g>
<defs>
<clipPath id="clip0_13528_166839">
<rect width="72" height="24" fill="white"/>
</clipPath>
</defs>
</svg>
