<svg width="24" height="24" viewBox="0 0 24 24" fill="none" xmlns="http://www.w3.org/2000/svg">
<path d="M12 20.5C11.8281 20.5 11.6681 20.4884 11.52 20.4653C11.3713 20.4427 11.2344 20.4086 11.1094 20.3629C9.17188 19.6624 7.58594 18.4137 6.35156 16.6168C5.11719 14.8198 4.5 12.8401 4.5 10.6777V6.36041C4.5 5.9797 4.61344 5.63706 4.84031 5.33249C5.06656 5.02792 5.35938 4.80711 5.71875 4.67005L11.3438 2.61421C11.5625 2.53807 11.7812 2.5 12 2.5C12.2188 2.5 12.4375 2.53807 12.6562 2.61421L18.2813 4.67005C18.6406 4.80711 18.9338 5.02792 19.1606 5.33249C19.3869 5.63706 19.5 5.9797 19.5 6.36041V10.6777C19.5 12.8401 18.8828 14.8198 17.6484 16.6168C16.4141 18.4137 14.8281 19.6624 12.8906 20.3629C12.7656 20.4086 12.6287 20.4427 12.48 20.4653C12.3319 20.4884 12.1719 20.5 12 20.5ZM12 18.7183C13.5156 18.2614 14.7812 17.3593 15.7969 16.0119C16.8125 14.6639 17.4063 13.1599 17.5781 11.5H12V4.30457L6.375 6.36041V11.0888C6.375 11.1954 6.39063 11.3325 6.42188 11.5H12V18.7183Z" fill="white"/>
</svg>
