<svg width="24" height="24" viewBox="0 0 24 24" fill="none" xmlns="http://www.w3.org/2000/svg">
<path d="M15.0625 15.0147C15.9945 15.0147 16.75 14.278 16.75 13.3691C16.75 12.4603 15.9945 11.7236 15.0625 11.7236C14.1305 11.7236 13.375 12.4603 13.375 13.3691C13.375 14.278 14.1305 15.0147 15.0625 15.0147Z" fill="white"/>
<path fill-rule="evenodd" clip-rule="evenodd" d="M3 8.14173C3 7.11459 3.73073 6.4797 4.75861 6.25538L16.0086 3.54541C17.4146 3.23856 18.75 4.53632 18.75 5.94134V6.49312C19.9926 6.49312 21 7.22066 21 8.43243V18.3059C21 19.5177 19.9926 20.5 18.75 20.5H5.25C4.00736 20.5 3 19.5177 3 18.3059V8.43243V8.14173ZM12.166 6.49312H16.4514C16.2818 5.94943 15.6932 5.60026 15.0923 5.75236L12.166 6.49312ZM5.25 8.49404H19V18.5606L5.25 18.499V8.49404Z" fill="white"/>
</svg>
