<svg width="24" height="24" viewBox="0 0 24 24" fill="none" xmlns="http://www.w3.org/2000/svg">
<path d="M5.41786 16.074L3.65357 15.0562L4.80714 13.0205H2.5V10.9847H4.80714L3.65357 9.01688L5.41786 7.99902L6.57143 9.96688L7.725 7.99902L9.48929 9.01688L8.33571 10.9847H10.6429V13.0205H8.33571L9.48929 15.0562L7.725 16.074L6.57143 14.0383L5.41786 16.074ZM16.275 16.074L14.5107 15.0562L15.6643 13.0205H13.3571V10.9847H15.6643L14.5107 9.01688L16.275 7.99902L17.4286 9.96688L18.5821 7.99902L20.3464 9.01688L19.1929 10.9847H21.5V13.0205H19.1929L20.3464 15.0562L18.5821 16.074L17.4286 14.0383L16.275 16.074Z" fill="white"/>
</svg>
