<svg width="64" height="24" viewBox="0 0 64 24" fill="none" xmlns="http://www.w3.org/2000/svg">
<g clip-path="url(#clip0_7248_86940)">
<path fill-rule="evenodd" clip-rule="evenodd" d="M8.75532 2.5L12 3.80911L15.2447 2.5L17.0608 5.37343L20.4947 6.12868L20.1886 9.46888L22.5 12L20.1886 14.5311L20.4947 17.8713L17.0608 18.6266L15.2447 21.5L12 20.1909L8.75532 21.5L6.93917 18.6266L3.50532 17.8713L3.8114 14.5311L1.5 12L3.8114 9.46888L3.50532 6.12868L6.93917 5.37343L8.75532 2.5ZM14.6669 9.32774C14.9028 9.32774 15.1291 9.42145 15.296 9.58825L17.1179 11.4763L16 12.6661L14.6669 11.4763L12.6265 13.5157C12.4733 13.6689 12.2695 13.7609 12.0532 13.7745C11.837 13.7881 11.6232 13.7223 11.452 13.5895L11.3684 13.5157L10.2178 12.3661L8.17747 14.4054L6.91927 13.1473L9.58872 10.478C9.75558 10.3112 9.98187 10.2175 10.2178 10.2175C10.4538 10.2175 10.6801 10.3112 10.8469 10.478L11.9974 11.6276L14.0378 9.58825C14.2047 9.42145 14.4309 9.32774 14.6669 9.32774Z" fill="white"/>
<path fill-rule="evenodd" clip-rule="evenodd" d="M60.0766 21.2787L61.2787 20.0766L43.601 2.39893L42.399 3.60101L60.0766 21.2787Z" fill="#FF5C5C"/>
<path fill-rule="evenodd" clip-rule="evenodd" d="M60.4889 17.8726L60.4947 17.8713L60.1886 14.5311L62.5 12L60.1886 9.46884L60.4947 6.12864L57.0608 5.3734L55.2447 2.49997L52 3.80908L48.7553 2.49997L47.346 4.72971L53.1209 10.5046L54.0378 9.58822C54.2046 9.42142 54.4309 9.32771 54.6669 9.32771C54.9028 9.32771 55.1291 9.42142 55.296 9.58822L57.1179 11.4763L56 12.6661L54.6669 11.4763L54.3797 11.7634L60.4889 17.8726Z" fill="white"/>
<path fill-rule="evenodd" clip-rule="evenodd" d="M43.5111 6.12738L43.5053 6.12864L43.8114 9.46884L41.5 12L43.8114 14.5311L43.5053 17.8713L46.9392 18.6265L48.7553 21.5L52 20.1909L55.2447 21.5L56.654 19.2703L49.9837 12.6L48.1774 14.4054L46.9193 13.1473L48.7252 11.3415L43.5111 6.12738Z" fill="white"/>
</g>
<defs>
<clipPath id="clip0_7248_86940">
<rect width="64" height="24" rx="5" fill="white"/>
</clipPath>
</defs>
</svg>
