<svg width="24" height="24" viewBox="0 0 24 24" fill="none" xmlns="http://www.w3.org/2000/svg">
<path fill-rule="evenodd" clip-rule="evenodd" d="M12 2C13.3547 2 14.648 2.26353 15.8842 2.7909C17.1284 3.3217 18.1903 4.03165 19.0762 4.91882C19.9628 5.80664 20.6735 6.86788 21.2064 8.10861C21.7354 9.34016 22 10.6335 22 11.9932C22 13.3528 21.7354 14.6487 21.2061 15.8852C20.6731 17.1304 19.9625 18.1937 19.0762 19.0812C18.1903 19.9684 17.1284 20.6783 15.8842 21.2091C14.648 21.7365 13.3547 22 12 22C10.6453 22 9.35204 21.7365 8.11584 21.2091C6.87159 20.6783 5.80967 19.9684 4.92378 19.0812C4.03755 18.1937 3.32688 17.1304 2.79387 15.8852C2.26462 14.6487 2 13.3528 2 11.9932C2 10.6335 2.26461 9.34016 2.79361 8.10861C3.32655 6.86788 4.03724 5.80664 4.92378 4.91882C5.80967 4.03165 6.87159 3.3217 8.11584 2.7909C9.35204 2.26353 10.6453 2 12 2ZM16.0072 5.07937C14.7826 4.36665 13.4434 4.01065 12 4.01065C10.389 4.01065 8.91569 4.45535 7.59398 5.34324L7.06403 5.69924L18.3239 16.9058L18.6777 16.3631C19.5458 15.0312 19.9825 13.5707 19.9825 11.9932C19.9825 10.5547 19.6253 9.21621 18.911 7.98757C18.1985 6.76201 17.2287 5.79026 16.0072 5.07937ZM5.64858 7.13508L5.29486 7.67804C4.44405 8.984 4.01755 10.4265 4.01755 11.9932C4.01755 13.0738 4.22798 14.1109 4.6486 15.1004C5.06611 16.0825 5.6329 16.9346 6.35097 17.6502C7.0677 18.3645 7.91665 18.9312 8.89209 19.352C9.87731 19.777 10.9148 19.9893 12 19.9893C13.566 19.9893 15.0222 19.5535 16.3574 18.689L16.9028 18.336L5.64858 7.13508Z" fill="white"/>
</svg>
