<svg width="24" height="24" viewBox="0 0 24 24" fill="none" xmlns="http://www.w3.org/2000/svg">
<path fill-rule="evenodd" clip-rule="evenodd" d="M8.75532 2.49902L12 3.80821L15.2447 2.49902L17.0608 5.37262L20.4947 6.1279L20.1886 9.46829L22.5 11.9996L20.1886 14.5308L20.4947 17.8712L17.0608 18.6265L15.2447 21.5001L12 20.1909L8.75532 21.5001L6.93917 18.6265L3.50532 17.8712L3.8114 14.5308L1.5 11.9996L3.8114 9.46829L3.50532 6.1279L6.93917 5.37261L8.75532 2.49902ZM16.5036 12.3203L16.4168 12.1489C16.2771 11.8403 15.8844 11.3089 15.8844 11.3089C15.7277 11.1118 15.5357 10.9318 15.3611 10.7605C14.899 10.3577 14.3846 10.0748 13.9395 9.65488C12.9192 8.67798 12.6926 7.07526 13.3467 5.84121C12.6926 5.99542 12.1254 6.33835 11.6369 6.72396C9.86662 8.11222 9.16906 10.5548 10.0063 12.6544C10.0204 12.6917 10.0348 12.7289 10.0446 12.7689C10.0531 12.8026 10.0587 12.8381 10.0587 12.8773C10.0587 13.0229 9.95392 13.1516 9.82318 13.2116C9.65752 13.2715 9.50038 13.2371 9.3871 13.1258C9.33813 13.1014 9.29852 13.0622 9.2734 13.0145C8.51494 12.0631 8.37526 10.6918 8.8897 9.60341C7.74712 10.5119 7.12792 12.046 7.2067 13.4857L7.23268 13.6552C7.27356 13.9331 7.31444 14.2107 7.4158 14.4886C7.51162 14.8913 7.69516 15.2684 7.90426 15.6454C8.63674 16.7939 9.919 17.6252 11.2971 17.7879C12.762 17.9679 14.3322 17.7109 15.4573 16.7253C16.7132 15.6111 17.1492 13.8372 16.5036 12.3203ZM14.3237 13.7083C14.3496 13.8027 14.3586 13.8969 14.3586 13.9826C14.3846 14.5396 14.1316 15.1395 13.7219 15.5082C13.5299 15.6709 13.216 15.8423 12.9716 15.9109C12.2042 16.1764 11.4368 15.7994 10.9832 15.3623C11.803 15.1738 12.2829 14.5911 12.4397 13.9826C12.5125 13.6188 12.429 13.2964 12.3421 12.9608C12.3042 12.8141 12.2655 12.6649 12.2391 12.5086C12.1518 12.0115 12.1692 11.5915 12.3524 11.1373C12.4328 11.29 12.5167 11.4459 12.6074 11.5892C12.6645 11.6792 12.7246 11.7642 12.7884 11.8401C13.3118 12.5086 14.1405 12.7999 14.3237 13.7083Z" fill="white"/>
</svg>
