<svg width="20" height="20" viewBox="0 0 20 20" fill="none" xmlns="http://www.w3.org/2000/svg">
<g clip-path="url(#clip0_12159_236530)">
<path d="M10 3.3335C10.8841 3.3335 11.7319 3.68469 12.357 4.30981C12.9822 4.93493 13.3333 5.78277 13.3333 6.66683C13.3333 7.55088 12.9822 8.39873 12.357 9.02385C11.7319 9.64897 10.8841 10.0002 10 10.0002C9.11595 10.0002 8.26811 9.64897 7.64299 9.02385C7.01787 8.39873 6.66668 7.55088 6.66668 6.66683C6.66668 5.78277 7.01787 4.93493 7.64299 4.30981C8.26811 3.68469 9.11595 3.3335 10 3.3335ZM10 11.6668C13.6833 11.6668 16.6667 13.1585 16.6667 15.0002V16.6668H3.33334V15.0002C3.33334 13.1585 6.31668 11.6668 10 11.6668ZM5.83334 18.3335H7.50001V20.0002H5.83334V18.3335ZM9.16668 18.3335H10.8333V20.0002H9.16668V18.3335ZM12.5 18.3335H14.1667V20.0002H12.5V18.3335Z" fill="white"/>
</g>
<defs>
<clipPath id="clip0_12159_236530">
<rect width="20" height="20" fill="white"/>
</clipPath>
</defs>
</svg>
