<svg width="24" height="24" viewBox="0 0 24 24" fill="none" xmlns="http://www.w3.org/2000/svg">
<path d="M18.6786 4.5H16.8571V2.46875C16.8571 2.21094 16.6522 2 16.4018 2H14.8839C14.6335 2 14.4286 2.21094 14.4286 2.46875V4.5H9.57143V2.46875C9.57143 2.21094 9.36652 2 9.11607 2H7.59821C7.34777 2 7.14286 2.21094 7.14286 2.46875V4.5H5.32143C4.31585 4.5 3.5 5.33984 3.5 6.375V20.125C3.5 21.1602 4.31585 22 5.32143 22H18.6786C19.6842 22 20.5 21.1602 20.5 20.125V6.375C20.5 5.33984 19.6842 4.5 18.6786 4.5ZM18.4509 20.125H5.54911C5.42388 20.125 5.32143 20.0195 5.32143 19.8906V8.25H18.6786V19.8906C18.6786 20.0195 18.5761 20.125 18.4509 20.125Z" fill="white"/>
</svg>
