<svg width="72" height="24" viewBox="0 0 72 24" fill="none" xmlns="http://www.w3.org/2000/svg">
<g clip-path="url(#clip0_10422_175423)">
<path d="M11.9994 2C6.47752 2 2 6.47752 2 11.9994C2 17.5213 6.46641 21.9989 11.9994 21.9989C17.5213 21.9989 21.9989 17.5213 21.9989 11.9994C21.9989 6.47752 17.5213 2 11.9994 2ZM11.9994 19.999C7.69968 19.999 3.99989 16.2992 3.99989 11.9994C3.99989 7.69968 7.69968 3.99989 11.9994 3.99989C16.2992 3.99989 19.999 7.69968 19.999 11.9994C19.999 16.2992 16.2992 19.999 11.9994 19.999Z" fill="white"/>
<path d="M10.9995 7.49969H12.9994V11.4995H16.9992V13.4993H10.9995V7.49969Z" fill="white"/>
<path fill-rule="evenodd" clip-rule="evenodd" d="M59.999 2C65.5208 2 69.9988 6.4773 69.999 11.999C69.999 17.5209 65.5209 21.999 59.999 21.999C54.4662 21.9988 50 17.5208 50 11.999C50.0002 6.47744 54.4774 2.00022 59.999 2ZM58.999 7.5V13.499H64.999V11.499H60.999V7.5H58.999Z" fill="white"/>
</g>
<defs>
<clipPath id="clip0_10422_175423">
<rect width="72" height="24" rx="5" fill="white"/>
</clipPath>
</defs>
</svg>
