<svg width="24" height="24" viewBox="0 0 24 24" fill="none" xmlns="http://www.w3.org/2000/svg">
<path d="M12 14.5H10V8.5H12V14.5ZM14 1.5H8V3.5H14V1.5ZM4 13.5C4.00018 11.7897 4.62694 10.1387 5.7618 8.85921C6.89665 7.57969 8.46096 6.76026 10.159 6.55586C11.857 6.35146 13.5711 6.77623 14.9772 7.74989C16.3833 8.72355 17.384 10.1786 17.79 11.84L18.39 11.24C18.71 10.92 19.1 10.71 19.5 10.6C19.1774 9.61541 18.6794 8.69729 18.03 7.89L19.45 6.47C19 5.96 18.55 5.5 18.04 5.06L16.62 6.5C15.07 5.24 13.12 4.5 11 4.5C8.61305 4.5 6.32387 5.44821 4.63604 7.13604C2.94821 8.82387 2 11.1131 2 13.5C2 18.13 5.5 21.94 10 22.44V20.42C6.61 19.93 4 17.03 4 13.5ZM12 20.46V22.5H14.04L20.17 16.38L18.13 14.33L12 20.46ZM21.85 13.97L20.53 12.65C20.33 12.45 20 12.45 19.81 12.65L18.83 13.63L20.87 15.67L21.85 14.69C22.05 14.5 22.05 14.17 21.85 13.97Z" fill="white"/>
</svg>
