<svg width="64" height="24" viewBox="0 0 64 24" fill="none" xmlns="http://www.w3.org/2000/svg">
<g clip-path="url(#clip0_13200_242286)">
<path d="M12.0001 14.5C12.667 14.5 13.3065 14.2366 13.778 13.7678C14.2495 13.2989 14.5144 12.663 14.5144 12C14.5144 11.337 14.2495 10.7011 13.778 10.2322C13.3065 9.76339 12.667 9.5 12.0001 9.5C11.3333 9.5 10.6938 9.76339 10.2223 10.2322C9.75076 10.7011 9.48586 11.337 9.48586 12C9.48586 12.663 9.75076 13.2989 10.2223 13.7678C10.6938 14.2366 11.3333 14.5 12.0001 14.5Z" fill="white"/>
<path fill-rule="evenodd" clip-rule="evenodd" d="M2.6108 12.59C2.46307 12.2083 2.46307 11.7857 2.6108 11.404C3.34219 9.51849 4.63073 7.89744 6.30676 6.75431C7.98279 5.61117 9.96771 4.99956 12.0001 5C16.2815 5 19.9383 7.66 21.3895 11.41C21.5373 11.791 21.5363 12.214 21.3895 12.596C20.6581 14.4815 19.3696 16.1026 17.6935 17.2457C16.0175 18.3888 14.0326 19.0004 12.0001 19C7.71882 19 4.06205 16.34 2.6108 12.59ZM16.023 12C16.023 13.0609 15.5992 14.0783 14.8447 14.8284C14.0903 15.5786 13.0671 16 12.0001 16C10.9332 16 9.90999 15.5786 9.15556 14.8284C8.40113 14.0783 7.97729 13.0609 7.97729 12C7.97729 10.9391 8.40113 9.92172 9.15556 9.17157C9.90999 8.42143 10.9332 8 12.0001 8C13.0671 8 14.0903 8.42143 14.8447 9.17157C15.5992 9.92172 16.023 10.9391 16.023 12Z" fill="white"/>
<path d="M52 19C52.946 19 53.81 18.897 54.598 18.719L52.841 16.962C52.568 16.983 52.291 17 52 17C46.649 17 44.576 13.154 44.074 12C44.4503 11.1584 44.9595 10.3829 45.582 9.70297L44.184 8.30497C42.646 9.97197 42.063 11.651 42.052 11.684C41.9835 11.8894 41.9835 12.1115 42.052 12.317C42.073 12.383 44.367 19 52 19ZM52 4.99997C50.163 4.99997 48.654 5.39597 47.396 5.98097L43.707 2.29297L42.293 3.70697L60.293 21.707L61.707 20.293L58.388 16.974C61.002 15.023 61.935 12.359 61.949 12.317C62.0175 12.1115 62.0175 11.8894 61.949 11.684C61.927 11.617 59.633 4.99997 52 4.99997ZM56.972 15.558L54.692 13.278C54.882 12.888 55 12.459 55 12C55 10.359 53.641 8.99997 52 8.99997C51.541 8.99997 51.112 9.11797 50.723 9.30897L48.915 7.50097C49.9077 7.16113 50.9508 6.99174 52 6.99997C57.351 6.99997 59.424 10.846 59.926 12C59.624 12.692 58.76 14.342 56.972 15.558Z" fill="white"/>
</g>
<defs>
<clipPath id="clip0_13200_242286">
<rect width="64" height="24" fill="white"/>
</clipPath>
</defs>
</svg>
