<svg width="24" height="24" viewBox="0 0 24 24" fill="none" xmlns="http://www.w3.org/2000/svg">
<path d="M12 21.5C6.75329 21.5 2.5 17.2467 2.5 12C2.5 6.75329 6.75329 2.5 12 2.5C17.2467 2.5 21.5 6.75329 21.5 12C21.5 17.2467 17.2467 21.5 12 21.5ZM9.82452 19.284C8.91006 17.3446 8.34945 15.2055 8.22594 12.95H4.4588C4.8351 15.9677 6.98057 18.436 9.82452 19.284ZM10.1292 12.95C10.272 15.2669 10.9339 17.4432 12 19.3644C13.0661 17.4432 13.728 15.2669 13.8708 12.95H10.1292ZM19.5412 12.95H15.7741C15.6506 15.2055 15.09 17.3446 14.1755 19.284C17.0194 18.436 19.1649 15.9677 19.5412 12.95ZM4.4588 11.05H8.22594C8.34945 8.79448 8.91006 6.65537 9.82452 4.71593C6.98057 5.56406 4.8351 8.03232 4.4588 11.05ZM10.1292 11.05H13.8708C13.728 8.73316 13.0661 6.55674 12 4.63559C10.9339 6.55674 10.272 8.73316 10.1292 11.05ZM14.1755 4.71593C15.09 6.65537 15.6506 8.79448 15.7741 11.05H19.5412C19.1649 8.03232 17.0194 5.56406 14.1755 4.71593Z" fill="white"/>
</svg>
