<svg width="24" height="24" viewBox="0 0 24 24" fill="none" xmlns="http://www.w3.org/2000/svg">
<path fill-rule="evenodd" clip-rule="evenodd" d="M8.75532 2.5L12 3.80918L15.2447 2.5L17.0608 5.37359L20.4947 6.12888L20.1886 9.46927L22.5 12.0005L20.1886 14.5318L20.4947 17.8722L17.0608 18.6275L15.2447 21.5011L12 20.1919L8.75532 21.5011L6.93917 18.6275L3.50532 17.8722L3.8114 14.5318L1.5 12.0005L3.8114 9.46927L3.50532 6.12888L6.93917 5.37359L8.75532 2.5ZM16.4868 9.34895L15.0718 7.93487L8.00036 15.0063L9.41544 16.4213L16.4868 9.34895ZM10.1121 10.8269C10.2951 10.7483 10.4606 10.634 10.599 10.4908C10.8722 10.2078 11.0234 9.82891 11.02 9.4356C11.0166 9.04228 10.8588 8.66604 10.5807 8.38791C10.3026 8.10978 9.92633 7.95202 9.53301 7.9486C9.1397 7.94519 8.76077 8.09639 8.47785 8.36964C8.33458 8.50802 8.2203 8.67354 8.14168 8.85656C8.06307 9.03958 8.02168 9.23642 8.01995 9.4356C8.01822 9.63478 8.05618 9.83231 8.1316 10.0167C8.20703 10.201 8.31841 10.3685 8.45926 10.5093C8.60011 10.6502 8.76759 10.7616 8.95195 10.837C9.1363 10.9124 9.33383 10.9504 9.53301 10.9487C9.73219 10.9469 9.92904 10.9055 10.1121 10.8269ZM15.8024 15.6903C16.0756 15.4073 16.2268 15.0284 16.2234 14.6351C16.22 14.2418 16.0622 13.8655 15.7841 13.5874C15.506 13.3093 15.1297 13.1515 14.7364 13.1481C14.3431 13.1447 13.9642 13.2959 13.6813 13.5691C13.538 13.7075 13.4237 13.8731 13.3451 14.0561C13.2665 14.2391 13.2251 14.4359 13.2234 14.6351C13.2216 14.8343 13.2596 15.0318 13.335 15.2162C13.4104 15.4005 13.5218 15.568 13.6627 15.7089C13.8035 15.8497 13.971 15.9611 14.1554 16.0365C14.3397 16.1119 14.5372 16.1499 14.7364 16.1482C14.9356 16.1464 15.1325 16.1051 15.3155 16.0264C15.4985 15.9478 15.664 15.8335 15.8024 15.6903Z" fill="white"/>
</svg>
