<svg width="24" height="24" viewBox="0 0 24 24" fill="none" xmlns="http://www.w3.org/2000/svg">
<path fill-rule="evenodd" clip-rule="evenodd" d="M16.5479 3.46582C19.3425 3.60309 21.4998 5.84016 21.5 8.68359L21.4902 9.01758C21.2963 12.4502 18.1176 15.3398 13.3779 19.6377L12 20.8916L10.6221 19.6377C5.72964 15.2013 2.5 12.2651 2.5 8.68359C2.5002 5.74841 4.79893 3.45919 7.72461 3.45898C9.3775 3.45898 10.9645 4.22821 12 5.43457C13.0355 4.22821 14.6225 3.45898 16.2754 3.45898L16.5479 3.46582ZM16.2754 5.35938C15.1968 5.35938 14.1293 5.87138 13.4414 6.67285L12 8.35254L10.5586 6.67285C9.87072 5.87138 8.80323 5.35938 7.72461 5.35938C5.84601 5.35957 4.40059 6.80002 4.40039 8.68359C4.40039 9.84966 4.90884 11.0613 6.19727 12.6377C7.1794 13.8393 8.49857 15.1176 10.1445 16.6318L11.8984 18.2305L11.9014 18.2324L12 18.3213L12.0986 18.2324L12.1016 18.2305C14.5852 15.9783 16.4933 14.2397 17.8027 12.6377C19.0912 11.0613 19.5996 9.84966 19.5996 8.68359C19.5994 6.80002 18.154 5.35957 16.2754 5.35938Z" fill="white"/>
</svg>
