<svg width="24" height="24" viewBox="0 0 24 24" fill="none" xmlns="http://www.w3.org/2000/svg">
<path d="M12 2.75C17.1086 2.75 21.25 6.89136 21.25 12C21.25 17.1086 17.1086 21.25 12 21.25C6.89136 21.25 2.75 17.1086 2.75 12H4.6C4.6 16.0869 7.91309 19.4 12 19.4C16.0869 19.4 19.4 16.0869 19.4 12C19.4 7.91309 16.0869 4.6 12 4.6C9.72093 4.6 7.6825 5.63029 6.32505 7.25052L8.3 9.225H2.75V3.675L5.01307 5.93799C6.70902 3.98496 9.21029 2.75 12 2.75ZM12.925 7.375L12.9248 11.6161L15.9244 14.6163L14.6163 15.9244L11.0748 12.382L11.075 7.375H12.925Z" fill="white"/>
</svg>
