<svg width="20" height="20" viewBox="0 0 20 20" fill="none" xmlns="http://www.w3.org/2000/svg">
<path d="M5.83333 12.5C6.52777 12.5 7.11805 12.2569 7.60416 11.7708C8.09027 11.2847 8.33333 10.6944 8.33333 10C8.33333 9.30556 8.09027 8.71528 7.60416 8.22917C7.11805 7.74306 6.52777 7.5 5.83333 7.5C5.13888 7.5 4.54861 7.74306 4.06249 8.22917C3.57638 8.71528 3.33333 9.30556 3.33333 10C3.33333 10.6944 3.57638 11.2847 4.06249 11.7708C4.54861 12.2569 5.13888 12.5 5.83333 12.5ZM5.83333 15C4.44444 15 3.26388 14.5139 2.29166 13.5417C1.31944 12.5694 0.833328 11.3889 0.833328 10C0.833328 8.61111 1.31944 7.43056 2.29166 6.45833C3.26388 5.48611 4.44444 5 5.83333 5C6.95833 5 7.94111 5.31944 8.78166 5.95833C9.62222 6.59722 10.2089 7.38889 10.5417 8.33333H17.5208L19.1667 9.97917L16.25 13.3125L14.1667 11.6667L12.5 13.3333L10.8333 11.6667H10.5417C10.1944 12.6667 9.59027 13.4722 8.72916 14.0833C7.86805 14.6944 6.90277 15 5.83333 15Z" fill="white"/>
</svg>
