<svg width="24" height="24" viewBox="0 0 24 24" fill="none" xmlns="http://www.w3.org/2000/svg">
<path d="M4.8 3H19.2C19.6774 3 20.1352 3.18964 20.4728 3.52721C20.8104 3.86477 21 4.32261 21 4.8V15.6C21 16.0774 20.8104 16.5352 20.4728 16.8728C20.1352 17.2104 19.6774 17.4 19.2 17.4H15.6L12 21L8.4 17.4H4.8C4.32261 17.4 3.86477 17.2104 3.52721 16.8728C3.18964 16.5352 3 16.0774 3 15.6V4.8C3 4.32261 3.18964 3.86477 3.52721 3.52721C3.86477 3.18964 4.32261 3 4.8 3ZM18.3 14.7V7.5L14.7 11.1L12.9 9.3L7.5 14.7H18.3ZM7.5 5.7C7.02261 5.7 6.56477 5.88964 6.22721 6.22721C5.88964 6.56477 5.7 7.02261 5.7 7.5C5.7 7.97739 5.88964 8.43523 6.22721 8.77279C6.56477 9.11036 7.02261 9.3 7.5 9.3C7.97739 9.3 8.43523 9.11036 8.77279 8.77279C9.11036 8.43523 9.3 7.97739 9.3 7.5C9.3 7.02261 9.11036 6.56477 8.77279 6.22721C8.43523 5.88964 7.97739 5.7 7.5 5.7Z" fill="white"/>
</svg>
