<svg width="24" height="24" viewBox="0 0 24 24" fill="none" xmlns="http://www.w3.org/2000/svg">
<path fill-rule="evenodd" clip-rule="evenodd" d="M19.2045 9.22596H4.51967C3.32595 9.22596 2.71429 8.49525 2.71429 7.2426V5.48336C2.71429 4.23071 3.37527 3.5 4.51967 3.5H19.2045C20.3982 3.5 21 4.23071 21 5.48336V7.2426C21 8.49525 20.3982 9.22596 19.2045 9.22596ZM4.43659 7.68722C4.45766 7.68928 4.48508 7.69085 4.51967 7.69085H19.2045C19.235 7.69085 19.2598 7.68963 19.2795 7.68794C19.2822 7.68037 19.285 7.6719 19.2879 7.66246C19.3128 7.58154 19.3377 7.44611 19.3377 7.2426V5.48336C19.3377 5.27986 19.3128 5.14443 19.2879 5.0635C19.285 5.05407 19.2822 5.04559 19.2795 5.03802C19.2598 5.03633 19.235 5.03511 19.2045 5.03511H4.51967C4.48814 5.03511 4.46394 5.03676 4.44615 5.03878C4.42053 5.09486 4.37662 5.22786 4.37662 5.48336V7.2426C4.37662 7.48712 4.41227 7.62277 4.43659 7.68722Z" fill="white"/>
<path d="M16.4286 18.6977C17.4844 18.6977 18.3403 17.9073 18.3403 16.9323V11.1756H20.1688V16.9323C20.1688 18.8399 18.4943 20.3863 16.4286 20.3863H13.0762V18.6977H16.4286Z" fill="white"/>
<path d="M10.4563 20.8297L3.29463 10.5318L2.28657 11.2021L3.59143 13.0784C3.58816 13.0802 3.58489 13.0821 3.58164 13.084C2.55246 13.6878 1.91882 14.352 1.53875 14.8829C1.34936 15.1475 1.22429 15.377 1.14471 15.5467C1.10493 15.6316 1.07652 15.7015 1.05711 15.7535C1.0474 15.7795 1.03994 15.801 1.03443 15.8176C1.03168 15.8259 1.02941 15.833 1.02759 15.8388L1.0252 15.8466L1.02425 15.8498L1.02383 15.8512C1.02383 15.8512 1.02345 15.8525 1.60952 16.0162L1.02345 15.8525C0.984643 15.9853 0.994221 16.1272 1.05055 16.2539L1.60952 16.0162C1.05055 16.2539 1.05055 16.2539 1.05055 16.2539L1.05112 16.2551L1.05186 16.2568L1.0539 16.2613L1.06016 16.2749C1.0653 16.286 1.0724 16.301 1.08148 16.3197C1.09963 16.3571 1.12574 16.4091 1.16003 16.4733C1.22851 16.6015 1.33011 16.7791 1.46662 16.9857C1.73836 17.3969 2.15551 17.9336 2.73494 18.4229C3.87641 19.3868 5.63154 20.1449 8.02487 19.4533L9.44824 21.5L10.4563 20.8297ZM7.29748 18.4074C5.5697 18.7865 4.35411 18.2152 3.53173 17.5208C3.06354 17.1254 2.71878 16.6842 2.49052 16.3388C2.40098 16.2033 2.33047 16.0842 2.2784 15.9908C2.33204 15.8835 2.41491 15.7376 2.53744 15.5665C2.82404 15.1661 3.33326 14.6198 4.20884 14.1061C4.23218 14.0924 4.25425 14.0774 4.27501 14.0613L5.0367 15.1565C4.91397 15.26 4.80935 15.3826 4.7272 15.5197C4.62923 15.6831 4.56514 15.8638 4.5386 16.0514C4.51205 16.239 4.52355 16.4299 4.57246 16.6132C4.62137 16.7965 4.70672 16.9686 4.82363 17.1196C4.94055 17.2707 5.08675 17.3977 5.25388 17.4935C5.42101 17.5893 5.6058 17.6519 5.79769 17.6779C5.98959 17.7039 6.18484 17.6926 6.37228 17.6448C6.481 17.617 6.58587 17.5773 6.68491 17.5265L7.29748 18.4074Z" fill="white"/>
<path fill-rule="evenodd" clip-rule="evenodd" d="M6.33946 12.7658C6.29185 13.0916 6.52341 13.3935 6.85666 13.4401C7.99521 13.5991 8.92457 14.2829 9.59342 14.9805C9.92338 15.3246 10.1773 15.6591 10.3481 15.907C10.3841 15.9592 10.4163 16.0074 10.4446 16.0508C10.4098 16.1177 10.3677 16.1949 10.3184 16.2793C10.1444 16.577 9.88971 16.9481 9.55948 17.271C9.32144 17.5038 9.32144 17.8811 9.55948 18.1139C9.79751 18.3466 10.1834 18.3466 10.4215 18.1139C10.8532 17.6918 11.1699 17.2248 11.3768 16.8707C11.4812 16.692 11.56 16.5381 11.6134 16.4271C11.6402 16.3716 11.6607 16.3265 11.6749 16.2943C11.6821 16.2781 11.6877 16.2651 11.6917 16.2556L11.6966 16.2439L11.6982 16.2401L11.6992 16.2378L11.1333 16.0162C11.6711 15.7358 11.6707 15.735 11.6707 15.735L11.6701 15.7339L11.6685 15.731L11.6636 15.7221C11.6595 15.7149 11.654 15.7051 11.6469 15.6928C11.6328 15.6683 11.6127 15.6339 11.5866 15.591C11.5345 15.5052 11.4584 15.385 11.359 15.2408C11.1608 14.9533 10.8671 14.5661 10.4828 14.1652C9.72305 13.3729 8.55717 12.4735 7.02906 12.2601C6.69581 12.2135 6.38707 12.4399 6.33946 12.7658Z" fill="white"/>
<path d="M11.6992 16.2378C11.7659 16.0747 11.7553 15.89 11.6707 15.735L11.1333 16.0162C11.6993 16.2376 11.6992 16.2378 11.6992 16.2378Z" fill="white"/>
</svg>
