<svg width="20" height="20" viewBox="0 0 20 20" fill="none" xmlns="http://www.w3.org/2000/svg">
<path d="M10 5.83352C11.7681 5.83352 13.4638 6.53589 14.7141 7.78614C15.9643 9.03638 16.6667 10.7321 16.6667 12.5002C16.6667 14.2683 15.9643 15.964 14.7141 17.2142C13.4638 18.4645 11.7681 19.1668 10 19.1668C8.2319 19.1668 6.53621 18.4645 5.28596 17.2142C4.03572 15.964 3.33334 14.2683 3.33334 12.5002C3.33334 10.7321 4.03572 9.03638 5.28596 7.78614C6.53621 6.53589 8.2319 5.83352 10 5.83352ZM10 8.75018L8.89834 10.9835L6.43334 11.3418L8.21668 13.0793L7.79584 15.5343L10 14.3752L12.2042 15.5335L11.7833 13.0793L13.5667 11.341L11.1017 10.9827L10 8.75018ZM10.8333 1.66602L15 1.66685V4.16685L13.8642 5.11518C12.9218 4.62028 11.8926 4.31239 10.8333 4.20852V1.66602ZM9.16668 1.66602V4.20768C8.10766 4.31167 7.07875 4.61955 6.13668 5.11435L5.00001 4.16685V1.66685L9.16668 1.66602Z" fill="white"/>
</svg>
