<svg width="24" height="24" viewBox="0 0 24 24" fill="none" xmlns="http://www.w3.org/2000/svg">
<path d="M6.28574 22C5.76193 22 5.31368 21.8137 4.94098 21.441C4.56828 21.0683 4.38162 20.6197 4.38098 20.0952V10.5714C4.38098 10.0476 4.56765 9.59937 4.94098 9.22667C5.31431 8.85397 5.76257 8.6673 6.28574 8.66667H7.23812V6.7619C7.23812 5.44444 7.70257 4.32159 8.63146 3.39333C9.56035 2.46508 10.6832 2.00064 12 2C13.3169 1.99937 14.44 2.46381 15.3696 3.39333C16.2991 4.32286 16.7632 5.44571 16.7619 6.7619V8.66667H17.7143C18.2381 8.66667 18.6867 8.85333 19.06 9.22667C19.4334 9.6 19.6197 10.0483 19.6191 10.5714V20.0952C19.6191 20.619 19.4327 21.0676 19.06 21.441C18.6873 21.8143 18.2388 22.0006 17.7143 22H6.28574ZM6.28574 20.0952H17.7143V10.5714H6.28574V20.0952ZM12 17.2381C12.5238 17.2381 12.9724 17.0517 13.3457 16.679C13.7191 16.3063 13.9054 15.8578 13.9048 15.3333C13.9042 14.8089 13.7178 14.3606 13.3457 13.9886C12.9737 13.6165 12.5251 13.4298 12 13.4286C11.4749 13.4273 11.0267 13.614 10.6553 13.9886C10.2838 14.3632 10.0972 14.8114 10.0953 15.3333C10.0934 15.8552 10.28 16.3038 10.6553 16.679C11.0305 17.0543 11.4788 17.2406 12 17.2381ZM9.14289 8.66667H14.8572V6.7619C14.8572 5.96825 14.5794 5.29365 14.0238 4.7381C13.4683 4.18254 12.7937 3.90476 12 3.90476C11.2064 3.90476 10.5318 4.18254 9.97622 4.7381C9.42066 5.29365 9.14289 5.96825 9.14289 6.7619V8.66667Z" fill="white"/>
</svg>
