<svg width="24" height="24" viewBox="0 0 24 24" fill="none" xmlns="http://www.w3.org/2000/svg">
<path d="M14.825 3C15.3024 3 15.7601 3.18978 16.0977 3.52734C16.4352 3.86491 16.625 4.32261 16.625 4.8V6.6H14.825V4.8H6.725V19.2H14.825V17.4H16.625V19.2C16.625 19.6774 16.4352 20.1351 16.0977 20.4727C15.7601 20.8102 15.3024 21 14.825 21H6.725C6.24761 21 5.78991 20.8102 5.45235 20.4727C5.11478 20.1351 4.925 19.6774 4.925 19.2V4.8C4.925 4.32261 5.11478 3.86491 5.45235 3.52734C5.78991 3.18978 6.24761 3 6.725 3H14.825Z" fill="white"/>
<path d="M21.575 12L17.075 16.5L15.8059 15.2309L18.1279 12.9H9.425V11.1H18.1279L15.8059 8.76914L17.075 7.5L21.575 12Z" fill="white"/>
</svg>
