<svg width="22" height="22" viewBox="0 0 22 22" fill="none" xmlns="http://www.w3.org/2000/svg">
<rect x="6.92188" y="10.9219" width="5.783" height="5.783" rx="0.4" transform="rotate(-45 6.92188 10.9219)" fill="currentColor"/>
<path d="M16.3815 12.1208C16.4566 12.0455 16.5585 12.0032 16.6648 12.0032L21.0392 12.0032C21.3956 12.0032 21.574 12.434 21.322 12.686L12.6877 21.3203C12.4357 21.5723 12.0049 21.3939 12.0049 21.0375L12.0049 16.6761C12.0049 16.5703 12.0469 16.4687 12.1216 16.3937L16.3815 12.1208Z" fill="currentColor" fill-opacity="0.6"/>
<path d="M5.62337 12.1176C5.54833 12.0423 5.4464 12 5.3401 12L0.965685 12C0.609323 12 0.430857 12.4309 0.682843 12.6828L9.31716 21.3172C9.56914 21.5691 10 21.3907 10 21.0343L10 16.673C10 16.5671 9.95802 16.4655 9.88327 16.3905L5.62337 12.1176Z" fill="currentColor"/>
<path d="M16.3786 9.88558C16.4536 9.96086 16.5556 10.0032 16.6619 10.0032H21.0363C21.3926 10.0032 21.5711 9.57232 21.3191 9.32033L12.6848 0.686018C12.4328 0.434032 12.002 0.612498 12.002 0.96886L12.002 5.33022C12.002 5.43609 12.0439 5.53765 12.1187 5.61263L16.3786 9.88558Z" fill="currentColor"/>
<path d="M5.62337 9.88241C5.54833 9.95769 5.4464 10 5.3401 10H0.965685C0.609324 10 0.430857 9.56914 0.682843 9.31716L9.31716 0.682844C9.56914 0.430858 10 0.609324 10 0.965686L10 5.32705C10 5.43292 9.95802 5.53448 9.88327 5.60946L5.62337 9.88241Z" fill="currentColor" fill-opacity="0.6"/>
</svg>
