<svg width="24" height="24" viewBox="0 0 24 24" fill="none" xmlns="http://www.w3.org/2000/svg">
<path d="M6.64926 6.23116C8.16711 5.01484 10.0549 4.35353 12 4.35679C14.0239 4.35679 15.884 5.05777 17.3507 6.23116L18.7346 4.84729L20.0813 6.19401L18.6974 7.57789C19.552 8.64771 20.1378 9.90669 20.4059 11.2494C20.674 12.5921 20.6165 13.9796 20.2383 15.2955C19.8601 16.6115 19.1721 17.8177 18.232 18.8131C17.2919 19.8086 16.1269 20.5644 14.8348 21.0172C13.5426 21.47 12.1607 21.6067 10.8048 21.4158C9.44899 21.2249 8.15859 20.7119 7.04168 19.9199C5.92477 19.1279 5.01384 18.0798 4.38515 16.8635C3.75646 15.6471 3.42831 14.2978 3.42816 12.9286C3.42816 10.9047 4.12915 9.04462 5.30253 7.57789L3.91866 6.19497L5.26539 4.84824L6.64926 6.23116ZM12 19.5956C12.8755 19.5956 13.7425 19.4231 14.5513 19.0881C15.3602 18.753 16.0952 18.262 16.7143 17.6429C17.3333 17.0238 17.8244 16.2888 18.1595 15.48C18.4945 14.6711 18.667 13.8041 18.667 12.9286C18.667 12.0531 18.4945 11.1861 18.1595 10.3773C17.8244 9.5684 17.3333 8.83344 16.7143 8.21435C16.0952 7.59526 15.3602 7.10418 14.5513 6.76913C13.7425 6.43408 12.8755 6.26164 12 6.26164C10.2318 6.26164 8.53602 6.96405 7.28572 8.21435C6.03542 9.46465 5.33301 11.1604 5.33301 12.9286C5.33301 14.6968 6.03542 16.3926 7.28572 17.6429C8.53602 18.8932 10.2318 19.5956 12 19.5956ZM12.9524 11.9762H15.8097L11.0476 18.167V13.881H8.19029L12.9524 7.68551V11.9762ZM8.19029 1.49951H15.8097V3.40436H8.19029V1.49951Z" fill="white"/>
</svg>
