<svg width="24" height="24" viewBox="0 0 24 24" fill="none" xmlns="http://www.w3.org/2000/svg">
<path fill-rule="evenodd" clip-rule="evenodd" d="M9.10845 10.0281C9.10806 10.0404 9.10774 10.0527 9.1075 10.065C9.10747 10.0666 9.10744 10.0682 9.10741 10.0698C9.10706 10.09 9.10691 10.1103 9.10698 10.1307C9.10691 10.1087 9.10708 10.0868 9.1075 10.065C9.10774 10.0527 9.10806 10.0404 9.10845 10.0281C9.10845 10.0281 9.10845 10.0281 9.10845 10.0281ZM11.988 7.80506C12.8347 7.80506 13.4986 8.0242 13.9946 8.44897L13.9964 8.4505C14.4955 8.86383 14.7491 9.4357 14.7491 10.1847C14.7491 10.9258 14.4997 11.4755 14.0128 11.8563C13.5166 12.2363 12.8505 12.4333 12.0006 12.4333H11.8636L11.8133 13.3501H10.5433L10.4894 11.6153H10.9062C11.6444 11.6153 12.2307 11.5235 12.6526 11.328C12.8729 11.226 13.0445 11.0783 13.1598 10.8834C13.2744 10.6895 13.3277 10.4582 13.3277 10.1966C13.3277 9.81517 13.2074 9.49713 12.9565 9.25901C12.7134 9.02029 12.3843 8.90884 11.988 8.90884C11.5776 8.90884 11.237 9.01477 10.9849 9.24417L10.9829 9.24612C10.7702 9.44747 10.6553 9.71231 10.629 10.0281H9.2532C9.26683 9.62623 9.36945 9.2675 9.55884 8.94881C9.76947 8.59435 10.0784 8.31512 10.4915 8.11195C10.9127 7.90898 11.4102 7.80506 11.988 7.80506ZM12.0004 21.5005C6.75351 21.5005 2.50037 17.2473 2.50037 12.0005C2.50037 6.75364 6.75351 2.50049 12.0004 2.50049C17.2472 2.50049 21.5004 6.75364 21.5004 12.0005C21.5004 17.2473 17.2472 21.5005 12.0004 21.5005ZM12.0004 19.8609C14.0851 19.8609 16.0844 19.0327 17.5585 17.5586C19.0326 16.0845 19.8608 14.0852 19.8608 12.0005C19.8608 9.91578 19.0326 7.91645 17.5585 6.44234C16.0844 4.96823 14.0851 4.14008 12.0004 4.14008C9.91566 4.14008 7.91633 4.96823 6.44222 6.44234C4.96811 7.91645 4.13996 9.91578 4.13996 12.0005C4.13996 14.0852 4.96811 16.0845 6.44222 17.5586C7.91633 19.0327 9.91566 19.8609 12.0004 19.8609ZM12.0004 15.3761C12.0004 15.8289 11.6334 16.1959 11.1806 16.1959C10.7278 16.1959 10.3608 15.8289 10.3608 15.3761C10.3608 14.9234 10.7278 14.5563 11.1806 14.5563C11.6334 14.5563 12.0004 14.9234 12.0004 15.3761Z" fill="white"/>
</svg>
