<svg width="24" height="24" viewBox="0 0 24 24" fill="none" xmlns="http://www.w3.org/2000/svg">
<path d="M12.6472 2.60124L19.0222 4.64438C19.4513 4.7818 19.8257 5.05223 20.0913 5.41663C20.3569 5.78103 20.5 6.22054 20.5 6.67172V10.9526C20.5 12.8571 20.1114 14.8224 18.9178 16.6466C17.7241 18.4685 15.7789 20.0677 12.8075 21.3349C12.5522 21.4439 12.2775 21.5 12 21.5C11.7225 21.5 11.4478 21.4439 11.1925 21.3349C8.22114 20.0677 6.27586 18.4685 5.08221 16.6466C3.88857 14.8224 3.5 12.8571 3.5 10.9526V6.67172C3.49996 6.22054 3.64309 5.78103 3.90871 5.41663C4.17433 5.05223 4.54871 4.7818 4.97779 4.64438L11.3528 2.60124C11.7737 2.46625 12.2263 2.46625 12.6472 2.60124ZM11.9065 4.33913L11.9077 4.34034L5.53271 6.38349C5.47171 6.40318 5.41846 6.44163 5.38052 6.49338C5.34259 6.54512 5.32191 6.60753 5.32143 6.67172V10.9526C5.32143 12.6066 5.65536 14.1949 6.60493 15.6458C7.55693 17.0978 9.18043 18.494 11.9065 19.6566C11.9361 19.6693 11.9679 19.6758 12 19.6758C12.0321 19.6758 12.0639 19.6693 12.0935 19.6566C14.8196 18.4928 16.4431 17.0991 17.3951 15.647C18.3446 14.1949 18.6786 12.6041 18.6786 10.9526V6.67172C18.6785 6.60727 18.658 6.54451 18.6201 6.49248C18.5821 6.44046 18.5286 6.40186 18.4673 6.38227L12.0923 4.33913C12.0319 4.31968 11.9669 4.31968 11.9065 4.33913Z" fill="white"/>
<path fill-rule="evenodd" clip-rule="evenodd" d="M15.8037 10.5448L11.2031 14.8106L8.19628 12.0226L9.42872 10.7107L11.2031 12.356L14.5713 9.23297L15.8037 10.5448Z" fill="white"/>
</svg>
