<svg width="24" height="24" viewBox="0 0 24 24" fill="none" xmlns="http://www.w3.org/2000/svg">
<path d="M18.75 16.499C19.3467 16.499 19.919 16.262 20.341 15.84C20.7629 15.4181 21 14.8458 21 14.249V9.74902C21 9.15229 20.7629 8.57999 20.341 8.15803C19.919 7.73608 19.3467 7.49902 18.75 7.49902V16.499ZM16.5 17.249C16.5 17.8458 16.2629 18.4181 15.841 18.84C15.419 19.262 14.8467 19.499 14.25 19.499H14.1885C14.2298 19.2512 14.2503 19.0003 14.25 18.749V5.24902C14.25 4.99402 14.229 4.74352 14.1885 4.49902H14.25C14.8467 4.49902 15.419 4.73608 15.841 5.15803C16.2629 5.57999 16.5 6.15229 16.5 6.74902V17.249ZM12 5.24902L12 18.749C12 19.3458 11.7629 19.9181 11.341 20.34C10.919 20.762 10.3467 20.999 9.75 20.999H5.25C4.65326 20.999 4.08097 20.762 3.65901 20.34C3.23705 19.9181 3 19.3458 3 18.749V5.24902C3 4.65229 3.23705 4.07999 3.65901 3.65803C4.08097 3.23608 4.65326 2.99902 5.25 2.99902H9.75C10.3467 2.99902 10.919 3.23608 11.341 3.65803C11.7629 4.07999 12 4.65229 12 5.24902Z" fill="white"/>
</svg>
