<svg width="72" height="24" viewBox="0 0 72 24" fill="none" xmlns="http://www.w3.org/2000/svg">
<g clip-path="url(#clip0_13503_149807)">
<path d="M8.85 17.325L12 15.425L15.15 17.35L14.325 13.75L17.1 11.35L13.45 11.025L12 7.625L10.55 11L6.9 11.325L9.675 13.75L8.85 17.325ZM5.825 21.5L7.45 14.475L2 9.75L9.2 9.125L12 2.5L14.8 9.125L22 9.75L16.55 14.475L18.175 21.5L12 17.775L5.825 21.5Z" fill="white"/>
<path d="M53.825 21.5L55.45 14.475L50 9.75L57.2 9.125L60 2.5L62.8 9.125L70 9.75L64.55 14.475L66.175 21.5L60 17.775L53.825 21.5Z" fill="white"/>
</g>
<defs>
<clipPath id="clip0_13503_149807">
<rect width="72" height="24" fill="white"/>
</clipPath>
</defs>
</svg>
