<svg width="24" height="24" viewBox="0 0 24 24" fill="none" xmlns="http://www.w3.org/2000/svg">
<path d="M15 1.5H9V3.5H15V1.5ZM11 14.5H13V8.5H11V14.5ZM19.03 7.89L20.45 6.47C20.02 5.96 19.55 5.48 19.04 5.06L17.62 6.48C16.0273 5.19833 14.0443 4.49969 12 4.5C7.03 4.5 3 8.53 3 13.5C3 18.47 7.02 22.5 12 22.5C13.6943 22.5009 15.3544 22.0232 16.7891 21.122C18.2238 20.2207 19.3748 18.9325 20.1094 17.4057C20.8441 15.879 21.1325 14.1758 20.9415 12.4923C20.7506 10.8087 20.088 9.21341 19.03 7.89ZM12 20.5C8.13 20.5 5 17.37 5 13.5C5 9.63 8.13 6.5 12 6.5C15.87 6.5 19 9.63 19 13.5C19 17.37 15.87 20.5 12 20.5Z" fill="white"/>
</svg>
