<svg width="24" height="24" viewBox="0 0 24 24" fill="none" xmlns="http://www.w3.org/2000/svg">
<path fill-rule="evenodd" clip-rule="evenodd" d="M16.7222 8.22221C16.7222 10.8302 14.608 12.9444 12 12.9444C9.39198 12.9444 7.27777 10.8302 7.27777 8.22221C7.27777 5.61421 9.39198 3.5 12 3.5C14.608 3.5 16.7222 5.61421 16.7222 8.22221ZM14.8333 8.22221C14.8333 9.78702 13.5648 11.0555 12 11.0555C10.4352 11.0555 9.16666 9.78702 9.16666 8.22221C9.16666 6.65741 10.4352 5.38889 12 5.38889C13.5648 5.38889 14.8333 6.65741 14.8333 8.22221Z" fill="white"/>
<path d="M18.6111 18.6111C18.6111 17.5679 17.7654 16.7222 16.7222 16.7222H7.27777C6.23457 16.7222 5.38889 17.5679 5.38889 18.6111V20.5H4.44444C3.92284 20.5 3.5 20.0772 3.5 19.5556V18.6111C3.5 16.5247 5.19137 14.8333 7.27777 14.8333H16.7222C18.8086 14.8333 20.5 16.5247 20.5 18.6111V19.5556C20.5 20.0772 20.0771 20.5 19.5555 20.5H18.6111V18.6111Z" fill="white"/>
</svg>
