<svg width="24" height="24" viewBox="0 0 24 24" fill="none" xmlns="http://www.w3.org/2000/svg">
<path fill-rule="evenodd" clip-rule="evenodd" d="M10.2222 12.5359C10.9996 12.2973 11.6849 11.8507 12.2119 11.2615C12.4996 10.9399 12.7402 10.5759 12.9228 10.18C13.1524 9.68241 13.2905 9.13454 13.3158 8.55763C13.3186 8.49383 13.32 8.42969 13.32 8.36521C13.32 8.33686 13.3197 8.30857 13.3192 8.28034C13.3073 7.66571 13.1675 7.08218 12.9249 6.55491C12.7288 6.12849 12.4654 5.73886 12.1484 5.39935C11.5986 4.81063 10.8872 4.37257 10.0841 4.15456C9.71332 4.05389 9.32297 4.00014 8.91996 4.00014C6.4899 4.00014 4.51995 5.95445 4.51995 8.36521C4.51995 10.3265 5.82379 11.9856 7.61847 12.5362C8.02978 12.6623 8.46687 12.7303 8.91996 12.7303C9.37305 12.7303 9.8109 12.6621 10.2222 12.5359ZM13.119 4.4564C13.5333 4.87616 13.8905 5.37105 14.173 5.9047C14.3457 5.84201 14.5269 5.79672 14.7143 5.77095C14.8338 5.75452 14.9559 5.74603 15.08 5.74603C16.538 5.74603 17.72 6.91861 17.72 8.36507C17.72 9.81153 16.538 10.9841 15.08 10.9841C14.956 10.9841 14.8339 10.9756 14.7145 10.9592C14.5837 10.9412 14.456 10.9138 14.3321 10.8775C14.0576 11.4234 13.6906 11.9211 13.2536 12.3375C13.4004 12.404 13.5516 12.4628 13.7065 12.5133C13.7306 12.5211 13.7547 12.5287 13.7789 12.5362C13.7973 12.5418 13.8157 12.5473 13.8342 12.5527C13.8465 12.5563 13.8588 12.5599 13.8712 12.5633C14.1449 12.6408 14.4295 12.6926 14.7222 12.7159C14.8402 12.7253 14.9595 12.7301 15.08 12.7301C15.221 12.7301 15.3604 12.7236 15.498 12.7107C15.8024 12.6822 16.0979 12.623 16.381 12.5362C18.1759 11.9858 19.48 10.3265 19.48 8.36507C19.48 6.02169 17.6186 4.1096 15.2826 4.00455C15.2155 4.00153 15.1479 4 15.08 4C14.6003 4 14.1386 4.07615 13.7063 4.21693C13.6599 4.23204 13.6138 4.24791 13.5681 4.2645C13.4142 4.32037 13.2643 4.38451 13.119 4.4564ZM21.24 19.7143H22.12C22.606 19.7143 23 19.3234 23 18.8413V17.9682C23 16.0835 21.4949 14.5475 19.6121 14.4786C19.5683 14.477 19.5242 14.4762 19.48 14.4762H17.2182C17.6725 14.9718 18.0385 15.5828 18.2794 16.2222H19.48C20.452 16.2222 21.24 17.0039 21.24 17.9682V19.7143ZM4.52001 14.4762C2.57632 14.4762 1.00059 16.0391 1 17.9672L1 17.9683V18.8413C1 19.3234 1.39399 19.7143 1.88 19.7143H2.75997V17.9683C2.76026 17.0042 3.54817 16.2222 4.52001 16.2222H13.32C14.2882 16.2222 15.0738 16.9978 15.08 17.9569C15.08 17.9607 15.08 17.9645 15.08 17.9683L15.08 19.7143H15.96C16.446 19.7143 16.84 19.3234 16.84 18.8413V17.9683C16.84 17.9598 16.84 17.9513 16.8399 17.9428C16.8371 17.5523 16.7697 17.1772 16.6478 16.8272C16.4924 16.381 16.2484 15.9759 15.9366 15.6324C15.6516 15.3183 15.3099 15.0558 14.9275 14.8608C14.7451 14.7677 14.5534 14.69 14.3541 14.6293C14.0936 14.55 13.8201 14.4999 13.5377 14.4828C13.4657 14.4784 13.3931 14.4762 13.32 14.4762H4.52001ZM8.91996 10.7903C7.56993 10.7903 6.47551 9.70452 6.47551 8.36521C6.47551 7.0259 7.56993 5.94017 8.91996 5.94017C10.27 5.94017 11.3644 7.0259 11.3644 8.36521C11.3644 9.70452 10.27 10.7903 8.91996 10.7903Z" fill="white"/>
</svg>
