<svg width="24" height="24" viewBox="0 0 24 24" fill="none" xmlns="http://www.w3.org/2000/svg">
<path d="M3 9.99218V14.0115C3 14.5641 3.45 15.0163 4 15.0163H7L10.29 18.3222C10.92 18.9552 12 18.503 12 17.6087V6.38487C12 5.49057 10.92 5.03841 10.29 5.67144L7 8.98736H4C3.45 8.98736 3 9.43953 3 9.99218ZM16.5 12.0018C16.5 10.2233 15.48 8.69596 14 7.95239V16.0412C15.48 15.3077 16.5 13.7804 16.5 12.0018ZM14 4.41542V4.61638C14 4.99821 14.25 5.3298 14.6 5.47048C17.18 6.50545 19 9.04764 19 12.0018C19 14.956 17.18 17.4982 14.6 18.5332C14.24 18.6738 14 19.0054 14 19.3873V19.5882C14 20.2213 14.63 20.6634 15.21 20.4423C18.6 19.1461 21 15.8603 21 12.0018C21 8.14331 18.6 4.85754 15.21 3.56132C14.63 3.33021 14 3.78238 14 4.41542Z" fill="white"/>
</svg>
